<?xml version="1.0" encoding="UTF-8" standalone="no"?>
<!DOCTYPE svg PUBLIC "-//W3C//DTD SVG 1.1//EN"
 "http://www.w3.org/Graphics/SVG/1.1/DTD/svg11.dtd">
<!-- Generated by graphviz version 10.0.1 (20240210.2158)
 -->
<!-- Title: di_graph Pages: 1 -->
<svg width="153pt" height="188pt"
 viewBox="0.00 0.00 153.00 188.00" xmlns="http://www.w3.org/2000/svg" xmlns:xlink="http://www.w3.org/1999/xlink">
<g id="graph0" class="graph" transform="scale(1 1) rotate(0) translate(4 184)">
<title>di_graph</title>
<polygon fill="white" stroke="none" points="-4,4 -4,-184 149,-184 149,4 -4,4"/>
<!-- 4 -->
<g id="node1" class="node">
<title>4</title>
<ellipse fill="none" stroke="black" cx="73" cy="-162" rx="27" ry="18"/>
<text text-anchor="middle" x="73" y="-156.95" font-family="Times,serif" font-size="14.00">4</text>
</g>
<!-- 1 -->
<g id="node4" class="node">
<title>1</title>
<ellipse fill="none" stroke="black" cx="73" cy="-90" rx="27" ry="18"/>
<text text-anchor="middle" x="73" y="-84.95" font-family="Times,serif" font-size="14.00">1</text>
</g>
<!-- 4&#45;&gt;1 -->
<g id="edge5" class="edge">
<title>4&#45;&gt;1</title>
<path fill="none" stroke="black" d="M73,-143.7C73,-136.41 73,-127.73 73,-119.54"/>
<polygon fill="black" stroke="black" points="76.5,-119.62 73,-109.62 69.5,-119.62 76.5,-119.62"/>
</g>
<!-- 3 -->
<g id="node2" class="node">
<title>3</title>
<ellipse fill="none" stroke="black" cx="27" cy="-18" rx="27" ry="18"/>
<text text-anchor="middle" x="27" y="-12.95" font-family="Times,serif" font-size="14.00">3</text>
</g>
<!-- 3&#45;&gt;4 -->
<g id="edge4" class="edge">
<title>3&#45;&gt;4</title>
<path fill="none" stroke="black" d="M26.52,-36.29C26.56,-54.65 28.21,-84.23 37,-108 40.76,-118.16 46.86,-128.25 52.99,-136.87"/>
<polygon fill="black" stroke="black" points="50.06,-138.8 58.88,-144.68 55.65,-134.59 50.06,-138.8"/>
</g>
<!-- 2 -->
<g id="node3" class="node">
<title>2</title>
<ellipse fill="none" stroke="black" cx="118" cy="-18" rx="27" ry="18"/>
<text text-anchor="middle" x="118" y="-12.95" font-family="Times,serif" font-size="14.00">2</text>
</g>
<!-- 2&#45;&gt;4 -->
<g id="edge1" class="edge">
<title>2&#45;&gt;4</title>
<path fill="none" stroke="black" d="M118.72,-36.28C118.93,-54.63 117.65,-84.21 109,-108 105.3,-118.18 99.21,-128.28 93.08,-136.89"/>
<polygon fill="black" stroke="black" points="90.41,-134.61 87.18,-144.7 96,-138.83 90.41,-134.61"/>
</g>
<!-- 1&#45;&gt;3 -->
<g id="edge3" class="edge">
<title>1&#45;&gt;3</title>
<path fill="none" stroke="black" d="M62.56,-73.12C56.97,-64.61 49.96,-53.94 43.64,-44.32"/>
<polygon fill="black" stroke="black" points="46.64,-42.52 38.23,-36.09 40.79,-46.37 46.64,-42.52"/>
</g>
<!-- 1&#45;&gt;2 -->
<g id="edge2" class="edge">
<title>1&#45;&gt;2</title>
<path fill="none" stroke="black" d="M83.21,-73.12C88.68,-64.61 95.54,-53.94 101.72,-44.32"/>
<polygon fill="black" stroke="black" points="104.55,-46.4 107.01,-36.09 98.66,-42.61 104.55,-46.4"/>
</g>
</g>
</svg>
