<?xml version="1.0" encoding="UTF-8" standalone="no"?>
<!DOCTYPE svg PUBLIC "-//W3C//DTD SVG 1.1//EN"
 "http://www.w3.org/Graphics/SVG/1.1/DTD/svg11.dtd">
<!-- Generated by graphviz version 10.0.1 (20240210.2158)
 -->
<!-- Title: di_graph Pages: 1 -->
<svg width="180pt" height="476pt"
 viewBox="0.00 0.00 180.43 476.00" xmlns="http://www.w3.org/2000/svg" xmlns:xlink="http://www.w3.org/1999/xlink">
<g id="graph0" class="graph" transform="scale(1 1) rotate(0) translate(4 472)">
<title>di_graph</title>
<polygon fill="white" stroke="none" points="-4,4 -4,-472 176.43,-472 176.43,4 -4,4"/>
<!-- 3 -->
<g id="node1" class="node">
<title>3</title>
<ellipse fill="none" stroke="black" cx="108.43" cy="-450" rx="27" ry="18"/>
<text text-anchor="middle" x="108.43" y="-444.95" font-family="Times,serif" font-size="14.00">3</text>
</g>
<!-- 6 -->
<g id="node6" class="node">
<title>6</title>
<ellipse fill="none" stroke="black" cx="81.43" cy="-378" rx="27" ry="18"/>
<text text-anchor="middle" x="81.43" y="-372.95" font-family="Times,serif" font-size="14.00">6</text>
</g>
<!-- 3&#45;&gt;6 -->
<g id="edge8" class="edge">
<title>3&#45;&gt;6</title>
<path fill="none" stroke="black" d="M101.89,-432.05C98.91,-424.32 95.29,-414.96 91.94,-406.27"/>
<polygon fill="black" stroke="black" points="95.31,-405.27 88.45,-397.2 88.78,-407.79 95.31,-405.27"/>
</g>
<!-- 9 -->
<g id="node2" class="node">
<title>9</title>
<ellipse fill="none" stroke="black" cx="117.43" cy="-234" rx="27" ry="18"/>
<text text-anchor="middle" x="117.43" y="-228.95" font-family="Times,serif" font-size="14.00">9</text>
</g>
<!-- 10 -->
<g id="node3" class="node">
<title>10</title>
<ellipse fill="none" stroke="black" cx="117.43" cy="-162" rx="27" ry="18"/>
<text text-anchor="middle" x="117.43" y="-156.95" font-family="Times,serif" font-size="14.00">10</text>
</g>
<!-- 9&#45;&gt;10 -->
<g id="edge6" class="edge">
<title>9&#45;&gt;10</title>
<path fill="none" stroke="black" d="M117.43,-215.7C117.43,-208.41 117.43,-199.73 117.43,-191.54"/>
<polygon fill="black" stroke="black" points="120.93,-191.62 117.43,-181.62 113.93,-191.62 120.93,-191.62"/>
</g>
<!-- 1 -->
<g id="node7" class="node">
<title>1</title>
<ellipse fill="none" stroke="black" cx="45.43" cy="-162" rx="27" ry="18"/>
<text text-anchor="middle" x="45.43" y="-156.95" font-family="Times,serif" font-size="14.00">1</text>
</g>
<!-- 9&#45;&gt;1 -->
<g id="edge7" class="edge">
<title>9&#45;&gt;1</title>
<path fill="none" stroke="black" d="M102.51,-218.5C92.66,-208.92 79.56,-196.19 68.4,-185.34"/>
<polygon fill="black" stroke="black" points="71.02,-183 61.41,-178.54 66.14,-188.02 71.02,-183"/>
</g>
<!-- 5 -->
<g id="node4" class="node">
<title>5</title>
<ellipse fill="none" stroke="black" cx="72.43" cy="-18" rx="27" ry="18"/>
<text text-anchor="middle" x="72.43" y="-12.95" font-family="Times,serif" font-size="14.00">5</text>
</g>
<!-- 2 -->
<g id="node5" class="node">
<title>2</title>
<ellipse fill="none" stroke="black" cx="108.43" cy="-90" rx="27" ry="18"/>
<text text-anchor="middle" x="108.43" y="-84.95" font-family="Times,serif" font-size="14.00">2</text>
</g>
<!-- 2&#45;&gt;3 -->
<g id="edge1" class="edge">
<title>2&#45;&gt;3</title>
<path fill="none" stroke="black" d="M123.61,-104.87C133.57,-114.82 146.07,-129.05 153.43,-144 171.28,-180.29 172.43,-192.55 172.43,-233 172.43,-307 172.43,-307 172.43,-307 172.43,-351.55 145.91,-397.58 127.02,-424.73"/>
<polygon fill="black" stroke="black" points="124.35,-422.44 121.35,-432.61 130.03,-426.53 124.35,-422.44"/>
</g>
<!-- 2&#45;&gt;5 -->
<g id="edge2" class="edge">
<title>2&#45;&gt;5</title>
<path fill="none" stroke="black" d="M100.08,-72.76C95.85,-64.55 90.62,-54.37 85.84,-45.09"/>
<polygon fill="black" stroke="black" points="89.11,-43.79 81.42,-36.49 82.88,-46.99 89.11,-43.79"/>
</g>
<!-- 4 -->
<g id="node8" class="node">
<title>4</title>
<ellipse fill="none" stroke="black" cx="144.43" cy="-18" rx="27" ry="18"/>
<text text-anchor="middle" x="144.43" y="-12.95" font-family="Times,serif" font-size="14.00">4</text>
</g>
<!-- 2&#45;&gt;4 -->
<g id="edge3" class="edge">
<title>2&#45;&gt;4</title>
<path fill="none" stroke="black" d="M116.78,-72.76C121,-64.55 126.23,-54.37 131.01,-45.09"/>
<polygon fill="black" stroke="black" points="133.97,-46.99 135.43,-36.49 127.74,-43.79 133.97,-46.99"/>
</g>
<!-- 6&#45;&gt;1 -->
<g id="edge11" class="edge">
<title>6&#45;&gt;1</title>
<path fill="none" stroke="black" d="M58.98,-367.43C41.93,-358.81 19.72,-344.36 9.43,-324 -12.96,-279.72 11.44,-221.63 29.55,-188.71"/>
<polygon fill="black" stroke="black" points="32.46,-190.68 34.4,-180.27 26.39,-187.2 32.46,-190.68"/>
</g>
<!-- 7 -->
<g id="node9" class="node">
<title>7</title>
<ellipse fill="none" stroke="black" cx="45.43" cy="-306" rx="27" ry="18"/>
<text text-anchor="middle" x="45.43" y="-300.95" font-family="Times,serif" font-size="14.00">7</text>
</g>
<!-- 6&#45;&gt;7 -->
<g id="edge9" class="edge">
<title>6&#45;&gt;7</title>
<path fill="none" stroke="black" d="M73.08,-360.76C68.85,-352.55 63.62,-342.37 58.84,-333.09"/>
<polygon fill="black" stroke="black" points="62.11,-331.79 54.42,-324.49 55.88,-334.99 62.11,-331.79"/>
</g>
<!-- 8 -->
<g id="node10" class="node">
<title>8</title>
<ellipse fill="none" stroke="black" cx="117.43" cy="-306" rx="27" ry="18"/>
<text text-anchor="middle" x="117.43" y="-300.95" font-family="Times,serif" font-size="14.00">8</text>
</g>
<!-- 6&#45;&gt;8 -->
<g id="edge10" class="edge">
<title>6&#45;&gt;8</title>
<path fill="none" stroke="black" d="M89.78,-360.76C94,-352.55 99.23,-342.37 104.01,-333.09"/>
<polygon fill="black" stroke="black" points="106.97,-334.99 108.43,-324.49 100.74,-331.79 106.97,-334.99"/>
</g>
<!-- 1&#45;&gt;2 -->
<g id="edge4" class="edge">
<title>1&#45;&gt;2</title>
<path fill="none" stroke="black" d="M58.79,-146.15C67.14,-136.87 78.07,-124.73 87.55,-114.19"/>
<polygon fill="black" stroke="black" points="89.98,-116.72 94.07,-106.95 84.78,-112.04 89.98,-116.72"/>
</g>
<!-- 8&#45;&gt;9 -->
<g id="edge5" class="edge">
<title>8&#45;&gt;9</title>
<path fill="none" stroke="black" d="M117.43,-287.7C117.43,-280.41 117.43,-271.73 117.43,-263.54"/>
<polygon fill="black" stroke="black" points="120.93,-263.62 117.43,-253.62 113.93,-263.62 120.93,-263.62"/>
</g>
</g>
</svg>
