<?xml version="1.0" encoding="UTF-8" standalone="no"?>
<!DOCTYPE svg PUBLIC "-//W3C//DTD SVG 1.1//EN"
 "http://www.w3.org/Graphics/SVG/1.1/DTD/svg11.dtd">
<!-- Generated by graphviz version 5.0.0 (0)
 -->
<!-- Title: di_graph Pages: 1 -->
<svg width="333pt" height="479pt"
 viewBox="0.00 0.00 333.00 479.00" xmlns="http://www.w3.org/2000/svg" xmlns:xlink="http://www.w3.org/1999/xlink">
<g id="graph0" class="graph" transform="scale(1 1) rotate(0) translate(4 475)">
<title>di_graph</title>
<polygon fill="white" stroke="transparent" points="-4,4 -4,-475 329,-475 329,4 -4,4"/>
<!-- 10 -->
<g id="node1" class="node">
<title>10</title>
<ellipse fill="none" stroke="black" cx="82" cy="-366" rx="27" ry="18"/>
<text text-anchor="middle" x="82" y="-362.3" font-family="Times,serif" font-size="14.00">10 x</text>
</g>
<!-- 6 -->
<g id="node2" class="node">
<title>6</title>
<ellipse fill="none" stroke="black" cx="99" cy="-105" rx="27" ry="18"/>
<text text-anchor="middle" x="99" y="-101.3" font-family="Times,serif" font-size="14.00">6 x</text>
</g>
<!-- 8 -->
<g id="node3" class="node">
<title>8</title>
<ellipse fill="none" stroke="black" cx="27" cy="-18" rx="27" ry="18"/>
<text text-anchor="middle" x="27" y="-14.3" font-family="Times,serif" font-size="14.00">8 x</text>
</g>
<!-- 6&#45;&gt;8 -->
<g id="edge6" class="edge">
<title>6&#45;&gt;8</title>
<path fill="none" stroke="black" d="M86.13,-88.8C75.07,-75.75 58.96,-56.74 46.35,-41.85"/>
<polygon fill="black" stroke="black" points="48.89,-39.43 39.76,-34.06 43.55,-43.96 48.89,-39.43"/>
<text text-anchor="middle" x="71.5" y="-57.8" font-family="Times,serif" font-size="14.00">x</text>
</g>
<!-- 1 -->
<g id="node5" class="node">
<title>1</title>
<ellipse fill="none" stroke="black" cx="154" cy="-366" rx="27" ry="18"/>
<text text-anchor="middle" x="154" y="-362.3" font-family="Times,serif" font-size="14.00">1 x</text>
</g>
<!-- 6&#45;&gt;1 -->
<g id="edge7" class="edge">
<title>6&#45;&gt;1</title>
<path fill="none" stroke="black" d="M101.85,-122.98C105.36,-143.61 111.66,-179.45 118,-210 127.33,-255.01 139.74,-306.99 147.28,-337.86"/>
<polygon fill="black" stroke="black" points="143.95,-338.98 149.74,-347.86 150.75,-337.31 143.95,-338.98"/>
<text text-anchor="middle" x="128.5" y="-231.8" font-family="Times,serif" font-size="14.00">x</text>
</g>
<!-- 7 -->
<g id="node6" class="node">
<title>7</title>
<ellipse fill="none" stroke="black" cx="99" cy="-18" rx="27" ry="18"/>
<text text-anchor="middle" x="99" y="-14.3" font-family="Times,serif" font-size="14.00">7 x</text>
</g>
<!-- 6&#45;&gt;7 -->
<g id="edge8" class="edge">
<title>6&#45;&gt;7</title>
<path fill="none" stroke="black" d="M99,-86.8C99,-75.16 99,-59.55 99,-46.24"/>
<polygon fill="black" stroke="black" points="102.5,-46.18 99,-36.18 95.5,-46.18 102.5,-46.18"/>
<text text-anchor="middle" x="102.5" y="-57.8" font-family="Times,serif" font-size="14.00">x</text>
</g>
<!-- 9 -->
<g id="node10" class="node">
<title>9</title>
<ellipse fill="none" stroke="black" cx="82" cy="-453" rx="27" ry="18"/>
<text text-anchor="middle" x="82" y="-449.3" font-family="Times,serif" font-size="14.00">9 x</text>
</g>
<!-- 8&#45;&gt;9 -->
<g id="edge1" class="edge">
<title>8&#45;&gt;9</title>
<path fill="none" stroke="black" d="M27,-36.26C27,-53.43 27,-80.54 27,-104 27,-367 27,-367 27,-367 27,-391.92 43.87,-415.31 58.93,-431.22"/>
<polygon fill="black" stroke="black" points="56.55,-433.8 66.09,-438.41 61.51,-428.86 56.55,-433.8"/>
<text text-anchor="middle" x="30.5" y="-231.8" font-family="Times,serif" font-size="14.00">x</text>
</g>
<!-- 4 -->
<g id="node4" class="node">
<title>4</title>
<ellipse fill="none" stroke="black" cx="154" cy="-192" rx="27" ry="18"/>
<text text-anchor="middle" x="154" y="-188.3" font-family="Times,serif" font-size="14.00">4 x</text>
</g>
<!-- 2 -->
<g id="node7" class="node">
<title>2</title>
<ellipse fill="none" stroke="black" cx="190" cy="-279" rx="27" ry="18"/>
<text text-anchor="middle" x="190" y="-275.3" font-family="Times,serif" font-size="14.00">2 x</text>
</g>
<!-- 1&#45;&gt;2 -->
<g id="edge2" class="edge">
<title>1&#45;&gt;2</title>
<path fill="none" stroke="black" d="M161.11,-348.21C166.22,-336.14 173.21,-319.64 179.03,-305.89"/>
<polygon fill="black" stroke="black" points="182.35,-307.04 183.02,-296.47 175.9,-304.31 182.35,-307.04"/>
<text text-anchor="middle" x="177.5" y="-318.8" font-family="Times,serif" font-size="14.00">x</text>
</g>
<!-- 2&#45;&gt;4 -->
<g id="edge10" class="edge">
<title>2&#45;&gt;4</title>
<path fill="none" stroke="black" d="M182.89,-261.21C177.78,-249.14 170.79,-232.64 164.97,-218.89"/>
<polygon fill="black" stroke="black" points="168.1,-217.31 160.98,-209.47 161.65,-220.04 168.1,-217.31"/>
<text text-anchor="middle" x="177.5" y="-231.8" font-family="Times,serif" font-size="14.00">x</text>
</g>
<!-- 3 -->
<g id="node8" class="node">
<title>3</title>
<ellipse fill="none" stroke="black" cx="226" cy="-192" rx="27" ry="18"/>
<text text-anchor="middle" x="226" y="-188.3" font-family="Times,serif" font-size="14.00">3 x</text>
</g>
<!-- 2&#45;&gt;3 -->
<g id="edge9" class="edge">
<title>2&#45;&gt;3</title>
<path fill="none" stroke="black" d="M197.11,-261.21C202.22,-249.14 209.21,-232.64 215.03,-218.89"/>
<polygon fill="black" stroke="black" points="218.35,-220.04 219.02,-209.47 211.9,-217.31 218.35,-220.04"/>
<text text-anchor="middle" x="213.5" y="-231.8" font-family="Times,serif" font-size="14.00">x</text>
</g>
<!-- 5 -->
<g id="node9" class="node">
<title>5</title>
<ellipse fill="none" stroke="black" cx="298" cy="-192" rx="27" ry="18"/>
<text text-anchor="middle" x="298" y="-188.3" font-family="Times,serif" font-size="14.00">5 x</text>
</g>
<!-- 2&#45;&gt;5 -->
<g id="edge11" class="edge">
<title>2&#45;&gt;5</title>
<path fill="none" stroke="black" d="M206.88,-264.72C224.71,-250.68 253.01,-228.41 273.34,-212.41"/>
<polygon fill="black" stroke="black" points="275.55,-215.12 281.24,-206.19 271.22,-209.62 275.55,-215.12"/>
<text text-anchor="middle" x="253.5" y="-231.8" font-family="Times,serif" font-size="14.00">x</text>
</g>
<!-- 3&#45;&gt;6 -->
<g id="edge3" class="edge">
<title>3&#45;&gt;6</title>
<path fill="none" stroke="black" d="M207.53,-178.64C186.09,-164.29 150.53,-140.49 125.99,-124.06"/>
<polygon fill="black" stroke="black" points="127.75,-121.03 117.49,-118.37 123.85,-126.85 127.75,-121.03"/>
<text text-anchor="middle" x="173.5" y="-144.8" font-family="Times,serif" font-size="14.00">x</text>
</g>
<!-- 9&#45;&gt;10 -->
<g id="edge4" class="edge">
<title>9&#45;&gt;10</title>
<path fill="none" stroke="black" d="M82,-434.8C82,-423.16 82,-407.55 82,-394.24"/>
<polygon fill="black" stroke="black" points="85.5,-394.18 82,-384.18 78.5,-394.18 85.5,-394.18"/>
<text text-anchor="middle" x="85.5" y="-405.8" font-family="Times,serif" font-size="14.00">x</text>
</g>
<!-- 9&#45;&gt;1 -->
<g id="edge5" class="edge">
<title>9&#45;&gt;1</title>
<path fill="none" stroke="black" d="M94.87,-436.8C105.93,-423.75 122.04,-404.74 134.65,-389.85"/>
<polygon fill="black" stroke="black" points="137.45,-391.96 141.24,-382.06 132.11,-387.43 137.45,-391.96"/>
<text text-anchor="middle" x="125.5" y="-405.8" font-family="Times,serif" font-size="14.00">x</text>
</g>
</g>
</svg>
