<?xml version="1.0" encoding="UTF-8" standalone="no"?>
<!DOCTYPE svg PUBLIC "-//W3C//DTD SVG 1.1//EN"
 "http://www.w3.org/Graphics/SVG/1.1/DTD/svg11.dtd">
<!-- Generated by graphviz version 5.0.0 (0)
 -->
<!-- Title: di_graph Pages: 1 -->
<svg width="240pt" height="566pt"
 viewBox="0.00 0.00 240.00 566.00" xmlns="http://www.w3.org/2000/svg" xmlns:xlink="http://www.w3.org/1999/xlink">
<g id="graph0" class="graph" transform="scale(1 1) rotate(0) translate(4 562)">
<title>di_graph</title>
<polygon fill="white" stroke="transparent" points="-4,4 -4,-562 236,-562 236,4 -4,4"/>
<!-- 3 -->
<g id="node1" class="node">
<title>3</title>
<ellipse fill="none" stroke="black" cx="173" cy="-540" rx="27" ry="18"/>
<text text-anchor="middle" x="173" y="-536.3" font-family="Times,serif" font-size="14.00">3 e</text>
</g>
<!-- 6 -->
<g id="node7" class="node">
<title>6</title>
<ellipse fill="none" stroke="black" cx="118" cy="-453" rx="27" ry="18"/>
<text text-anchor="middle" x="118" y="-449.3" font-family="Times,serif" font-size="14.00">6 e</text>
</g>
<!-- 3&#45;&gt;6 -->
<g id="edge11" class="edge">
<title>3&#45;&gt;6</title>
<path fill="none" stroke="black" d="M162.65,-523.01C154.51,-510.43 143.03,-492.68 133.74,-478.33"/>
<polygon fill="black" stroke="black" points="136.67,-476.41 128.3,-469.92 130.79,-480.21 136.67,-476.41"/>
<text text-anchor="middle" x="151.5" y="-492.8" font-family="Times,serif" font-size="14.00">e</text>
</g>
<!-- 4 -->
<g id="node2" class="node">
<title>4</title>
<ellipse fill="none" stroke="black" cx="133" cy="-18" rx="27" ry="18"/>
<text text-anchor="middle" x="133" y="-14.3" font-family="Times,serif" font-size="14.00">4 e</text>
</g>
<!-- 7 -->
<g id="node3" class="node">
<title>7</title>
<ellipse fill="none" stroke="black" cx="145" cy="-366" rx="27" ry="18"/>
<text text-anchor="middle" x="145" y="-362.3" font-family="Times,serif" font-size="14.00">7 e</text>
</g>
<!-- 8 -->
<g id="node4" class="node">
<title>8</title>
<ellipse fill="none" stroke="black" cx="35" cy="-366" rx="27" ry="18"/>
<text text-anchor="middle" x="35" y="-362.3" font-family="Times,serif" font-size="14.00">8 e</text>
</g>
<!-- 9 -->
<g id="node9" class="node">
<title>9</title>
<ellipse fill="none" stroke="black" cx="35" cy="-279" rx="27" ry="18"/>
<text text-anchor="middle" x="35" y="-275.3" font-family="Times,serif" font-size="14.00">9 e</text>
</g>
<!-- 8&#45;&gt;9 -->
<g id="edge9" class="edge">
<title>8&#45;&gt;9</title>
<path fill="none" stroke="black" d="M35,-347.8C35,-336.16 35,-320.55 35,-307.24"/>
<polygon fill="black" stroke="black" points="38.5,-307.18 35,-297.18 31.5,-307.18 38.5,-307.18"/>
<text text-anchor="middle" x="38.5" y="-318.8" font-family="Times,serif" font-size="14.00">e</text>
</g>
<!-- 5 -->
<g id="node5" class="node">
<title>5</title>
<ellipse fill="none" stroke="black" cx="205" cy="-18" rx="27" ry="18"/>
<text text-anchor="middle" x="205" y="-14.3" font-family="Times,serif" font-size="14.00">5 e</text>
</g>
<!-- 2 -->
<g id="node6" class="node">
<title>2</title>
<ellipse fill="none" stroke="black" cx="169" cy="-105" rx="27" ry="18"/>
<text text-anchor="middle" x="169" y="-101.3" font-family="Times,serif" font-size="14.00">2 e</text>
</g>
<!-- 2&#45;&gt;3 -->
<g id="edge3" class="edge">
<title>2&#45;&gt;3</title>
<path fill="none" stroke="black" d="M178.64,-121.98C187.74,-138.61 200,-165.71 200,-191 200,-454 200,-454 200,-454 200,-474.64 192.68,-496.84 185.66,-513.37"/>
<polygon fill="black" stroke="black" points="182.3,-512.31 181.39,-522.87 188.68,-515.18 182.3,-512.31"/>
<text text-anchor="middle" x="203.5" y="-318.8" font-family="Times,serif" font-size="14.00">e</text>
</g>
<!-- 2&#45;&gt;4 -->
<g id="edge5" class="edge">
<title>2&#45;&gt;4</title>
<path fill="none" stroke="black" d="M161.89,-87.21C156.78,-75.14 149.79,-58.64 143.97,-44.89"/>
<polygon fill="black" stroke="black" points="147.1,-43.31 139.98,-35.47 140.65,-46.04 147.1,-43.31"/>
<text text-anchor="middle" x="156.5" y="-57.8" font-family="Times,serif" font-size="14.00">e</text>
</g>
<!-- 2&#45;&gt;5 -->
<g id="edge4" class="edge">
<title>2&#45;&gt;5</title>
<path fill="none" stroke="black" d="M176.11,-87.21C181.22,-75.14 188.21,-58.64 194.03,-44.89"/>
<polygon fill="black" stroke="black" points="197.35,-46.04 198.02,-35.47 190.9,-43.31 197.35,-46.04"/>
<text text-anchor="middle" x="192.5" y="-57.8" font-family="Times,serif" font-size="14.00">e</text>
</g>
<!-- 6&#45;&gt;7 -->
<g id="edge7" class="edge">
<title>6&#45;&gt;7</title>
<path fill="none" stroke="black" d="M123.33,-435.21C127.11,-423.33 132.24,-407.17 136.56,-393.56"/>
<polygon fill="black" stroke="black" points="139.99,-394.35 139.68,-383.76 133.31,-392.23 139.99,-394.35"/>
<text text-anchor="middle" x="136.5" y="-405.8" font-family="Times,serif" font-size="14.00">e</text>
</g>
<!-- 6&#45;&gt;8 -->
<g id="edge6" class="edge">
<title>6&#45;&gt;8</title>
<path fill="none" stroke="black" d="M98.63,-440.46C89.08,-434.22 77.77,-425.97 69,-417 61.78,-409.61 55.09,-400.52 49.58,-392.12"/>
<polygon fill="black" stroke="black" points="52.39,-390 44.11,-383.39 46.46,-393.72 52.39,-390"/>
<text text-anchor="middle" x="72.5" y="-405.8" font-family="Times,serif" font-size="14.00">e</text>
</g>
<!-- 1 -->
<g id="node8" class="node">
<title>1</title>
<ellipse fill="none" stroke="black" cx="99" cy="-192" rx="27" ry="18"/>
<text text-anchor="middle" x="99" y="-188.3" font-family="Times,serif" font-size="14.00">1 e</text>
</g>
<!-- 6&#45;&gt;1 -->
<g id="edge8" class="edge">
<title>6&#45;&gt;1</title>
<path fill="none" stroke="black" d="M115.37,-435C113.34,-421.27 110.61,-401.43 109,-384 103.63,-325.77 100.92,-257.26 99.74,-220.18"/>
<polygon fill="black" stroke="black" points="103.24,-220.04 99.44,-210.15 96.25,-220.26 103.24,-220.04"/>
<text text-anchor="middle" x="107.5" y="-318.8" font-family="Times,serif" font-size="14.00">e</text>
</g>
<!-- 1&#45;&gt;2 -->
<g id="edge10" class="edge">
<title>1&#45;&gt;2</title>
<path fill="none" stroke="black" d="M111.51,-175.8C122.27,-162.75 137.92,-143.74 150.18,-128.85"/>
<polygon fill="black" stroke="black" points="152.94,-131.01 156.59,-121.06 147.53,-126.56 152.94,-131.01"/>
<text text-anchor="middle" x="141.5" y="-144.8" font-family="Times,serif" font-size="14.00">e</text>
</g>
<!-- 9&#45;&gt;1 -->
<g id="edge1" class="edge">
<title>9&#45;&gt;1</title>
<path fill="none" stroke="black" d="M45.28,-261.92C51.81,-251.96 60.58,-239.01 69,-228 72.06,-224 75.43,-219.85 78.77,-215.87"/>
<polygon fill="black" stroke="black" points="81.64,-217.9 85.48,-208.03 76.32,-213.35 81.64,-217.9"/>
<text text-anchor="middle" x="72.5" y="-231.8" font-family="Times,serif" font-size="14.00">e</text>
</g>
<!-- 10 -->
<g id="node10" class="node">
<title>10</title>
<ellipse fill="none" stroke="black" cx="27" cy="-192" rx="27" ry="18"/>
<text text-anchor="middle" x="27" y="-188.3" font-family="Times,serif" font-size="14.00">10 e</text>
</g>
<!-- 9&#45;&gt;10 -->
<g id="edge2" class="edge">
<title>9&#45;&gt;10</title>
<path fill="none" stroke="black" d="M33.38,-260.8C32.29,-249.16 30.82,-233.55 29.56,-220.24"/>
<polygon fill="black" stroke="black" points="33.04,-219.8 28.62,-210.18 26.07,-220.46 33.04,-219.8"/>
<text text-anchor="middle" x="35.5" y="-231.8" font-family="Times,serif" font-size="14.00">e</text>
</g>
</g>
</svg>
