<?xml version="1.0" encoding="UTF-8" standalone="no"?>
<!DOCTYPE svg PUBLIC "-//W3C//DTD SVG 1.1//EN"
 "http://www.w3.org/Graphics/SVG/1.1/DTD/svg11.dtd">
<!-- Generated by graphviz version 5.0.0 (0)
 -->
<!-- Title: di_graph Pages: 1 -->
<svg width="240pt" height="260pt"
 viewBox="0.00 0.00 239.59 260.00" xmlns="http://www.w3.org/2000/svg" xmlns:xlink="http://www.w3.org/1999/xlink">
<g id="graph0" class="graph" transform="scale(1 1) rotate(0) translate(4 256)">
<title>di_graph</title>
<polygon fill="white" stroke="transparent" points="-4,4 -4,-256 235.59,-256 235.59,4 -4,4"/>
<!-- 1 -->
<g id="node1" class="node">
<title>1</title>
<ellipse fill="none" stroke="black" cx="115.3" cy="-162" rx="53.09" ry="18"/>
<text text-anchor="middle" x="115.3" y="-158.3" font-family="Times,serif" font-size="14.00">1 , dom = 0</text>
</g>
<!-- 3 -->
<g id="node2" class="node">
<title>3</title>
<ellipse fill="none" stroke="black" cx="53.3" cy="-90" rx="53.09" ry="18"/>
<text text-anchor="middle" x="53.3" y="-86.3" font-family="Times,serif" font-size="14.00">3 , dom = 1</text>
</g>
<!-- 1&#45;&gt;3 -->
<g id="edge2" class="edge">
<title>1&#45;&gt;3</title>
<path fill="none" stroke="black" d="M100.6,-144.41C92.88,-135.69 83.27,-124.85 74.74,-115.21"/>
<polygon fill="black" stroke="black" points="77.13,-112.64 67.88,-107.47 71.89,-117.28 77.13,-112.64"/>
</g>
<!-- 2 -->
<g id="node3" class="node">
<title>2</title>
<ellipse fill="none" stroke="black" cx="178.3" cy="-90" rx="53.09" ry="18"/>
<text text-anchor="middle" x="178.3" y="-86.3" font-family="Times,serif" font-size="14.00">2 , dom = 1</text>
</g>
<!-- 1&#45;&gt;2 -->
<g id="edge1" class="edge">
<title>1&#45;&gt;2</title>
<path fill="none" stroke="black" d="M130.23,-144.41C138.15,-135.61 148.03,-124.63 156.77,-114.92"/>
<polygon fill="black" stroke="black" points="159.38,-117.24 163.47,-107.47 154.18,-112.56 159.38,-117.24"/>
</g>
<!-- 4 -->
<g id="node5" class="node">
<title>4</title>
<ellipse fill="none" stroke="black" cx="115.3" cy="-18" rx="53.09" ry="18"/>
<text text-anchor="middle" x="115.3" y="-14.3" font-family="Times,serif" font-size="14.00">4 , dom = 1</text>
</g>
<!-- 3&#45;&gt;4 -->
<g id="edge5" class="edge">
<title>3&#45;&gt;4</title>
<path fill="none" stroke="black" d="M67.99,-72.41C75.71,-63.69 85.32,-52.85 93.85,-43.21"/>
<polygon fill="black" stroke="black" points="96.7,-45.28 100.71,-35.47 91.46,-40.64 96.7,-45.28"/>
</g>
<!-- 2&#45;&gt;4 -->
<g id="edge3" class="edge">
<title>2&#45;&gt;4</title>
<path fill="none" stroke="black" d="M163.37,-72.41C155.44,-63.61 145.56,-52.63 136.82,-42.92"/>
<polygon fill="black" stroke="black" points="139.41,-40.56 130.12,-35.47 134.21,-45.24 139.41,-40.56"/>
</g>
<!-- 0 -->
<g id="node4" class="node">
<title>0</title>
<ellipse fill="none" stroke="black" cx="115.3" cy="-234" rx="27" ry="18"/>
<text text-anchor="middle" x="115.3" y="-230.3" font-family="Times,serif" font-size="14.00">0 </text>
</g>
<!-- 0&#45;&gt;1 -->
<g id="edge4" class="edge">
<title>0&#45;&gt;1</title>
<path fill="none" stroke="black" d="M115.3,-215.7C115.3,-207.98 115.3,-198.71 115.3,-190.11"/>
<polygon fill="black" stroke="black" points="118.8,-190.1 115.3,-180.1 111.8,-190.1 118.8,-190.1"/>
</g>
</g>
</svg>
