<?xml version="1.0" encoding="UTF-8" standalone="no"?>
<!DOCTYPE svg PUBLIC "-//W3C//DTD SVG 1.1//EN"
 "http://www.w3.org/Graphics/SVG/1.1/DTD/svg11.dtd">
<!-- Generated by graphviz version 10.0.1 (20240210.2158)
 -->
<!-- Title: di_graph Pages: 1 -->
<svg width="248pt" height="260pt"
 viewBox="0.00 0.00 247.89 260.00" xmlns="http://www.w3.org/2000/svg" xmlns:xlink="http://www.w3.org/1999/xlink">
<g id="graph0" class="graph" transform="scale(1 1) rotate(0) translate(4 256)">
<title>di_graph</title>
<polygon fill="white" stroke="none" points="-4,4 -4,-256 243.89,-256 243.89,4 -4,4"/>
<!-- 4 -->
<g id="node1" class="node">
<title>4</title>
<ellipse fill="none" stroke="black" cx="119.45" cy="-18" rx="55.45" ry="18"/>
<text text-anchor="middle" x="119.45" y="-12.95" font-family="Times,serif" font-size="14.00">4 , dom = 1</text>
</g>
<!-- 0 -->
<g id="node2" class="node">
<title>0</title>
<ellipse fill="none" stroke="black" cx="119.45" cy="-234" rx="27" ry="18"/>
<text text-anchor="middle" x="119.45" y="-228.95" font-family="Times,serif" font-size="14.00">0 </text>
</g>
<!-- 1 -->
<g id="node5" class="node">
<title>1</title>
<ellipse fill="none" stroke="black" cx="119.45" cy="-162" rx="55.45" ry="18"/>
<text text-anchor="middle" x="119.45" y="-156.95" font-family="Times,serif" font-size="14.00">1 , dom = 0</text>
</g>
<!-- 0&#45;&gt;1 -->
<g id="edge1" class="edge">
<title>0&#45;&gt;1</title>
<path fill="none" stroke="black" d="M119.45,-215.7C119.45,-208.41 119.45,-199.73 119.45,-191.54"/>
<polygon fill="black" stroke="black" points="122.95,-191.62 119.45,-181.62 115.95,-191.62 122.95,-191.62"/>
</g>
<!-- 2 -->
<g id="node3" class="node">
<title>2</title>
<ellipse fill="none" stroke="black" cx="55.45" cy="-90" rx="55.45" ry="18"/>
<text text-anchor="middle" x="55.45" y="-84.95" font-family="Times,serif" font-size="14.00">2 , dom = 1</text>
</g>
<!-- 2&#45;&gt;4 -->
<g id="edge2" class="edge">
<title>2&#45;&gt;4</title>
<path fill="none" stroke="black" d="M70.61,-72.41C78.42,-63.87 88.11,-53.28 96.78,-43.79"/>
<polygon fill="black" stroke="black" points="99.2,-46.33 103.37,-36.59 94.04,-41.61 99.2,-46.33"/>
</g>
<!-- 3 -->
<g id="node4" class="node">
<title>3</title>
<ellipse fill="none" stroke="black" cx="184.45" cy="-90" rx="55.45" ry="18"/>
<text text-anchor="middle" x="184.45" y="-84.95" font-family="Times,serif" font-size="14.00">3 , dom = 1</text>
</g>
<!-- 3&#45;&gt;4 -->
<g id="edge5" class="edge">
<title>3&#45;&gt;4</title>
<path fill="none" stroke="black" d="M169.04,-72.41C161.11,-63.87 151.28,-53.28 142.46,-43.79"/>
<polygon fill="black" stroke="black" points="145.14,-41.53 135.77,-36.58 140.01,-46.29 145.14,-41.53"/>
</g>
<!-- 1&#45;&gt;2 -->
<g id="edge4" class="edge">
<title>1&#45;&gt;2</title>
<path fill="none" stroke="black" d="M104.28,-144.41C96.47,-135.87 86.79,-125.28 78.11,-115.79"/>
<polygon fill="black" stroke="black" points="80.86,-113.61 71.53,-108.59 75.69,-118.33 80.86,-113.61"/>
</g>
<!-- 1&#45;&gt;3 -->
<g id="edge3" class="edge">
<title>1&#45;&gt;3</title>
<path fill="none" stroke="black" d="M134.85,-144.41C142.78,-135.87 152.62,-125.28 161.43,-115.79"/>
<polygon fill="black" stroke="black" points="163.88,-118.29 168.12,-108.58 158.75,-113.53 163.88,-118.29"/>
</g>
</g>
</svg>
