<?xml version="1.0" encoding="UTF-8" standalone="no"?>
<!DOCTYPE svg PUBLIC "-//W3C//DTD SVG 1.1//EN"
 "http://www.w3.org/Graphics/SVG/1.1/DTD/svg11.dtd">
<!-- Generated by graphviz version 5.0.0 (0)
 -->
<!-- Title: di_graph Pages: 1 -->
<svg width="552pt" height="1109pt"
 viewBox="0.00 0.00 552.00 1109.00" xmlns="http://www.w3.org/2000/svg" xmlns:xlink="http://www.w3.org/1999/xlink">
<g id="graph0" class="graph" transform="scale(1 1) rotate(0) translate(4 1105)">
<title>di_graph</title>
<polygon fill="white" stroke="transparent" points="-4,4 -4,-1105 548,-1105 548,4 -4,4"/>
<!-- 11 -->
<g id="node1" class="node">
<title>11</title>
<ellipse fill="none" stroke="black" cx="310" cy="-735" rx="27" ry="18"/>
<text text-anchor="middle" x="310" y="-731.3" font-family="Times,serif" font-size="14.00">11 e</text>
</g>
<!-- 3 -->
<g id="node8" class="node">
<title>3</title>
<ellipse fill="none" stroke="black" cx="355" cy="-648" rx="27" ry="18"/>
<text text-anchor="middle" x="355" y="-644.3" font-family="Times,serif" font-size="14.00">3 e</text>
</g>
<!-- 11&#45;&gt;3 -->
<g id="edge16" class="edge">
<title>11&#45;&gt;3</title>
<path fill="none" stroke="black" d="M318.68,-717.61C325.15,-705.38 334.12,-688.44 341.52,-674.46"/>
<polygon fill="black" stroke="black" points="344.76,-675.81 346.35,-665.34 338.58,-672.54 344.76,-675.81"/>
<text text-anchor="middle" x="338.5" y="-687.8" font-family="Times,serif" font-size="14.00">e</text>
</g>
<!-- 12 -->
<g id="node2" class="node">
<title>12</title>
<ellipse fill="none" stroke="black" cx="262" cy="-366" rx="27" ry="18"/>
<text text-anchor="middle" x="262" y="-362.3" font-family="Times,serif" font-size="14.00">12 e</text>
</g>
<!-- 12&#45;&gt;11 -->
<g id="edge21" class="edge">
<title>12&#45;&gt;11</title>
<path fill="none" stroke="black" d="M262,-384.26C262,-401.43 262,-428.54 262,-452 262,-649 262,-649 262,-649 262,-672.52 276.11,-695.53 289.03,-711.66"/>
<polygon fill="black" stroke="black" points="286.47,-714.05 295.6,-719.43 291.82,-709.54 286.47,-714.05"/>
<text text-anchor="middle" x="265.5" y="-557.3" font-family="Times,serif" font-size="14.00">e</text>
</g>
<!-- 12&#45;&gt;3 -->
<g id="edge20" class="edge">
<title>12&#45;&gt;3</title>
<path fill="none" stroke="black" d="M269.24,-383.36C279.36,-406.57 297.96,-450.52 311,-489 326.36,-534.31 340.51,-588.2 348.42,-619.89"/>
<polygon fill="black" stroke="black" points="345.06,-620.88 350.86,-629.74 351.85,-619.2 345.06,-620.88"/>
<text text-anchor="middle" x="325.5" y="-503.3" font-family="Times,serif" font-size="14.00">e</text>
</g>
<!-- 2 -->
<g id="node13" class="node">
<title>2</title>
<ellipse fill="none" stroke="black" cx="207" cy="-279" rx="27" ry="18"/>
<text text-anchor="middle" x="207" y="-275.3" font-family="Times,serif" font-size="14.00">2 e</text>
</g>
<!-- 12&#45;&gt;2 -->
<g id="edge19" class="edge">
<title>12&#45;&gt;2</title>
<path fill="none" stroke="black" d="M251.65,-349.01C243.51,-336.43 232.03,-318.68 222.74,-304.33"/>
<polygon fill="black" stroke="black" points="225.67,-302.41 217.3,-295.92 219.79,-306.21 225.67,-302.41"/>
<text text-anchor="middle" x="240.5" y="-318.8" font-family="Times,serif" font-size="14.00">e</text>
</g>
<!-- 7 -->
<g id="node15" class="node">
<title>7</title>
<ellipse fill="none" stroke="black" cx="419" cy="-105" rx="27" ry="18"/>
<text text-anchor="middle" x="419" y="-101.3" font-family="Times,serif" font-size="14.00">7 e</text>
</g>
<!-- 12&#45;&gt;7 -->
<g id="edge18" class="edge">
<title>12&#45;&gt;7</title>
<path fill="none" stroke="black" d="M259.04,-347.94C255.15,-321.4 250.42,-269.02 265,-228 284.69,-172.59 347.7,-136.49 386.75,-118.81"/>
<polygon fill="black" stroke="black" points="388.36,-121.93 396.12,-114.71 385.56,-115.51 388.36,-121.93"/>
<text text-anchor="middle" x="268.5" y="-231.8" font-family="Times,serif" font-size="14.00">e</text>
</g>
<!-- 5 -->
<g id="node3" class="node">
<title>5</title>
<ellipse fill="none" stroke="black" cx="325" cy="-822" rx="27" ry="18"/>
<text text-anchor="middle" x="325" y="-818.3" font-family="Times,serif" font-size="14.00">5 e</text>
</g>
<!-- 5&#45;&gt;11 -->
<g id="edge30" class="edge">
<title>5&#45;&gt;11</title>
<path fill="none" stroke="black" d="M321.96,-803.8C319.91,-792.16 317.16,-776.55 314.81,-763.24"/>
<polygon fill="black" stroke="black" points="318.22,-762.41 313.03,-753.18 311.32,-763.63 318.22,-762.41"/>
<text text-anchor="middle" x="321.5" y="-774.8" font-family="Times,serif" font-size="14.00">e</text>
</g>
<!-- 5&#45;&gt;7 -->
<g id="edge28" class="edge">
<title>5&#45;&gt;7</title>
<path fill="none" stroke="black" d="M350.6,-816.04C387.95,-807.15 453,-784.68 453,-736 453,-736 453,-736 453,-603.5 453,-536.96 461,-520.54 461,-454 461,-454 461,-454 461,-191 461,-168.5 449.03,-145.8 437.87,-129.52"/>
<polygon fill="black" stroke="black" points="440.53,-127.23 431.83,-121.18 434.86,-131.33 440.53,-127.23"/>
<text text-anchor="middle" x="464.5" y="-449.3" font-family="Times,serif" font-size="14.00">e</text>
</g>
<!-- 8 -->
<g id="node16" class="node">
<title>8</title>
<ellipse fill="none" stroke="black" cx="106" cy="-192" rx="27" ry="18"/>
<text text-anchor="middle" x="106" y="-188.3" font-family="Times,serif" font-size="14.00">8 e</text>
</g>
<!-- 5&#45;&gt;8 -->
<g id="edge29" class="edge">
<title>5&#45;&gt;8</title>
<path fill="none" stroke="black" d="M304.77,-809.5C295.23,-803.39 284.18,-795.23 276,-786 206.48,-707.55 196.26,-678.4 163,-579 130.07,-480.59 144.17,-450.66 129,-348 122.38,-303.22 114.65,-251.18 110.05,-220.22"/>
<polygon fill="black" stroke="black" points="113.49,-219.58 108.56,-210.2 106.57,-220.61 113.49,-219.58"/>
<text text-anchor="middle" x="150.5" y="-503.3" font-family="Times,serif" font-size="14.00">e</text>
</g>
<!-- 6 -->
<g id="node4" class="node">
<title>6</title>
<ellipse fill="none" stroke="black" cx="96" cy="-1083" rx="27" ry="18"/>
<text text-anchor="middle" x="96" y="-1079.3" font-family="Times,serif" font-size="14.00">6 e</text>
</g>
<!-- 14 -->
<g id="node12" class="node">
<title>14</title>
<ellipse fill="none" stroke="black" cx="96" cy="-996" rx="27" ry="18"/>
<text text-anchor="middle" x="96" y="-992.3" font-family="Times,serif" font-size="14.00">14 e</text>
</g>
<!-- 6&#45;&gt;14 -->
<g id="edge11" class="edge">
<title>6&#45;&gt;14</title>
<path fill="none" stroke="black" d="M96,-1064.8C96,-1053.16 96,-1037.55 96,-1024.24"/>
<polygon fill="black" stroke="black" points="99.5,-1024.18 96,-1014.18 92.5,-1024.18 99.5,-1024.18"/>
<text text-anchor="middle" x="99.5" y="-1035.8" font-family="Times,serif" font-size="14.00">e</text>
</g>
<!-- 13 -->
<g id="node5" class="node">
<title>13</title>
<ellipse fill="none" stroke="black" cx="93" cy="-366" rx="27" ry="18"/>
<text text-anchor="middle" x="93" y="-362.3" font-family="Times,serif" font-size="14.00">13 e</text>
</g>
<!-- 1 -->
<g id="node6" class="node">
<title>1</title>
<ellipse fill="none" stroke="black" cx="419" cy="-507" rx="27" ry="18"/>
<text text-anchor="middle" x="419" y="-503.3" font-family="Times,serif" font-size="14.00">1 e</text>
</g>
<!-- 1&#45;&gt;7 -->
<g id="edge17" class="edge">
<title>1&#45;&gt;7</title>
<path fill="none" stroke="black" d="M419,-488.89C419,-456.57 419,-384.33 419,-323.5 419,-323.5 419,-323.5 419,-191 419,-171.75 419,-150.05 419,-133.4"/>
<polygon fill="black" stroke="black" points="422.5,-133.26 419,-123.26 415.5,-133.26 422.5,-133.26"/>
<text text-anchor="middle" x="422.5" y="-318.8" font-family="Times,serif" font-size="14.00">e</text>
</g>
<!-- 15 -->
<g id="node7" class="node">
<title>15</title>
<ellipse fill="none" stroke="black" cx="199" cy="-561" rx="27" ry="18"/>
<text text-anchor="middle" x="199" y="-557.3" font-family="Times,serif" font-size="14.00">15 e</text>
</g>
<!-- 17 -->
<g id="node9" class="node">
<title>17</title>
<ellipse fill="none" stroke="black" cx="199" cy="-453" rx="27" ry="18"/>
<text text-anchor="middle" x="199" y="-449.3" font-family="Times,serif" font-size="14.00">17 e</text>
</g>
<!-- 15&#45;&gt;17 -->
<g id="edge5" class="edge">
<title>15&#45;&gt;17</title>
<path fill="none" stroke="black" d="M199,-542.97C199,-526.38 199,-500.88 199,-481.43"/>
<polygon fill="black" stroke="black" points="202.5,-481.34 199,-471.34 195.5,-481.34 202.5,-481.34"/>
<text text-anchor="middle" x="202.5" y="-503.3" font-family="Times,serif" font-size="14.00">e</text>
</g>
<!-- 3&#45;&gt;1 -->
<g id="edge12" class="edge">
<title>3&#45;&gt;1</title>
<path fill="none" stroke="black" d="M372.03,-633.9C378.81,-627.89 386.14,-620.27 391,-612 405,-588.17 412.17,-557.19 415.73,-535.26"/>
<polygon fill="black" stroke="black" points="419.2,-535.69 417.2,-525.29 412.28,-534.67 419.2,-535.69"/>
<text text-anchor="middle" x="401.5" y="-600.8" font-family="Times,serif" font-size="14.00">e</text>
</g>
<!-- 3&#45;&gt;15 -->
<g id="edge13" class="edge">
<title>3&#45;&gt;15</title>
<path fill="none" stroke="black" d="M334.61,-635.89C307.51,-621.12 259.46,-594.95 228.44,-578.04"/>
<polygon fill="black" stroke="black" points="229.86,-574.83 219.4,-573.11 226.51,-580.97 229.86,-574.83"/>
<text text-anchor="middle" x="289.5" y="-600.8" font-family="Times,serif" font-size="14.00">e</text>
</g>
<!-- 16 -->
<g id="node19" class="node">
<title>16</title>
<ellipse fill="none" stroke="black" cx="343" cy="-192" rx="27" ry="18"/>
<text text-anchor="middle" x="343" y="-188.3" font-family="Times,serif" font-size="14.00">16 e</text>
</g>
<!-- 3&#45;&gt;16 -->
<g id="edge14" class="edge">
<title>3&#45;&gt;16</title>
<path fill="none" stroke="black" d="M356.76,-629.93C357.27,-624.23 357.75,-617.85 358,-612 358.28,-605.34 358.01,-603.67 358,-597 357.78,-433 388.23,-389 357,-228 356.41,-224.95 355.55,-221.83 354.56,-218.77"/>
<polygon fill="black" stroke="black" points="357.81,-217.48 351.02,-209.34 351.26,-219.94 357.81,-217.48"/>
<text text-anchor="middle" x="372.5" y="-405.8" font-family="Times,serif" font-size="14.00">e</text>
</g>
<!-- 17&#45;&gt;12 -->
<g id="edge10" class="edge">
<title>17&#45;&gt;12</title>
<path fill="none" stroke="black" d="M210.56,-436.41C220.06,-423.59 233.67,-405.22 244.51,-390.6"/>
<polygon fill="black" stroke="black" points="247.38,-392.61 250.52,-382.49 241.75,-388.44 247.38,-392.61"/>
<text text-anchor="middle" x="237.5" y="-405.8" font-family="Times,serif" font-size="14.00">e</text>
</g>
<!-- 17&#45;&gt;13 -->
<g id="edge8" class="edge">
<title>17&#45;&gt;13</title>
<path fill="none" stroke="black" d="M182.44,-438.72C165.11,-424.83 137.73,-402.87 117.82,-386.9"/>
<polygon fill="black" stroke="black" points="119.79,-383.99 109.8,-380.47 115.41,-389.45 119.79,-383.99"/>
<text text-anchor="middle" x="155.5" y="-405.8" font-family="Times,serif" font-size="14.00">e</text>
</g>
<!-- 18 -->
<g id="node14" class="node">
<title>18</title>
<ellipse fill="none" stroke="black" cx="188" cy="-18" rx="27" ry="18"/>
<text text-anchor="middle" x="188" y="-14.3" font-family="Times,serif" font-size="14.00">18 e</text>
</g>
<!-- 17&#45;&gt;18 -->
<g id="edge9" class="edge">
<title>17&#45;&gt;18</title>
<path fill="none" stroke="black" d="M194.88,-434.93C188.26,-406.53 175.54,-347.66 171,-297 162.76,-205.02 176.28,-95.55 183.67,-45.89"/>
<polygon fill="black" stroke="black" points="187.14,-46.36 185.19,-35.95 180.22,-45.31 187.14,-46.36"/>
<text text-anchor="middle" x="171.5" y="-231.8" font-family="Times,serif" font-size="14.00">e</text>
</g>
<!-- 19 -->
<g id="node10" class="node">
<title>19</title>
<ellipse fill="none" stroke="black" cx="123" cy="-909" rx="27" ry="18"/>
<text text-anchor="middle" x="123" y="-905.3" font-family="Times,serif" font-size="14.00">19 e</text>
</g>
<!-- 19&#45;&gt;5 -->
<g id="edge26" class="edge">
<title>19&#45;&gt;5</title>
<path fill="none" stroke="black" d="M145.39,-898.58C181.43,-883.41 252.42,-853.54 293.54,-836.24"/>
<polygon fill="black" stroke="black" points="294.96,-839.44 302.82,-832.33 292.24,-832.99 294.96,-839.44"/>
<text text-anchor="middle" x="239.5" y="-861.8" font-family="Times,serif" font-size="14.00">e</text>
</g>
<!-- 19&#45;&gt;15 -->
<g id="edge27" class="edge">
<title>19&#45;&gt;15</title>
<path fill="none" stroke="black" d="M123,-890.74C123,-873.57 123,-846.46 123,-823 123,-823 123,-823 123,-690.5 123,-648.12 154.01,-607.45 176.41,-583.6"/>
<polygon fill="black" stroke="black" points="179.16,-585.79 183.62,-576.18 174.14,-580.91 179.16,-585.79"/>
<text text-anchor="middle" x="126.5" y="-731.3" font-family="Times,serif" font-size="14.00">e</text>
</g>
<!-- 10 -->
<g id="node11" class="node">
<title>10</title>
<ellipse fill="none" stroke="black" cx="358" cy="-909" rx="27" ry="18"/>
<text text-anchor="middle" x="358" y="-905.3" font-family="Times,serif" font-size="14.00">10 e</text>
</g>
<!-- 10&#45;&gt;5 -->
<g id="edge15" class="edge">
<title>10&#45;&gt;5</title>
<path fill="none" stroke="black" d="M351.48,-891.21C346.82,-879.22 340.47,-862.85 335.16,-849.16"/>
<polygon fill="black" stroke="black" points="338.39,-847.81 331.51,-839.76 331.86,-850.35 338.39,-847.81"/>
<text text-anchor="middle" x="346.5" y="-861.8" font-family="Times,serif" font-size="14.00">e</text>
</g>
<!-- 14&#45;&gt;13 -->
<g id="edge22" class="edge">
<title>14&#45;&gt;13</title>
<path fill="none" stroke="black" d="M87.29,-978.91C79.07,-962.18 68,-935.01 68,-910 68,-910 68,-910 68,-452 68,-431.62 74.7,-409.56 81.16,-393.03"/>
<polygon fill="black" stroke="black" points="84.51,-394.09 85.09,-383.51 78.04,-391.42 84.51,-394.09"/>
<text text-anchor="middle" x="71.5" y="-687.8" font-family="Times,serif" font-size="14.00">e</text>
</g>
<!-- 14&#45;&gt;19 -->
<g id="edge23" class="edge">
<title>14&#45;&gt;19</title>
<path fill="none" stroke="black" d="M101.33,-978.21C105.11,-966.33 110.24,-950.17 114.56,-936.56"/>
<polygon fill="black" stroke="black" points="117.99,-937.35 117.68,-926.76 111.31,-935.23 117.99,-937.35"/>
<text text-anchor="middle" x="115.5" y="-948.8" font-family="Times,serif" font-size="14.00">e</text>
</g>
<!-- 2&#45;&gt;18 -->
<g id="edge32" class="edge">
<title>2&#45;&gt;18</title>
<path fill="none" stroke="black" d="M205.75,-261.01C202.53,-217.1 193.91,-99.6 189.99,-46.15"/>
<polygon fill="black" stroke="black" points="193.47,-45.77 189.25,-36.06 186.49,-46.29 193.47,-45.77"/>
<text text-anchor="middle" x="200.5" y="-144.8" font-family="Times,serif" font-size="14.00">e</text>
</g>
<!-- 2&#45;&gt;8 -->
<g id="edge34" class="edge">
<title>2&#45;&gt;8</title>
<path fill="none" stroke="black" d="M184.36,-268.9C171.09,-262.84 154.52,-253.99 142,-243 133.89,-235.88 126.57,-226.6 120.69,-217.97"/>
<polygon fill="black" stroke="black" points="123.48,-215.83 115.11,-209.33 117.6,-219.63 123.48,-215.83"/>
<text text-anchor="middle" x="145.5" y="-231.8" font-family="Times,serif" font-size="14.00">e</text>
</g>
<!-- 2&#45;&gt;16 -->
<g id="edge33" class="edge">
<title>2&#45;&gt;16</title>
<path fill="none" stroke="black" d="M227.71,-267.13C240.14,-260.45 256.17,-251.55 270,-243 285.86,-233.19 303.1,-221.44 316.84,-211.8"/>
<polygon fill="black" stroke="black" points="319.17,-214.44 325.31,-205.8 315.12,-208.72 319.17,-214.44"/>
<text text-anchor="middle" x="295.5" y="-231.8" font-family="Times,serif" font-size="14.00">e</text>
</g>
<!-- 4 -->
<g id="node20" class="node">
<title>4</title>
<ellipse fill="none" stroke="black" cx="63" cy="-105" rx="27" ry="18"/>
<text text-anchor="middle" x="63" y="-101.3" font-family="Times,serif" font-size="14.00">4 e</text>
</g>
<!-- 8&#45;&gt;4 -->
<g id="edge31" class="edge">
<title>8&#45;&gt;4</title>
<path fill="none" stroke="black" d="M97.71,-174.61C91.52,-162.38 82.95,-145.44 75.88,-131.46"/>
<polygon fill="black" stroke="black" points="78.9,-129.68 71.27,-122.34 72.66,-132.84 78.9,-129.68"/>
<text text-anchor="middle" x="91.5" y="-144.8" font-family="Times,serif" font-size="14.00">e</text>
</g>
<!-- 0 -->
<g id="node17" class="node">
<title>0</title>
<ellipse fill="none" stroke="black" cx="487" cy="-996" rx="27" ry="18"/>
<text text-anchor="middle" x="487" y="-992.3" font-family="Times,serif" font-size="14.00">0 e</text>
</g>
<!-- 0&#45;&gt;10 -->
<g id="edge2" class="edge">
<title>0&#45;&gt;10</title>
<path fill="none" stroke="black" d="M468.52,-982.82C446.68,-968.43 410.15,-944.36 385.11,-927.86"/>
<polygon fill="black" stroke="black" points="386.72,-924.74 376.45,-922.16 382.87,-930.58 386.72,-924.74"/>
<text text-anchor="middle" x="433.5" y="-948.8" font-family="Times,serif" font-size="14.00">e</text>
</g>
<!-- 0&#45;&gt;18 -->
<g id="edge1" class="edge">
<title>0&#45;&gt;18</title>
<path fill="none" stroke="black" d="M501.73,-980.84C516.48,-965.07 537,-938.08 537,-910 537,-910 537,-910 537,-104 537,-40.34 315.02,-24.16 225.13,-20.21"/>
<polygon fill="black" stroke="black" points="225.23,-16.71 215.1,-19.8 224.94,-23.71 225.23,-16.71"/>
<text text-anchor="middle" x="540.5" y="-503.3" font-family="Times,serif" font-size="14.00">e</text>
</g>
<!-- 0&#45;&gt;7 -->
<g id="edge4" class="edge">
<title>0&#45;&gt;7</title>
<path fill="none" stroke="black" d="M490.8,-978.17C494.31,-961.09 499,-933.85 499,-910 499,-910 499,-910 499,-191 499,-160.59 471.51,-136.62 448.75,-121.99"/>
<polygon fill="black" stroke="black" points="450.38,-118.89 440.02,-116.67 446.74,-124.86 450.38,-118.89"/>
<text text-anchor="middle" x="502.5" y="-557.3" font-family="Times,serif" font-size="14.00">e</text>
</g>
<!-- 9 -->
<g id="node18" class="node">
<title>9</title>
<ellipse fill="none" stroke="black" cx="245" cy="-822" rx="27" ry="18"/>
<text text-anchor="middle" x="245" y="-818.3" font-family="Times,serif" font-size="14.00">9 e</text>
</g>
<!-- 0&#45;&gt;9 -->
<g id="edge3" class="edge">
<title>0&#45;&gt;9</title>
<path fill="none" stroke="black" d="M461.45,-989.6C425.78,-981.09 360.33,-961.81 315,-927 287.99,-906.26 267.85,-872.03 256.27,-848.54"/>
<polygon fill="black" stroke="black" points="259.43,-847.04 251.98,-839.51 253.11,-850.04 259.43,-847.04"/>
<text text-anchor="middle" x="318.5" y="-905.3" font-family="Times,serif" font-size="14.00">e</text>
</g>
<!-- 9&#45;&gt;11 -->
<g id="edge35" class="edge">
<title>9&#45;&gt;11</title>
<path fill="none" stroke="black" d="M256.92,-805.41C266.73,-792.59 280.77,-774.22 291.96,-759.6"/>
<polygon fill="black" stroke="black" points="294.86,-761.56 298.15,-751.49 289.3,-757.31 294.86,-761.56"/>
<text text-anchor="middle" x="284.5" y="-774.8" font-family="Times,serif" font-size="14.00">e</text>
</g>
<!-- 9&#45;&gt;16 -->
<g id="edge37" class="edge">
<title>9&#45;&gt;16</title>
<path fill="none" stroke="black" d="M248.69,-803.99C256.31,-768.46 274.1,-683.68 286,-612 287.62,-602.24 326.99,-311.38 339.33,-220.12"/>
<polygon fill="black" stroke="black" points="342.83,-220.39 340.7,-210.01 335.89,-219.45 342.83,-220.39"/>
<text text-anchor="middle" x="305.5" y="-503.3" font-family="Times,serif" font-size="14.00">e</text>
</g>
<!-- 9&#45;&gt;4 -->
<g id="edge36" class="edge">
<title>9&#45;&gt;4</title>
<path fill="none" stroke="black" d="M231.13,-806.04C179.3,-748.53 0,-534.35 0,-323.5 0,-323.5 0,-323.5 0,-191 0,-164.56 19.92,-140.98 37.36,-125.4"/>
<polygon fill="black" stroke="black" points="39.75,-127.96 45.12,-118.82 35.22,-122.62 39.75,-127.96"/>
<text text-anchor="middle" x="29.5" y="-449.3" font-family="Times,serif" font-size="14.00">e</text>
</g>
<!-- 16&#45;&gt;12 -->
<g id="edge24" class="edge">
<title>16&#45;&gt;12</title>
<path fill="none" stroke="black" d="M335.26,-209.44C321.12,-239.46 291.05,-303.32 274.16,-339.19"/>
<polygon fill="black" stroke="black" points="270.86,-337.97 269.77,-348.51 277.19,-340.95 270.86,-337.97"/>
<text text-anchor="middle" x="313.5" y="-275.3" font-family="Times,serif" font-size="14.00">e</text>
</g>
<!-- 16&#45;&gt;7 -->
<g id="edge25" class="edge">
<title>16&#45;&gt;7</title>
<path fill="none" stroke="black" d="M356.24,-176.19C367.94,-163.11 385.18,-143.83 398.63,-128.78"/>
<polygon fill="black" stroke="black" points="401.6,-130.71 405.66,-120.92 396.38,-126.04 401.6,-130.71"/>
<text text-anchor="middle" x="388.5" y="-144.8" font-family="Times,serif" font-size="14.00">e</text>
</g>
<!-- 4&#45;&gt;15 -->
<g id="edge7" class="edge">
<title>4&#45;&gt;15</title>
<path fill="none" stroke="black" d="M55.09,-122.51C47.77,-139.34 38,-166.39 38,-191 38,-323.5 38,-323.5 38,-323.5 38,-412.82 97.23,-418.45 152,-489 163.53,-503.85 175.2,-521.46 184.02,-535.43"/>
<polygon fill="black" stroke="black" points="181.12,-537.39 189.39,-544.02 187.06,-533.68 181.12,-537.39"/>
<text text-anchor="middle" x="42.5" y="-318.8" font-family="Times,serif" font-size="14.00">e</text>
</g>
<!-- 4&#45;&gt;18 -->
<g id="edge6" class="edge">
<title>4&#45;&gt;18</title>
<path fill="none" stroke="black" d="M81.18,-91.64C102.28,-77.29 137.29,-53.49 161.44,-37.06"/>
<polygon fill="black" stroke="black" points="163.5,-39.89 169.8,-31.37 159.56,-34.1 163.5,-39.89"/>
<text text-anchor="middle" x="135.5" y="-57.8" font-family="Times,serif" font-size="14.00">e</text>
</g>
</g>
</svg>
