<?xml version="1.0" encoding="UTF-8" standalone="no"?>
<!DOCTYPE svg PUBLIC "-//W3C//DTD SVG 1.1//EN"
 "http://www.w3.org/Graphics/SVG/1.1/DTD/svg11.dtd">
<!-- Generated by graphviz version 10.0.1 (20240210.2158)
 -->
<!-- Title: di_graph Pages: 1 -->
<svg width="1214pt" height="1340pt"
 viewBox="0.00 0.00 1214.00 1340.00" xmlns="http://www.w3.org/2000/svg" xmlns:xlink="http://www.w3.org/1999/xlink">
<g id="graph0" class="graph" transform="scale(1 1) rotate(0) translate(4 1336)">
<title>di_graph</title>
<polygon fill="white" stroke="none" points="-4,4 -4,-1336 1210,-1336 1210,4 -4,4"/>
<!-- 23 -->
<g id="node1" class="node">
<title>23</title>
<ellipse fill="none" stroke="black" cx="549" cy="-1314" rx="27" ry="18"/>
<text text-anchor="middle" x="549" y="-1308.95" font-family="Times,serif" font-size="14.00">23</text>
</g>
<!-- 17 -->
<g id="node11" class="node">
<title>17</title>
<ellipse fill="none" stroke="black" cx="634" cy="-1242" rx="27" ry="18"/>
<text text-anchor="middle" x="634" y="-1236.95" font-family="Times,serif" font-size="14.00">17</text>
</g>
<!-- 23&#45;&gt;17 -->
<g id="edge29" class="edge">
<title>23&#45;&gt;17</title>
<path fill="none" stroke="black" d="M565.39,-1299.5C577.66,-1289.4 594.66,-1275.39 608.68,-1263.86"/>
<polygon fill="black" stroke="black" points="610.71,-1266.72 616.2,-1257.66 606.26,-1261.31 610.71,-1266.72"/>
</g>
<!-- 27 -->
<g id="node29" class="node">
<title>27</title>
<ellipse fill="none" stroke="black" cx="241" cy="-522" rx="27" ry="18"/>
<text text-anchor="middle" x="241" y="-516.95" font-family="Times,serif" font-size="14.00">27</text>
</g>
<!-- 23&#45;&gt;27 -->
<g id="edge30" class="edge">
<title>23&#45;&gt;27</title>
<path fill="none" stroke="black" d="M521.78,-1311.9C411,-1306.69 0,-1280.03 0,-1171 0,-1171 0,-1171 0,-809 0,-679.57 146.12,-578.3 210.8,-539.81"/>
<polygon fill="black" stroke="black" points="212.27,-543 219.15,-534.94 208.74,-536.96 212.27,-543"/>
</g>
<!-- 2 -->
<g id="node2" class="node">
<title>2</title>
<ellipse fill="none" stroke="black" cx="803" cy="-1026" rx="27" ry="18"/>
<text text-anchor="middle" x="803" y="-1020.95" font-family="Times,serif" font-size="14.00">2</text>
</g>
<!-- 7 -->
<g id="node4" class="node">
<title>7</title>
<ellipse fill="none" stroke="black" cx="725" cy="-954" rx="27" ry="18"/>
<text text-anchor="middle" x="725" y="-948.95" font-family="Times,serif" font-size="14.00">7</text>
</g>
<!-- 2&#45;&gt;7 -->
<g id="edge2" class="edge">
<title>2&#45;&gt;7</title>
<path fill="none" stroke="black" d="M787.59,-1011.17C776.55,-1001.26 761.47,-987.73 748.88,-976.43"/>
<polygon fill="black" stroke="black" points="751.55,-974.13 741.77,-970.05 746.88,-979.34 751.55,-974.13"/>
</g>
<!-- 13 -->
<g id="node3" class="node">
<title>13</title>
<ellipse fill="none" stroke="black" cx="1056" cy="-90" rx="27" ry="18"/>
<text text-anchor="middle" x="1056" y="-84.95" font-family="Times,serif" font-size="14.00">13</text>
</g>
<!-- 13&#45;&gt;7 -->
<g id="edge21" class="edge">
<title>13&#45;&gt;7</title>
<path fill="none" stroke="black" d="M1052.45,-108.19C1048.61,-126.2 1042.08,-155.27 1035,-180 951.33,-472.26 944.72,-552.6 816,-828 800.12,-861.97 794.31,-869.85 772,-900 764.43,-910.23 755.3,-920.85 747.1,-929.88"/>
<polygon fill="black" stroke="black" points="744.57,-927.47 740.35,-937.18 749.71,-932.22 744.57,-927.47"/>
</g>
<!-- 16 -->
<g id="node8" class="node">
<title>16</title>
<ellipse fill="none" stroke="black" cx="642" cy="-882" rx="27" ry="18"/>
<text text-anchor="middle" x="642" y="-876.95" font-family="Times,serif" font-size="14.00">16</text>
</g>
<!-- 13&#45;&gt;16 -->
<g id="edge22" class="edge">
<title>13&#45;&gt;16</title>
<path fill="none" stroke="black" d="M1047.92,-107.55C1008.64,-187.81 833.02,-544.17 674,-828 669,-836.93 663.28,-846.56 658.08,-855.12"/>
<polygon fill="black" stroke="black" points="655.11,-853.28 652.87,-863.63 661.08,-856.93 655.11,-853.28"/>
</g>
<!-- 13&#45;&gt;17 -->
<g id="edge23" class="edge">
<title>13&#45;&gt;17</title>
<path fill="none" stroke="black" d="M1068.79,-106.04C1088.49,-130.79 1124,-182.43 1124,-233 1124,-1099 1124,-1099 1124,-1099 1124,-1192.88 787.97,-1228.65 672.45,-1238.18"/>
<polygon fill="black" stroke="black" points="672.24,-1234.68 662.55,-1238.97 672.8,-1241.66 672.24,-1234.68"/>
</g>
<!-- 7&#45;&gt;16 -->
<g id="edge27" class="edge">
<title>7&#45;&gt;16</title>
<path fill="none" stroke="black" d="M708.6,-939.17C696.78,-929.2 680.6,-915.56 667.15,-904.21"/>
<polygon fill="black" stroke="black" points="669.42,-901.55 659.52,-897.78 664.91,-906.9 669.42,-901.55"/>
</g>
<!-- 12 -->
<g id="node22" class="node">
<title>12</title>
<ellipse fill="none" stroke="black" cx="841" cy="-882" rx="27" ry="18"/>
<text text-anchor="middle" x="841" y="-876.95" font-family="Times,serif" font-size="14.00">12</text>
</g>
<!-- 7&#45;&gt;12 -->
<g id="edge26" class="edge">
<title>7&#45;&gt;12</title>
<path fill="none" stroke="black" d="M744.68,-941.13C763.12,-930 790.92,-913.22 811.92,-900.55"/>
<polygon fill="black" stroke="black" points="813.56,-903.64 820.32,-895.48 809.95,-897.65 813.56,-903.64"/>
</g>
<!-- 5 -->
<g id="node5" class="node">
<title>5</title>
<ellipse fill="none" stroke="black" cx="913" cy="-1098" rx="27" ry="18"/>
<text text-anchor="middle" x="913" y="-1092.95" font-family="Times,serif" font-size="14.00">5</text>
</g>
<!-- 5&#45;&gt;23 -->
<g id="edge38" class="edge">
<title>5&#45;&gt;23</title>
<path fill="none" stroke="black" d="M897.68,-1113.1C863.91,-1143.55 779.57,-1216.25 698,-1260 661.26,-1279.7 615.68,-1294.68 584.67,-1303.61"/>
<polygon fill="black" stroke="black" points="584.09,-1300.13 575.41,-1306.21 585.98,-1306.87 584.09,-1300.13"/>
</g>
<!-- 5&#45;&gt;2 -->
<g id="edge37" class="edge">
<title>5&#45;&gt;2</title>
<path fill="none" stroke="black" d="M893.84,-1084.81C876.65,-1073.87 851.18,-1057.66 831.58,-1045.19"/>
<polygon fill="black" stroke="black" points="833.53,-1042.28 823.22,-1039.87 829.78,-1048.19 833.53,-1042.28"/>
</g>
<!-- 8 -->
<g id="node21" class="node">
<title>8</title>
<ellipse fill="none" stroke="black" cx="541" cy="-234" rx="27" ry="18"/>
<text text-anchor="middle" x="541" y="-228.95" font-family="Times,serif" font-size="14.00">8</text>
</g>
<!-- 5&#45;&gt;8 -->
<g id="edge41" class="edge">
<title>5&#45;&gt;8</title>
<path fill="none" stroke="black" d="M917.15,-1080.07C923.27,-1053.57 934,-1000.61 934,-955 934,-955 934,-955 934,-809 934,-682.89 812.84,-359.56 709,-288 669.23,-260.6 614.6,-246.83 578.58,-240.31"/>
<polygon fill="black" stroke="black" points="579.51,-236.92 569.07,-238.69 578.34,-243.82 579.51,-236.92"/>
</g>
<!-- 5&#45;&gt;12 -->
<g id="edge39" class="edge">
<title>5&#45;&gt;12</title>
<path fill="none" stroke="black" d="M907.35,-1080.21C895,-1043.5 865.49,-955.79 850.33,-910.74"/>
<polygon fill="black" stroke="black" points="853.71,-909.81 847.21,-901.44 847.08,-912.04 853.71,-909.81"/>
</g>
<!-- 11 -->
<g id="node25" class="node">
<title>11</title>
<ellipse fill="none" stroke="black" cx="289" cy="-90" rx="27" ry="18"/>
<text text-anchor="middle" x="289" y="-84.95" font-family="Times,serif" font-size="14.00">11</text>
</g>
<!-- 5&#45;&gt;11 -->
<g id="edge40" class="edge">
<title>5&#45;&gt;11</title>
<path fill="none" stroke="black" d="M924.38,-1081.28C941.52,-1055.99 972,-1004.12 972,-955 972,-955 972,-955 972,-809 972,-645.57 1056,-614.43 1056,-451 1056,-451 1056,-451 1056,-377 1056,-248.02 999.26,-199.85 883,-144 784.3,-96.59 443.2,-91.34 327.64,-90.95"/>
<polygon fill="black" stroke="black" points="327.76,-87.45 317.75,-90.93 327.74,-94.45 327.76,-87.45"/>
</g>
<!-- 24 -->
<g id="node6" class="node">
<title>24</title>
<ellipse fill="none" stroke="black" cx="342" cy="-738" rx="27" ry="18"/>
<text text-anchor="middle" x="342" y="-732.95" font-family="Times,serif" font-size="14.00">24</text>
</g>
<!-- 4 -->
<g id="node27" class="node">
<title>4</title>
<ellipse fill="none" stroke="black" cx="697" cy="-666" rx="27" ry="18"/>
<text text-anchor="middle" x="697" y="-660.95" font-family="Times,serif" font-size="14.00">4</text>
</g>
<!-- 24&#45;&gt;4 -->
<g id="edge59" class="edge">
<title>24&#45;&gt;4</title>
<path fill="none" stroke="black" d="M368.02,-732.45C417.71,-723.67 529.46,-703.56 623,-684 635.32,-681.42 648.74,-678.4 660.74,-675.63"/>
<polygon fill="black" stroke="black" points="661.29,-679.09 670.24,-673.41 659.7,-672.28 661.29,-679.09"/>
</g>
<!-- 26 -->
<g id="node28" class="node">
<title>26</title>
<ellipse fill="none" stroke="black" cx="401" cy="-306" rx="27" ry="18"/>
<text text-anchor="middle" x="401" y="-300.95" font-family="Times,serif" font-size="14.00">26</text>
</g>
<!-- 24&#45;&gt;26 -->
<g id="edge60" class="edge">
<title>24&#45;&gt;26</title>
<path fill="none" stroke="black" d="M344.24,-719.7C351.21,-666.19 373.16,-498.61 393,-360 394.14,-352.05 395.42,-343.43 396.62,-335.5"/>
<polygon fill="black" stroke="black" points="400.07,-336.09 398.11,-325.67 393.15,-335.03 400.07,-336.09"/>
</g>
<!-- 15 -->
<g id="node7" class="node">
<title>15</title>
<ellipse fill="none" stroke="black" cx="653" cy="-954" rx="27" ry="18"/>
<text text-anchor="middle" x="653" y="-948.95" font-family="Times,serif" font-size="14.00">15</text>
</g>
<!-- 22 -->
<g id="node15" class="node">
<title>22</title>
<ellipse fill="none" stroke="black" cx="262" cy="-162" rx="27" ry="18"/>
<text text-anchor="middle" x="262" y="-156.95" font-family="Times,serif" font-size="14.00">22</text>
</g>
<!-- 15&#45;&gt;22 -->
<g id="edge48" class="edge">
<title>15&#45;&gt;22</title>
<path fill="none" stroke="black" d="M626.18,-951.29C503.31,-941.87 0,-885.57 0,-595 0,-595 0,-595 0,-305 0,-204.53 150.76,-174.78 223.55,-166.27"/>
<polygon fill="black" stroke="black" points="223.88,-169.75 233.44,-165.2 223.13,-162.79 223.88,-169.75"/>
</g>
<!-- 1 -->
<g id="node20" class="node">
<title>1</title>
<ellipse fill="none" stroke="black" cx="534" cy="-594" rx="27" ry="18"/>
<text text-anchor="middle" x="534" y="-588.95" font-family="Times,serif" font-size="14.00">1</text>
</g>
<!-- 15&#45;&gt;1 -->
<g id="edge49" class="edge">
<title>15&#45;&gt;1</title>
<path fill="none" stroke="black" d="M632.75,-941.66C598.3,-920.7 532,-872.38 532,-811 532,-811 532,-811 532,-737 532,-697.74 532.77,-652.37 533.36,-623.69"/>
<polygon fill="black" stroke="black" points="536.85,-624.07 533.56,-614 529.85,-623.92 536.85,-624.07"/>
</g>
<!-- 15&#45;&gt;12 -->
<g id="edge50" class="edge">
<title>15&#45;&gt;12</title>
<path fill="none" stroke="black" d="M674.15,-942.56C678.99,-940.3 684.14,-937.99 689,-936 728.51,-919.84 774.98,-904.09 806.04,-894.02"/>
<polygon fill="black" stroke="black" points="806.86,-897.44 815.31,-891.04 804.72,-890.77 806.86,-897.44"/>
</g>
<!-- 25 -->
<g id="node24" class="node">
<title>25</title>
<ellipse fill="none" stroke="black" cx="1027" cy="-882" rx="27" ry="18"/>
<text text-anchor="middle" x="1027" y="-876.95" font-family="Times,serif" font-size="14.00">25</text>
</g>
<!-- 15&#45;&gt;25 -->
<g id="edge51" class="edge">
<title>15&#45;&gt;25</title>
<path fill="none" stroke="black" d="M673.54,-942.07C678.49,-939.78 683.85,-937.58 689,-936 744.64,-918.89 913.23,-896.91 989.19,-887.55"/>
<polygon fill="black" stroke="black" points="989.55,-891.03 999.05,-886.34 988.7,-884.08 989.55,-891.03"/>
</g>
<!-- 16&#45;&gt;23 -->
<g id="edge77" class="edge">
<title>16&#45;&gt;23</title>
<path fill="none" stroke="black" d="M623.51,-895.32C610.42,-904.95 593.41,-919.45 583,-936 547.51,-992.44 550.43,-1014 541,-1080 530.56,-1153.07 539.05,-1240.27 544.8,-1284.39"/>
<polygon fill="black" stroke="black" points="541.31,-1284.71 546.13,-1294.14 548.25,-1283.76 541.31,-1284.71"/>
</g>
<!-- 9 -->
<g id="node12" class="node">
<title>9</title>
<ellipse fill="none" stroke="black" cx="304" cy="-810" rx="27" ry="18"/>
<text text-anchor="middle" x="304" y="-804.95" font-family="Times,serif" font-size="14.00">9</text>
</g>
<!-- 16&#45;&gt;9 -->
<g id="edge76" class="edge">
<title>16&#45;&gt;9</title>
<path fill="none" stroke="black" d="M616.32,-875.68C556.9,-863.38 409.77,-832.91 340.8,-818.62"/>
<polygon fill="black" stroke="black" points="341.63,-815.22 331.13,-816.62 340.21,-822.07 341.63,-815.22"/>
</g>
<!-- 14 -->
<g id="node9" class="node">
<title>14</title>
<ellipse fill="none" stroke="black" cx="1031" cy="-1098" rx="27" ry="18"/>
<text text-anchor="middle" x="1031" y="-1092.95" font-family="Times,serif" font-size="14.00">14</text>
</g>
<!-- 14&#45;&gt;2 -->
<g id="edge35" class="edge">
<title>14&#45;&gt;2</title>
<path fill="none" stroke="black" d="M1006.6,-1089.51C966.06,-1077.06 884.68,-1052.08 838.02,-1037.75"/>
<polygon fill="black" stroke="black" points="839.26,-1034.47 828.67,-1034.88 837.2,-1041.16 839.26,-1034.47"/>
</g>
<!-- 28 -->
<g id="node16" class="node">
<title>28</title>
<ellipse fill="none" stroke="black" cx="1179" cy="-1026" rx="27" ry="18"/>
<text text-anchor="middle" x="1179" y="-1020.95" font-family="Times,serif" font-size="14.00">28</text>
</g>
<!-- 14&#45;&gt;28 -->
<g id="edge36" class="edge">
<title>14&#45;&gt;28</title>
<path fill="none" stroke="black" d="M1052.52,-1086.82C1077.4,-1075.05 1118.59,-1055.57 1147.18,-1042.05"/>
<polygon fill="black" stroke="black" points="1148.54,-1045.28 1156.09,-1037.84 1145.55,-1038.95 1148.54,-1045.28"/>
</g>
<!-- 14&#45;&gt;25 -->
<g id="edge34" class="edge">
<title>14&#45;&gt;25</title>
<path fill="none" stroke="black" d="M1030.68,-1079.85C1029.99,-1043.14 1028.38,-956.66 1027.53,-911.53"/>
<polygon fill="black" stroke="black" points="1031.04,-911.68 1027.35,-901.75 1024.04,-911.81 1031.04,-911.68"/>
</g>
<!-- 0 -->
<g id="node10" class="node">
<title>0</title>
<ellipse fill="none" stroke="black" cx="847" cy="-162" rx="27" ry="18"/>
<text text-anchor="middle" x="847" y="-156.95" font-family="Times,serif" font-size="14.00">0</text>
</g>
<!-- 0&#45;&gt;1 -->
<g id="edge1" class="edge">
<title>0&#45;&gt;1</title>
<path fill="none" stroke="black" d="M835.69,-178.54C788.84,-242.9 609.77,-488.91 552.05,-568.21"/>
<polygon fill="black" stroke="black" points="549.27,-566.07 546.22,-576.22 554.93,-570.19 549.27,-566.07"/>
</g>
<!-- 3 -->
<g id="node13" class="node">
<title>3</title>
<ellipse fill="none" stroke="black" cx="727" cy="-1170" rx="27" ry="18"/>
<text text-anchor="middle" x="727" y="-1164.95" font-family="Times,serif" font-size="14.00">3</text>
</g>
<!-- 17&#45;&gt;3 -->
<g id="edge9" class="edge">
<title>17&#45;&gt;3</title>
<path fill="none" stroke="black" d="M651.49,-1227.83C665.39,-1217.37 685.05,-1202.58 700.82,-1190.7"/>
<polygon fill="black" stroke="black" points="702.49,-1193.83 708.38,-1185.02 698.28,-1188.24 702.49,-1193.83"/>
</g>
<!-- 17&#45;&gt;28 -->
<g id="edge11" class="edge">
<title>17&#45;&gt;28</title>
<path fill="none" stroke="black" d="M661.28,-1239.93C760.97,-1235.78 1101.69,-1219.4 1138,-1188 1176.02,-1155.11 1181.28,-1092.38 1180.76,-1055.68"/>
<polygon fill="black" stroke="black" points="1184.26,-1055.71 1180.45,-1045.83 1177.26,-1055.93 1184.26,-1055.71"/>
</g>
<!-- 17&#45;&gt;27 -->
<g id="edge8" class="edge">
<title>17&#45;&gt;27</title>
<path fill="none" stroke="black" d="M610.15,-1233.18C586.87,-1224.71 551.34,-1209.46 526,-1188 375.77,-1060.8 336.43,-1012.57 268,-828 232.26,-731.62 235.11,-606.82 238.64,-551.52"/>
<polygon fill="black" stroke="black" points="242.12,-551.94 239.33,-541.72 235.14,-551.45 242.12,-551.94"/>
</g>
<!-- 19 -->
<g id="node30" class="node">
<title>19</title>
<ellipse fill="none" stroke="black" cx="738" cy="-1098" rx="27" ry="18"/>
<text text-anchor="middle" x="738" y="-1092.95" font-family="Times,serif" font-size="14.00">19</text>
</g>
<!-- 17&#45;&gt;19 -->
<g id="edge10" class="edge">
<title>17&#45;&gt;19</title>
<path fill="none" stroke="black" d="M643.37,-1224.74C654.11,-1206.5 672.63,-1176.29 691,-1152 698.68,-1141.85 707.83,-1131.24 716.01,-1122.21"/>
<polygon fill="black" stroke="black" points="718.55,-1124.61 722.75,-1114.89 713.4,-1119.87 718.55,-1124.61"/>
</g>
<!-- 9&#45;&gt;24 -->
<g id="edge73" class="edge">
<title>9&#45;&gt;24</title>
<path fill="none" stroke="black" d="M312.81,-792.76C317.27,-784.55 322.8,-774.37 327.84,-765.09"/>
<polygon fill="black" stroke="black" points="330.82,-766.94 332.51,-756.48 324.67,-763.6 330.82,-766.94"/>
</g>
<!-- 9&#45;&gt;17 -->
<g id="edge71" class="edge">
<title>9&#45;&gt;17</title>
<path fill="none" stroke="black" d="M314.4,-826.93C359.99,-896.68 540.51,-1172.39 556,-1188 570.1,-1202.2 588.51,-1214.93 603.91,-1224.34"/>
<polygon fill="black" stroke="black" points="601.83,-1227.18 612.22,-1229.27 605.4,-1221.16 601.83,-1227.18"/>
</g>
<!-- 20 -->
<g id="node14" class="node">
<title>20</title>
<ellipse fill="none" stroke="black" cx="131" cy="-450" rx="27" ry="18"/>
<text text-anchor="middle" x="131" y="-444.95" font-family="Times,serif" font-size="14.00">20</text>
</g>
<!-- 9&#45;&gt;20 -->
<g id="edge72" class="edge">
<title>9&#45;&gt;20</title>
<path fill="none" stroke="black" d="M280.19,-800.87C259.7,-792.67 230.84,-778.05 214,-756 148.86,-670.69 134.81,-537.7 131.8,-479.69"/>
<polygon fill="black" stroke="black" points="135.31,-479.84 131.38,-470 128.32,-480.14 135.31,-479.84"/>
</g>
<!-- 18 -->
<g id="node17" class="node">
<title>18</title>
<ellipse fill="none" stroke="black" cx="429" cy="-378" rx="27" ry="18"/>
<text text-anchor="middle" x="429" y="-372.95" font-family="Times,serif" font-size="14.00">18</text>
</g>
<!-- 9&#45;&gt;18 -->
<g id="edge74" class="edge">
<title>9&#45;&gt;18</title>
<path fill="none" stroke="black" d="M326.14,-799.08C343.14,-790.26 365.72,-775.72 378,-756 448.36,-643.07 439.57,-474.4 432.62,-407.67"/>
<polygon fill="black" stroke="black" points="436.12,-407.48 431.54,-397.93 429.17,-408.26 436.12,-407.48"/>
</g>
<!-- 9&#45;&gt;8 -->
<g id="edge75" class="edge">
<title>9&#45;&gt;8</title>
<path fill="none" stroke="black" d="M294.54,-792.86C266.54,-743.48 186,-589.41 186,-451 186,-451 186,-451 186,-377 186,-309.12 412.61,-259.06 503.73,-241.68"/>
<polygon fill="black" stroke="black" points="504.23,-245.15 513.41,-239.86 502.93,-238.27 504.23,-245.15"/>
</g>
<!-- 3&#45;&gt;23 -->
<g id="edge6" class="edge">
<title>3&#45;&gt;23</title>
<path fill="none" stroke="black" d="M719.89,-1187.87C710.87,-1207.52 693.58,-1239.86 670,-1260 645.24,-1281.15 610.72,-1295.14 584.89,-1303.41"/>
<polygon fill="black" stroke="black" points="584.05,-1300.01 575.5,-1306.27 586.08,-1306.71 584.05,-1300.01"/>
</g>
<!-- 3&#45;&gt;7 -->
<g id="edge5" class="edge">
<title>3&#45;&gt;7</title>
<path fill="none" stroke="black" d="M717.15,-1152.97C711.49,-1142.79 704.94,-1129.1 702,-1116 691.61,-1069.62 704.83,-1014.63 715.1,-982.4"/>
<polygon fill="black" stroke="black" points="718.37,-983.64 718.22,-973.05 711.73,-981.42 718.37,-983.64"/>
</g>
<!-- 3&#45;&gt;5 -->
<g id="edge4" class="edge">
<title>3&#45;&gt;5</title>
<path fill="none" stroke="black" d="M750.72,-1160.68C779.54,-1150.49 829.55,-1132.55 872,-1116 874.64,-1114.97 877.36,-1113.89 880.1,-1112.79"/>
<polygon fill="black" stroke="black" points="881.18,-1116.12 889.11,-1109.1 878.53,-1109.65 881.18,-1116.12"/>
</g>
<!-- 3&#45;&gt;0 -->
<g id="edge7" class="edge">
<title>3&#45;&gt;0</title>
<path fill="none" stroke="black" d="M753.78,-1166.57C830.02,-1159.41 1044.21,-1137.55 1067,-1116 1096.39,-1088.21 1086,-1067.45 1086,-1027 1086,-1027 1086,-1027 1086,-809 1086,-570.34 1026.9,-515.88 956,-288 945.85,-255.37 950.43,-242.62 929,-216 915.79,-199.6 896.1,-186.64 879.32,-177.64"/>
<polygon fill="black" stroke="black" points="881.18,-174.66 870.68,-173.24 878,-180.89 881.18,-174.66"/>
</g>
<!-- 3&#45;&gt;12 -->
<g id="edge3" class="edge">
<title>3&#45;&gt;12</title>
<path fill="none" stroke="black" d="M744.84,-1156.09C771.26,-1135.75 819.75,-1093.41 839,-1044 856.08,-1000.16 851.56,-944.36 846.47,-911.29"/>
<polygon fill="black" stroke="black" points="849.96,-910.97 844.85,-901.69 843.06,-912.13 849.96,-910.97"/>
</g>
<!-- 20&#45;&gt;22 -->
<g id="edge28" class="edge">
<title>20&#45;&gt;22</title>
<path fill="none" stroke="black" d="M133.22,-431.84C137.58,-401.61 148.94,-337.4 172,-288 190.05,-249.32 220.58,-210.28 241.01,-186.37"/>
<polygon fill="black" stroke="black" points="243.39,-188.96 247.3,-179.12 238.1,-184.38 243.39,-188.96"/>
</g>
<!-- 22&#45;&gt;13 -->
<g id="edge20" class="edge">
<title>22&#45;&gt;13</title>
<path fill="none" stroke="black" d="M288.87,-158.63C406.93,-148.22 879.79,-106.54 1017.93,-94.36"/>
<polygon fill="black" stroke="black" points="1017.97,-97.87 1027.63,-93.5 1017.36,-90.89 1017.97,-97.87"/>
</g>
<!-- 22&#45;&gt;24 -->
<g id="edge19" class="edge">
<title>22&#45;&gt;24</title>
<path fill="none" stroke="black" d="M262,-180.49C262,-207.29 262,-260.13 262,-305 262,-379 262,-379 262,-379 262,-444.61 313.82,-636.49 334.05,-708.9"/>
<polygon fill="black" stroke="black" points="330.64,-709.7 336.71,-718.39 337.37,-707.81 330.64,-709.7"/>
</g>
<!-- 22&#45;&gt;16 -->
<g id="edge18" class="edge">
<title>22&#45;&gt;16</title>
<path fill="none" stroke="black" d="M236.92,-169.4C186.15,-184.02 76,-224.97 76,-305 76,-523 76,-523 76,-523 76,-683.18 122.65,-760.69 268,-828 327.2,-855.42 520.29,-872.23 603.39,-878.36"/>
<polygon fill="black" stroke="black" points="603.09,-881.85 613.32,-879.08 603.6,-874.87 603.09,-881.85"/>
</g>
<!-- 6 -->
<g id="node18" class="node">
<title>6</title>
<ellipse fill="none" stroke="black" cx="234" cy="-18" rx="27" ry="18"/>
<text text-anchor="middle" x="234" y="-12.95" font-family="Times,serif" font-size="14.00">6</text>
</g>
<!-- 22&#45;&gt;6 -->
<g id="edge16" class="edge">
<title>22&#45;&gt;6</title>
<path fill="none" stroke="black" d="M258.62,-143.87C253.89,-119.88 245.24,-75.99 239.55,-47.16"/>
<polygon fill="black" stroke="black" points="243.05,-46.81 237.68,-37.67 236.18,-48.16 243.05,-46.81"/>
</g>
<!-- 22&#45;&gt;11 -->
<g id="edge17" class="edge">
<title>22&#45;&gt;11</title>
<path fill="none" stroke="black" d="M268.54,-144.05C271.52,-136.32 275.13,-126.96 278.48,-118.27"/>
<polygon fill="black" stroke="black" points="281.65,-119.79 281.98,-109.2 275.12,-117.27 281.65,-119.79"/>
</g>
<!-- 28&#45;&gt;13 -->
<g id="edge53" class="edge">
<title>28&#45;&gt;13</title>
<path fill="none" stroke="black" d="M1177.22,-1007.97C1174.6,-981.34 1170,-928.21 1170,-883 1170,-883 1170,-883 1170,-233 1170,-190.97 1164.14,-176.92 1138,-144 1124.91,-127.51 1105.21,-114.54 1088.41,-105.56"/>
<polygon fill="black" stroke="black" points="1090.25,-102.58 1079.75,-101.18 1087.09,-108.82 1090.25,-102.58"/>
</g>
<!-- 18&#45;&gt;7 -->
<g id="edge31" class="edge">
<title>18&#45;&gt;7</title>
<path fill="none" stroke="black" d="M452.6,-387.04C522.36,-412.25 727.53,-497.23 804,-648 840.22,-719.42 821.32,-752.03 796,-828 789.92,-846.24 781.84,-847.48 772,-864 759.79,-884.52 747.22,-908.49 738.16,-926.38"/>
<polygon fill="black" stroke="black" points="735.04,-924.79 733.68,-935.3 741.3,-927.93 735.04,-924.79"/>
</g>
<!-- 18&#45;&gt;24 -->
<g id="edge32" class="edge">
<title>18&#45;&gt;24</title>
<path fill="none" stroke="black" d="M425.02,-396.23C414.26,-442.74 383.51,-574.7 356,-684 353.97,-692.06 351.7,-700.79 349.58,-708.8"/>
<polygon fill="black" stroke="black" points="346.22,-707.81 347.03,-718.38 352.98,-709.61 346.22,-707.81"/>
</g>
<!-- 18&#45;&gt;26 -->
<g id="edge33" class="edge">
<title>18&#45;&gt;26</title>
<path fill="none" stroke="black" d="M422.36,-360.41C419.23,-352.57 415.4,-342.99 411.85,-334.13"/>
<polygon fill="black" stroke="black" points="415.11,-332.86 408.15,-324.88 408.61,-335.46 415.11,-332.86"/>
</g>
<!-- 6&#45;&gt;9 -->
<g id="edge58" class="edge">
<title>6&#45;&gt;9</title>
<path fill="none" stroke="black" d="M208.78,-24.65C155.84,-38.16 38,-77.59 38,-161 38,-523 38,-523 38,-523 38,-645.92 94.07,-675.54 187,-756 200.14,-767.37 240.65,-784.54 270.33,-796.24"/>
<polygon fill="black" stroke="black" points="268.7,-799.36 279.29,-799.73 271.24,-792.84 268.7,-799.36"/>
</g>
<!-- 21 -->
<g id="node19" class="node">
<title>21</title>
<ellipse fill="none" stroke="black" cx="944" cy="-1170" rx="27" ry="18"/>
<text text-anchor="middle" x="944" y="-1164.95" font-family="Times,serif" font-size="14.00">21</text>
</g>
<!-- 21&#45;&gt;5 -->
<g id="edge65" class="edge">
<title>21&#45;&gt;5</title>
<path fill="none" stroke="black" d="M936.65,-1152.41C933.14,-1144.48 928.85,-1134.78 924.88,-1125.84"/>
<polygon fill="black" stroke="black" points="928.16,-1124.58 920.91,-1116.85 921.76,-1127.41 928.16,-1124.58"/>
</g>
<!-- 21&#45;&gt;25 -->
<g id="edge66" class="edge">
<title>21&#45;&gt;25</title>
<path fill="none" stroke="black" d="M950.11,-1152.14C958.67,-1128.25 974.47,-1083.09 986,-1044 999.66,-997.68 1012.99,-943.08 1020.58,-910.84"/>
<polygon fill="black" stroke="black" points="1023.89,-912.04 1022.76,-901.51 1017.08,-910.45 1023.89,-912.04"/>
</g>
<!-- 1&#45;&gt;23 -->
<g id="edge46" class="edge">
<title>1&#45;&gt;23</title>
<path fill="none" stroke="black" d="M521.08,-610.33C513.13,-620.46 503.29,-634.34 497,-648 438.44,-775.2 418,-812.97 418,-953 418,-1171 418,-1171 418,-1171 418,-1229.65 479.13,-1274.44 517.87,-1296.93"/>
<polygon fill="black" stroke="black" points="515.91,-1299.84 526.34,-1301.68 519.33,-1293.73 515.91,-1299.84"/>
</g>
<!-- 1&#45;&gt;16 -->
<g id="edge42" class="edge">
<title>1&#45;&gt;16</title>
<path fill="none" stroke="black" d="M558.15,-602.34C579.12,-610.09 608.35,-624.5 623,-648 662.92,-712.02 654.88,-805.92 647.49,-852.55"/>
<polygon fill="black" stroke="black" points="644.04,-851.92 645.81,-862.37 650.94,-853.1 644.04,-851.92"/>
</g>
<!-- 1&#45;&gt;17 -->
<g id="edge44" class="edge">
<title>1&#45;&gt;17</title>
<path fill="none" stroke="black" d="M526.1,-611.62C514.44,-637.71 494,-690.13 494,-737 494,-811 494,-811 494,-811 494,-971.27 583.02,-1149.36 619.09,-1214.94"/>
<polygon fill="black" stroke="black" points="615.94,-1216.47 623.86,-1223.5 622.05,-1213.06 615.94,-1216.47"/>
</g>
<!-- 1&#45;&gt;22 -->
<g id="edge45" class="edge">
<title>1&#45;&gt;22</title>
<path fill="none" stroke="black" d="M524.75,-576.98C510.8,-551.29 486,-498.88 486,-451 486,-451 486,-451 486,-305 486,-217.66 363.01,-181.79 299.3,-169.07"/>
<polygon fill="black" stroke="black" points="300.1,-165.65 289.62,-167.23 298.8,-172.53 300.1,-165.65"/>
</g>
<!-- 1&#45;&gt;8 -->
<g id="edge47" class="edge">
<title>1&#45;&gt;8</title>
<path fill="none" stroke="black" d="M534.61,-575.51C535.48,-548.72 537,-495.88 537,-451 537,-451 537,-451 537,-377 537,-337.72 538.55,-292.36 539.72,-263.69"/>
<polygon fill="black" stroke="black" points="543.2,-264.14 540.13,-254 536.21,-263.84 543.2,-264.14"/>
</g>
<!-- 1&#45;&gt;27 -->
<g id="edge43" class="edge">
<title>1&#45;&gt;27</title>
<path fill="none" stroke="black" d="M508.77,-586.97C456.73,-574.54 337.37,-546.02 277.15,-531.64"/>
<polygon fill="black" stroke="black" points="278.29,-528.31 267.75,-529.39 276.66,-535.12 278.29,-528.31"/>
</g>
<!-- 8&#45;&gt;0 -->
<g id="edge62" class="edge">
<title>8&#45;&gt;0</title>
<path fill="none" stroke="black" d="M566.3,-227.21C620.49,-214.82 747.93,-185.66 810.73,-171.3"/>
<polygon fill="black" stroke="black" points="811.23,-174.77 820.19,-169.13 809.66,-167.95 811.23,-174.77"/>
</g>
<!-- 8&#45;&gt;3 -->
<g id="edge63" class="edge">
<title>8&#45;&gt;3</title>
<path fill="none" stroke="black" d="M563.18,-244.54C617.36,-269.51 752,-342.3 752,-449 752,-523 752,-523 752,-523 752,-693.75 781.04,-763.84 678,-900 659,-925.1 632.61,-908.66 617,-936 609.07,-949.89 613.11,-956.48 617,-972 634.06,-1040.07 681.11,-1109.35 707.83,-1144.81"/>
<polygon fill="black" stroke="black" points="705,-1146.87 713.86,-1152.68 710.56,-1142.61 705,-1146.87"/>
</g>
<!-- 8&#45;&gt;22 -->
<g id="edge61" class="edge">
<title>8&#45;&gt;22</title>
<path fill="none" stroke="black" d="M519.13,-223.11C513.02,-220.57 506.32,-218 500,-216 430.42,-194.01 346.62,-177.6 299.31,-169.23"/>
<polygon fill="black" stroke="black" points="300.04,-165.81 289.59,-167.54 298.84,-172.7 300.04,-165.81"/>
</g>
<!-- 12&#45;&gt;17 -->
<g id="edge78" class="edge">
<title>12&#45;&gt;17</title>
<path fill="none" stroke="black" d="M827.52,-897.81C802.32,-925.65 749.24,-985.03 734,-1008 694.44,-1067.62 688.82,-1085.66 662,-1152 653.92,-1171.98 646.67,-1195.24 641.58,-1212.97"/>
<polygon fill="black" stroke="black" points="638.23,-1211.96 638.89,-1222.53 644.97,-1213.85 638.23,-1211.96"/>
</g>
<!-- 29 -->
<g id="node23" class="node">
<title>29</title>
<ellipse fill="none" stroke="black" cx="317" cy="-450" rx="27" ry="18"/>
<text text-anchor="middle" x="317" y="-444.95" font-family="Times,serif" font-size="14.00">29</text>
</g>
<!-- 29&#45;&gt;18 -->
<g id="edge24" class="edge">
<title>29&#45;&gt;18</title>
<path fill="none" stroke="black" d="M336.25,-436.97C353.8,-426 379.97,-409.64 400.04,-397.1"/>
<polygon fill="black" stroke="black" points="401.71,-400.18 408.34,-391.91 398,-394.24 401.71,-400.18"/>
</g>
<!-- 25&#45;&gt;0 -->
<g id="edge64" class="edge">
<title>25&#45;&gt;0</title>
<path fill="none" stroke="black" d="M1022.67,-863.8C1005.35,-794.45 942,-535.09 942,-451 942,-451 942,-451 942,-305 942,-254.95 900.73,-209.19 872.59,-183.8"/>
<polygon fill="black" stroke="black" points="874.96,-181.23 865.12,-177.29 870.36,-186.5 874.96,-181.23"/>
</g>
<!-- 11&#45;&gt;6 -->
<g id="edge25" class="edge">
<title>11&#45;&gt;6</title>
<path fill="none" stroke="black" d="M276.79,-73.46C269.89,-64.67 261.09,-53.48 253.27,-43.53"/>
<polygon fill="black" stroke="black" points="256.04,-41.38 247.11,-35.68 250.53,-45.71 256.04,-41.38"/>
</g>
<!-- 10 -->
<g id="node26" class="node">
<title>10</title>
<ellipse fill="none" stroke="black" cx="587" cy="-666" rx="27" ry="18"/>
<text text-anchor="middle" x="587" y="-660.95" font-family="Times,serif" font-size="14.00">10</text>
</g>
<!-- 10&#45;&gt;1 -->
<g id="edge12" class="edge">
<title>10&#45;&gt;1</title>
<path fill="none" stroke="black" d="M575.24,-649.46C568.58,-640.67 560.11,-629.48 552.57,-619.53"/>
<polygon fill="black" stroke="black" points="555.47,-617.56 546.64,-611.7 549.89,-621.78 555.47,-617.56"/>
</g>
<!-- 4&#45;&gt;16 -->
<g id="edge55" class="edge">
<title>4&#45;&gt;16</title>
<path fill="none" stroke="black" d="M692.74,-683.93C685.34,-713.29 669.62,-775.51 656,-828 653.91,-836.05 651.62,-844.77 649.51,-852.78"/>
<polygon fill="black" stroke="black" points="646.14,-851.8 646.97,-862.36 652.91,-853.59 646.14,-851.8"/>
</g>
<!-- 4&#45;&gt;0 -->
<g id="edge56" class="edge">
<title>4&#45;&gt;0</title>
<path fill="none" stroke="black" d="M702.08,-648.01C724.07,-574.42 811.21,-282.78 838.67,-190.88"/>
<polygon fill="black" stroke="black" points="841.98,-192.02 841.49,-181.44 835.27,-190.02 841.98,-192.02"/>
</g>
<!-- 4&#45;&gt;18 -->
<g id="edge57" class="edge">
<title>4&#45;&gt;18</title>
<path fill="none" stroke="black" d="M683.34,-650.42C639.8,-603.96 504.04,-459.08 450.77,-402.23"/>
<polygon fill="black" stroke="black" points="453.38,-399.9 443.99,-394.99 448.27,-404.68 453.38,-399.9"/>
</g>
<!-- 4&#45;&gt;1 -->
<g id="edge54" class="edge">
<title>4&#45;&gt;1</title>
<path fill="none" stroke="black" d="M674.68,-655.41C646.71,-643.4 598.58,-622.73 566.52,-608.96"/>
<polygon fill="black" stroke="black" points="568.27,-605.91 557.7,-605.18 565.51,-612.34 568.27,-605.91"/>
</g>
<!-- 26&#45;&gt;8 -->
<g id="edge52" class="edge">
<title>26&#45;&gt;8</title>
<path fill="none" stroke="black" d="M422.26,-294.37C445.63,-282.69 483.38,-263.81 510.03,-250.49"/>
<polygon fill="black" stroke="black" points="511.26,-253.78 518.64,-246.18 508.13,-247.52 511.26,-253.78"/>
</g>
<!-- 27&#45;&gt;9 -->
<g id="edge67" class="edge">
<title>27&#45;&gt;9</title>
<path fill="none" stroke="black" d="M244.81,-540.31C255.34,-588.11 284.91,-722.32 297.83,-780.97"/>
<polygon fill="black" stroke="black" points="294.35,-781.47 299.92,-790.49 301.19,-779.97 294.35,-781.47"/>
</g>
<!-- 27&#45;&gt;20 -->
<g id="edge70" class="edge">
<title>27&#45;&gt;20</title>
<path fill="none" stroke="black" d="M221.84,-508.81C204.65,-497.87 179.18,-481.66 159.58,-469.19"/>
<polygon fill="black" stroke="black" points="161.53,-466.28 151.22,-463.87 157.78,-472.19 161.53,-466.28"/>
</g>
<!-- 27&#45;&gt;29 -->
<g id="edge69" class="edge">
<title>27&#45;&gt;29</title>
<path fill="none" stroke="black" d="M256.38,-506.83C266.99,-497.06 281.3,-483.88 293.35,-472.78"/>
<polygon fill="black" stroke="black" points="295.55,-475.52 300.53,-466.17 290.8,-470.37 295.55,-475.52"/>
</g>
<!-- 27&#45;&gt;26 -->
<g id="edge68" class="edge">
<title>27&#45;&gt;26</title>
<path fill="none" stroke="black" d="M246.64,-504.04C253.27,-485.44 265.36,-455.17 281,-432 308.55,-391.18 349.93,-351.45 376.19,-328.11"/>
<polygon fill="black" stroke="black" points="378.45,-330.79 383.67,-321.56 373.84,-325.52 378.45,-330.79"/>
</g>
<!-- 19&#45;&gt;2 -->
<g id="edge14" class="edge">
<title>19&#45;&gt;2</title>
<path fill="none" stroke="black" d="M751.78,-1082.15C760.4,-1072.87 771.68,-1060.73 781.46,-1050.19"/>
<polygon fill="black" stroke="black" points="783.97,-1052.64 788.21,-1042.93 778.84,-1047.88 783.97,-1052.64"/>
</g>
<!-- 19&#45;&gt;15 -->
<g id="edge15" class="edge">
<title>19&#45;&gt;15</title>
<path fill="none" stroke="black" d="M728.25,-1080.71C713.65,-1056.32 685.96,-1010.05 668.54,-980.97"/>
<polygon fill="black" stroke="black" points="671.55,-979.18 663.41,-972.4 665.55,-982.78 671.55,-979.18"/>
</g>
<!-- 19&#45;&gt;0 -->
<g id="edge13" class="edge">
<title>19&#45;&gt;0</title>
<path fill="none" stroke="black" d="M741.01,-1079.88C744.86,-1061.14 752.8,-1030.75 767,-1008 809.28,-940.28 896,-962.83 896,-883 896,-883 896,-883 896,-809 896,-569.74 862.17,-282.06 850.73,-191.63"/>
<polygon fill="black" stroke="black" points="854.23,-191.41 849.49,-181.94 847.28,-192.3 854.23,-191.41"/>
</g>
</g>
</svg>
