<?xml version="1.0" encoding="UTF-8" standalone="no"?>
<!DOCTYPE svg PUBLIC "-//W3C//DTD SVG 1.1//EN"
 "http://www.w3.org/Graphics/SVG/1.1/DTD/svg11.dtd">
<!-- Generated by graphviz version 5.0.0 (0)
 -->
<!-- Title: di_graph Pages: 1 -->
<svg width="818pt" height="914pt"
 viewBox="0.00 0.00 818.00 914.00" xmlns="http://www.w3.org/2000/svg" xmlns:xlink="http://www.w3.org/1999/xlink">
<g id="graph0" class="graph" transform="scale(1 1) rotate(0) translate(4 910)">
<title>di_graph</title>
<polygon fill="white" stroke="transparent" points="-4,4 -4,-910 814,-910 814,4 -4,4"/>
<!-- 40 -->
<g id="node1" class="node">
<title>40</title>
<ellipse fill="none" stroke="black" cx="27" cy="-453" rx="27" ry="18"/>
<text text-anchor="middle" x="27" y="-449.3" font-family="Times,serif" font-size="14.00">40 e</text>
</g>
<!-- 20 -->
<g id="node12" class="node">
<title>20</title>
<ellipse fill="none" stroke="black" cx="57" cy="-366" rx="27" ry="18"/>
<text text-anchor="middle" x="57" y="-362.3" font-family="Times,serif" font-size="14.00">20 e</text>
</g>
<!-- 40&#45;&gt;20 -->
<g id="edge34" class="edge">
<title>40&#45;&gt;20</title>
<path fill="none" stroke="black" d="M25.57,-434.82C25.34,-424.92 26.09,-412.42 30,-402 31.62,-397.68 33.97,-393.46 36.61,-389.53"/>
<polygon fill="black" stroke="black" points="39.47,-391.55 42.71,-381.46 33.89,-387.33 39.47,-391.55"/>
<text text-anchor="middle" x="33.5" y="-405.8" font-family="Times,serif" font-size="14.00">e</text>
</g>
<!-- 48 -->
<g id="node2" class="node">
<title>48</title>
<ellipse fill="none" stroke="black" cx="675" cy="-453" rx="27" ry="18"/>
<text text-anchor="middle" x="675" y="-449.3" font-family="Times,serif" font-size="14.00">48 e</text>
</g>
<!-- 41 -->
<g id="node4" class="node">
<title>41</title>
<ellipse fill="none" stroke="black" cx="558" cy="-366" rx="27" ry="18"/>
<text text-anchor="middle" x="558" y="-362.3" font-family="Times,serif" font-size="14.00">41 e</text>
</g>
<!-- 48&#45;&gt;41 -->
<g id="edge44" class="edge">
<title>48&#45;&gt;41</title>
<path fill="none" stroke="black" d="M657.48,-439.27C638.01,-425.13 606.37,-402.14 584,-385.89"/>
<polygon fill="black" stroke="black" points="585.78,-382.86 575.64,-379.81 581.67,-388.52 585.78,-382.86"/>
<text text-anchor="middle" x="626.5" y="-405.8" font-family="Times,serif" font-size="14.00">e</text>
</g>
<!-- 34 -->
<g id="node3" class="node">
<title>34</title>
<ellipse fill="none" stroke="black" cx="639" cy="-540" rx="27" ry="18"/>
<text text-anchor="middle" x="639" y="-536.3" font-family="Times,serif" font-size="14.00">34 e</text>
</g>
<!-- 34&#45;&gt;48 -->
<g id="edge31" class="edge">
<title>34&#45;&gt;48</title>
<path fill="none" stroke="black" d="M646.11,-522.21C651.22,-510.14 658.21,-493.64 664.03,-479.89"/>
<polygon fill="black" stroke="black" points="667.35,-481.04 668.02,-470.47 660.9,-478.31 667.35,-481.04"/>
<text text-anchor="middle" x="662.5" y="-492.8" font-family="Times,serif" font-size="14.00">e</text>
</g>
<!-- 4 -->
<g id="node49" class="node">
<title>4</title>
<ellipse fill="none" stroke="black" cx="503" cy="-279" rx="27" ry="18"/>
<text text-anchor="middle" x="503" y="-275.3" font-family="Times,serif" font-size="14.00">4 e</text>
</g>
<!-- 41&#45;&gt;4 -->
<g id="edge4" class="edge">
<title>41&#45;&gt;4</title>
<path fill="none" stroke="black" d="M547.65,-349.01C539.51,-336.43 528.03,-318.68 518.74,-304.33"/>
<polygon fill="black" stroke="black" points="521.67,-302.41 513.3,-295.92 515.79,-306.21 521.67,-302.41"/>
<text text-anchor="middle" x="537.5" y="-318.8" font-family="Times,serif" font-size="14.00">e</text>
</g>
<!-- 21 -->
<g id="node5" class="node">
<title>21</title>
<ellipse fill="none" stroke="black" cx="287" cy="-279" rx="27" ry="18"/>
<text text-anchor="middle" x="287" y="-275.3" font-family="Times,serif" font-size="14.00">21 e</text>
</g>
<!-- 44 -->
<g id="node34" class="node">
<title>44</title>
<ellipse fill="none" stroke="black" cx="287" cy="-192" rx="27" ry="18"/>
<text text-anchor="middle" x="287" y="-188.3" font-family="Times,serif" font-size="14.00">44 e</text>
</g>
<!-- 21&#45;&gt;44 -->
<g id="edge30" class="edge">
<title>21&#45;&gt;44</title>
<path fill="none" stroke="black" d="M287,-260.8C287,-249.16 287,-233.55 287,-220.24"/>
<polygon fill="black" stroke="black" points="290.5,-220.18 287,-210.18 283.5,-220.18 290.5,-220.18"/>
<text text-anchor="middle" x="290.5" y="-231.8" font-family="Times,serif" font-size="14.00">e</text>
</g>
<!-- 47 -->
<g id="node6" class="node">
<title>47</title>
<ellipse fill="none" stroke="black" cx="359" cy="-279" rx="27" ry="18"/>
<text text-anchor="middle" x="359" y="-275.3" font-family="Times,serif" font-size="14.00">47 e</text>
</g>
<!-- 28 -->
<g id="node31" class="node">
<title>28</title>
<ellipse fill="none" stroke="black" cx="431" cy="-192" rx="27" ry="18"/>
<text text-anchor="middle" x="431" y="-188.3" font-family="Times,serif" font-size="14.00">28 e</text>
</g>
<!-- 47&#45;&gt;28 -->
<g id="edge43" class="edge">
<title>47&#45;&gt;28</title>
<path fill="none" stroke="black" d="M371.87,-262.8C382.93,-249.75 399.04,-230.74 411.65,-215.85"/>
<polygon fill="black" stroke="black" points="414.45,-217.96 418.24,-208.06 409.11,-213.43 414.45,-217.96"/>
<text text-anchor="middle" x="403.5" y="-231.8" font-family="Times,serif" font-size="14.00">e</text>
</g>
<!-- 49 -->
<g id="node7" class="node">
<title>49</title>
<ellipse fill="none" stroke="black" cx="215" cy="-105" rx="27" ry="18"/>
<text text-anchor="middle" x="215" y="-101.3" font-family="Times,serif" font-size="14.00">49 e</text>
</g>
<!-- 5 -->
<g id="node30" class="node">
<title>5</title>
<ellipse fill="none" stroke="black" cx="359" cy="-18" rx="27" ry="18"/>
<text text-anchor="middle" x="359" y="-14.3" font-family="Times,serif" font-size="14.00">5 e</text>
</g>
<!-- 49&#45;&gt;5 -->
<g id="edge6" class="edge">
<title>49&#45;&gt;5</title>
<path fill="none" stroke="black" d="M234.72,-92.36C259.6,-77.67 302.56,-52.31 330.88,-35.6"/>
<polygon fill="black" stroke="black" points="332.69,-38.6 339.52,-30.5 329.13,-32.57 332.69,-38.6"/>
<text text-anchor="middle" x="299.5" y="-57.8" font-family="Times,serif" font-size="14.00">e</text>
</g>
<!-- 0 -->
<g id="node8" class="node">
<title>0</title>
<ellipse fill="none" stroke="black" cx="711" cy="-540" rx="27" ry="18"/>
<text text-anchor="middle" x="711" y="-536.3" font-family="Times,serif" font-size="14.00">0 e</text>
</g>
<!-- 0&#45;&gt;48 -->
<g id="edge14" class="edge">
<title>0&#45;&gt;48</title>
<path fill="none" stroke="black" d="M703.89,-522.21C698.78,-510.14 691.79,-493.64 685.97,-479.89"/>
<polygon fill="black" stroke="black" points="689.1,-478.31 681.98,-470.47 682.65,-481.04 689.1,-478.31"/>
<text text-anchor="middle" x="698.5" y="-492.8" font-family="Times,serif" font-size="14.00">e</text>
</g>
<!-- 31 -->
<g id="node9" class="node">
<title>31</title>
<ellipse fill="none" stroke="black" cx="207" cy="-540" rx="27" ry="18"/>
<text text-anchor="middle" x="207" y="-536.3" font-family="Times,serif" font-size="14.00">31 e</text>
</g>
<!-- 45 -->
<g id="node20" class="node">
<title>45</title>
<ellipse fill="none" stroke="black" cx="243" cy="-453" rx="27" ry="18"/>
<text text-anchor="middle" x="243" y="-449.3" font-family="Times,serif" font-size="14.00">45 e</text>
</g>
<!-- 31&#45;&gt;45 -->
<g id="edge1" class="edge">
<title>31&#45;&gt;45</title>
<path fill="none" stroke="black" d="M214.11,-522.21C219.22,-510.14 226.21,-493.64 232.03,-479.89"/>
<polygon fill="black" stroke="black" points="235.35,-481.04 236.02,-470.47 228.9,-478.31 235.35,-481.04"/>
<text text-anchor="middle" x="231.5" y="-492.8" font-family="Times,serif" font-size="14.00">e</text>
</g>
<!-- 43 -->
<g id="node10" class="node">
<title>43</title>
<ellipse fill="none" stroke="black" cx="357" cy="-366" rx="27" ry="18"/>
<text text-anchor="middle" x="357" y="-362.3" font-family="Times,serif" font-size="14.00">43 e</text>
</g>
<!-- 43&#45;&gt;47 -->
<g id="edge38" class="edge">
<title>43&#45;&gt;47</title>
<path fill="none" stroke="black" d="M357.4,-347.8C357.68,-336.16 358.05,-320.55 358.36,-307.24"/>
<polygon fill="black" stroke="black" points="361.86,-307.26 358.6,-297.18 354.86,-307.09 361.86,-307.26"/>
<text text-anchor="middle" x="362.5" y="-318.8" font-family="Times,serif" font-size="14.00">e</text>
</g>
<!-- 14 -->
<g id="node11" class="node">
<title>14</title>
<ellipse fill="none" stroke="black" cx="279" cy="-540" rx="27" ry="18"/>
<text text-anchor="middle" x="279" y="-536.3" font-family="Times,serif" font-size="14.00">14 e</text>
</g>
<!-- 36 -->
<g id="node28" class="node">
<title>36</title>
<ellipse fill="none" stroke="black" cx="351" cy="-453" rx="27" ry="18"/>
<text text-anchor="middle" x="351" y="-449.3" font-family="Times,serif" font-size="14.00">36 e</text>
</g>
<!-- 14&#45;&gt;36 -->
<g id="edge25" class="edge">
<title>14&#45;&gt;36</title>
<path fill="none" stroke="black" d="M291.87,-523.8C302.93,-510.75 319.04,-491.74 331.65,-476.85"/>
<polygon fill="black" stroke="black" points="334.45,-478.96 338.24,-469.06 329.11,-474.43 334.45,-478.96"/>
<text text-anchor="middle" x="323.5" y="-492.8" font-family="Times,serif" font-size="14.00">e</text>
</g>
<!-- 20&#45;&gt;40 -->
<g id="edge32" class="edge">
<title>20&#45;&gt;40</title>
<path fill="none" stroke="black" d="M51.09,-383.76C46.9,-395.62 41.19,-411.79 36.39,-425.4"/>
<polygon fill="black" stroke="black" points="32.95,-424.61 32.93,-435.21 39.56,-426.94 32.95,-424.61"/>
<text text-anchor="middle" x="47.5" y="-405.8" font-family="Times,serif" font-size="14.00">e</text>
</g>
<!-- 7 -->
<g id="node13" class="node">
<title>7</title>
<ellipse fill="none" stroke="black" cx="567" cy="-801" rx="27" ry="18"/>
<text text-anchor="middle" x="567" y="-797.3" font-family="Times,serif" font-size="14.00">7 e</text>
</g>
<!-- 32 -->
<g id="node46" class="node">
<title>32</title>
<ellipse fill="none" stroke="black" cx="567" cy="-714" rx="27" ry="18"/>
<text text-anchor="middle" x="567" y="-710.3" font-family="Times,serif" font-size="14.00">32 e</text>
</g>
<!-- 7&#45;&gt;32 -->
<g id="edge18" class="edge">
<title>7&#45;&gt;32</title>
<path fill="none" stroke="black" d="M567,-782.8C567,-771.16 567,-755.55 567,-742.24"/>
<polygon fill="black" stroke="black" points="570.5,-742.18 567,-732.18 563.5,-742.18 570.5,-742.18"/>
<text text-anchor="middle" x="570.5" y="-753.8" font-family="Times,serif" font-size="14.00">e</text>
</g>
<!-- 35 -->
<g id="node14" class="node">
<title>35</title>
<ellipse fill="none" stroke="black" cx="495" cy="-540" rx="27" ry="18"/>
<text text-anchor="middle" x="495" y="-536.3" font-family="Times,serif" font-size="14.00">35 e</text>
</g>
<!-- 19 -->
<g id="node21" class="node">
<title>19</title>
<ellipse fill="none" stroke="black" cx="558" cy="-453" rx="27" ry="18"/>
<text text-anchor="middle" x="558" y="-449.3" font-family="Times,serif" font-size="14.00">19 e</text>
</g>
<!-- 35&#45;&gt;19 -->
<g id="edge19" class="edge">
<title>35&#45;&gt;19</title>
<path fill="none" stroke="black" d="M506.56,-523.41C516.06,-510.59 529.67,-492.22 540.51,-477.6"/>
<polygon fill="black" stroke="black" points="543.38,-479.61 546.52,-469.49 537.75,-475.44 543.38,-479.61"/>
<text text-anchor="middle" x="534.5" y="-492.8" font-family="Times,serif" font-size="14.00">e</text>
</g>
<!-- 39 -->
<g id="node15" class="node">
<title>39</title>
<ellipse fill="none" stroke="black" cx="351" cy="-540" rx="27" ry="18"/>
<text text-anchor="middle" x="351" y="-536.3" font-family="Times,serif" font-size="14.00">39 e</text>
</g>
<!-- 39&#45;&gt;36 -->
<g id="edge33" class="edge">
<title>39&#45;&gt;36</title>
<path fill="none" stroke="black" d="M351,-521.8C351,-510.16 351,-494.55 351,-481.24"/>
<polygon fill="black" stroke="black" points="354.5,-481.18 351,-471.18 347.5,-481.18 354.5,-481.18"/>
<text text-anchor="middle" x="354.5" y="-492.8" font-family="Times,serif" font-size="14.00">e</text>
</g>
<!-- 1 -->
<g id="node16" class="node">
<title>1</title>
<ellipse fill="none" stroke="black" cx="423" cy="-540" rx="27" ry="18"/>
<text text-anchor="middle" x="423" y="-536.3" font-family="Times,serif" font-size="14.00">1 e</text>
</g>
<!-- 1&#45;&gt;36 -->
<g id="edge8" class="edge">
<title>1&#45;&gt;36</title>
<path fill="none" stroke="black" d="M410.13,-523.8C399.07,-510.75 382.96,-491.74 370.35,-476.85"/>
<polygon fill="black" stroke="black" points="372.89,-474.43 363.76,-469.06 367.55,-478.96 372.89,-474.43"/>
<text text-anchor="middle" x="395.5" y="-492.8" font-family="Times,serif" font-size="14.00">e</text>
</g>
<!-- 13 -->
<g id="node17" class="node">
<title>13</title>
<ellipse fill="none" stroke="black" cx="109" cy="-801" rx="27" ry="18"/>
<text text-anchor="middle" x="109" y="-797.3" font-family="Times,serif" font-size="14.00">13 e</text>
</g>
<!-- 46 -->
<g id="node50" class="node">
<title>46</title>
<ellipse fill="none" stroke="black" cx="135" cy="-714" rx="27" ry="18"/>
<text text-anchor="middle" x="135" y="-710.3" font-family="Times,serif" font-size="14.00">46 e</text>
</g>
<!-- 13&#45;&gt;46 -->
<g id="edge39" class="edge">
<title>13&#45;&gt;46</title>
<path fill="none" stroke="black" d="M114.14,-783.21C117.77,-771.33 122.71,-755.17 126.88,-741.56"/>
<polygon fill="black" stroke="black" points="130.3,-742.34 129.87,-731.76 123.6,-740.3 130.3,-742.34"/>
<text text-anchor="middle" x="127.5" y="-753.8" font-family="Times,serif" font-size="14.00">e</text>
</g>
<!-- 9 -->
<g id="node18" class="node">
<title>9</title>
<ellipse fill="none" stroke="black" cx="207" cy="-714" rx="27" ry="18"/>
<text text-anchor="middle" x="207" y="-710.3" font-family="Times,serif" font-size="14.00">9 e</text>
</g>
<!-- 29 -->
<g id="node27" class="node">
<title>29</title>
<ellipse fill="none" stroke="black" cx="279" cy="-627" rx="27" ry="18"/>
<text text-anchor="middle" x="279" y="-623.3" font-family="Times,serif" font-size="14.00">29 e</text>
</g>
<!-- 9&#45;&gt;29 -->
<g id="edge15" class="edge">
<title>9&#45;&gt;29</title>
<path fill="none" stroke="black" d="M219.87,-697.8C230.93,-684.75 247.04,-665.74 259.65,-650.85"/>
<polygon fill="black" stroke="black" points="262.45,-652.96 266.24,-643.06 257.11,-648.43 262.45,-652.96"/>
<text text-anchor="middle" x="251.5" y="-666.8" font-family="Times,serif" font-size="14.00">e</text>
</g>
<!-- 33 -->
<g id="node19" class="node">
<title>33</title>
<ellipse fill="none" stroke="black" cx="567" cy="-627" rx="27" ry="18"/>
<text text-anchor="middle" x="567" y="-623.3" font-family="Times,serif" font-size="14.00">33 e</text>
</g>
<!-- 6 -->
<g id="node26" class="node">
<title>6</title>
<ellipse fill="none" stroke="black" cx="567" cy="-540" rx="27" ry="18"/>
<text text-anchor="middle" x="567" y="-536.3" font-family="Times,serif" font-size="14.00">6 e</text>
</g>
<!-- 33&#45;&gt;6 -->
<g id="edge22" class="edge">
<title>33&#45;&gt;6</title>
<path fill="none" stroke="black" d="M567,-608.8C567,-597.16 567,-581.55 567,-568.24"/>
<polygon fill="black" stroke="black" points="570.5,-568.18 567,-558.18 563.5,-568.18 570.5,-568.18"/>
<text text-anchor="middle" x="570.5" y="-579.8" font-family="Times,serif" font-size="14.00">e</text>
</g>
<!-- 45&#45;&gt;43 -->
<g id="edge7" class="edge">
<title>45&#45;&gt;43</title>
<path fill="none" stroke="black" d="M260.31,-439.09C279.23,-424.99 309.72,-402.25 331.4,-386.09"/>
<polygon fill="black" stroke="black" points="333.6,-388.81 339.52,-380.03 329.41,-383.2 333.6,-388.81"/>
<text text-anchor="middle" x="310.5" y="-405.8" font-family="Times,serif" font-size="14.00">e</text>
</g>
<!-- 19&#45;&gt;41 -->
<g id="edge29" class="edge">
<title>19&#45;&gt;41</title>
<path fill="none" stroke="black" d="M558,-434.8C558,-423.16 558,-407.55 558,-394.24"/>
<polygon fill="black" stroke="black" points="561.5,-394.18 558,-384.18 554.5,-394.18 561.5,-394.18"/>
<text text-anchor="middle" x="561.5" y="-405.8" font-family="Times,serif" font-size="14.00">e</text>
</g>
<!-- 22 -->
<g id="node22" class="node">
<title>22</title>
<ellipse fill="none" stroke="black" cx="279" cy="-714" rx="27" ry="18"/>
<text text-anchor="middle" x="279" y="-710.3" font-family="Times,serif" font-size="14.00">22 e</text>
</g>
<!-- 22&#45;&gt;29 -->
<g id="edge3" class="edge">
<title>22&#45;&gt;29</title>
<path fill="none" stroke="black" d="M279,-695.8C279,-684.16 279,-668.55 279,-655.24"/>
<polygon fill="black" stroke="black" points="282.5,-655.18 279,-645.18 275.5,-655.18 282.5,-655.18"/>
<text text-anchor="middle" x="282.5" y="-666.8" font-family="Times,serif" font-size="14.00">e</text>
</g>
<!-- 30 -->
<g id="node23" class="node">
<title>30</title>
<ellipse fill="none" stroke="black" cx="359" cy="-192" rx="27" ry="18"/>
<text text-anchor="middle" x="359" y="-188.3" font-family="Times,serif" font-size="14.00">30 e</text>
</g>
<!-- 15 -->
<g id="node37" class="node">
<title>15</title>
<ellipse fill="none" stroke="black" cx="431" cy="-105" rx="27" ry="18"/>
<text text-anchor="middle" x="431" y="-101.3" font-family="Times,serif" font-size="14.00">15 e</text>
</g>
<!-- 30&#45;&gt;15 -->
<g id="edge17" class="edge">
<title>30&#45;&gt;15</title>
<path fill="none" stroke="black" d="M371.87,-175.8C382.93,-162.75 399.04,-143.74 411.65,-128.85"/>
<polygon fill="black" stroke="black" points="414.45,-130.96 418.24,-121.06 409.11,-126.43 414.45,-130.96"/>
<text text-anchor="middle" x="403.5" y="-144.8" font-family="Times,serif" font-size="14.00">e</text>
</g>
<!-- 27 -->
<g id="node24" class="node">
<title>27</title>
<ellipse fill="none" stroke="black" cx="63" cy="-714" rx="27" ry="18"/>
<text text-anchor="middle" x="63" y="-710.3" font-family="Times,serif" font-size="14.00">27 e</text>
</g>
<!-- 10 -->
<g id="node41" class="node">
<title>10</title>
<ellipse fill="none" stroke="black" cx="99" cy="-627" rx="27" ry="18"/>
<text text-anchor="middle" x="99" y="-623.3" font-family="Times,serif" font-size="14.00">10 e</text>
</g>
<!-- 27&#45;&gt;10 -->
<g id="edge11" class="edge">
<title>27&#45;&gt;10</title>
<path fill="none" stroke="black" d="M70.11,-696.21C75.22,-684.14 82.21,-667.64 88.03,-653.89"/>
<polygon fill="black" stroke="black" points="91.35,-655.04 92.02,-644.47 84.9,-652.31 91.35,-655.04"/>
<text text-anchor="middle" x="87.5" y="-666.8" font-family="Times,serif" font-size="14.00">e</text>
</g>
<!-- 25 -->
<g id="node25" class="node">
<title>25</title>
<ellipse fill="none" stroke="black" cx="122" cy="-888" rx="27" ry="18"/>
<text text-anchor="middle" x="122" y="-884.3" font-family="Times,serif" font-size="14.00">25 e</text>
</g>
<!-- 38 -->
<g id="node33" class="node">
<title>38</title>
<ellipse fill="none" stroke="black" cx="181" cy="-801" rx="27" ry="18"/>
<text text-anchor="middle" x="181" y="-797.3" font-family="Times,serif" font-size="14.00">38 e</text>
</g>
<!-- 25&#45;&gt;38 -->
<g id="edge47" class="edge">
<title>25&#45;&gt;38</title>
<path fill="none" stroke="black" d="M132.82,-871.41C141.58,-858.79 154.08,-840.79 164.15,-826.28"/>
<polygon fill="black" stroke="black" points="167.22,-827.99 170.05,-817.78 161.47,-824 167.22,-827.99"/>
<text text-anchor="middle" x="159.5" y="-840.8" font-family="Times,serif" font-size="14.00">e</text>
</g>
<!-- 6&#45;&gt;19 -->
<g id="edge21" class="edge">
<title>6&#45;&gt;19</title>
<path fill="none" stroke="black" d="M565.18,-521.8C563.95,-510.16 562.29,-494.55 560.88,-481.24"/>
<polygon fill="black" stroke="black" points="564.35,-480.75 559.82,-471.18 557.39,-481.49 564.35,-480.75"/>
<text text-anchor="middle" x="567.5" y="-492.8" font-family="Times,serif" font-size="14.00">e</text>
</g>
<!-- 29&#45;&gt;14 -->
<g id="edge37" class="edge">
<title>29&#45;&gt;14</title>
<path fill="none" stroke="black" d="M279,-608.8C279,-597.16 279,-581.55 279,-568.24"/>
<polygon fill="black" stroke="black" points="282.5,-568.18 279,-558.18 275.5,-568.18 282.5,-568.18"/>
<text text-anchor="middle" x="282.5" y="-579.8" font-family="Times,serif" font-size="14.00">e</text>
</g>
<!-- 36&#45;&gt;43 -->
<g id="edge45" class="edge">
<title>36&#45;&gt;43</title>
<path fill="none" stroke="black" d="M352.21,-434.8C353.04,-423.16 354.14,-407.55 355.08,-394.24"/>
<polygon fill="black" stroke="black" points="358.57,-394.4 355.79,-384.18 351.59,-393.9 358.57,-394.4"/>
<text text-anchor="middle" x="358.5" y="-405.8" font-family="Times,serif" font-size="14.00">e</text>
</g>
<!-- 37 -->
<g id="node29" class="node">
<title>37</title>
<ellipse fill="none" stroke="black" cx="279" cy="-888" rx="27" ry="18"/>
<text text-anchor="middle" x="279" y="-884.3" font-family="Times,serif" font-size="14.00">37 e</text>
</g>
<!-- 42 -->
<g id="node48" class="node">
<title>42</title>
<ellipse fill="none" stroke="black" cx="279" cy="-801" rx="27" ry="18"/>
<text text-anchor="middle" x="279" y="-797.3" font-family="Times,serif" font-size="14.00">42 e</text>
</g>
<!-- 37&#45;&gt;42 -->
<g id="edge26" class="edge">
<title>37&#45;&gt;42</title>
<path fill="none" stroke="black" d="M279,-869.8C279,-858.16 279,-842.55 279,-829.24"/>
<polygon fill="black" stroke="black" points="282.5,-829.18 279,-819.18 275.5,-829.18 282.5,-829.18"/>
<text text-anchor="middle" x="282.5" y="-840.8" font-family="Times,serif" font-size="14.00">e</text>
</g>
<!-- 5&#45;&gt;41 -->
<g id="edge10" class="edge">
<title>5&#45;&gt;41</title>
<path fill="none" stroke="black" d="M386.25,-18.68C440.75,-19.6 558,-30.18 558,-104 558,-280 558,-280 558,-280 558,-299.25 558,-320.95 558,-337.6"/>
<polygon fill="black" stroke="black" points="554.5,-337.74 558,-347.74 561.5,-337.74 554.5,-337.74"/>
<text text-anchor="middle" x="561.5" y="-188.3" font-family="Times,serif" font-size="14.00">e</text>
</g>
<!-- 28&#45;&gt;15 -->
<g id="edge27" class="edge">
<title>28&#45;&gt;15</title>
<path fill="none" stroke="black" d="M431,-173.8C431,-162.16 431,-146.55 431,-133.24"/>
<polygon fill="black" stroke="black" points="434.5,-133.18 431,-123.18 427.5,-133.18 434.5,-133.18"/>
<text text-anchor="middle" x="434.5" y="-144.8" font-family="Times,serif" font-size="14.00">e</text>
</g>
<!-- 2 -->
<g id="node32" class="node">
<title>2</title>
<ellipse fill="none" stroke="black" cx="783" cy="-540" rx="27" ry="18"/>
<text text-anchor="middle" x="783" y="-536.3" font-family="Times,serif" font-size="14.00">2 e</text>
</g>
<!-- 2&#45;&gt;48 -->
<g id="edge13" class="edge">
<title>2&#45;&gt;48</title>
<path fill="none" stroke="black" d="M766.12,-525.72C748.29,-511.68 719.99,-489.41 699.66,-473.41"/>
<polygon fill="black" stroke="black" points="701.78,-470.62 691.76,-467.19 697.45,-476.12 701.78,-470.62"/>
<text text-anchor="middle" x="738.5" y="-492.8" font-family="Times,serif" font-size="14.00">e</text>
</g>
<!-- 38&#45;&gt;46 -->
<g id="edge23" class="edge">
<title>38&#45;&gt;46</title>
<path fill="none" stroke="black" d="M172.13,-783.61C165.47,-771.3 156.23,-754.23 148.63,-740.19"/>
<polygon fill="black" stroke="black" points="151.52,-738.18 143.69,-731.05 145.37,-741.51 151.52,-738.18"/>
<text text-anchor="middle" x="164.5" y="-753.8" font-family="Times,serif" font-size="14.00">e</text>
</g>
<!-- 24 -->
<g id="node36" class="node">
<title>24</title>
<ellipse fill="none" stroke="black" cx="287" cy="-105" rx="27" ry="18"/>
<text text-anchor="middle" x="287" y="-101.3" font-family="Times,serif" font-size="14.00">24 e</text>
</g>
<!-- 44&#45;&gt;24 -->
<g id="edge40" class="edge">
<title>44&#45;&gt;24</title>
<path fill="none" stroke="black" d="M287,-173.8C287,-162.16 287,-146.55 287,-133.24"/>
<polygon fill="black" stroke="black" points="290.5,-133.18 287,-123.18 283.5,-133.18 290.5,-133.18"/>
<text text-anchor="middle" x="290.5" y="-144.8" font-family="Times,serif" font-size="14.00">e</text>
</g>
<!-- 26 -->
<g id="node35" class="node">
<title>26</title>
<ellipse fill="none" stroke="black" cx="423" cy="-627" rx="27" ry="18"/>
<text text-anchor="middle" x="423" y="-623.3" font-family="Times,serif" font-size="14.00">26 e</text>
</g>
<!-- 26&#45;&gt;1 -->
<g id="edge36" class="edge">
<title>26&#45;&gt;1</title>
<path fill="none" stroke="black" d="M423,-608.8C423,-597.16 423,-581.55 423,-568.24"/>
<polygon fill="black" stroke="black" points="426.5,-568.18 423,-558.18 419.5,-568.18 426.5,-568.18"/>
<text text-anchor="middle" x="426.5" y="-579.8" font-family="Times,serif" font-size="14.00">e</text>
</g>
<!-- 24&#45;&gt;5 -->
<g id="edge48" class="edge">
<title>24&#45;&gt;5</title>
<path fill="none" stroke="black" d="M299.87,-88.8C310.93,-75.75 327.04,-56.74 339.65,-41.85"/>
<polygon fill="black" stroke="black" points="342.45,-43.96 346.24,-34.06 337.11,-39.43 342.45,-43.96"/>
<text text-anchor="middle" x="331.5" y="-57.8" font-family="Times,serif" font-size="14.00">e</text>
</g>
<!-- 15&#45;&gt;5 -->
<g id="edge2" class="edge">
<title>15&#45;&gt;5</title>
<path fill="none" stroke="black" d="M418.13,-88.8C407.07,-75.75 390.96,-56.74 378.35,-41.85"/>
<polygon fill="black" stroke="black" points="380.89,-39.43 371.76,-34.06 375.55,-43.96 380.89,-39.43"/>
<text text-anchor="middle" x="403.5" y="-57.8" font-family="Times,serif" font-size="14.00">e</text>
</g>
<!-- 16 -->
<g id="node38" class="node">
<title>16</title>
<ellipse fill="none" stroke="black" cx="194" cy="-888" rx="27" ry="18"/>
<text text-anchor="middle" x="194" y="-884.3" font-family="Times,serif" font-size="14.00">16 e</text>
</g>
<!-- 16&#45;&gt;38 -->
<g id="edge46" class="edge">
<title>16&#45;&gt;38</title>
<path fill="none" stroke="black" d="M191.37,-869.8C189.59,-858.16 187.2,-842.55 185.17,-829.24"/>
<polygon fill="black" stroke="black" points="188.6,-828.53 183.63,-819.18 181.68,-829.59 188.6,-828.53"/>
<text text-anchor="middle" x="192.5" y="-840.8" font-family="Times,serif" font-size="14.00">e</text>
</g>
<!-- 23 -->
<g id="node39" class="node">
<title>23</title>
<ellipse fill="none" stroke="black" cx="359" cy="-105" rx="27" ry="18"/>
<text text-anchor="middle" x="359" y="-101.3" font-family="Times,serif" font-size="14.00">23 e</text>
</g>
<!-- 23&#45;&gt;5 -->
<g id="edge35" class="edge">
<title>23&#45;&gt;5</title>
<path fill="none" stroke="black" d="M359,-86.8C359,-75.16 359,-59.55 359,-46.24"/>
<polygon fill="black" stroke="black" points="362.5,-46.18 359,-36.18 355.5,-46.18 362.5,-46.18"/>
<text text-anchor="middle" x="362.5" y="-57.8" font-family="Times,serif" font-size="14.00">e</text>
</g>
<!-- 8 -->
<g id="node40" class="node">
<title>8</title>
<ellipse fill="none" stroke="black" cx="99" cy="-540" rx="27" ry="18"/>
<text text-anchor="middle" x="99" y="-536.3" font-family="Times,serif" font-size="14.00">8 e</text>
</g>
<!-- 12 -->
<g id="node47" class="node">
<title>12</title>
<ellipse fill="none" stroke="black" cx="99" cy="-453" rx="27" ry="18"/>
<text text-anchor="middle" x="99" y="-449.3" font-family="Times,serif" font-size="14.00">12 e</text>
</g>
<!-- 8&#45;&gt;12 -->
<g id="edge12" class="edge">
<title>8&#45;&gt;12</title>
<path fill="none" stroke="black" d="M99,-521.8C99,-510.16 99,-494.55 99,-481.24"/>
<polygon fill="black" stroke="black" points="102.5,-481.18 99,-471.18 95.5,-481.18 102.5,-481.18"/>
<text text-anchor="middle" x="102.5" y="-492.8" font-family="Times,serif" font-size="14.00">e</text>
</g>
<!-- 10&#45;&gt;8 -->
<g id="edge50" class="edge">
<title>10&#45;&gt;8</title>
<path fill="none" stroke="black" d="M99,-608.8C99,-597.16 99,-581.55 99,-568.24"/>
<polygon fill="black" stroke="black" points="102.5,-568.18 99,-558.18 95.5,-568.18 102.5,-568.18"/>
<text text-anchor="middle" x="102.5" y="-579.8" font-family="Times,serif" font-size="14.00">e</text>
</g>
<!-- 11 -->
<g id="node42" class="node">
<title>11</title>
<ellipse fill="none" stroke="black" cx="351" cy="-714" rx="27" ry="18"/>
<text text-anchor="middle" x="351" y="-710.3" font-family="Times,serif" font-size="14.00">11 e</text>
</g>
<!-- 11&#45;&gt;29 -->
<g id="edge16" class="edge">
<title>11&#45;&gt;29</title>
<path fill="none" stroke="black" d="M338.13,-697.8C327.07,-684.75 310.96,-665.74 298.35,-650.85"/>
<polygon fill="black" stroke="black" points="300.89,-648.43 291.76,-643.06 295.55,-652.96 300.89,-648.43"/>
<text text-anchor="middle" x="323.5" y="-666.8" font-family="Times,serif" font-size="14.00">e</text>
</g>
<!-- 17 -->
<g id="node43" class="node">
<title>17</title>
<ellipse fill="none" stroke="black" cx="215" cy="-192" rx="27" ry="18"/>
<text text-anchor="middle" x="215" y="-188.3" font-family="Times,serif" font-size="14.00">17 e</text>
</g>
<!-- 17&#45;&gt;49 -->
<g id="edge5" class="edge">
<title>17&#45;&gt;49</title>
<path fill="none" stroke="black" d="M215,-173.8C215,-162.16 215,-146.55 215,-133.24"/>
<polygon fill="black" stroke="black" points="218.5,-133.18 215,-123.18 211.5,-133.18 218.5,-133.18"/>
<text text-anchor="middle" x="218.5" y="-144.8" font-family="Times,serif" font-size="14.00">e</text>
</g>
<!-- 18 -->
<g id="node44" class="node">
<title>18</title>
<ellipse fill="none" stroke="black" cx="431" cy="-279" rx="27" ry="18"/>
<text text-anchor="middle" x="431" y="-275.3" font-family="Times,serif" font-size="14.00">18 e</text>
</g>
<!-- 18&#45;&gt;28 -->
<g id="edge42" class="edge">
<title>18&#45;&gt;28</title>
<path fill="none" stroke="black" d="M431,-260.8C431,-249.16 431,-233.55 431,-220.24"/>
<polygon fill="black" stroke="black" points="434.5,-220.18 431,-210.18 427.5,-220.18 434.5,-220.18"/>
<text text-anchor="middle" x="434.5" y="-231.8" font-family="Times,serif" font-size="14.00">e</text>
</g>
<!-- 3 -->
<g id="node45" class="node">
<title>3</title>
<ellipse fill="none" stroke="black" cx="423" cy="-453" rx="27" ry="18"/>
<text text-anchor="middle" x="423" y="-449.3" font-family="Times,serif" font-size="14.00">3 e</text>
</g>
<!-- 3&#45;&gt;43 -->
<g id="edge9" class="edge">
<title>3&#45;&gt;43</title>
<path fill="none" stroke="black" d="M411.2,-436.8C401.22,-423.95 386.75,-405.32 375.28,-390.54"/>
<polygon fill="black" stroke="black" points="377.82,-388.1 368.92,-382.35 372.29,-392.4 377.82,-388.1"/>
<text text-anchor="middle" x="397.5" y="-405.8" font-family="Times,serif" font-size="14.00">e</text>
</g>
<!-- 32&#45;&gt;33 -->
<g id="edge20" class="edge">
<title>32&#45;&gt;33</title>
<path fill="none" stroke="black" d="M567,-695.8C567,-684.16 567,-668.55 567,-655.24"/>
<polygon fill="black" stroke="black" points="570.5,-655.18 567,-645.18 563.5,-655.18 570.5,-655.18"/>
<text text-anchor="middle" x="570.5" y="-666.8" font-family="Times,serif" font-size="14.00">e</text>
</g>
<!-- 12&#45;&gt;20 -->
<g id="edge28" class="edge">
<title>12&#45;&gt;20</title>
<path fill="none" stroke="black" d="M90.9,-435.61C84.86,-423.38 76.49,-406.44 69.58,-392.46"/>
<polygon fill="black" stroke="black" points="72.64,-390.75 65.07,-383.34 66.37,-393.85 72.64,-390.75"/>
<text text-anchor="middle" x="84.5" y="-405.8" font-family="Times,serif" font-size="14.00">e</text>
</g>
<!-- 42&#45;&gt;22 -->
<g id="edge24" class="edge">
<title>42&#45;&gt;22</title>
<path fill="none" stroke="black" d="M279,-782.8C279,-771.16 279,-755.55 279,-742.24"/>
<polygon fill="black" stroke="black" points="282.5,-742.18 279,-732.18 275.5,-742.18 282.5,-742.18"/>
<text text-anchor="middle" x="282.5" y="-753.8" font-family="Times,serif" font-size="14.00">e</text>
</g>
<!-- 4&#45;&gt;28 -->
<g id="edge49" class="edge">
<title>4&#45;&gt;28</title>
<path fill="none" stroke="black" d="M490.13,-262.8C479.07,-249.75 462.96,-230.74 450.35,-215.85"/>
<polygon fill="black" stroke="black" points="452.89,-213.43 443.76,-208.06 447.55,-217.96 452.89,-213.43"/>
<text text-anchor="middle" x="475.5" y="-231.8" font-family="Times,serif" font-size="14.00">e</text>
</g>
<!-- 46&#45;&gt;10 -->
<g id="edge41" class="edge">
<title>46&#45;&gt;10</title>
<path fill="none" stroke="black" d="M127.89,-696.21C122.78,-684.14 115.79,-667.64 109.97,-653.89"/>
<polygon fill="black" stroke="black" points="113.1,-652.31 105.98,-644.47 106.65,-655.04 113.1,-652.31"/>
<text text-anchor="middle" x="123.5" y="-666.8" font-family="Times,serif" font-size="14.00">e</text>
</g>
</g>
</svg>
