<?xml version="1.0" encoding="UTF-8" standalone="no"?>
<!DOCTYPE svg PUBLIC "-//W3C//DTD SVG 1.1//EN"
 "http://www.w3.org/Graphics/SVG/1.1/DTD/svg11.dtd">
<!-- Generated by graphviz version 10.0.1 (20240210.2158)
 -->
<!-- Title: di_graph Pages: 1 -->
<svg width="706pt" height="1372pt"
 viewBox="0.00 0.00 705.50 1371.50" xmlns="http://www.w3.org/2000/svg" xmlns:xlink="http://www.w3.org/1999/xlink">
<g id="graph0" class="graph" transform="scale(1 1) rotate(0) translate(4 1367.5)">
<title>di_graph</title>
<polygon fill="white" stroke="none" points="-4,4 -4,-1367.5 701.5,-1367.5 701.5,4 -4,4"/>
<!-- 3 -->
<g id="node1" class="node">
<title>3</title>
<ellipse fill="none" stroke="black" cx="563" cy="-549" rx="27" ry="18"/>
<text text-anchor="middle" x="563" y="-543.95" font-family="Times,serif" font-size="14.00">3 0</text>
</g>
<!-- 9 -->
<g id="node7" class="node">
<title>9</title>
<ellipse fill="none" stroke="black" cx="568" cy="-460.5" rx="27" ry="18"/>
<text text-anchor="middle" x="568" y="-455.45" font-family="Times,serif" font-size="14.00">9 0</text>
</g>
<!-- 3&#45;&gt;9 -->
<g id="edge30" class="edge">
<title>3&#45;&gt;9</title>
<path fill="none" stroke="black" d="M563.99,-530.91C564.66,-519.26 565.57,-503.55 566.35,-490.02"/>
<polygon fill="black" stroke="black" points="569.83,-490.55 566.91,-480.36 562.84,-490.14 569.83,-490.55"/>
<text text-anchor="middle" x="571.75" y="-499.7" font-family="Times,serif" font-size="14.00">12</text>
</g>
<!-- 6 -->
<g id="node2" class="node">
<title>6</title>
<ellipse fill="none" stroke="black" cx="115" cy="-991.5" rx="27" ry="18"/>
<text text-anchor="middle" x="115" y="-986.45" font-family="Times,serif" font-size="14.00">6 0</text>
</g>
<!-- 8 -->
<g id="node8" class="node">
<title>8</title>
<ellipse fill="none" stroke="black" cx="182" cy="-106.5" rx="27" ry="18"/>
<text text-anchor="middle" x="182" y="-101.45" font-family="Times,serif" font-size="14.00">8 0</text>
</g>
<!-- 6&#45;&gt;8 -->
<g id="edge19" class="edge">
<title>6&#45;&gt;8</title>
<path fill="none" stroke="black" d="M103.09,-974.87C91.62,-958.24 76,-930.69 76,-904 76,-904 76,-904 76,-592.25 76,-470.39 76.52,-438.22 104,-319.5 119.89,-250.85 151.9,-174.12 169.57,-134.48"/>
<polygon fill="black" stroke="black" points="172.71,-136.03 173.63,-125.48 166.33,-133.15 172.71,-136.03"/>
<text text-anchor="middle" x="83.75" y="-543.95" font-family="Times,serif" font-size="14.00">14</text>
</g>
<!-- 19 -->
<g id="node19" class="node">
<title>19</title>
<ellipse fill="none" stroke="black" cx="210" cy="-903" rx="27.3" ry="18"/>
<text text-anchor="middle" x="210" y="-897.95" font-family="Times,serif" font-size="14.00">19 0</text>
</g>
<!-- 6&#45;&gt;19 -->
<g id="edge20" class="edge">
<title>6&#45;&gt;19</title>
<path fill="none" stroke="black" d="M130.26,-976.6C145.41,-962.81 168.83,-941.48 186.38,-925.51"/>
<polygon fill="black" stroke="black" points="188.3,-928.49 193.34,-919.17 183.59,-923.31 188.3,-928.49"/>
<text text-anchor="middle" x="177.75" y="-942.2" font-family="Times,serif" font-size="14.00">25</text>
</g>
<!-- 10 -->
<g id="node3" class="node">
<title>10</title>
<ellipse fill="none" stroke="black" cx="258" cy="-637.5" rx="27.3" ry="18"/>
<text text-anchor="middle" x="258" y="-632.45" font-family="Times,serif" font-size="14.00">10 0</text>
</g>
<!-- 10&#45;&gt;3 -->
<g id="edge29" class="edge">
<title>10&#45;&gt;3</title>
<path fill="none" stroke="black" d="M282.96,-629.42C337.07,-614.08 465.32,-577.7 527.7,-560.01"/>
<polygon fill="black" stroke="black" points="528.43,-563.44 537.09,-557.35 526.52,-556.71 528.43,-563.44"/>
<text text-anchor="middle" x="443.75" y="-588.2" font-family="Times,serif" font-size="14.00">13</text>
</g>
<!-- 18 -->
<g id="node11" class="node">
<title>18</title>
<ellipse fill="none" stroke="black" cx="265" cy="-283.5" rx="27.3" ry="18"/>
<text text-anchor="middle" x="265" y="-278.45" font-family="Times,serif" font-size="14.00">18 0</text>
</g>
<!-- 10&#45;&gt;18 -->
<g id="edge27" class="edge">
<title>10&#45;&gt;18</title>
<path fill="none" stroke="black" d="M258.95,-619.27C259.83,-601.82 261,-574.04 261,-550 261,-550 261,-550 261,-371 261,-351.64 262.01,-329.88 263.02,-313.02"/>
<polygon fill="black" stroke="black" points="266.5,-313.43 263.64,-303.23 259.51,-312.99 266.5,-313.43"/>
<text text-anchor="middle" x="267.75" y="-455.45" font-family="Times,serif" font-size="14.00">28</text>
</g>
<!-- 10&#45;&gt;19 -->
<g id="edge28" class="edge">
<title>10&#45;&gt;19</title>
<path fill="none" stroke="black" d="M247.22,-654.55C238.71,-668.14 227.4,-688.49 222,-708 206.21,-765.08 206.43,-835.08 208.13,-873.45"/>
<polygon fill="black" stroke="black" points="204.62,-873.43 208.64,-883.23 211.61,-873.06 204.62,-873.43"/>
<text text-anchor="middle" x="217.75" y="-765.2" font-family="Times,serif" font-size="14.00">29</text>
</g>
<!-- 11 -->
<g id="node4" class="node">
<title>11</title>
<ellipse fill="none" stroke="black" cx="504" cy="-1080" rx="27.3" ry="18"/>
<text text-anchor="middle" x="504" y="-1074.95" font-family="Times,serif" font-size="14.00">11 0</text>
</g>
<!-- 11&#45;&gt;3 -->
<g id="edge31" class="edge">
<title>11&#45;&gt;3</title>
<path fill="none" stroke="black" d="M517.8,-1064.02C531.35,-1047.71 550,-1020.22 550,-992.5 550,-992.5 550,-992.5 550,-636.5 550,-616.95 553.29,-595.18 556.56,-578.38"/>
<polygon fill="black" stroke="black" points="559.98,-579.1 558.58,-568.6 553.13,-577.68 559.98,-579.1"/>
<text text-anchor="middle" x="556.75" y="-809.45" font-family="Times,serif" font-size="14.00">14</text>
</g>
<!-- 0 -->
<g id="node5" class="node">
<title>0</title>
<ellipse fill="none" stroke="black" cx="269" cy="-991.5" rx="27" ry="18"/>
<text text-anchor="middle" x="269" y="-986.45" font-family="Times,serif" font-size="14.00">0 0</text>
</g>
<!-- 11&#45;&gt;0 -->
<g id="edge32" class="edge">
<title>11&#45;&gt;0</title>
<path fill="none" stroke="black" d="M480.61,-1070.39C438.82,-1055.01 351.2,-1022.76 302.84,-1004.96"/>
<polygon fill="black" stroke="black" points="304.31,-1001.77 293.72,-1001.6 301.89,-1008.34 304.31,-1001.77"/>
<text text-anchor="middle" x="413.75" y="-1030.7" font-family="Times,serif" font-size="14.00">11</text>
</g>
<!-- 14 -->
<g id="node17" class="node">
<title>14</title>
<ellipse fill="none" stroke="black" cx="485" cy="-372" rx="27.3" ry="18"/>
<text text-anchor="middle" x="485" y="-366.95" font-family="Times,serif" font-size="14.00">14 0</text>
</g>
<!-- 11&#45;&gt;14 -->
<g id="edge33" class="edge">
<title>11&#45;&gt;14</title>
<path fill="none" stroke="black" d="M504,-1061.77C504,-1044.31 504,-1016.53 504,-992.5 504,-992.5 504,-992.5 504,-857.75 504,-779.96 507,-760.54 507,-682.75 507,-682.75 507,-682.75 507,-459.5 507,-439.36 501.33,-417.36 495.74,-400.6"/>
<polygon fill="black" stroke="black" points="499.1,-399.6 492.47,-391.34 492.5,-401.93 499.1,-399.6"/>
<text text-anchor="middle" x="512.75" y="-720.95" font-family="Times,serif" font-size="14.00">25</text>
</g>
<!-- 0&#45;&gt;19 -->
<g id="edge9" class="edge">
<title>0&#45;&gt;19</title>
<path fill="none" stroke="black" d="M258.18,-974.63C249.53,-961.95 237.24,-943.94 227.24,-929.27"/>
<polygon fill="black" stroke="black" points="230.13,-927.3 221.61,-921.02 224.35,-931.25 230.13,-927.3"/>
<text text-anchor="middle" x="250.75" y="-942.2" font-family="Times,serif" font-size="14.00">19</text>
</g>
<!-- 2 -->
<g id="node6" class="node">
<title>2</title>
<ellipse fill="none" stroke="black" cx="258" cy="-726" rx="27" ry="18"/>
<text text-anchor="middle" x="258" y="-720.95" font-family="Times,serif" font-size="14.00">2 0</text>
</g>
<!-- 2&#45;&gt;10 -->
<g id="edge39" class="edge">
<title>2&#45;&gt;10</title>
<path fill="none" stroke="black" d="M258,-707.91C258,-696.26 258,-680.55 258,-667.02"/>
<polygon fill="black" stroke="black" points="261.5,-667.36 258,-657.36 254.5,-667.36 261.5,-667.36"/>
<text text-anchor="middle" x="264.75" y="-676.7" font-family="Times,serif" font-size="14.00">12</text>
</g>
<!-- 2&#45;&gt;19 -->
<g id="edge40" class="edge">
<title>2&#45;&gt;19</title>
<path fill="none" stroke="black" d="M256.89,-744.13C255.17,-765.28 251.09,-802.15 242,-832.5 237.56,-847.31 230.55,-863.02 224.21,-875.75"/>
<polygon fill="black" stroke="black" points="221.27,-873.82 219.81,-884.32 227.5,-877.02 221.27,-873.82"/>
<text text-anchor="middle" x="256.75" y="-809.45" font-family="Times,serif" font-size="14.00">21</text>
</g>
<!-- 9&#45;&gt;8 -->
<g id="edge18" class="edge">
<title>9&#45;&gt;8</title>
<path fill="none" stroke="black" d="M568.32,-442.27C568.61,-424.81 569,-397.03 569,-373 569,-373 569,-373 569,-194 569,-123.12 318.62,-110.3 220.65,-108"/>
<polygon fill="black" stroke="black" points="220.8,-104.5 210.73,-107.79 220.65,-111.5 220.8,-104.5"/>
<text text-anchor="middle" x="575.75" y="-278.45" font-family="Times,serif" font-size="14.00">17</text>
</g>
<!-- 9&#45;&gt;14 -->
<g id="edge17" class="edge">
<title>9&#45;&gt;14</title>
<path fill="none" stroke="black" d="M553.92,-444.83C541.04,-431.41 521.79,-411.34 506.9,-395.83"/>
<polygon fill="black" stroke="black" points="509.65,-393.63 500.2,-388.84 504.59,-398.48 509.65,-393.63"/>
<text text-anchor="middle" x="539.75" y="-411.2" font-family="Times,serif" font-size="14.00">23</text>
</g>
<!-- 16 -->
<g id="node9" class="node">
<title>16</title>
<ellipse fill="none" stroke="black" cx="127" cy="-18" rx="27.3" ry="18"/>
<text text-anchor="middle" x="127" y="-12.95" font-family="Times,serif" font-size="14.00">16 0</text>
</g>
<!-- 8&#45;&gt;16 -->
<g id="edge41" class="edge">
<title>8&#45;&gt;16</title>
<path fill="none" stroke="black" d="M171.91,-89.63C163.9,-77.03 152.54,-59.16 143.25,-44.55"/>
<polygon fill="black" stroke="black" points="146.34,-42.9 138.02,-36.34 140.43,-46.65 146.34,-42.9"/>
<text text-anchor="middle" x="165.75" y="-57.2" font-family="Times,serif" font-size="14.00">24</text>
</g>
<!-- 17 -->
<g id="node10" class="node">
<title>17</title>
<ellipse fill="none" stroke="black" cx="608" cy="-1257" rx="27.3" ry="18"/>
<text text-anchor="middle" x="608" y="-1251.95" font-family="Times,serif" font-size="14.00">17 0</text>
</g>
<!-- 17&#45;&gt;3 -->
<g id="edge34" class="edge">
<title>17&#45;&gt;3</title>
<path fill="none" stroke="black" d="M618.39,-1240.15C628.38,-1223.34 642,-1195.64 642,-1169.5 642,-1169.5 642,-1169.5 642,-813.5 642,-723.53 599.21,-623.27 576.62,-576.6"/>
<polygon fill="black" stroke="black" points="579.84,-575.21 572.27,-567.8 573.56,-578.31 579.84,-575.21"/>
<text text-anchor="middle" x="648.75" y="-897.95" font-family="Times,serif" font-size="14.00">20</text>
</g>
<!-- 17&#45;&gt;8 -->
<g id="edge35" class="edge">
<title>17&#45;&gt;8</title>
<path fill="none" stroke="black" d="M580.66,-1255.02C530.31,-1251.6 428,-1236.42 428,-1169.5 428,-1169.5 428,-1169.5 428,-1034.75 428,-889.39 452.42,-852.98 442,-708 432.64,-577.77 400,-547.81 400,-417.25 400,-417.25 400,-417.25 400,-194 400,-155.56 281.39,-126.76 219.15,-114.3"/>
<polygon fill="black" stroke="black" points="219.83,-110.87 209.35,-112.39 218.49,-117.74 219.83,-110.87"/>
<text text-anchor="middle" x="446.75" y="-676.7" font-family="Times,serif" font-size="14.00">25</text>
</g>
<!-- 15 -->
<g id="node18" class="node">
<title>15</title>
<ellipse fill="none" stroke="black" cx="546" cy="-1168.5" rx="27.3" ry="18"/>
<text text-anchor="middle" x="546" y="-1163.45" font-family="Times,serif" font-size="14.00">15 0</text>
</g>
<!-- 17&#45;&gt;15 -->
<g id="edge36" class="edge">
<title>17&#45;&gt;15</title>
<path fill="none" stroke="black" d="M596.63,-1240.13C587.45,-1227.33 574.38,-1209.09 563.81,-1194.35"/>
<polygon fill="black" stroke="black" points="566.85,-1192.58 558.18,-1186.5 561.16,-1196.66 566.85,-1192.58"/>
<text text-anchor="middle" x="588.75" y="-1207.7" font-family="Times,serif" font-size="14.00">32</text>
</g>
<!-- 18&#45;&gt;16 -->
<g id="edge22" class="edge">
<title>18&#45;&gt;16</title>
<path fill="none" stroke="black" d="M250.15,-267.92C224.46,-241.75 171.98,-183.98 146,-124.5 135.24,-99.86 130.57,-69.44 128.55,-47.6"/>
<polygon fill="black" stroke="black" points="132.04,-47.35 127.77,-37.66 125.06,-47.9 132.04,-47.35"/>
<text text-anchor="middle" x="169.75" y="-145.7" font-family="Times,serif" font-size="14.00">34</text>
</g>
<!-- 4 -->
<g id="node20" class="node">
<title>4</title>
<ellipse fill="none" stroke="black" cx="253" cy="-195" rx="27" ry="18"/>
<text text-anchor="middle" x="253" y="-189.95" font-family="Times,serif" font-size="14.00">4 0</text>
</g>
<!-- 18&#45;&gt;4 -->
<g id="edge21" class="edge">
<title>18&#45;&gt;4</title>
<path fill="none" stroke="black" d="M262.63,-265.41C261.01,-253.76 258.83,-238.05 256.96,-224.52"/>
<polygon fill="black" stroke="black" points="260.46,-224.27 255.61,-214.85 253.52,-225.24 260.46,-224.27"/>
<text text-anchor="middle" x="266.75" y="-234.2" font-family="Times,serif" font-size="14.00">22</text>
</g>
<!-- 13 -->
<g id="node12" class="node">
<title>13</title>
<ellipse fill="none" stroke="black" cx="233" cy="-1080" rx="27.3" ry="18"/>
<text text-anchor="middle" x="233" y="-1074.95" font-family="Times,serif" font-size="14.00">13 0</text>
</g>
<!-- 13&#45;&gt;0 -->
<g id="edge10" class="edge">
<title>13&#45;&gt;0</title>
<path fill="none" stroke="black" d="M239.94,-1062.32C244.97,-1050.24 251.88,-1033.63 257.7,-1019.64"/>
<polygon fill="black" stroke="black" points="260.89,-1021.1 261.5,-1010.52 254.42,-1018.41 260.89,-1021.1"/>
<text text-anchor="middle" x="260.75" y="-1030.7" font-family="Times,serif" font-size="14.00">13</text>
</g>
<!-- 13&#45;&gt;8 -->
<g id="edge12" class="edge">
<title>13&#45;&gt;8</title>
<path fill="none" stroke="black" d="M206.23,-1075.08C170.87,-1068.37 109.53,-1051.13 79,-1009.5 56.35,-978.62 30,-767.11 30,-505.75 30,-505.75 30,-505.75 30,-238.25 30,-176.51 102.97,-137.56 147.79,-119.45"/>
<polygon fill="black" stroke="black" points="148.78,-122.82 156.84,-115.95 146.25,-116.3 148.78,-122.82"/>
<text text-anchor="middle" x="38.75" y="-588.2" font-family="Times,serif" font-size="14.00">21</text>
</g>
<!-- 5 -->
<g id="node14" class="node">
<title>5</title>
<ellipse fill="none" stroke="black" cx="406" cy="-726" rx="27" ry="18"/>
<text text-anchor="middle" x="406" y="-720.95" font-family="Times,serif" font-size="14.00">5 0</text>
</g>
<!-- 13&#45;&gt;5 -->
<g id="edge11" class="edge">
<title>13&#45;&gt;5</title>
<path fill="none" stroke="black" d="M259.87,-1075.61C295.4,-1070.57 355.24,-1059.94 370,-1044 408.43,-1002.5 408.45,-825.45 406.89,-755.55"/>
<polygon fill="black" stroke="black" points="410.4,-755.59 406.64,-745.68 403.4,-755.77 410.4,-755.59"/>
<text text-anchor="middle" x="411.75" y="-897.95" font-family="Times,serif" font-size="14.00">18</text>
</g>
<!-- 13&#45;&gt;19 -->
<g id="edge13" class="edge">
<title>13&#45;&gt;19</title>
<path fill="none" stroke="black" d="M229.18,-1061.95C226.17,-1047.93 222.05,-1027.51 219.5,-1009.5 215.83,-983.62 213.31,-953.97 211.79,-932.7"/>
<polygon fill="black" stroke="black" points="215.28,-932.49 211.11,-922.75 208.3,-932.96 215.28,-932.49"/>
<text text-anchor="middle" x="225.75" y="-986.45" font-family="Times,serif" font-size="14.00">32</text>
</g>
<!-- 7 -->
<g id="node13" class="node">
<title>7</title>
<ellipse fill="none" stroke="black" cx="646" cy="-1345.5" rx="27" ry="18"/>
<text text-anchor="middle" x="646" y="-1340.45" font-family="Times,serif" font-size="14.00">7 0</text>
</g>
<!-- 7&#45;&gt;17 -->
<g id="edge14" class="edge">
<title>7&#45;&gt;17</title>
<path fill="none" stroke="black" d="M638.67,-1327.82C633.36,-1315.74 626.07,-1299.13 619.92,-1285.14"/>
<polygon fill="black" stroke="black" points="623.14,-1283.76 615.91,-1276.01 616.73,-1286.58 623.14,-1283.76"/>
<text text-anchor="middle" x="636.75" y="-1296.2" font-family="Times,serif" font-size="14.00">24</text>
</g>
<!-- 7&#45;&gt;14 -->
<g id="edge15" class="edge">
<title>7&#45;&gt;14</title>
<path fill="none" stroke="black" d="M657.61,-1328.83C668.78,-1312.15 684,-1284.57 684,-1258 684,-1258 684,-1258 684,-459.5 684,-390.42 581.9,-375.92 523.97,-373.26"/>
<polygon fill="black" stroke="black" points="524.3,-369.77 514.18,-372.91 524.05,-376.76 524.3,-369.77"/>
<text text-anchor="middle" x="690.75" y="-853.7" font-family="Times,serif" font-size="14.00">21</text>
</g>
<!-- 1 -->
<g id="node15" class="node">
<title>1</title>
<ellipse fill="none" stroke="black" cx="371" cy="-814.5" rx="27" ry="18"/>
<text text-anchor="middle" x="371" y="-809.45" font-family="Times,serif" font-size="14.00">1 0</text>
</g>
<!-- 1&#45;&gt;11 -->
<g id="edge6" class="edge">
<title>1&#45;&gt;11</title>
<path fill="none" stroke="black" d="M379.32,-831.98C401.66,-876.24 463.14,-998.04 490.53,-1052.31"/>
<polygon fill="black" stroke="black" points="487.37,-1053.82 495,-1061.17 493.62,-1050.66 487.37,-1053.82"/>
<text text-anchor="middle" x="446.75" y="-942.2" font-family="Times,serif" font-size="14.00">12</text>
</g>
<!-- 1&#45;&gt;2 -->
<g id="edge7" class="edge">
<title>1&#45;&gt;2</title>
<path fill="none" stroke="black" d="M353.84,-800.36C335.34,-786.2 305.66,-763.49 284.23,-747.08"/>
<polygon fill="black" stroke="black" points="286.59,-744.48 276.53,-741.18 282.34,-750.04 286.59,-744.48"/>
<text text-anchor="middle" x="327.38" y="-765.2" font-family="Times,serif" font-size="14.00">3</text>
</g>
<!-- 1&#45;&gt;5 -->
<g id="edge8" class="edge">
<title>1&#45;&gt;5</title>
<path fill="none" stroke="black" d="M377.75,-796.82C382.64,-784.74 389.36,-768.13 395.02,-754.14"/>
<polygon fill="black" stroke="black" points="398.2,-755.61 398.7,-745.03 391.71,-752.99 398.2,-755.61"/>
<text text-anchor="middle" x="394.38" y="-765.2" font-family="Times,serif" font-size="14.00">6</text>
</g>
<!-- 1&#45;&gt;14 -->
<g id="edge5" class="edge">
<title>1&#45;&gt;14</title>
<path fill="none" stroke="black" d="M369.18,-796.21C367.36,-775.22 365.41,-738.8 370,-708 387.8,-588.55 445.98,-455.2 472.1,-399.59"/>
<polygon fill="black" stroke="black" points="475.1,-401.43 476.23,-390.9 468.78,-398.43 475.1,-401.43"/>
<text text-anchor="middle" x="404.75" y="-588.2" font-family="Times,serif" font-size="14.00">15</text>
</g>
<!-- 12 -->
<g id="node16" class="node">
<title>12</title>
<ellipse fill="none" stroke="black" cx="108" cy="-1257" rx="27.3" ry="18"/>
<text text-anchor="middle" x="108" y="-1251.95" font-family="Times,serif" font-size="14.00">12 0</text>
</g>
<!-- 12&#45;&gt;2 -->
<g id="edge37" class="edge">
<title>12&#45;&gt;2</title>
<path fill="none" stroke="black" d="M83.49,-1248.52C51.63,-1237.09 0,-1212.02 0,-1169.5 0,-1169.5 0,-1169.5 0,-946.25 0,-825.4 126.76,-862.13 214,-778.5 222.69,-770.16 231.48,-760.26 238.88,-751.37"/>
<polygon fill="black" stroke="black" points="241.48,-753.72 245.08,-743.75 236.05,-749.3 241.48,-753.72"/>
<text text-anchor="middle" x="6.75" y="-986.45" font-family="Times,serif" font-size="14.00">14</text>
</g>
<!-- 12&#45;&gt;15 -->
<g id="edge38" class="edge">
<title>12&#45;&gt;15</title>
<path fill="none" stroke="black" d="M134.09,-1250.85C208.57,-1236.14 422.38,-1193.91 508.94,-1176.82"/>
<polygon fill="black" stroke="black" points="509.43,-1180.29 518.56,-1174.92 508.08,-1173.42 509.43,-1180.29"/>
<text text-anchor="middle" x="372.75" y="-1207.7" font-family="Times,serif" font-size="14.00">27</text>
</g>
<!-- 14&#45;&gt;18 -->
<g id="edge16" class="edge">
<title>14&#45;&gt;18</title>
<path fill="none" stroke="black" d="M461.87,-361.91C422.84,-346.56 343.73,-315.46 298.58,-297.7"/>
<polygon fill="black" stroke="black" points="300.14,-294.56 289.56,-294.16 297.58,-301.07 300.14,-294.56"/>
<text text-anchor="middle" x="400.75" y="-322.7" font-family="Times,serif" font-size="14.00">32</text>
</g>
<!-- 15&#45;&gt;11 -->
<g id="edge24" class="edge">
<title>15&#45;&gt;11</title>
<path fill="none" stroke="black" d="M537.9,-1150.82C531.98,-1138.62 523.81,-1121.8 516.98,-1107.73"/>
<polygon fill="black" stroke="black" points="520.25,-1106.46 512.73,-1098.99 513.95,-1109.51 520.25,-1106.46"/>
<text text-anchor="middle" x="534.75" y="-1119.2" font-family="Times,serif" font-size="14.00">26</text>
</g>
<!-- 15&#45;&gt;9 -->
<g id="edge23" class="edge">
<title>15&#45;&gt;9</title>
<path fill="none" stroke="black" d="M560.73,-1153.04C575.48,-1136.95 596,-1109.45 596,-1081 596,-1081 596,-1081 596,-946.25 596,-777.69 598.33,-735.56 599,-567 599.06,-551 602.33,-546.65 599,-531 595.8,-515.96 589.1,-500.23 582.74,-487.54"/>
<polygon fill="black" stroke="black" points="586.02,-486.25 578.27,-479.02 579.82,-489.51 586.02,-486.25"/>
<text text-anchor="middle" x="602.75" y="-809.45" font-family="Times,serif" font-size="14.00">24</text>
</g>
<!-- 19&#45;&gt;8 -->
<g id="edge2" class="edge">
<title>19&#45;&gt;8</title>
<path fill="none" stroke="black" d="M206,-885C204.82,-879.31 203.67,-872.91 203,-867 170.97,-583.58 178.07,-237.09 181.04,-136.27"/>
<polygon fill="black" stroke="black" points="184.54,-136.58 181.35,-126.48 177.54,-136.36 184.54,-136.58"/>
<text text-anchor="middle" x="186.75" y="-499.7" font-family="Times,serif" font-size="14.00">27</text>
</g>
<!-- 19&#45;&gt;16 -->
<g id="edge3" class="edge">
<title>19&#45;&gt;16</title>
<path fill="none" stroke="black" d="M202.92,-885.14C200.75,-879.46 198.54,-873.03 197,-867 193.17,-851.99 193.79,-847.89 192,-832.5 152.71,-494.8 139.9,-410.15 125,-70.5 124.67,-63.08 124.77,-55.06 125.05,-47.6"/>
<polygon fill="black" stroke="black" points="128.54,-47.84 125.55,-37.68 121.55,-47.49 128.54,-47.84"/>
<text text-anchor="middle" x="157.75" y="-455.45" font-family="Times,serif" font-size="14.00">35</text>
</g>
<!-- 19&#45;&gt;1 -->
<g id="edge4" class="edge">
<title>19&#45;&gt;1</title>
<path fill="none" stroke="black" d="M236.78,-898.94C262.49,-894.96 301.53,-886.11 330,-867 340,-860.29 348.72,-850.37 355.51,-841.03"/>
<polygon fill="black" stroke="black" points="358.3,-843.15 361.02,-832.91 352.51,-839.22 358.3,-843.15"/>
<text text-anchor="middle" x="353.75" y="-853.7" font-family="Times,serif" font-size="14.00">20</text>
</g>
<!-- 19&#45;&gt;4 -->
<g id="edge1" class="edge">
<title>19&#45;&gt;4</title>
<path fill="none" stroke="black" d="M225.98,-888.03C248.59,-867.01 288.66,-824.74 302,-778.5 343.5,-634.69 310.59,-588.81 279,-442.5 264.97,-377.51 240.27,-367.03 229,-301.5 226.29,-285.73 226.35,-281.28 229,-265.5 231.39,-251.23 236.37,-235.98 241.17,-223.41"/>
<polygon fill="black" stroke="black" points="244.42,-224.71 244.9,-214.13 237.93,-222.11 244.42,-224.71"/>
<text text-anchor="middle" x="315.75" y="-543.95" font-family="Times,serif" font-size="14.00">23</text>
</g>
<!-- 4&#45;&gt;8 -->
<g id="edge26" class="edge">
<title>4&#45;&gt;8</title>
<path fill="none" stroke="black" d="M240.63,-178.93C229.91,-165.87 214.19,-146.72 201.73,-131.54"/>
<polygon fill="black" stroke="black" points="204.47,-129.36 195.42,-123.85 199.06,-133.8 204.47,-129.36"/>
<text text-anchor="middle" x="229.75" y="-145.7" font-family="Times,serif" font-size="14.00">12</text>
</g>
<!-- 4&#45;&gt;14 -->
<g id="edge25" class="edge">
<title>4&#45;&gt;14</title>
<path fill="none" stroke="black" d="M270.32,-209.07C310.53,-239.4 410.42,-314.74 458.42,-350.95"/>
<polygon fill="black" stroke="black" points="456.26,-353.71 466.35,-356.94 460.48,-348.12 456.26,-353.71"/>
<text text-anchor="middle" x="398.75" y="-278.45" font-family="Times,serif" font-size="14.00">18</text>
</g>
</g>
</svg>
