<?xml version="1.0" encoding="UTF-8" standalone="no"?>
<!DOCTYPE svg PUBLIC "-//W3C//DTD SVG 1.1//EN"
 "http://www.w3.org/Graphics/SVG/1.1/DTD/svg11.dtd">
<!-- Generated by graphviz version 10.0.1 (20240210.2158)
 -->
<!-- Title: di_graph Pages: 1 -->
<svg width="1435pt" height="1460pt"
 viewBox="0.00 0.00 1434.50 1460.00" xmlns="http://www.w3.org/2000/svg" xmlns:xlink="http://www.w3.org/1999/xlink">
<g id="graph0" class="graph" transform="scale(1 1) rotate(0) translate(4 1456)">
<title>di_graph</title>
<polygon fill="white" stroke="none" points="-4,4 -4,-1456 1430.5,-1456 1430.5,4 -4,4"/>
<!-- 12 -->
<g id="node1" class="node">
<title>12</title>
<ellipse fill="none" stroke="black" cx="297" cy="-1434" rx="27.3" ry="18"/>
<text text-anchor="middle" x="297" y="-1428.95" font-family="Times,serif" font-size="14.00">12 0</text>
</g>
<!-- 13 -->
<g id="node2" class="node">
<title>13</title>
<ellipse fill="none" stroke="black" cx="334" cy="-1345.5" rx="27.3" ry="18"/>
<text text-anchor="middle" x="334" y="-1340.45" font-family="Times,serif" font-size="14.00">13 0</text>
</g>
<!-- 12&#45;&gt;13 -->
<g id="edge72" class="edge">
<title>12&#45;&gt;13</title>
<path fill="none" stroke="black" d="M292.4,-1416.04C290.47,-1405.63 289.65,-1392.28 294.5,-1381.5 297.13,-1375.65 301.28,-1370.38 305.91,-1365.82"/>
<polygon fill="black" stroke="black" points="308.11,-1368.54 313.42,-1359.37 303.55,-1363.23 308.11,-1368.54"/>
<text text-anchor="middle" x="300.75" y="-1384.7" font-family="Times,serif" font-size="14.00">25</text>
</g>
<!-- 10 -->
<g id="node10" class="node">
<title>10</title>
<ellipse fill="none" stroke="black" cx="1152" cy="-726" rx="27.3" ry="18"/>
<text text-anchor="middle" x="1152" y="-720.95" font-family="Times,serif" font-size="14.00">10 0</text>
</g>
<!-- 12&#45;&gt;10 -->
<g id="edge73" class="edge">
<title>12&#45;&gt;10</title>
<path fill="none" stroke="black" d="M324.5,-1432.56C446.73,-1430.48 941.54,-1420.77 1095,-1398 1186.22,-1384.46 1296,-1438.72 1296,-1346.5 1296,-1346.5 1296,-1346.5 1296,-857.75 1296,-798.57 1228.52,-759.14 1185.95,-740.16"/>
<polygon fill="black" stroke="black" points="1187.42,-736.98 1176.85,-736.26 1184.66,-743.42 1187.42,-736.98"/>
<text text-anchor="middle" x="1302.75" y="-1074.95" font-family="Times,serif" font-size="14.00">22</text>
</g>
<!-- 11 -->
<g id="node15" class="node">
<title>11</title>
<ellipse fill="none" stroke="black" cx="1068" cy="-195" rx="27.3" ry="18"/>
<text text-anchor="middle" x="1068" y="-189.95" font-family="Times,serif" font-size="14.00">11 0</text>
</g>
<!-- 12&#45;&gt;11 -->
<g id="edge71" class="edge">
<title>12&#45;&gt;11</title>
<path fill="none" stroke="black" d="M269.86,-1430.93C196.54,-1424.6 0,-1402.42 0,-1346.5 0,-1346.5 0,-1346.5 0,-769.25 0,-642.88 254.67,-269.25 260,-265.5 296.23,-240.04 314.7,-256.8 358,-247.5 387.98,-241.06 394.67,-235.52 425,-231 651.86,-197.2 928.07,-195.09 1028.84,-195.59"/>
<polygon fill="black" stroke="black" points="1028.7,-199.09 1038.73,-195.66 1028.75,-192.09 1028.7,-199.09"/>
<text text-anchor="middle" x="6.75" y="-809.45" font-family="Times,serif" font-size="14.00">23</text>
</g>
<!-- 14 -->
<g id="node16" class="node">
<title>14</title>
<ellipse fill="none" stroke="black" cx="399" cy="-372" rx="27.3" ry="18"/>
<text text-anchor="middle" x="399" y="-366.95" font-family="Times,serif" font-size="14.00">14 0</text>
</g>
<!-- 12&#45;&gt;14 -->
<g id="edge74" class="edge">
<title>12&#45;&gt;14</title>
<path fill="none" stroke="black" d="M269.35,-1433.46C213.4,-1432.8 92,-1422.6 92,-1346.5 92,-1346.5 92,-1346.5 92,-1034.75 92,-868.62 130.65,-829.41 188,-673.5 212.23,-607.64 224.7,-593.81 256,-531 275.77,-491.32 273.51,-476.46 302,-442.5 318.2,-423.19 326.54,-422.71 347,-408 354.58,-402.55 362.92,-396.82 370.66,-391.62"/>
<polygon fill="black" stroke="black" points="372.4,-394.66 378.78,-386.2 368.51,-388.84 372.4,-394.66"/>
<text text-anchor="middle" x="114.75" y="-897.95" font-family="Times,serif" font-size="14.00">26</text>
</g>
<!-- 13&#45;&gt;12 -->
<g id="edge31" class="edge">
<title>13&#45;&gt;12</title>
<path fill="none" stroke="black" d="M326.87,-1363.2C322.57,-1373.28 316.97,-1386.38 312,-1398 310.92,-1400.51 309.81,-1403.13 308.68,-1405.74"/>
<polygon fill="black" stroke="black" points="305.49,-1404.31 304.77,-1414.88 311.93,-1407.06 305.49,-1404.31"/>
<text text-anchor="middle" x="324.75" y="-1384.7" font-family="Times,serif" font-size="14.00">25</text>
</g>
<!-- 9 -->
<g id="node12" class="node">
<title>9</title>
<ellipse fill="none" stroke="black" cx="1134" cy="-106.5" rx="27" ry="18"/>
<text text-anchor="middle" x="1134" y="-101.45" font-family="Times,serif" font-size="14.00">9 0</text>
</g>
<!-- 13&#45;&gt;9 -->
<g id="edge33" class="edge">
<title>13&#45;&gt;9</title>
<path fill="none" stroke="black" d="M306.79,-1342.11C282.25,-1338.64 246.53,-1330.18 223,-1309.5 210.3,-1298.34 213.16,-1290.74 207,-1275 123.44,-1061.63 90.96,-1006.5 68,-778.5 56.01,-659.42 135.29,-336.01 232,-265.5 373.95,-162.01 943,-119.45 1095.97,-109.75"/>
<polygon fill="black" stroke="black" points="1095.8,-113.27 1105.56,-109.15 1095.36,-106.28 1095.8,-113.27"/>
<text text-anchor="middle" x="75.75" y="-720.95" font-family="Times,serif" font-size="14.00">27</text>
</g>
<!-- 13&#45;&gt;11 -->
<g id="edge32" class="edge">
<title>13&#45;&gt;11</title>
<path fill="none" stroke="black" d="M319.9,-1329.58C306.05,-1313.31 287,-1285.86 287,-1258 287,-1258 287,-1258 287,-990.5 287,-902.19 299.89,-879.52 330,-796.5 354.06,-730.16 377.2,-721.18 403,-655.5 429.73,-587.47 415.7,-563.46 445,-496.5 475.22,-427.44 490.58,-413.4 537,-354 570.2,-311.51 572.52,-291.06 620,-265.5 690.79,-227.4 933.83,-205.85 1029.18,-198.7"/>
<polygon fill="black" stroke="black" points="1029.35,-202.2 1039.07,-197.97 1028.84,-195.22 1029.35,-202.2"/>
<text text-anchor="middle" x="350.75" y="-765.2" font-family="Times,serif" font-size="14.00">24</text>
</g>
<!-- 15 -->
<g id="node19" class="node">
<title>15</title>
<ellipse fill="none" stroke="black" cx="382" cy="-1257" rx="27.3" ry="18"/>
<text text-anchor="middle" x="382" y="-1251.95" font-family="Times,serif" font-size="14.00">15 0</text>
</g>
<!-- 13&#45;&gt;15 -->
<g id="edge34" class="edge">
<title>13&#45;&gt;15</title>
<path fill="none" stroke="black" d="M343.03,-1328.23C349.93,-1315.79 359.59,-1298.38 367.57,-1284.01"/>
<polygon fill="black" stroke="black" points="370.49,-1285.96 372.28,-1275.52 364.37,-1282.57 370.49,-1285.96"/>
<text text-anchor="middle" x="368.75" y="-1296.2" font-family="Times,serif" font-size="14.00">28</text>
</g>
<!-- 0 -->
<g id="node3" class="node">
<title>0</title>
<ellipse fill="none" stroke="black" cx="307" cy="-549" rx="27" ry="18"/>
<text text-anchor="middle" x="307" y="-543.95" font-family="Times,serif" font-size="14.00">0 0</text>
</g>
<!-- 0&#45;&gt;12 -->
<g id="edge30" class="edge">
<title>0&#45;&gt;12</title>
<path fill="none" stroke="black" d="M298.94,-566.6C259.89,-649.4 96.27,-1025.03 197,-1309.5 211.84,-1351.42 247.65,-1389.52 272.13,-1411.98"/>
<polygon fill="black" stroke="black" points="269.65,-1414.47 279.44,-1418.52 274.32,-1409.25 269.65,-1414.47"/>
<text text-anchor="middle" x="178.38" y="-986.45" font-family="Times,serif" font-size="14.00">2</text>
</g>
<!-- 0&#45;&gt;14 -->
<g id="edge29" class="edge">
<title>0&#45;&gt;14</title>
<path fill="none" stroke="black" d="M315.66,-531.54C331.61,-501.18 365.8,-436.15 385.06,-399.51"/>
<polygon fill="black" stroke="black" points="388.04,-401.37 389.6,-390.89 381.85,-398.11 388.04,-401.37"/>
<text text-anchor="middle" x="365.38" y="-455.45" font-family="Times,serif" font-size="14.00">1</text>
</g>
<!-- 18 -->
<g id="node17" class="node">
<title>18</title>
<ellipse fill="none" stroke="black" cx="1134" cy="-18" rx="27.3" ry="18"/>
<text text-anchor="middle" x="1134" y="-12.95" font-family="Times,serif" font-size="14.00">18 0</text>
</g>
<!-- 0&#45;&gt;18 -->
<g id="edge28" class="edge">
<title>0&#45;&gt;18</title>
<path fill="none" stroke="black" d="M293.79,-532.88C257.85,-490.15 161,-363.55 161,-240.25 161,-240.25 161,-240.25 161,-105.5 161,-43.77 229.63,-66.91 290,-54 446.75,-20.48 951.23,-18.69 1095.27,-18.88"/>
<polygon fill="black" stroke="black" points="1095.03,-22.38 1105.03,-18.89 1095.04,-15.38 1095.03,-22.38"/>
<text text-anchor="middle" x="175.75" y="-278.45" font-family="Times,serif" font-size="14.00">18</text>
</g>
<!-- 19 -->
<g id="node20" class="node">
<title>19</title>
<ellipse fill="none" stroke="black" cx="837" cy="-460.5" rx="27.3" ry="18"/>
<text text-anchor="middle" x="837" y="-455.45" font-family="Times,serif" font-size="14.00">19 0</text>
</g>
<!-- 0&#45;&gt;19 -->
<g id="edge27" class="edge">
<title>0&#45;&gt;19</title>
<path fill="none" stroke="black" d="M328.77,-537.78C334.88,-535.24 341.61,-532.75 348,-531 511.57,-486.24 714.26,-469.16 798,-463.7"/>
<polygon fill="black" stroke="black" points="798.2,-467.2 807.97,-463.08 797.76,-460.21 798.2,-467.2"/>
<text text-anchor="middle" x="513.75" y="-499.7" font-family="Times,serif" font-size="14.00">19</text>
</g>
<!-- 2 -->
<g id="node4" class="node">
<title>2</title>
<ellipse fill="none" stroke="black" cx="611" cy="-903" rx="27" ry="18"/>
<text text-anchor="middle" x="611" y="-897.95" font-family="Times,serif" font-size="14.00">2 0</text>
</g>
<!-- 2&#45;&gt;0 -->
<g id="edge38" class="edge">
<title>2&#45;&gt;0</title>
<path fill="none" stroke="black" d="M591.21,-890.63C570.85,-878.23 539.07,-856.87 517,-832.5 492.52,-805.46 497.27,-790.89 475,-762 454.47,-735.37 447.22,-730.24 422,-708 393.1,-682.52 376.8,-685.8 353,-655.5 334.71,-632.22 322.18,-600.54 314.88,-577.99"/>
<polygon fill="black" stroke="black" points="318.26,-577.09 311.97,-568.57 311.57,-579.16 318.26,-577.09"/>
<text text-anchor="middle" x="463.38" y="-720.95" font-family="Times,serif" font-size="14.00">2</text>
</g>
<!-- 3 -->
<g id="node5" class="node">
<title>3</title>
<ellipse fill="none" stroke="black" cx="553" cy="-814.5" rx="27" ry="18"/>
<text text-anchor="middle" x="553" y="-809.45" font-family="Times,serif" font-size="14.00">3 0</text>
</g>
<!-- 2&#45;&gt;3 -->
<g id="edge36" class="edge">
<title>2&#45;&gt;3</title>
<path fill="none" stroke="black" d="M600.36,-886.13C591.86,-873.45 579.78,-855.44 569.95,-840.77"/>
<polygon fill="black" stroke="black" points="572.89,-838.88 564.41,-832.52 567.08,-842.78 572.89,-838.88"/>
<text text-anchor="middle" x="590.38" y="-853.7" font-family="Times,serif" font-size="14.00">5</text>
</g>
<!-- 16 -->
<g id="node7" class="node">
<title>16</title>
<ellipse fill="none" stroke="black" cx="656" cy="-283.5" rx="27.3" ry="18"/>
<text text-anchor="middle" x="656" y="-278.45" font-family="Times,serif" font-size="14.00">16 0</text>
</g>
<!-- 2&#45;&gt;16 -->
<g id="edge35" class="edge">
<title>2&#45;&gt;16</title>
<path fill="none" stroke="black" d="M611,-884.78C611.1,-840.63 612.05,-719.84 619,-619.5 626.89,-505.6 644.25,-370.71 652.06,-313"/>
<polygon fill="black" stroke="black" points="655.48,-313.77 653.37,-303.39 648.55,-312.83 655.48,-313.77"/>
<text text-anchor="middle" x="624.38" y="-588.2" font-family="Times,serif" font-size="14.00">6</text>
</g>
<!-- 6 -->
<g id="node8" class="node">
<title>6</title>
<ellipse fill="none" stroke="black" cx="777" cy="-1168.5" rx="27" ry="18"/>
<text text-anchor="middle" x="777" y="-1163.45" font-family="Times,serif" font-size="14.00">6 0</text>
</g>
<!-- 2&#45;&gt;6 -->
<g id="edge37" class="edge">
<title>2&#45;&gt;6</title>
<path fill="none" stroke="black" d="M609.9,-921.16C608.89,-948.84 610.15,-1004.25 632.25,-1044 659.1,-1092.27 712.62,-1130.17 746.52,-1150.65"/>
<polygon fill="black" stroke="black" points="744.67,-1153.62 755.06,-1155.68 748.22,-1147.59 744.67,-1153.62"/>
<text text-anchor="middle" x="635.38" y="-1030.7" font-family="Times,serif" font-size="14.00">3</text>
</g>
<!-- 3&#45;&gt;13 -->
<g id="edge76" class="edge">
<title>3&#45;&gt;13</title>
<path fill="none" stroke="black" d="M549.6,-832.5C535.99,-899.82 484.75,-1147.63 453,-1221 432.75,-1267.79 419.2,-1276.9 380,-1309.5 373.88,-1314.59 367.14,-1319.88 360.75,-1324.76"/>
<polygon fill="black" stroke="black" points="358.84,-1321.83 352.96,-1330.64 363.05,-1327.41 358.84,-1321.83"/>
<text text-anchor="middle" x="501.38" y="-1074.95" font-family="Times,serif" font-size="14.00">4</text>
</g>
<!-- 5 -->
<g id="node6" class="node">
<title>5</title>
<ellipse fill="none" stroke="black" cx="574" cy="-1080" rx="27" ry="18"/>
<text text-anchor="middle" x="574" y="-1074.95" font-family="Times,serif" font-size="14.00">5 0</text>
</g>
<!-- 3&#45;&gt;5 -->
<g id="edge77" class="edge">
<title>3&#45;&gt;5</title>
<path fill="none" stroke="black" d="M552.4,-832.94C552.24,-838.55 552.08,-844.79 552,-850.5 551.9,-857.83 551.95,-859.67 552,-867 552.28,-906.34 549.94,-916.3 553.25,-955.5 556.59,-995.16 560.04,-1004.81 567,-1044 567.39,-1046.2 567.81,-1048.47 568.24,-1050.75"/>
<polygon fill="black" stroke="black" points="564.78,-1051.31 570.14,-1060.45 571.65,-1049.97 564.78,-1051.31"/>
<text text-anchor="middle" x="556.38" y="-942.2" font-family="Times,serif" font-size="14.00">8</text>
</g>
<!-- 3&#45;&gt;10 -->
<g id="edge75" class="edge">
<title>3&#45;&gt;10</title>
<path fill="none" stroke="black" d="M579.51,-809.67C675.09,-795.87 1002.2,-748.63 1114.1,-732.47"/>
<polygon fill="black" stroke="black" points="1114.56,-735.94 1123.96,-731.05 1113.56,-729.01 1114.56,-735.94"/>
<text text-anchor="middle" x="909.38" y="-765.2" font-family="Times,serif" font-size="14.00">7</text>
</g>
<!-- 5&#45;&gt;3 -->
<g id="edge14" class="edge">
<title>5&#45;&gt;3</title>
<path fill="none" stroke="black" d="M572.98,-1061.81C571.71,-1040.93 569.41,-1004.61 567,-973.5 563.49,-928.17 558.68,-875.6 555.71,-843.98"/>
<polygon fill="black" stroke="black" points="559.2,-843.69 554.78,-834.06 552.23,-844.35 559.2,-843.69"/>
<text text-anchor="middle" x="568.38" y="-942.2" font-family="Times,serif" font-size="14.00">8</text>
</g>
<!-- 7 -->
<g id="node9" class="node">
<title>7</title>
<ellipse fill="none" stroke="black" cx="837" cy="-549" rx="27" ry="18"/>
<text text-anchor="middle" x="837" y="-543.95" font-family="Times,serif" font-size="14.00">7 0</text>
</g>
<!-- 5&#45;&gt;7 -->
<g id="edge15" class="edge">
<title>5&#45;&gt;7</title>
<path fill="none" stroke="black" d="M600.04,-1074.54C633.73,-1067.29 691.49,-1049.51 720,-1009.5 776.43,-930.32 799.63,-678.59 826,-585 826.65,-582.7 827.34,-580.32 828.05,-577.94"/>
<polygon fill="black" stroke="black" points="831.37,-579.06 830.98,-568.47 824.68,-577 831.37,-579.06"/>
<text text-anchor="middle" x="791.75" y="-809.45" font-family="Times,serif" font-size="14.00">12</text>
</g>
<!-- 4 -->
<g id="node14" class="node">
<title>4</title>
<ellipse fill="none" stroke="black" cx="684" cy="-991.5" rx="27" ry="18"/>
<text text-anchor="middle" x="684" y="-986.45" font-family="Times,serif" font-size="14.00">4 0</text>
</g>
<!-- 5&#45;&gt;4 -->
<g id="edge13" class="edge">
<title>5&#45;&gt;4</title>
<path fill="none" stroke="black" d="M596.67,-1069.57C610.03,-1063.41 626.84,-1054.55 640,-1044 649.53,-1036.36 658.58,-1026.44 665.96,-1017.34"/>
<polygon fill="black" stroke="black" points="668.69,-1019.53 672.07,-1009.49 663.16,-1015.23 668.69,-1019.53"/>
<text text-anchor="middle" x="659.38" y="-1030.7" font-family="Times,serif" font-size="14.00">9</text>
</g>
<!-- 5&#45;&gt;14 -->
<g id="edge12" class="edge">
<title>5&#45;&gt;14</title>
<path fill="none" stroke="black" d="M564.39,-1062.9C541.39,-1024.04 481.99,-921.75 440,-832.5 415.51,-780.43 382.48,-761.16 404.5,-708 417.13,-677.51 442.08,-684.93 457,-655.5 489.26,-591.87 499.22,-564.91 479,-496.5 467.56,-457.79 439.76,-419.81 420.16,-396.41"/>
<polygon fill="black" stroke="black" points="423,-394.35 413.83,-389.04 417.69,-398.91 423,-394.35"/>
<text text-anchor="middle" x="410.75" y="-720.95" font-family="Times,serif" font-size="14.00">11</text>
</g>
<!-- 16&#45;&gt;3 -->
<g id="edge63" class="edge">
<title>16&#45;&gt;3</title>
<path fill="none" stroke="black" d="M648.72,-301.03C646.36,-306.8 643.87,-313.37 642,-319.5 589.4,-491.99 563.68,-708.39 555.76,-785.02"/>
<polygon fill="black" stroke="black" points="552.32,-784.28 554.79,-794.58 559.28,-784.99 552.32,-784.28"/>
<text text-anchor="middle" x="597.75" y="-543.95" font-family="Times,serif" font-size="14.00">34</text>
</g>
<!-- 16&#45;&gt;11 -->
<g id="edge65" class="edge">
<title>16&#45;&gt;11</title>
<path fill="none" stroke="black" d="M681.77,-277.09C752.28,-262.29 948.58,-221.07 1030.91,-203.79"/>
<polygon fill="black" stroke="black" points="1031.42,-207.26 1040.49,-201.78 1029.99,-200.4 1031.42,-207.26"/>
<text text-anchor="middle" x="904.75" y="-234.2" font-family="Times,serif" font-size="14.00">33</text>
</g>
<!-- 8 -->
<g id="node18" class="node">
<title>8</title>
<ellipse fill="none" stroke="black" cx="1249" cy="-637.5" rx="27" ry="18"/>
<text text-anchor="middle" x="1249" y="-632.45" font-family="Times,serif" font-size="14.00">8 0</text>
</g>
<!-- 16&#45;&gt;8 -->
<g id="edge66" class="edge">
<title>16&#45;&gt;8</title>
<path fill="none" stroke="black" d="M676.86,-295.35C724.67,-320.34 845.58,-384.29 944,-442.5 1047.77,-503.88 1167.56,-582.39 1220.89,-617.75"/>
<polygon fill="black" stroke="black" points="1218.82,-620.58 1229.09,-623.2 1222.69,-614.75 1218.82,-620.58"/>
<text text-anchor="middle" x="1007.75" y="-455.45" font-family="Times,serif" font-size="14.00">30</text>
</g>
<!-- 16&#45;&gt;15 -->
<g id="edge64" class="edge">
<title>16&#45;&gt;15</title>
<path fill="none" stroke="black" d="M636.66,-296.56C598.9,-321.79 519,-384.07 519,-459.5 519,-594.25 519,-594.25 519,-594.25 519,-796.93 401,-832.07 401,-1034.75 401,-1169.5 401,-1169.5 401,-1169.5 401,-1189.49 396.1,-1211.48 391.28,-1228.29"/>
<polygon fill="black" stroke="black" points="388.02,-1226.98 388.45,-1237.56 394.72,-1229.02 388.02,-1226.98"/>
<text text-anchor="middle" x="490.75" y="-765.2" font-family="Times,serif" font-size="14.00">31</text>
</g>
<!-- 6&#45;&gt;5 -->
<g id="edge9" class="edge">
<title>6&#45;&gt;5</title>
<path fill="none" stroke="black" d="M750.01,-1164.94C706.83,-1160.39 624.7,-1149.72 601.5,-1132.5 593.4,-1126.49 587.44,-1117.36 583.18,-1108.46"/>
<polygon fill="black" stroke="black" points="586.46,-1107.22 579.39,-1099.33 579.99,-1109.9 586.46,-1107.22"/>
<text text-anchor="middle" x="607.75" y="-1119.2" font-family="Times,serif" font-size="14.00">11</text>
</g>
<!-- 6&#45;&gt;7 -->
<g id="edge10" class="edge">
<title>6&#45;&gt;7</title>
<path fill="none" stroke="black" d="M791.57,-1153.16C797.02,-1147.18 802.87,-1139.91 807,-1132.5 834.21,-1083.7 827.29,-1065.08 833,-1009.5 851.56,-829.03 843.27,-782.9 846,-601.5 846.11,-594.17 846.92,-592.28 846,-585 845.7,-582.67 845.3,-580.26 844.83,-577.87"/>
<polygon fill="black" stroke="black" points="848.3,-577.33 842.61,-568.4 841.49,-578.93 848.3,-577.33"/>
<text text-anchor="middle" x="850.75" y="-853.7" font-family="Times,serif" font-size="14.00">13</text>
</g>
<!-- 17 -->
<g id="node13" class="node">
<title>17</title>
<ellipse fill="none" stroke="black" cx="938" cy="-903" rx="27.3" ry="18"/>
<text text-anchor="middle" x="938" y="-897.95" font-family="Times,serif" font-size="14.00">17 0</text>
</g>
<!-- 6&#45;&gt;17 -->
<g id="edge8" class="edge">
<title>6&#45;&gt;17</title>
<path fill="none" stroke="black" d="M803.1,-1163.37C823.03,-1158.93 849.9,-1150.01 867,-1132.5 921.33,-1076.86 934.17,-980.4 937.14,-932.58"/>
<polygon fill="black" stroke="black" points="940.63,-932.93 937.64,-922.77 933.64,-932.58 940.63,-932.93"/>
<text text-anchor="middle" x="927.75" y="-1030.7" font-family="Times,serif" font-size="14.00">14</text>
</g>
<!-- 6&#45;&gt;4 -->
<g id="edge11" class="edge">
<title>6&#45;&gt;4</title>
<path fill="none" stroke="black" d="M768.25,-1151.04C752.08,-1120.6 717.38,-1055.32 697.94,-1018.73"/>
<polygon fill="black" stroke="black" points="701.15,-1017.32 693.37,-1010.13 694.97,-1020.6 701.15,-1017.32"/>
<text text-anchor="middle" x="745.75" y="-1074.95" font-family="Times,serif" font-size="14.00">10</text>
</g>
<!-- 7&#45;&gt;13 -->
<g id="edge7" class="edge">
<title>7&#45;&gt;13</title>
<path fill="none" stroke="black" d="M847.74,-566.01C865.26,-592.09 901.12,-645.29 932,-690 997.45,-784.76 1081,-786.83 1081,-902 1081,-1258 1081,-1258 1081,-1258 1081,-1330.05 525.56,-1342.16 372.59,-1344.13"/>
<polygon fill="black" stroke="black" points="372.94,-1340.63 362.99,-1344.25 373.03,-1347.62 372.94,-1340.63"/>
<text text-anchor="middle" x="1087.75" y="-942.2" font-family="Times,serif" font-size="14.00">12</text>
</g>
<!-- 7&#45;&gt;6 -->
<g id="edge6" class="edge">
<title>7&#45;&gt;6</title>
<path fill="none" stroke="black" d="M835.01,-567.31C830.93,-604.32 822,-693.9 822,-769.25 822,-904 822,-904 822,-904 822,-1006.49 817.12,-1033.4 791,-1132.5 790.31,-1135.12 789.48,-1137.8 788.57,-1140.46"/>
<polygon fill="black" stroke="black" points="785.36,-1139.04 785.09,-1149.63 791.91,-1141.53 785.36,-1139.04"/>
<text text-anchor="middle" x="828.75" y="-853.7" font-family="Times,serif" font-size="14.00">13</text>
</g>
<!-- 7&#45;&gt;10 -->
<g id="edge5" class="edge">
<title>7&#45;&gt;10</title>
<path fill="none" stroke="black" d="M859.55,-559.52C873.67,-565.9 891.98,-574.96 907,-585 966.2,-624.57 965.34,-656.18 1028,-690 1055.14,-704.65 1089.02,-713.67 1114.5,-718.88"/>
<polygon fill="black" stroke="black" points="1113.6,-722.27 1124.08,-720.72 1114.92,-715.39 1113.6,-722.27"/>
<text text-anchor="middle" x="986.75" y="-632.45" font-family="Times,serif" font-size="14.00">16</text>
</g>
<!-- 7&#45;&gt;19 -->
<g id="edge4" class="edge">
<title>7&#45;&gt;19</title>
<path fill="none" stroke="black" d="M837,-530.91C837,-519.26 837,-503.55 837,-490.02"/>
<polygon fill="black" stroke="black" points="840.5,-490.36 837,-480.36 833.5,-490.36 840.5,-490.36"/>
<text text-anchor="middle" x="843.75" y="-499.7" font-family="Times,serif" font-size="14.00">15</text>
</g>
<!-- 10&#45;&gt;12 -->
<g id="edge41" class="edge">
<title>10&#45;&gt;12</title>
<path fill="none" stroke="black" d="M1153.09,-744.21C1156.21,-795.25 1165,-950.27 1165,-1079 1165,-1346.5 1165,-1346.5 1165,-1346.5 1165,-1431.03 504.72,-1433.91 335.92,-1433.26"/>
<polygon fill="black" stroke="black" points="335.94,-1429.77 325.92,-1433.22 335.91,-1436.76 335.94,-1429.77"/>
<text text-anchor="middle" x="1171.75" y="-1074.95" font-family="Times,serif" font-size="14.00">22</text>
</g>
<!-- 10&#45;&gt;11 -->
<g id="edge39" class="edge">
<title>10&#45;&gt;11</title>
<path fill="none" stroke="black" d="M1158.43,-708.16C1160.29,-702.48 1162.07,-696.04 1163,-690 1164.11,-682.75 1163.27,-680.83 1163,-673.5 1156.28,-490.65 1152.7,-442.93 1108,-265.5 1104.1,-250.02 1105.59,-245.05 1098,-231 1095.73,-226.8 1092.89,-222.66 1089.87,-218.78"/>
<polygon fill="black" stroke="black" points="1092.79,-216.8 1083.65,-211.44 1087.45,-221.33 1092.79,-216.8"/>
<text text-anchor="middle" x="1157.75" y="-455.45" font-family="Times,serif" font-size="14.00">21</text>
</g>
<!-- 10&#45;&gt;14 -->
<g id="edge42" class="edge">
<title>10&#45;&gt;14</title>
<path fill="none" stroke="black" d="M1142.21,-708.77C1120.45,-673.57 1065.15,-588.72 1004,-531 978.45,-506.88 905.76,-455.2 873,-442.5 832.54,-426.81 543.01,-390.51 437.41,-377.63"/>
<polygon fill="black" stroke="black" points="437.9,-374.17 427.55,-376.43 437.05,-381.12 437.9,-374.17"/>
<text text-anchor="middle" x="1043.75" y="-543.95" font-family="Times,serif" font-size="14.00">19</text>
</g>
<!-- 10&#45;&gt;8 -->
<g id="edge40" class="edge">
<title>10&#45;&gt;8</title>
<path fill="none" stroke="black" d="M1172.33,-713.44C1182.61,-707.14 1195,-698.83 1205,-690 1214.16,-681.91 1223.13,-671.9 1230.56,-662.87"/>
<polygon fill="black" stroke="black" points="1233.25,-665.11 1236.74,-655.11 1227.77,-660.75 1233.25,-665.11"/>
<text text-anchor="middle" x="1226.75" y="-676.7" font-family="Times,serif" font-size="14.00">18</text>
</g>
<!-- 1 -->
<g id="node11" class="node">
<title>1</title>
<ellipse fill="none" stroke="black" cx="296" cy="-283.5" rx="27" ry="18"/>
<text text-anchor="middle" x="296" y="-278.45" font-family="Times,serif" font-size="14.00">1 0</text>
</g>
<!-- 1&#45;&gt;3 -->
<g id="edge25" class="edge">
<title>1&#45;&gt;3</title>
<path fill="none" stroke="black" d="M298.27,-301.8C303.12,-336.23 315.99,-415.47 339,-478.5 354.15,-520 361.67,-529.03 384.25,-567 434.28,-651.13 502.26,-745.18 534.53,-788.81"/>
<polygon fill="black" stroke="black" points="531.54,-790.66 540.31,-796.6 537.16,-786.48 531.54,-790.66"/>
<text text-anchor="middle" x="387.38" y="-543.95" font-family="Times,serif" font-size="14.00">4</text>
</g>
<!-- 1&#45;&gt;10 -->
<g id="edge23" class="edge">
<title>1&#45;&gt;10</title>
<path fill="none" stroke="black" d="M322.07,-288.77C343.1,-292.21 373.46,-297.18 400,-301.5 449.33,-309.53 462.5,-307.42 511,-319.5 593.44,-340.04 805.3,-391.17 873,-442.5 941.27,-494.26 922.25,-540.09 982,-601.5 1025.37,-646.07 1086.36,-686.05 1122.28,-707.78"/>
<polygon fill="black" stroke="black" points="1120.03,-710.51 1130.41,-712.64 1123.62,-704.51 1120.03,-710.51"/>
<text text-anchor="middle" x="931.38" y="-499.7" font-family="Times,serif" font-size="14.00">3</text>
</g>
<!-- 1&#45;&gt;18 -->
<g id="edge26" class="edge">
<title>1&#45;&gt;18</title>
<path fill="none" stroke="black" d="M290.12,-265.69C276.29,-222.74 247.22,-108.49 308,-54 337.65,-27.42 936.75,-20.62 1095.61,-19.28"/>
<polygon fill="black" stroke="black" points="1095.21,-22.79 1105.18,-19.2 1095.16,-15.79 1095.21,-22.79"/>
<text text-anchor="middle" x="277.75" y="-145.7" font-family="Times,serif" font-size="14.00">19</text>
</g>
<!-- 1&#45;&gt;15 -->
<g id="edge24" class="edge">
<title>1&#45;&gt;15</title>
<path fill="none" stroke="black" d="M281.68,-299.24C235.98,-346.28 96.53,-490.19 94,-496.5 91.28,-503.31 92.88,-505.75 94,-513 119.4,-677.47 141.14,-718.37 216,-867 255.99,-946.41 325,-945.84 325,-1034.75 325,-1169.5 325,-1169.5 325,-1169.5 325,-1194.77 342.17,-1218.36 357.66,-1234.5"/>
<polygon fill="black" stroke="black" points="354.85,-1236.64 364.43,-1241.17 359.77,-1231.66 354.85,-1236.64"/>
<text text-anchor="middle" x="175.38" y="-765.2" font-family="Times,serif" font-size="14.00">1</text>
</g>
<!-- 9&#45;&gt;5 -->
<g id="edge59" class="edge">
<title>9&#45;&gt;5</title>
<path fill="none" stroke="black" d="M1150.78,-121.09C1192.78,-155.87 1303.83,-252.51 1370,-354 1443.19,-466.26 1437.23,-537.34 1374,-655.5 1349.81,-700.71 1340.16,-712.13 1300,-744 1184.16,-835.92 845.18,-994.02 706,-1044 674.51,-1055.31 637.63,-1064.78 610.87,-1071.01"/>
<polygon fill="black" stroke="black" points="610.15,-1067.59 601.18,-1073.22 611.7,-1074.41 610.15,-1067.59"/>
<text text-anchor="middle" x="1412.75" y="-588.2" font-family="Times,serif" font-size="14.00">16</text>
</g>
<!-- 9&#45;&gt;11 -->
<g id="edge61" class="edge">
<title>9&#45;&gt;11</title>
<path fill="none" stroke="black" d="M1122.43,-122.85C1114.69,-133.1 1104.26,-146.88 1095,-159 1092.38,-162.43 1089.6,-166.05 1086.87,-169.6"/>
<polygon fill="black" stroke="black" points="1084.12,-167.43 1080.78,-177.49 1089.66,-171.71 1084.12,-167.43"/>
<text text-anchor="middle" x="1112.75" y="-145.7" font-family="Times,serif" font-size="14.00">20</text>
</g>
<!-- 9&#45;&gt;18 -->
<g id="edge60" class="edge">
<title>9&#45;&gt;18</title>
<path fill="none" stroke="black" d="M1134,-88.41C1134,-76.76 1134,-61.05 1134,-47.52"/>
<polygon fill="black" stroke="black" points="1137.5,-47.86 1134,-37.86 1130.5,-47.86 1137.5,-47.86"/>
<text text-anchor="middle" x="1140.75" y="-57.2" font-family="Times,serif" font-size="14.00">19</text>
</g>
<!-- 9&#45;&gt;8 -->
<g id="edge62" class="edge">
<title>9&#45;&gt;8</title>
<path fill="none" stroke="black" d="M1145.69,-122.9C1149.72,-128.79 1153.99,-135.72 1157,-142.5 1163.44,-156.98 1162.01,-161.66 1166,-177 1206.6,-332.91 1225.82,-370.92 1244,-531 1246.94,-556.89 1248.16,-586.55 1248.66,-607.81"/>
<polygon fill="black" stroke="black" points="1245.16,-607.82 1248.85,-617.75 1252.16,-607.69 1245.16,-607.82"/>
<text text-anchor="middle" x="1227.75" y="-366.95" font-family="Times,serif" font-size="14.00">17</text>
</g>
<!-- 17&#45;&gt;14 -->
<g id="edge70" class="edge">
<title>17&#45;&gt;14</title>
<path fill="none" stroke="black" d="M929.28,-885.62C914.53,-858.59 882.91,-803.47 849,-762 705.15,-586.06 669.51,-533.45 480,-408 465.71,-398.54 448.45,-390.67 433.53,-384.8"/>
<polygon fill="black" stroke="black" points="435.17,-381.68 424.58,-381.42 432.7,-388.23 435.17,-381.68"/>
<text text-anchor="middle" x="767.75" y="-632.45" font-family="Times,serif" font-size="14.00">33</text>
</g>
<!-- 17&#45;&gt;18 -->
<g id="edge69" class="edge">
<title>17&#45;&gt;18</title>
<path fill="none" stroke="black" d="M956.59,-889.63C973.01,-878.87 997.75,-863.07 1020,-850.5 1154.41,-774.59 1219.1,-799.4 1328,-690 1370.5,-647.3 1422,-490.2 1422,-328.75 1422,-328.75 1422,-328.75 1422,-105.5 1422,-53.98 1250.81,-30.49 1172.4,-22.43"/>
<polygon fill="black" stroke="black" points="1172.9,-18.96 1162.6,-21.45 1172.21,-25.92 1172.9,-18.96"/>
<text text-anchor="middle" x="1419.75" y="-455.45" font-family="Times,serif" font-size="14.00">35</text>
</g>
<!-- 17&#45;&gt;15 -->
<g id="edge68" class="edge">
<title>17&#45;&gt;15</title>
<path fill="none" stroke="black" d="M944.45,-920.81C958.84,-961.4 988.85,-1066.27 943,-1132.5 934.1,-1145.36 828.05,-1182.23 813,-1186.5 671.47,-1226.7 496.77,-1245.9 420.57,-1252.83"/>
<polygon fill="black" stroke="black" points="420.37,-1249.33 410.72,-1253.7 420.99,-1256.3 420.37,-1249.33"/>
<text text-anchor="middle" x="972.75" y="-1074.95" font-family="Times,serif" font-size="14.00">32</text>
</g>
<!-- 17&#45;&gt;19 -->
<g id="edge67" class="edge">
<title>17&#45;&gt;19</title>
<path fill="none" stroke="black" d="M943.06,-884.94C947.75,-867.62 954,-839.94 954,-815.5 954,-815.5 954,-815.5 954,-680.75 954,-638.96 887,-534.87 854.4,-486.69"/>
<polygon fill="black" stroke="black" points="857.38,-484.85 848.86,-478.56 851.6,-488.79 857.38,-484.85"/>
<text text-anchor="middle" x="960.75" y="-676.7" font-family="Times,serif" font-size="14.00">36</text>
</g>
<!-- 4&#45;&gt;2 -->
<g id="edge50" class="edge">
<title>4&#45;&gt;2</title>
<path fill="none" stroke="black" d="M670.72,-975.61C665.26,-969.43 658.9,-962.16 653.25,-955.5 645.77,-946.7 637.7,-936.92 630.63,-928.28"/>
<polygon fill="black" stroke="black" points="633.42,-926.15 624.39,-920.61 627.99,-930.57 633.42,-926.15"/>
<text text-anchor="middle" x="656.38" y="-942.2" font-family="Times,serif" font-size="14.00">6</text>
</g>
<!-- 4&#45;&gt;16 -->
<g id="edge47" class="edge">
<title>4&#45;&gt;16</title>
<path fill="none" stroke="black" d="M681.65,-973.45C677.71,-944.51 669.63,-883.9 664,-832.5 639.97,-613.15 662.22,-556.66 664,-336 664.06,-328.67 664.82,-326.79 664,-319.5 663.75,-317.27 663.41,-314.98 663.01,-312.68"/>
<polygon fill="black" stroke="black" points="666.45,-312.02 660.99,-302.94 659.6,-313.44 666.45,-312.02"/>
<text text-anchor="middle" x="656.38" y="-632.45" font-family="Times,serif" font-size="14.00">7</text>
</g>
<!-- 4&#45;&gt;7 -->
<g id="edge49" class="edge">
<title>4&#45;&gt;7</title>
<path fill="none" stroke="black" d="M685.05,-973.06C685.37,-967.45 685.72,-961.21 686,-955.5 693.37,-806.22 619.16,-745.21 700,-619.5 722.32,-584.79 767.72,-566.64 800.14,-557.72"/>
<polygon fill="black" stroke="black" points="800.72,-561.19 809.54,-555.32 798.98,-554.41 800.72,-561.19"/>
<text text-anchor="middle" x="671.75" y="-765.2" font-family="Times,serif" font-size="14.00">10</text>
</g>
<!-- 4&#45;&gt;17 -->
<g id="edge48" class="edge">
<title>4&#45;&gt;17</title>
<path fill="none" stroke="black" d="M707.9,-982.36C753,-967 850.83,-933.69 903.22,-915.84"/>
<polygon fill="black" stroke="black" points="904.21,-919.2 912.55,-912.67 901.96,-912.58 904.21,-919.2"/>
<text text-anchor="middle" x="836.38" y="-942.2" font-family="Times,serif" font-size="14.00">9</text>
</g>
<!-- 11&#45;&gt;13 -->
<g id="edge18" class="edge">
<title>11&#45;&gt;13</title>
<path fill="none" stroke="black" d="M1068,-213.23C1068,-230.69 1068,-258.47 1068,-282.5 1068,-505.75 1068,-505.75 1068,-505.75 1068,-702.84 1119,-749.16 1119,-946.25 1119,-1258 1119,-1258 1119,-1258 1119,-1315.63 1056.39,-1297.63 1000,-1309.5 879.11,-1334.94 497,-1342.29 373.16,-1344.03"/>
<polygon fill="black" stroke="black" points="373.13,-1340.53 363.18,-1344.16 373.22,-1347.53 373.13,-1340.53"/>
<text text-anchor="middle" x="1109.75" y="-765.2" font-family="Times,serif" font-size="14.00">24</text>
</g>
<!-- 11&#45;&gt;10 -->
<g id="edge19" class="edge">
<title>11&#45;&gt;10</title>
<path fill="none" stroke="black" d="M1075.53,-212.46C1077.91,-218.22 1080.35,-224.8 1082,-231 1128.19,-404.19 1145.44,-620.16 1150.36,-696.6"/>
<polygon fill="black" stroke="black" points="1146.84,-696.36 1150.95,-706.13 1153.83,-695.93 1146.84,-696.36"/>
<text text-anchor="middle" x="1134.75" y="-455.45" font-family="Times,serif" font-size="14.00">21</text>
</g>
<!-- 11&#45;&gt;9 -->
<g id="edge17" class="edge">
<title>11&#45;&gt;9</title>
<path fill="none" stroke="black" d="M1069.38,-176.93C1070.95,-166.22 1074.31,-152.58 1081.5,-142.5 1086.91,-134.91 1094.53,-128.5 1102.28,-123.33"/>
<polygon fill="black" stroke="black" points="1103.98,-126.39 1110.73,-118.21 1100.36,-120.4 1103.98,-126.39"/>
<text text-anchor="middle" x="1087.75" y="-145.7" font-family="Times,serif" font-size="14.00">20</text>
</g>
<!-- 11&#45;&gt;14 -->
<g id="edge16" class="edge">
<title>11&#45;&gt;14</title>
<path fill="none" stroke="black" d="M1040.53,-195.82C926.44,-195.31 493.69,-195.73 445,-231 409.94,-256.4 401.13,-309.39 399.19,-342.4"/>
<polygon fill="black" stroke="black" points="395.7,-341.93 398.81,-352.06 402.7,-342.2 395.7,-341.93"/>
<text text-anchor="middle" x="422.75" y="-278.45" font-family="Times,serif" font-size="14.00">23</text>
</g>
<!-- 14&#45;&gt;13 -->
<g id="edge45" class="edge">
<title>14&#45;&gt;13</title>
<path fill="none" stroke="black" d="M385.18,-387.66C354.83,-420.21 284.03,-498.19 271,-531 222.17,-653.94 211,-990.97 211,-1123.25 211,-1258 211,-1258 211,-1258 211,-1300.7 261.22,-1324.15 297.48,-1335.52"/>
<polygon fill="black" stroke="black" points="296.18,-1338.78 306.76,-1338.24 298.15,-1332.06 296.18,-1338.78"/>
<text text-anchor="middle" x="227.75" y="-853.7" font-family="Times,serif" font-size="14.00">27</text>
</g>
<!-- 14&#45;&gt;16 -->
<g id="edge46" class="edge">
<title>14&#45;&gt;16</title>
<path fill="none" stroke="black" d="M420.96,-360.75C445.38,-349.61 486.19,-331.77 522.5,-319.5 554.68,-308.63 592.15,-299.07 619.19,-292.7"/>
<polygon fill="black" stroke="black" points="619.67,-296.18 628.62,-290.51 618.09,-289.36 619.67,-296.18"/>
<text text-anchor="middle" x="528.75" y="-322.7" font-family="Times,serif" font-size="14.00">30</text>
</g>
<!-- 14&#45;&gt;1 -->
<g id="edge44" class="edge">
<title>14&#45;&gt;1</title>
<path fill="none" stroke="black" d="M374.2,-364.04C358.2,-358.53 337.78,-349.5 323.5,-336 316.35,-329.24 310.67,-320.21 306.37,-311.6"/>
<polygon fill="black" stroke="black" points="309.57,-310.18 302.28,-302.5 303.19,-313.05 309.57,-310.18"/>
<text text-anchor="middle" x="329.75" y="-322.7" font-family="Times,serif" font-size="14.00">26</text>
</g>
<!-- 14&#45;&gt;18 -->
<g id="edge43" class="edge">
<title>14&#45;&gt;18</title>
<path fill="none" stroke="black" d="M387.71,-355.23C360.2,-314.75 295.83,-205.88 350,-142.5 447.86,-28.02 950.27,-19 1094.96,-18.81"/>
<polygon fill="black" stroke="black" points="1094.79,-22.31 1104.79,-18.81 1094.79,-15.31 1094.79,-22.31"/>
<text text-anchor="middle" x="337.75" y="-189.95" font-family="Times,serif" font-size="14.00">29</text>
</g>
<!-- 18&#45;&gt;5 -->
<g id="edge22" class="edge">
<title>18&#45;&gt;5</title>
<path fill="none" stroke="black" d="M1106.29,-19.12C958.32,-19.87 264.73,-24.94 174,-54 134.44,-66.67 96,-63.96 96,-105.5 96,-417.25 96,-417.25 96,-417.25 96,-456.32 205.44,-710.77 226,-744 264.59,-806.36 284.09,-815.19 336,-867 410.04,-940.9 504.52,-1021.27 548.87,-1058.25"/>
<polygon fill="black" stroke="black" points="546.46,-1060.79 556.39,-1064.5 550.94,-1055.41 546.46,-1060.79"/>
<text text-anchor="middle" x="153.75" y="-543.95" font-family="Times,serif" font-size="14.00">34</text>
</g>
<!-- 18&#45;&gt;10 -->
<g id="edge21" class="edge">
<title>18&#45;&gt;10</title>
<path fill="none" stroke="black" d="M1160.38,-22.85C1222.35,-32.63 1372,-60.88 1372,-105.5 1372,-240.25 1372,-240.25 1372,-240.25 1372,-358.57 1334,-385.43 1334,-503.75 1334,-638.5 1334,-638.5 1334,-638.5 1334,-701.27 1244.59,-718.54 1191.11,-723.26"/>
<polygon fill="black" stroke="black" points="1190.86,-719.77 1181.15,-724.02 1191.39,-726.75 1190.86,-719.77"/>
<text text-anchor="middle" x="1363.75" y="-366.95" font-family="Times,serif" font-size="14.00">37</text>
</g>
<!-- 18&#45;&gt;8 -->
<g id="edge20" class="edge">
<title>18&#45;&gt;8</title>
<path fill="none" stroke="black" d="M1154.85,-29.94C1165.48,-36.13 1178.21,-44.52 1188,-54 1201.42,-66.99 1203.48,-71.88 1212,-88.5 1263.19,-188.43 1296,-214.47 1296,-326.75 1296,-550 1296,-550 1296,-550 1296,-573.43 1282.52,-596.57 1270,-613.02"/>
<polygon fill="black" stroke="black" points="1267.36,-610.72 1263.8,-620.7 1272.8,-615.12 1267.36,-610.72"/>
<text text-anchor="middle" x="1302.75" y="-322.7" font-family="Times,serif" font-size="14.00">35</text>
</g>
<!-- 8&#45;&gt;6 -->
<g id="edge56" class="edge">
<title>8&#45;&gt;6</title>
<path fill="none" stroke="black" d="M1247.31,-655.83C1245.82,-666.13 1243.06,-679.25 1238,-690 1188.74,-794.62 987.33,-1007.77 915,-1098 902.65,-1113.41 903.75,-1122.05 887,-1132.5 856.82,-1151.34 842.33,-1138.05 809,-1150.5 808.37,-1150.73 807.74,-1150.98 807.11,-1151.23"/>
<polygon fill="black" stroke="black" points="805.96,-1147.91 798.32,-1155.25 808.87,-1154.28 805.96,-1147.91"/>
<text text-anchor="middle" x="1102.75" y="-897.95" font-family="Times,serif" font-size="14.00">14</text>
</g>
<!-- 8&#45;&gt;7 -->
<g id="edge57" class="edge">
<title>8&#45;&gt;7</title>
<path fill="none" stroke="black" d="M1222.58,-633.26C1180.88,-627.93 1097.37,-616.42 1027.5,-601.5 972.69,-589.8 910.15,-572.02 872.13,-560.71"/>
<polygon fill="black" stroke="black" points="873.19,-557.38 862.6,-557.86 871.18,-564.08 873.19,-557.38"/>
<text text-anchor="middle" x="1033.75" y="-588.2" font-family="Times,serif" font-size="14.00">15</text>
</g>
<!-- 8&#45;&gt;9 -->
<g id="edge58" class="edge">
<title>8&#45;&gt;9</title>
<path fill="none" stroke="black" d="M1245.24,-619.2C1228.53,-542.36 1160.96,-231.53 1140.14,-135.74"/>
<polygon fill="black" stroke="black" points="1143.6,-135.18 1138.05,-126.15 1136.76,-136.66 1143.6,-135.18"/>
<text text-anchor="middle" x="1200.75" y="-366.95" font-family="Times,serif" font-size="14.00">17</text>
</g>
<!-- 8&#45;&gt;19 -->
<g id="edge55" class="edge">
<title>8&#45;&gt;19</title>
<path fill="none" stroke="black" d="M1223.74,-630.74C1162.54,-616.65 1009.92,-580.59 990.5,-567 959.13,-545.05 972.19,-518.7 941,-496.5 917.27,-479.62 905.5,-488.09 878,-478.5 875.33,-477.57 872.58,-476.55 869.82,-475.5"/>
<polygon fill="black" stroke="black" points="871.37,-472.34 860.78,-471.88 868.77,-478.84 871.37,-472.34"/>
<text text-anchor="middle" x="996.75" y="-543.95" font-family="Times,serif" font-size="14.00">18</text>
</g>
<!-- 15&#45;&gt;6 -->
<g id="edge53" class="edge">
<title>15&#45;&gt;6</title>
<path fill="none" stroke="black" d="M395.46,-1241.02C408.05,-1227.4 426.26,-1208.79 435.5,-1204.5 488.53,-1179.9 660.83,-1172.45 738.46,-1170.31"/>
<polygon fill="black" stroke="black" points="738.22,-1173.82 748.13,-1170.06 738.04,-1166.82 738.22,-1173.82"/>
<text text-anchor="middle" x="441.75" y="-1207.7" font-family="Times,serif" font-size="14.00">28</text>
</g>
<!-- 15&#45;&gt;1 -->
<g id="edge52" class="edge">
<title>15&#45;&gt;1</title>
<path fill="none" stroke="black" d="M361.74,-1244.66C351.78,-1238.47 340.01,-1230.21 331,-1221 298.1,-1187.39 297.13,-1172.86 273,-1132.5 269.85,-1127.23 64.04,-749.79 62,-744 40.59,-683.29 41.8,-665.62 36,-601.5 31.79,-554.99 19.06,-538.24 40,-496.5 81.37,-414.02 118.7,-411.34 191,-354 215.4,-334.65 245.15,-315.32 266.75,-301.97"/>
<polygon fill="black" stroke="black" points="268.35,-305.1 275.05,-296.89 264.69,-299.13 268.35,-305.1"/>
<text text-anchor="middle" x="87.75" y="-765.2" font-family="Times,serif" font-size="14.00">31</text>
</g>
<!-- 15&#45;&gt;17 -->
<g id="edge54" class="edge">
<title>15&#45;&gt;17</title>
<path fill="none" stroke="black" d="M409.43,-1254.4C504.71,-1248.53 820.61,-1226.43 913,-1186.5 961.67,-1165.47 982.84,-1150.04 993,-1098 1001.59,-1053.97 992.95,-961.26 981,-939 977.6,-932.65 972.51,-927.03 967.01,-922.24"/>
<polygon fill="black" stroke="black" points="969.47,-919.72 959.42,-916.36 965.18,-925.25 969.47,-919.72"/>
<text text-anchor="middle" x="1002.75" y="-1074.95" font-family="Times,serif" font-size="14.00">32</text>
</g>
<!-- 15&#45;&gt;14 -->
<g id="edge51" class="edge">
<title>15&#45;&gt;14</title>
<path fill="none" stroke="black" d="M375.99,-1239.01C370.42,-1221.74 363,-1194.1 363,-1169.5 363,-1169.5 363,-1169.5 363,-1034.75 363,-973.82 324.18,-821.96 335,-762 342.45,-720.69 351.77,-712.22 368,-673.5 383.02,-637.65 405,-633.12 405,-594.25 405,-594.25 405,-594.25 405,-459.5 405,-440.12 403.48,-418.35 401.97,-401.5"/>
<polygon fill="black" stroke="black" points="405.47,-401.34 401.04,-391.71 398.51,-402 405.47,-401.34"/>
<text text-anchor="middle" x="341.75" y="-809.45" font-family="Times,serif" font-size="14.00">29</text>
</g>
<!-- 19&#45;&gt;6 -->
<g id="edge2" class="edge">
<title>19&#45;&gt;6</title>
<path fill="none" stroke="black" d="M826.84,-477.41C818.58,-491.09 807.31,-511.62 801,-531 728.03,-755.19 759.96,-1047.42 772.67,-1138.87"/>
<polygon fill="black" stroke="black" points="769.19,-1139.29 774.07,-1148.69 776.12,-1138.29 769.19,-1139.29"/>
<text text-anchor="middle" x="762.75" y="-809.45" font-family="Times,serif" font-size="14.00">36</text>
</g>
<!-- 19&#45;&gt;14 -->
<g id="edge3" class="edge">
<title>19&#45;&gt;14</title>
<path fill="none" stroke="black" d="M809.67,-458.17C758.68,-455.24 645.85,-446.65 553.5,-424.5 532.58,-419.48 528.36,-414.96 508,-408 483.45,-399.61 455.59,-390.68 434.19,-383.93"/>
<polygon fill="black" stroke="black" points="435.36,-380.63 424.77,-380.98 433.27,-387.31 435.36,-380.63"/>
<text text-anchor="middle" x="559.75" y="-411.2" font-family="Times,serif" font-size="14.00">21</text>
</g>
<!-- 19&#45;&gt;18 -->
<g id="edge1" class="edge">
<title>19&#45;&gt;18</title>
<path fill="none" stroke="black" d="M860.54,-450.85C932.9,-422.66 1150.27,-325.56 1203,-159 1216.87,-115.18 1182.06,-67.96 1157,-41.09"/>
<polygon fill="black" stroke="black" points="1159.8,-38.95 1150.33,-34.19 1154.77,-43.81 1159.8,-38.95"/>
<text text-anchor="middle" x="1173.75" y="-234.2" font-family="Times,serif" font-size="14.00">37</text>
</g>
</g>
</svg>
