<?xml version="1.0" encoding="UTF-8" standalone="no"?>
<!DOCTYPE svg PUBLIC "-//W3C//DTD SVG 1.1//EN"
 "http://www.w3.org/Graphics/SVG/1.1/DTD/svg11.dtd">
<!-- Generated by graphviz version 10.0.1 (20240210.2158)
 -->
<!-- Title: di_graph Pages: 1 -->
<svg width="1614pt" height="1834pt"
 viewBox="0.00 0.00 1613.50 1833.50" xmlns="http://www.w3.org/2000/svg" xmlns:xlink="http://www.w3.org/1999/xlink">
<g id="graph0" class="graph" transform="scale(1 1) rotate(0) translate(4 1829.5)">
<title>di_graph</title>
<polygon fill="white" stroke="none" points="-4,4 -4,-1829.5 1609.5,-1829.5 1609.5,4 -4,4"/>
<!-- 2 -->
<g id="node1" class="node">
<title>2</title>
<ellipse fill="none" stroke="black" cx="999" cy="-1807.5" rx="27" ry="18"/>
<text text-anchor="middle" x="999" y="-1802.45" font-family="Times,serif" font-size="14.00">2 0</text>
</g>
<!-- 29 -->
<g id="node18" class="node">
<title>29</title>
<ellipse fill="none" stroke="black" cx="999" cy="-1719" rx="27.3" ry="18"/>
<text text-anchor="middle" x="999" y="-1713.95" font-family="Times,serif" font-size="14.00">29 0</text>
</g>
<!-- 2&#45;&gt;29 -->
<g id="edge75" class="edge">
<title>2&#45;&gt;29</title>
<path fill="none" stroke="black" d="M999,-1789.41C999,-1777.76 999,-1762.05 999,-1748.52"/>
<polygon fill="black" stroke="black" points="1002.5,-1748.86 999,-1738.86 995.5,-1748.86 1002.5,-1748.86"/>
<text text-anchor="middle" x="1005.75" y="-1758.2" font-family="Times,serif" font-size="14.00">31</text>
</g>
<!-- 8 -->
<g id="node20" class="node">
<title>8</title>
<ellipse fill="none" stroke="black" cx="209" cy="-460.5" rx="27" ry="18"/>
<text text-anchor="middle" x="209" y="-455.45" font-family="Times,serif" font-size="14.00">8 0</text>
</g>
<!-- 2&#45;&gt;8 -->
<g id="edge74" class="edge">
<title>2&#45;&gt;8</title>
<path fill="none" stroke="black" d="M971.62,-1806.85C819.37,-1808.47 84,-1811.55 84,-1720 84,-1720 84,-1720 84,-1034.75 84,-872.59 180,-844.91 180,-682.75 180,-682.75 180,-682.75 180,-548 180,-527.08 187.72,-504.72 195.19,-487.98"/>
<polygon fill="black" stroke="black" points="198.22,-489.76 199.34,-479.23 191.89,-486.77 198.22,-489.76"/>
<text text-anchor="middle" x="90.75" y="-1119.2" font-family="Times,serif" font-size="14.00">10</text>
</g>
<!-- 12 -->
<g id="node25" class="node">
<title>12</title>
<ellipse fill="none" stroke="black" cx="238" cy="-1311" rx="27.3" ry="18"/>
<text text-anchor="middle" x="238" y="-1305.95" font-family="Times,serif" font-size="14.00">12 0</text>
</g>
<!-- 2&#45;&gt;12 -->
<g id="edge76" class="edge">
<title>2&#45;&gt;12</title>
<path fill="none" stroke="black" d="M971.56,-1806.62C826.97,-1806.88 160,-1803.56 160,-1720 160,-1720 160,-1720 160,-1408.25 160,-1375.69 187.27,-1347.98 209.56,-1330.77"/>
<polygon fill="black" stroke="black" points="211.51,-1333.69 217.5,-1324.95 207.37,-1328.05 211.51,-1333.69"/>
<text text-anchor="middle" x="166.75" y="-1581.2" font-family="Times,serif" font-size="14.00">14</text>
</g>
<!-- 15 -->
<g id="node2" class="node">
<title>15</title>
<ellipse fill="none" stroke="black" cx="801" cy="-1542" rx="27.3" ry="18"/>
<text text-anchor="middle" x="801" y="-1536.95" font-family="Times,serif" font-size="14.00">15 0</text>
</g>
<!-- 11 -->
<g id="node7" class="node">
<title>11</title>
<ellipse fill="none" stroke="black" cx="605" cy="-1453.5" rx="27.3" ry="18"/>
<text text-anchor="middle" x="605" y="-1448.45" font-family="Times,serif" font-size="14.00">11 0</text>
</g>
<!-- 15&#45;&gt;11 -->
<g id="edge84" class="edge">
<title>15&#45;&gt;11</title>
<path fill="none" stroke="black" d="M778.9,-1531.25C744.42,-1516.03 677.63,-1486.55 637.61,-1468.89"/>
<polygon fill="black" stroke="black" points="639.27,-1465.8 628.71,-1464.96 636.44,-1472.2 639.27,-1465.8"/>
<text text-anchor="middle" x="726.75" y="-1492.7" font-family="Times,serif" font-size="14.00">26</text>
</g>
<!-- 5 -->
<g id="node29" class="node">
<title>5</title>
<ellipse fill="none" stroke="black" cx="1404" cy="-195" rx="27" ry="18"/>
<text text-anchor="middle" x="1404" y="-189.95" font-family="Times,serif" font-size="14.00">5 0</text>
</g>
<!-- 15&#45;&gt;5 -->
<g id="edge85" class="edge">
<title>15&#45;&gt;5</title>
<path fill="none" stroke="black" d="M813.3,-1525.9C822.65,-1514.99 836.22,-1500.33 850,-1489.5 912.08,-1440.73 931.95,-1433.26 1004,-1401 1096.74,-1359.47 1133.37,-1380.44 1221,-1329 1282.31,-1293.01 1293.27,-1275.44 1339,-1221 1436.26,-1105.22 1452,-701.21 1452,-550 1452,-550 1452,-550 1452,-282.5 1452,-258.95 1438.23,-235.82 1425.45,-219.41"/>
<polygon fill="black" stroke="black" points="1428.17,-217.22 1419.11,-211.74 1422.78,-221.68 1428.17,-217.22"/>
<text text-anchor="middle" x="1443.75" y="-853.7" font-family="Times,serif" font-size="14.00">20</text>
</g>
<!-- 17 -->
<g id="node3" class="node">
<title>17</title>
<ellipse fill="none" stroke="black" cx="1018" cy="-1080" rx="27.3" ry="18"/>
<text text-anchor="middle" x="1018" y="-1074.95" font-family="Times,serif" font-size="14.00">17 0</text>
</g>
<!-- 16 -->
<g id="node12" class="node">
<title>16</title>
<ellipse fill="none" stroke="black" cx="801" cy="-1630.5" rx="27.3" ry="18"/>
<text text-anchor="middle" x="801" y="-1625.45" font-family="Times,serif" font-size="14.00">16 0</text>
</g>
<!-- 17&#45;&gt;16 -->
<g id="edge62" class="edge">
<title>17&#45;&gt;16</title>
<path fill="none" stroke="black" d="M1003.23,-1095.41C964.69,-1134.64 864,-1248.21 864,-1364 864,-1543 864,-1543 864,-1543 864,-1569.5 844.44,-1593.33 827.11,-1609.23"/>
<polygon fill="black" stroke="black" points="825.28,-1606.19 820.03,-1615.39 829.87,-1611.47 825.28,-1606.19"/>
<text text-anchor="middle" x="870.75" y="-1359.95" font-family="Times,serif" font-size="14.00">33</text>
</g>
<!-- 22 -->
<g id="node16" class="node">
<title>22</title>
<ellipse fill="none" stroke="black" cx="567" cy="-460.5" rx="27.3" ry="18"/>
<text text-anchor="middle" x="567" y="-455.45" font-family="Times,serif" font-size="14.00">22 0</text>
</g>
<!-- 17&#45;&gt;22 -->
<g id="edge63" class="edge">
<title>17&#45;&gt;22</title>
<path fill="none" stroke="black" d="M1017.73,-1061.74C1016.5,-1022.33 1009.88,-923.53 975,-850.5 908.21,-710.67 864.38,-688.44 749,-585 700.14,-541.2 634.87,-500.55 597.23,-478.56"/>
<polygon fill="black" stroke="black" points="599.11,-475.6 588.7,-473.63 595.6,-481.66 599.11,-475.6"/>
<text text-anchor="middle" x="942.75" y="-765.2" font-family="Times,serif" font-size="14.00">39</text>
</g>
<!-- 14 -->
<g id="node27" class="node">
<title>14</title>
<ellipse fill="none" stroke="black" cx="943" cy="-991.5" rx="27.3" ry="18"/>
<text text-anchor="middle" x="943" y="-986.45" font-family="Times,serif" font-size="14.00">14 0</text>
</g>
<!-- 17&#45;&gt;14 -->
<g id="edge61" class="edge">
<title>17&#45;&gt;14</title>
<path fill="none" stroke="black" d="M1001.53,-1065.43C994.41,-1059.22 986.21,-1051.57 979.5,-1044 972.4,-1035.98 965.4,-1026.58 959.46,-1018.01"/>
<polygon fill="black" stroke="black" points="962.37,-1016.07 953.87,-1009.74 956.57,-1019.99 962.37,-1016.07"/>
<text text-anchor="middle" x="985.75" y="-1030.7" font-family="Times,serif" font-size="14.00">31</text>
</g>
<!-- 18 -->
<g id="node4" class="node">
<title>18</title>
<ellipse fill="none" stroke="black" cx="534" cy="-726" rx="27.3" ry="18"/>
<text text-anchor="middle" x="534" y="-720.95" font-family="Times,serif" font-size="14.00">18 0</text>
</g>
<!-- 18&#45;&gt;15 -->
<g id="edge81" class="edge">
<title>18&#45;&gt;15</title>
<path fill="none" stroke="black" d="M525.34,-743.49C518.32,-757.34 508.56,-777.82 502,-796.5 488.58,-834.74 487.18,-845.11 480,-885 437.86,-1119.12 444.48,-1197.11 534,-1417.5 544.76,-1444 546.18,-1454.25 569,-1471.5 627.26,-1515.54 713.25,-1531.81 762.53,-1537.72"/>
<polygon fill="black" stroke="black" points="762.11,-1541.2 772.43,-1538.82 762.88,-1534.24 762.11,-1541.2"/>
<text text-anchor="middle" x="461.75" y="-1119.2" font-family="Times,serif" font-size="14.00">33</text>
</g>
<!-- 18&#45;&gt;8 -->
<g id="edge82" class="edge">
<title>18&#45;&gt;8</title>
<path fill="none" stroke="black" d="M513.24,-713.81C489.97,-700.91 451.52,-678.52 421,-655.5 346.57,-599.36 267.84,-521.81 230.75,-484.02"/>
<polygon fill="black" stroke="black" points="233.61,-481.95 224.12,-477.24 228.61,-486.84 233.61,-481.95"/>
<text text-anchor="middle" x="359.75" y="-588.2" font-family="Times,serif" font-size="14.00">26</text>
</g>
<!-- 10 -->
<g id="node21" class="node">
<title>10</title>
<ellipse fill="none" stroke="black" cx="567" cy="-637.5" rx="27.3" ry="18"/>
<text text-anchor="middle" x="567" y="-632.45" font-family="Times,serif" font-size="14.00">10 0</text>
</g>
<!-- 18&#45;&gt;10 -->
<g id="edge80" class="edge">
<title>18&#45;&gt;10</title>
<path fill="none" stroke="black" d="M540.36,-708.32C544.94,-696.31 551.23,-679.84 556.54,-665.91"/>
<polygon fill="black" stroke="black" points="559.71,-667.43 560,-656.84 553.17,-664.93 559.71,-667.43"/>
<text text-anchor="middle" x="559.75" y="-676.7" font-family="Times,serif" font-size="14.00">28</text>
</g>
<!-- 28 -->
<g id="node24" class="node">
<title>28</title>
<ellipse fill="none" stroke="black" cx="457" cy="-637.5" rx="27.3" ry="18"/>
<text text-anchor="middle" x="457" y="-632.45" font-family="Times,serif" font-size="14.00">28 0</text>
</g>
<!-- 18&#45;&gt;28 -->
<g id="edge83" class="edge">
<title>18&#45;&gt;28</title>
<path fill="none" stroke="black" d="M520.59,-709.93C508.77,-696.66 491.38,-677.12 477.76,-661.83"/>
<polygon fill="black" stroke="black" points="480.53,-659.67 471.27,-654.53 475.3,-664.32 480.53,-659.67"/>
<text text-anchor="middle" x="508.75" y="-676.7" font-family="Times,serif" font-size="14.00">46</text>
</g>
<!-- 18&#45;&gt;14 -->
<g id="edge79" class="edge">
<title>18&#45;&gt;14</title>
<path fill="none" stroke="black" d="M560.55,-730.76C644.43,-743.24 901.03,-786.17 949,-850.5 973.24,-883.01 963.37,-932.55 953.53,-963.15"/>
<polygon fill="black" stroke="black" points="950.28,-961.85 950.33,-972.44 956.89,-964.13 950.28,-961.85"/>
<text text-anchor="middle" x="963.75" y="-853.7" font-family="Times,serif" font-size="14.00">32</text>
</g>
<!-- 13 -->
<g id="node5" class="node">
<title>13</title>
<ellipse fill="none" stroke="black" cx="161" cy="-106.5" rx="27.3" ry="18"/>
<text text-anchor="middle" x="161" y="-101.45" font-family="Times,serif" font-size="14.00">13 0</text>
</g>
<!-- 13&#45;&gt;2 -->
<g id="edge73" class="edge">
<title>13&#45;&gt;2</title>
<path fill="none" stroke="black" d="M133.69,-109.85C87.75,-115.46 0,-134.03 0,-194 0,-1720 0,-1720 0,-1720 0,-1781.73 68.62,-1758.63 129,-1771.5 290.95,-1806.02 812.92,-1807.09 960.06,-1806.68"/>
<polygon fill="black" stroke="black" points="960.06,-1810.18 970.05,-1806.65 960.04,-1803.18 960.06,-1810.18"/>
<text text-anchor="middle" x="6.75" y="-942.2" font-family="Times,serif" font-size="14.00">15</text>
</g>
<!-- 13&#45;&gt;16 -->
<g id="edge72" class="edge">
<title>13&#45;&gt;16</title>
<path fill="none" stroke="black" d="M141.44,-119.17C119.81,-133.73 88,-160.79 88,-194 88,-859.75 88,-859.75 88,-859.75 88,-938.98 122,-955.52 122,-1034.75 122,-1410.25 122,-1410.25 122,-1410.25 122,-1531.76 206.66,-1562.93 324,-1594.5 406.36,-1616.66 663.7,-1625.79 762.16,-1628.54"/>
<polygon fill="black" stroke="black" points="762.02,-1632.03 772.11,-1628.81 762.21,-1625.04 762.02,-1632.03"/>
<text text-anchor="middle" x="95.75" y="-853.7" font-family="Times,serif" font-size="14.00">29</text>
</g>
<!-- 25 -->
<g id="node14" class="node">
<title>25</title>
<ellipse fill="none" stroke="black" cx="1398" cy="-18" rx="27.3" ry="18"/>
<text text-anchor="middle" x="1398" y="-12.95" font-family="Times,serif" font-size="14.00">25 0</text>
</g>
<!-- 13&#45;&gt;25 -->
<g id="edge70" class="edge">
<title>13&#45;&gt;25</title>
<path fill="none" stroke="black" d="M188.28,-103.59C348.89,-92.36 1170.66,-34.9 1359.35,-21.7"/>
<polygon fill="black" stroke="black" points="1359.36,-25.21 1369.09,-21.02 1358.87,-18.23 1359.36,-25.21"/>
<text text-anchor="middle" x="896.75" y="-57.2" font-family="Times,serif" font-size="14.00">38</text>
</g>
<!-- 13&#45;&gt;29 -->
<g id="edge71" class="edge">
<title>13&#45;&gt;29</title>
<path fill="none" stroke="black" d="M135.76,-114.22C101.91,-124.95 46,-149.41 46,-194 46,-1498.75 46,-1498.75 46,-1498.75 46,-1689.6 781.08,-1714.34 960.07,-1717.53"/>
<polygon fill="black" stroke="black" points="959.94,-1721.03 969.99,-1717.69 960.05,-1714.03 959.94,-1721.03"/>
<text text-anchor="middle" x="52.75" y="-897.95" font-family="Times,serif" font-size="14.00">42</text>
</g>
<!-- 21 -->
<g id="node6" class="node">
<title>21</title>
<ellipse fill="none" stroke="black" cx="828" cy="-903" rx="27.3" ry="18"/>
<text text-anchor="middle" x="828" y="-897.95" font-family="Times,serif" font-size="14.00">21 0</text>
</g>
<!-- 20 -->
<g id="node8" class="node">
<title>20</title>
<ellipse fill="none" stroke="black" cx="1230" cy="-1257" rx="27.3" ry="18"/>
<text text-anchor="middle" x="1230" y="-1251.95" font-family="Times,serif" font-size="14.00">20 0</text>
</g>
<!-- 21&#45;&gt;20 -->
<g id="edge90" class="edge">
<title>21&#45;&gt;20</title>
<path fill="none" stroke="black" d="M831.08,-921.12C836.63,-948.74 850.21,-1004.07 876,-1044 952.38,-1162.23 1120.05,-1223.86 1193.89,-1246.12"/>
<polygon fill="black" stroke="black" points="1192.87,-1249.47 1203.45,-1248.94 1194.84,-1242.76 1192.87,-1249.47"/>
<text text-anchor="middle" x="925.75" y="-1074.95" font-family="Times,serif" font-size="14.00">41</text>
</g>
<!-- 7 -->
<g id="node10" class="node">
<title>7</title>
<ellipse fill="none" stroke="black" cx="664" cy="-814.5" rx="27" ry="18"/>
<text text-anchor="middle" x="664" y="-809.45" font-family="Times,serif" font-size="14.00">7 0</text>
</g>
<!-- 21&#45;&gt;7 -->
<g id="edge89" class="edge">
<title>21&#45;&gt;7</title>
<path fill="none" stroke="black" d="M807.23,-891.04C778.84,-876.07 727.71,-849.1 694.84,-831.77"/>
<polygon fill="black" stroke="black" points="696.68,-828.78 686.2,-827.21 693.41,-834.97 696.68,-828.78"/>
<text text-anchor="middle" x="766.75" y="-853.7" font-family="Times,serif" font-size="14.00">28</text>
</g>
<!-- 23 -->
<g id="node13" class="node">
<title>23</title>
<ellipse fill="none" stroke="black" cx="961" cy="-1365" rx="27.3" ry="18"/>
<text text-anchor="middle" x="961" y="-1359.95" font-family="Times,serif" font-size="14.00">23 0</text>
</g>
<!-- 11&#45;&gt;23 -->
<g id="edge86" class="edge">
<title>11&#45;&gt;23</title>
<path fill="none" stroke="black" d="M630.4,-1446.04C669.34,-1436.16 746.14,-1416.8 811.5,-1401 849.98,-1391.7 894.13,-1381.41 924.42,-1374.41"/>
<polygon fill="black" stroke="black" points="924.88,-1377.89 933.84,-1372.24 923.31,-1371.07 924.88,-1377.89"/>
<text text-anchor="middle" x="817.75" y="-1404.2" font-family="Times,serif" font-size="14.00">34</text>
</g>
<!-- 11&#45;&gt;8 -->
<g id="edge87" class="edge">
<title>11&#45;&gt;8</title>
<path fill="none" stroke="black" d="M598.95,-1435.47C596.98,-1429.78 594.83,-1423.39 593,-1417.5 556.33,-1299.82 563.43,-1265.08 518,-1150.5 459.24,-1002.29 418.58,-977.36 352,-832.5 323.51,-770.52 319.68,-753.59 295,-690 266.97,-617.79 235.14,-532.23 219.21,-489.18"/>
<polygon fill="black" stroke="black" points="222.52,-488.04 215.77,-479.88 215.95,-490.47 222.52,-488.04"/>
<text text-anchor="middle" x="422.75" y="-942.2" font-family="Times,serif" font-size="14.00">19</text>
</g>
<!-- 11&#45;&gt;12 -->
<g id="edge88" class="edge">
<title>11&#45;&gt;12</title>
<path fill="none" stroke="black" d="M581.76,-1443.6C518.97,-1419.56 345.64,-1353.21 271.91,-1324.98"/>
<polygon fill="black" stroke="black" points="273.37,-1321.79 262.78,-1321.49 270.87,-1328.33 273.37,-1321.79"/>
<text text-anchor="middle" x="518.75" y="-1404.2" font-family="Times,serif" font-size="14.00">23</text>
</g>
<!-- 20&#45;&gt;16 -->
<g id="edge15" class="edge">
<title>20&#45;&gt;16</title>
<path fill="none" stroke="black" d="M1230.26,-1275.26C1230.56,-1296.24 1231,-1332.71 1231,-1364 1231,-1543 1231,-1543 1231,-1543 1231,-1622.37 945.86,-1629.84 839.97,-1629.87"/>
<polygon fill="black" stroke="black" points="840.07,-1626.37 830.07,-1629.85 840.06,-1633.37 840.07,-1626.37"/>
<text text-anchor="middle" x="1237.75" y="-1448.45" font-family="Times,serif" font-size="14.00">36</text>
</g>
<!-- 6 -->
<g id="node15" class="node">
<title>6</title>
<ellipse fill="none" stroke="black" cx="1086" cy="-1168.5" rx="27" ry="18"/>
<text text-anchor="middle" x="1086" y="-1163.45" font-family="Times,serif" font-size="14.00">6 0</text>
</g>
<!-- 20&#45;&gt;6 -->
<g id="edge12" class="edge">
<title>20&#45;&gt;6</title>
<path fill="none" stroke="black" d="M1210.28,-1244.15C1185.72,-1229.4 1143.55,-1204.07 1115.23,-1187.06"/>
<polygon fill="black" stroke="black" points="1117.15,-1184.13 1106.78,-1181.98 1113.55,-1190.13 1117.15,-1184.13"/>
<text text-anchor="middle" x="1176.75" y="-1207.7" font-family="Times,serif" font-size="14.00">26</text>
</g>
<!-- 3 -->
<g id="node19" class="node">
<title>3</title>
<ellipse fill="none" stroke="black" cx="1028" cy="-460.5" rx="27" ry="18"/>
<text text-anchor="middle" x="1028" y="-455.45" font-family="Times,serif" font-size="14.00">3 0</text>
</g>
<!-- 20&#45;&gt;3 -->
<g id="edge13" class="edge">
<title>20&#45;&gt;3</title>
<path fill="none" stroke="black" d="M1232.65,-1238.97C1240.83,-1182.42 1262.83,-996.18 1223,-850.5 1184.79,-710.73 1120.31,-699.65 1062,-567 1050.83,-541.58 1041.45,-511.3 1035.39,-489.72"/>
<polygon fill="black" stroke="black" points="1038.79,-488.89 1032.78,-480.17 1032.04,-490.73 1038.79,-488.89"/>
<text text-anchor="middle" x="1233.75" y="-853.7" font-family="Times,serif" font-size="14.00">23</text>
</g>
<!-- 20&#45;&gt;5 -->
<g id="edge14" class="edge">
<title>20&#45;&gt;5</title>
<path fill="none" stroke="black" d="M1256.57,-1252.31C1276.77,-1248.12 1303.76,-1239.31 1320,-1221 1361.52,-1174.19 1390,-1010.83 1390,-948.25 1390,-948.25 1390,-948.25 1390,-725 1390,-627.36 1404,-603.39 1404,-505.75 1404,-505.75 1404,-505.75 1404,-282.5 1404,-263.17 1404,-241.4 1404,-224.54"/>
<polygon fill="black" stroke="black" points="1407.5,-224.75 1404,-214.75 1400.5,-224.75 1407.5,-224.75"/>
<text text-anchor="middle" x="1396.75" y="-720.95" font-family="Times,serif" font-size="14.00">25</text>
</g>
<!-- 19 -->
<g id="node9" class="node">
<title>19</title>
<ellipse fill="none" stroke="black" cx="1064" cy="-903" rx="27.3" ry="18"/>
<text text-anchor="middle" x="1064" y="-897.95" font-family="Times,serif" font-size="14.00">19 0</text>
</g>
<!-- 19&#45;&gt;2 -->
<g id="edge52" class="edge">
<title>19&#45;&gt;2</title>
<path fill="none" stroke="black" d="M1088.47,-911.64C1168.9,-938.42 1420,-1036.1 1420,-1211.75 1420,-1720 1420,-1720 1420,-1720 1420,-1797.69 1141.47,-1806.22 1037.51,-1806.7"/>
<polygon fill="black" stroke="black" points="1037.8,-1803.2 1027.81,-1806.72 1037.82,-1810.2 1037.8,-1803.2"/>
<text text-anchor="middle" x="1426.75" y="-1359.95" font-family="Times,serif" font-size="14.00">21</text>
</g>
<!-- 19&#45;&gt;17 -->
<g id="edge53" class="edge">
<title>19&#45;&gt;17</title>
<path fill="none" stroke="black" d="M1059.49,-921.17C1051.54,-951.41 1034.97,-1014.42 1025.35,-1051.02"/>
<polygon fill="black" stroke="black" points="1022.04,-1049.88 1022.88,-1060.44 1028.81,-1051.66 1022.04,-1049.88"/>
<text text-anchor="middle" x="1051.75" y="-986.45" font-family="Times,serif" font-size="14.00">36</text>
</g>
<!-- 19&#45;&gt;7 -->
<g id="edge50" class="edge">
<title>19&#45;&gt;7</title>
<path fill="none" stroke="black" d="M1037.47,-897.56C1010.81,-892.47 968.99,-882.73 935.5,-867 923.95,-861.58 923.87,-855.19 912,-850.5 841.61,-822.7 752.3,-816.52 702.33,-815.42"/>
<polygon fill="black" stroke="black" points="702.67,-811.92 692.62,-815.26 702.56,-818.92 702.67,-811.92"/>
<text text-anchor="middle" x="941.75" y="-853.7" font-family="Times,serif" font-size="14.00">26</text>
</g>
<!-- 19&#45;&gt;29 -->
<g id="edge51" class="edge">
<title>19&#45;&gt;29</title>
<path fill="none" stroke="black" d="M1079.34,-918.28C1107.59,-946.21 1165,-1011.3 1165,-1079 1165,-1631.5 1165,-1631.5 1165,-1631.5 1165,-1688.66 1086.63,-1708.11 1037.59,-1714.68"/>
<polygon fill="black" stroke="black" points="1037.42,-1711.18 1027.91,-1715.85 1038.26,-1718.13 1037.42,-1711.18"/>
<text text-anchor="middle" x="1171.75" y="-1305.95" font-family="Times,serif" font-size="14.00">48</text>
</g>
<!-- 26 -->
<g id="node28" class="node">
<title>26</title>
<ellipse fill="none" stroke="black" cx="885" cy="-195" rx="27.3" ry="18"/>
<text text-anchor="middle" x="885" y="-189.95" font-family="Times,serif" font-size="14.00">26 0</text>
</g>
<!-- 19&#45;&gt;26 -->
<g id="edge54" class="edge">
<title>19&#45;&gt;26</title>
<path fill="none" stroke="black" d="M1058.94,-884.94C1054.25,-867.62 1048,-839.94 1048,-815.5 1048,-815.5 1048,-815.5 1048,-680.75 1048,-574.62 1097.16,-543.31 1064,-442.5 1051.84,-405.51 982.84,-333.03 960,-301.5 940.2,-274.16 917.82,-242.58 902.69,-221.15"/>
<polygon fill="black" stroke="black" points="905.59,-219.18 896.97,-213.03 899.87,-223.22 905.59,-219.18"/>
<text text-anchor="middle" x="1079.75" y="-543.95" font-family="Times,serif" font-size="14.00">45</text>
</g>
<!-- 7&#45;&gt;15 -->
<g id="edge19" class="edge">
<title>7&#45;&gt;15</title>
<path fill="none" stroke="black" d="M667.95,-832.79C681.04,-890.29 723.77,-1080.52 753,-1239 771.45,-1339.02 789.17,-1458.47 796.92,-1512.25"/>
<polygon fill="black" stroke="black" points="793.44,-1512.69 798.33,-1522.09 800.37,-1511.69 793.44,-1512.69"/>
<text text-anchor="middle" x="748.75" y="-1163.45" font-family="Times,serif" font-size="14.00">22</text>
</g>
<!-- 7&#45;&gt;18 -->
<g id="edge22" class="edge">
<title>7&#45;&gt;18</title>
<path fill="none" stroke="black" d="M645.37,-801.11C623.56,-786.59 587.2,-762.4 561.98,-745.62"/>
<polygon fill="black" stroke="black" points="564.12,-742.83 553.85,-740.21 560.24,-748.66 564.12,-742.83"/>
<text text-anchor="middle" x="616.75" y="-765.2" font-family="Times,serif" font-size="14.00">25</text>
</g>
<!-- 7&#45;&gt;11 -->
<g id="edge21" class="edge">
<title>7&#45;&gt;11</title>
<path fill="none" stroke="black" d="M648.4,-829.35C642.82,-835.26 637.13,-842.62 634,-850.5 591.85,-956.54 600.47,-1318.89 603.95,-1423.82"/>
<polygon fill="black" stroke="black" points="600.44,-1423.65 604.28,-1433.52 607.44,-1423.41 600.44,-1423.65"/>
<text text-anchor="middle" x="608.75" y="-1119.2" font-family="Times,serif" font-size="14.00">18</text>
</g>
<!-- 7&#45;&gt;16 -->
<g id="edge20" class="edge">
<title>7&#45;&gt;16</title>
<path fill="none" stroke="black" d="M660.92,-832.73C651.42,-889.93 626.05,-1077.92 674.5,-1221 690.17,-1267.27 739,-1261.15 739,-1310 739,-1543 739,-1543 739,-1543 739,-1569.12 757.9,-1592.77 774.84,-1608.71"/>
<polygon fill="black" stroke="black" points="772.47,-1611.29 782.27,-1615.31 777.12,-1606.05 772.47,-1611.29"/>
<text text-anchor="middle" x="680.75" y="-1207.7" font-family="Times,serif" font-size="14.00">23</text>
</g>
<!-- 7&#45;&gt;14 -->
<g id="edge18" class="edge">
<title>7&#45;&gt;14</title>
<path fill="none" stroke="black" d="M690.04,-819.86C730.3,-827.58 808.77,-846.59 864,-885 893.29,-905.37 916.21,-940.07 929.65,-964.08"/>
<polygon fill="black" stroke="black" points="926.43,-965.49 934.27,-972.62 932.59,-962.16 926.43,-965.49"/>
<text text-anchor="middle" x="907.75" y="-897.95" font-family="Times,serif" font-size="14.00">21</text>
</g>
<!-- 27 -->
<g id="node11" class="node">
<title>27</title>
<ellipse fill="none" stroke="black" cx="996" cy="-283.5" rx="27.3" ry="18"/>
<text text-anchor="middle" x="996" y="-278.45" font-family="Times,serif" font-size="14.00">27 0</text>
</g>
<!-- 27&#45;&gt;2 -->
<g id="edge36" class="edge">
<title>27&#45;&gt;2</title>
<path fill="none" stroke="black" d="M1015.9,-296.39C1114.5,-355.97 1546,-624.95 1546,-769.25 1546,-1720 1546,-1720 1546,-1720 1546,-1771.58 1161.69,-1797.46 1037.33,-1804.49"/>
<polygon fill="black" stroke="black" points="1037.43,-1800.98 1027.64,-1805.03 1037.82,-1807.97 1037.43,-1800.98"/>
<text text-anchor="middle" x="1552.75" y="-1030.7" font-family="Times,serif" font-size="14.00">29</text>
</g>
<!-- 27&#45;&gt;26 -->
<g id="edge35" class="edge">
<title>27&#45;&gt;26</title>
<path fill="none" stroke="black" d="M986.03,-266.57C978.53,-255.53 967.43,-241.07 955,-231 944.22,-222.27 930.91,-214.93 918.79,-209.27"/>
<polygon fill="black" stroke="black" points="920.5,-206.2 909.94,-205.35 917.66,-212.6 920.5,-206.2"/>
<text text-anchor="middle" x="976.75" y="-234.2" font-family="Times,serif" font-size="14.00">53</text>
</g>
<!-- 27&#45;&gt;5 -->
<g id="edge34" class="edge">
<title>27&#45;&gt;5</title>
<path fill="none" stroke="black" d="M1021.83,-277.02C1091.87,-262.17 1285.58,-221.11 1367.1,-203.82"/>
<polygon fill="black" stroke="black" points="1367.74,-207.26 1376.8,-201.77 1366.29,-200.42 1367.74,-207.26"/>
<text text-anchor="middle" x="1242.75" y="-234.2" font-family="Times,serif" font-size="14.00">32</text>
</g>
<!-- 16&#45;&gt;15 -->
<g id="edge57" class="edge">
<title>16&#45;&gt;15</title>
<path fill="none" stroke="black" d="M801,-1612.41C801,-1600.76 801,-1585.05 801,-1571.52"/>
<polygon fill="black" stroke="black" points="804.5,-1571.86 801,-1561.86 797.5,-1571.86 804.5,-1571.86"/>
<text text-anchor="middle" x="807.75" y="-1581.2" font-family="Times,serif" font-size="14.00">31</text>
</g>
<!-- 16&#45;&gt;18 -->
<g id="edge59" class="edge">
<title>16&#45;&gt;18</title>
<path fill="none" stroke="black" d="M773.6,-1629C680.38,-1627.06 379.33,-1618.96 344,-1594.5 323.24,-1580.13 320,-1568.25 320,-1543 320,-1543 320,-1543 320,-1211.75 320,-1145.14 303.33,-1127.75 314,-1062 323.23,-1005.12 326.8,-989.25 355,-939 398.73,-861.09 473.05,-784.79 510.69,-748.67"/>
<polygon fill="black" stroke="black" points="512.63,-751.64 517.47,-742.22 507.81,-746.57 512.63,-751.64"/>
<text text-anchor="middle" x="326.75" y="-1163.45" font-family="Times,serif" font-size="14.00">34</text>
</g>
<!-- 16&#45;&gt;6 -->
<g id="edge58" class="edge">
<title>16&#45;&gt;6</title>
<path fill="none" stroke="black" d="M826.14,-1623.07C873.21,-1609.7 974.58,-1574.27 1027,-1506 1053.93,-1470.93 1054,-1454.47 1054,-1410.25 1054,-1410.25 1054,-1410.25 1054,-1256 1054,-1234.85 1062.52,-1212.5 1070.76,-1195.82"/>
<polygon fill="black" stroke="black" points="1073.8,-1197.57 1075.35,-1187.08 1067.6,-1194.31 1073.8,-1197.57"/>
<text text-anchor="middle" x="1060.75" y="-1404.2" font-family="Times,serif" font-size="14.00">22</text>
</g>
<!-- 4 -->
<g id="node30" class="node">
<title>4</title>
<ellipse fill="none" stroke="black" cx="567" cy="-549" rx="27" ry="18"/>
<text text-anchor="middle" x="567" y="-543.95" font-family="Times,serif" font-size="14.00">4 0</text>
</g>
<!-- 16&#45;&gt;4 -->
<g id="edge60" class="edge">
<title>16&#45;&gt;4</title>
<path fill="none" stroke="black" d="M773.29,-1630.01C676.3,-1631.06 358,-1628.02 358,-1543 358,-1543 358,-1543 358,-1408.25 358,-1284.21 337.27,-966.95 380,-850.5 401.56,-791.76 507.17,-636.29 549.45,-575.18"/>
<polygon fill="black" stroke="black" points="552.21,-577.34 555.04,-567.13 546.46,-573.35 552.21,-577.34"/>
<text text-anchor="middle" x="360.75" y="-1074.95" font-family="Times,serif" font-size="14.00">20</text>
</g>
<!-- 23&#45;&gt;20 -->
<g id="edge17" class="edge">
<title>23&#45;&gt;20</title>
<path fill="none" stroke="black" d="M982.73,-1353.61C988.84,-1351.07 995.57,-1348.62 1002,-1347 1040.55,-1337.28 1146.04,-1349.67 1180,-1329 1196.32,-1319.07 1192.5,-1308.63 1203.5,-1293 1205.92,-1289.56 1208.53,-1285.97 1211.14,-1282.46"/>
<polygon fill="black" stroke="black" points="1213.75,-1284.81 1216.98,-1274.72 1208.16,-1280.59 1213.75,-1284.81"/>
<text text-anchor="middle" x="1209.75" y="-1305.95" font-family="Times,serif" font-size="14.00">43</text>
</g>
<!-- 1 -->
<g id="node23" class="node">
<title>1</title>
<ellipse fill="none" stroke="black" cx="892" cy="-372" rx="27" ry="18"/>
<text text-anchor="middle" x="892" y="-366.95" font-family="Times,serif" font-size="14.00">1 0</text>
</g>
<!-- 23&#45;&gt;1 -->
<g id="edge16" class="edge">
<title>23&#45;&gt;1</title>
<path fill="none" stroke="black" d="M956.89,-1346.96C949.42,-1315.45 933.51,-1245.87 924,-1186.5 907.66,-1084.48 903.79,-1058.65 898,-955.5 897.59,-948.18 894.94,-945.66 898,-939 903.14,-927.83 913.86,-932.17 919,-921 925.69,-906.46 926.23,-899.28 919,-885 912.9,-872.94 900.6,-879.06 894.5,-867 891.19,-860.46 894.24,-857.83 894.5,-850.5 895.06,-834.91 897,-831.1 897,-815.5 897,-815.5 897,-815.5 897,-459.5 897,-440.13 895.74,-418.37 894.48,-401.51"/>
<polygon fill="black" stroke="black" points="897.98,-401.42 893.7,-391.72 891,-401.97 897.98,-401.42"/>
<text text-anchor="middle" x="900.75" y="-853.7" font-family="Times,serif" font-size="14.00">24</text>
</g>
<!-- 25&#45;&gt;2 -->
<g id="edge45" class="edge">
<title>25&#45;&gt;2</title>
<path fill="none" stroke="black" d="M1425.38,-19.13C1478.86,-20.98 1592,-33.41 1592,-105.5 1592,-1720 1592,-1720 1592,-1720 1592,-1786.3 1516.97,-1758.32 1452,-1771.5 1300.89,-1802.16 1116.44,-1806.4 1037.66,-1806.7"/>
<polygon fill="black" stroke="black" points="1037.89,-1803.2 1027.9,-1806.71 1037.9,-1810.2 1037.89,-1803.2"/>
<text text-anchor="middle" x="1598.75" y="-897.95" font-family="Times,serif" font-size="14.00">27</text>
</g>
<!-- 25&#45;&gt;15 -->
<g id="edge46" class="edge">
<title>25&#45;&gt;15</title>
<path fill="none" stroke="black" d="M1423.31,-25.34C1457.99,-35.72 1516,-59.91 1516,-105.5 1516,-594.25 1516,-594.25 1516,-594.25 1516,-749.58 1452.22,-955.8 1413,-1098 1389.48,-1183.27 1380.65,-1208.78 1322,-1275 1297.99,-1302.11 1291.64,-1309.71 1261,-1329 1208.75,-1361.9 1191.89,-1364.45 1133,-1383 1096.58,-1394.47 1084.7,-1387.46 1049,-1401 1004.28,-1417.96 885.52,-1489.24 830.17,-1523.05"/>
<polygon fill="black" stroke="black" points="828.59,-1519.91 821.89,-1528.12 832.25,-1525.88 828.59,-1519.91"/>
<text text-anchor="middle" x="1503.75" y="-765.2" font-family="Times,serif" font-size="14.00">40</text>
</g>
<!-- 25&#45;&gt;18 -->
<g id="edge47" class="edge">
<title>25&#45;&gt;18</title>
<path fill="none" stroke="black" d="M1372.47,-25.27C1337.51,-35.57 1279,-59.65 1279,-105.5 1279,-240.25 1279,-240.25 1279,-240.25 1279,-332.66 1129.4,-528.29 1073,-601.5 1052.09,-628.64 1048.7,-640.31 1018,-655.5 939.49,-694.34 673.05,-715.72 572.68,-722.56"/>
<polygon fill="black" stroke="black" points="572.54,-719.06 562.8,-723.22 573.01,-726.04 572.54,-719.06"/>
<text text-anchor="middle" x="1245.75" y="-366.95" font-family="Times,serif" font-size="14.00">43</text>
</g>
<!-- 6&#45;&gt;17 -->
<g id="edge30" class="edge">
<title>6&#45;&gt;17</title>
<path fill="none" stroke="black" d="M1073.84,-1152.04C1063.59,-1139 1048.75,-1120.12 1036.94,-1105.1"/>
<polygon fill="black" stroke="black" points="1039.92,-1103.22 1030.99,-1097.52 1034.42,-1107.55 1039.92,-1103.22"/>
<text text-anchor="middle" x="1064.75" y="-1119.2" font-family="Times,serif" font-size="14.00">23</text>
</g>
<!-- 6&#45;&gt;19 -->
<g id="edge32" class="edge">
<title>6&#45;&gt;19</title>
<path fill="none" stroke="black" d="M1084.56,-1150.21C1080.85,-1105.82 1070.97,-987.49 1066.39,-932.65"/>
<polygon fill="black" stroke="black" points="1069.89,-932.54 1065.57,-922.86 1062.92,-933.12 1069.89,-932.54"/>
<text text-anchor="middle" x="1081.75" y="-1030.7" font-family="Times,serif" font-size="14.00">25</text>
</g>
<!-- 9 -->
<g id="node26" class="node">
<title>9</title>
<ellipse fill="none" stroke="black" cx="1195" cy="-106.5" rx="27" ry="18"/>
<text text-anchor="middle" x="1195" y="-101.45" font-family="Times,serif" font-size="14.00">9 0</text>
</g>
<!-- 6&#45;&gt;9 -->
<g id="edge31" class="edge">
<title>6&#45;&gt;9</title>
<path fill="none" stroke="black" d="M1109.28,-1159C1148.48,-1143.27 1226.45,-1105.49 1258,-1044 1340.53,-883.14 1253.67,-409.82 1227,-231 1222.01,-197.53 1211.58,-160.01 1203.97,-135.21"/>
<polygon fill="black" stroke="black" points="1207.39,-134.39 1201.06,-125.89 1200.7,-136.48 1207.39,-134.39"/>
<text text-anchor="middle" x="1290.75" y="-632.45" font-family="Times,serif" font-size="14.00">15</text>
</g>
<!-- 6&#45;&gt;14 -->
<g id="edge33" class="edge">
<title>6&#45;&gt;14</title>
<path fill="none" stroke="black" d="M1062.29,-1159.86C1035.38,-1149.94 992.18,-1130.01 968.5,-1098 951.97,-1075.66 946.02,-1044.04 943.95,-1021.25"/>
<polygon fill="black" stroke="black" points="947.45,-1021.17 943.28,-1011.44 940.47,-1021.65 947.45,-1021.17"/>
<text text-anchor="middle" x="974.75" y="-1074.95" font-family="Times,serif" font-size="14.00">20</text>
</g>
<!-- 24 -->
<g id="node17" class="node">
<title>24</title>
<ellipse fill="none" stroke="black" cx="472" cy="-1542" rx="27.3" ry="18"/>
<text text-anchor="middle" x="472" y="-1536.95" font-family="Times,serif" font-size="14.00">24 0</text>
</g>
<!-- 24&#45;&gt;21 -->
<g id="edge26" class="edge">
<title>24&#45;&gt;21</title>
<path fill="none" stroke="black" d="M498.84,-1538.09C536.9,-1532.44 605.85,-1516.3 641,-1471.5 715.77,-1376.22 669.09,-1322.7 695.5,-1204.5 704.33,-1165 704.19,-1154.4 717,-1116 730.54,-1075.39 735.87,-1065.79 755,-1027.5 772.44,-992.6 795.86,-954.18 811.42,-929.61"/>
<polygon fill="black" stroke="black" points="814.33,-931.56 816.75,-921.25 808.42,-927.8 814.33,-931.56"/>
<text text-anchor="middle" x="701.75" y="-1207.7" font-family="Times,serif" font-size="14.00">45</text>
</g>
<!-- 24&#45;&gt;11 -->
<g id="edge25" class="edge">
<title>24&#45;&gt;11</title>
<path fill="none" stroke="black" d="M491.06,-1528.61C513.38,-1514.09 550.58,-1489.9 576.37,-1473.12"/>
<polygon fill="black" stroke="black" points="578.24,-1476.08 584.71,-1467.7 574.42,-1470.21 578.24,-1476.08"/>
<text text-anchor="middle" x="556.75" y="-1492.7" font-family="Times,serif" font-size="14.00">35</text>
</g>
<!-- 24&#45;&gt;7 -->
<g id="edge27" class="edge">
<title>24&#45;&gt;7</title>
<path fill="none" stroke="black" d="M472,-1523.77C472,-1506.31 472,-1478.53 472,-1454.5 472,-1454.5 472,-1454.5 472,-1310 472,-1202.45 562.67,-938.85 624,-850.5 627.68,-845.19 632.34,-840.17 637.17,-835.68"/>
<polygon fill="black" stroke="black" points="639.41,-838.36 644.72,-829.19 634.85,-833.06 639.41,-838.36"/>
<text text-anchor="middle" x="506.75" y="-1163.45" font-family="Times,serif" font-size="14.00">31</text>
</g>
<!-- 24&#45;&gt;22 -->
<g id="edge24" class="edge">
<title>24&#45;&gt;22</title>
<path fill="none" stroke="black" d="M468.64,-1523.81C446.63,-1409.5 326.63,-758.64 413,-585 438.88,-532.97 498.04,-495.68 535.03,-476.44"/>
<polygon fill="black" stroke="black" points="536.14,-479.8 543.49,-472.17 532.98,-473.55 536.14,-479.8"/>
<text text-anchor="middle" x="399.75" y="-986.45" font-family="Times,serif" font-size="14.00">46</text>
</g>
<!-- 24&#45;&gt;26 -->
<g id="edge23" class="edge">
<title>24&#45;&gt;26</title>
<path fill="none" stroke="black" d="M448.07,-1533.11C388.34,-1511.8 235.15,-1446.59 202,-1329 128.26,-1067.4 264,-513.27 264,-417.25 264,-417.25 264,-417.25 264,-282.5 264,-223.46 710,-202.36 846.06,-197.3"/>
<polygon fill="black" stroke="black" points="846.14,-200.8 856,-196.94 845.88,-193.81 846.14,-200.8"/>
<text text-anchor="middle" x="206.75" y="-853.7" font-family="Times,serif" font-size="14.00">50</text>
</g>
<!-- 29&#45;&gt;16 -->
<g id="edge29" class="edge">
<title>29&#45;&gt;16</title>
<path fill="none" stroke="black" d="M976.67,-1708.25C941.75,-1692.99 874.01,-1663.4 833.62,-1645.75"/>
<polygon fill="black" stroke="black" points="835.2,-1642.62 824.63,-1641.82 832.4,-1649.04 835.2,-1642.62"/>
<text text-anchor="middle" x="923.75" y="-1669.7" font-family="Times,serif" font-size="14.00">45</text>
</g>
<!-- 29&#45;&gt;3 -->
<g id="edge28" class="edge">
<title>29&#45;&gt;3</title>
<path fill="none" stroke="black" d="M1026.57,-1717.54C1113.18,-1715.35 1374,-1702.82 1374,-1631.5 1374,-1631.5 1374,-1631.5 1374,-1408.25 1374,-1379.01 1385.7,-1373.52 1398,-1347 1424.77,-1289.27 1444.23,-1280.8 1466,-1221 1494.6,-1142.43 1504,-1120.36 1504,-1036.75 1504,-1036.75 1504,-1036.75 1504,-857.75 1504,-814.6 1510.23,-798.98 1488,-762 1387.12,-594.2 1152.3,-502.3 1063.17,-472.46"/>
<polygon fill="black" stroke="black" points="1064.34,-469.16 1053.75,-469.37 1062.16,-475.81 1064.34,-469.16"/>
<text text-anchor="middle" x="1509.75" y="-1074.95" font-family="Times,serif" font-size="14.00">32</text>
</g>
<!-- 3&#45;&gt;7 -->
<g id="edge44" class="edge">
<title>3&#45;&gt;7</title>
<path fill="none" stroke="black" d="M1022.06,-478.18C1013.84,-502.8 1000,-550.46 1000,-592.25 1000,-727 1000,-727 1000,-727 1000,-753.95 990.76,-764.08 968,-778.5 924.74,-805.9 774.26,-811.88 702.56,-813.16"/>
<polygon fill="black" stroke="black" points="702.81,-809.66 692.86,-813.31 702.92,-816.66 702.81,-809.66"/>
<text text-anchor="middle" x="1006.75" y="-632.45" font-family="Times,serif" font-size="14.00">10</text>
</g>
<!-- 3&#45;&gt;1 -->
<g id="edge43" class="edge">
<title>3&#45;&gt;1</title>
<path fill="none" stroke="black" d="M1002.87,-453.13C983.97,-447.57 958.05,-438.21 938.25,-424.5 927.73,-417.22 917.95,-407.08 910.13,-397.72"/>
<polygon fill="black" stroke="black" points="912.91,-395.59 903.94,-389.95 907.43,-399.95 912.91,-395.59"/>
<text text-anchor="middle" x="941.38" y="-411.2" font-family="Times,serif" font-size="14.00">4</text>
</g>
<!-- 8&#45;&gt;13 -->
<g id="edge77" class="edge">
<title>8&#45;&gt;13</title>
<path fill="none" stroke="black" d="M201.23,-443C193.89,-425.89 184,-398.17 184,-373 184,-373 184,-373 184,-194 184,-173.67 177.99,-151.53 172.12,-134.74"/>
<polygon fill="black" stroke="black" points="175.44,-133.63 168.68,-125.48 168.88,-136.07 175.44,-133.63"/>
<text text-anchor="middle" x="190.75" y="-278.45" font-family="Times,serif" font-size="14.00">21</text>
</g>
<!-- 8&#45;&gt;26 -->
<g id="edge78" class="edge">
<title>8&#45;&gt;26</title>
<path fill="none" stroke="black" d="M205.86,-442.42C199.05,-399.34 188.11,-285.74 250,-231 272.4,-211.19 711.92,-199.84 846.3,-196.82"/>
<polygon fill="black" stroke="black" points="846.18,-200.32 856.1,-196.6 846.03,-193.33 846.18,-200.32"/>
<text text-anchor="middle" x="212.75" y="-322.7" font-family="Times,serif" font-size="14.00">34</text>
</g>
<!-- 0 -->
<g id="node22" class="node">
<title>0</title>
<ellipse fill="none" stroke="black" cx="829" cy="-549" rx="27" ry="18"/>
<text text-anchor="middle" x="829" y="-543.95" font-family="Times,serif" font-size="14.00">0 0</text>
</g>
<!-- 0&#45;&gt;11 -->
<g id="edge42" class="edge">
<title>0&#45;&gt;11</title>
<path fill="none" stroke="black" d="M827.12,-567.19C819.52,-635.1 789.3,-891.09 744,-1098 731.84,-1153.52 728.47,-1167.6 709,-1221 681.22,-1297.16 639.66,-1383.42 618.47,-1425.93"/>
<polygon fill="black" stroke="black" points="615.45,-1424.14 614.1,-1434.64 621.71,-1427.27 615.45,-1424.14"/>
<text text-anchor="middle" x="774.75" y="-986.45" font-family="Times,serif" font-size="14.00">11</text>
</g>
<!-- 0&#45;&gt;27 -->
<g id="edge39" class="edge">
<title>0&#45;&gt;27</title>
<path fill="none" stroke="black" d="M845.07,-534.33C869.24,-513.04 915.08,-469.67 943,-424.5 965.22,-388.56 980.59,-341.79 988.86,-312.46"/>
<polygon fill="black" stroke="black" points="992.22,-313.42 991.47,-302.86 985.46,-311.59 992.22,-313.42"/>
<text text-anchor="middle" x="958.75" y="-411.2" font-family="Times,serif" font-size="14.00">27</text>
</g>
<!-- 0&#45;&gt;22 -->
<g id="edge38" class="edge">
<title>0&#45;&gt;22</title>
<path fill="none" stroke="black" d="M817.6,-532.33C808.11,-520.51 793.52,-504.95 777,-496.5 722.14,-468.44 649.67,-462.08 605.8,-461.06"/>
<polygon fill="black" stroke="black" points="606.05,-457.56 596,-460.92 605.95,-464.56 606.05,-457.56"/>
<text text-anchor="middle" x="805.75" y="-499.7" font-family="Times,serif" font-size="14.00">22</text>
</g>
<!-- 0&#45;&gt;3 -->
<g id="edge37" class="edge">
<title>0&#45;&gt;3</title>
<path fill="none" stroke="black" d="M855.87,-545.09C885.08,-541.09 932.47,-532.08 969,-513 982.93,-505.72 996.32,-494.51 1006.8,-484.41"/>
<polygon fill="black" stroke="black" points="1009.24,-486.92 1013.81,-477.36 1004.28,-481.98 1009.24,-486.92"/>
<text text-anchor="middle" x="995.38" y="-499.7" font-family="Times,serif" font-size="14.00">3</text>
</g>
<!-- 0&#45;&gt;8 -->
<g id="edge40" class="edge">
<title>0&#45;&gt;8</title>
<path fill="none" stroke="black" d="M802.26,-544.75C753.38,-538.76 646.34,-525.46 556.25,-513 443.15,-497.36 309.62,-477.03 246.13,-467.25"/>
<polygon fill="black" stroke="black" points="247.02,-463.85 236.61,-465.78 245.96,-470.77 247.02,-463.85"/>
<text text-anchor="middle" x="559.38" y="-499.7" font-family="Times,serif" font-size="14.00">8</text>
</g>
<!-- 0&#45;&gt;26 -->
<g id="edge41" class="edge">
<title>0&#45;&gt;26</title>
<path fill="none" stroke="black" d="M829,-530.77C829,-513.31 829,-485.53 829,-461.5 829,-461.5 829,-461.5 829,-282.5 829,-257.36 845.87,-233.76 861.09,-217.58"/>
<polygon fill="black" stroke="black" points="863.16,-220.46 867.74,-210.9 858.2,-215.52 863.16,-220.46"/>
<text text-anchor="middle" x="835.75" y="-366.95" font-family="Times,serif" font-size="14.00">26</text>
</g>
<!-- 1&#45;&gt;27 -->
<g id="edge55" class="edge">
<title>1&#45;&gt;27</title>
<path fill="none" stroke="black" d="M908.25,-357.48C925.02,-343.54 951.4,-321.6 970.86,-305.41"/>
<polygon fill="black" stroke="black" points="972.91,-308.26 978.36,-299.17 968.43,-302.88 972.91,-308.26"/>
<text text-anchor="middle" x="959.75" y="-322.7" font-family="Times,serif" font-size="14.00">28</text>
</g>
<!-- 1&#45;&gt;26 -->
<g id="edge56" class="edge">
<title>1&#45;&gt;26</title>
<path fill="none" stroke="black" d="M891.3,-353.58C890.1,-323.44 887.61,-261.3 886.15,-224.7"/>
<polygon fill="black" stroke="black" points="889.65,-224.71 885.75,-214.86 882.66,-224.99 889.65,-224.71"/>
<text text-anchor="middle" x="895.75" y="-278.45" font-family="Times,serif" font-size="14.00">27</text>
</g>
<!-- 28&#45;&gt;13 -->
<g id="edge69" class="edge">
<title>28&#45;&gt;13</title>
<path fill="none" stroke="black" d="M442.56,-621.98C428.11,-605.84 408,-578.31 408,-550 408,-550 408,-550 408,-194 408,-150.3 268.52,-123.43 199.19,-112.78"/>
<polygon fill="black" stroke="black" points="199.81,-109.33 189.4,-111.31 198.77,-116.25 199.81,-109.33"/>
<text text-anchor="middle" x="414.75" y="-366.95" font-family="Times,serif" font-size="14.00">41</text>
</g>
<!-- 28&#45;&gt;0 -->
<g id="edge67" class="edge">
<title>28&#45;&gt;0</title>
<path fill="none" stroke="black" d="M482.57,-630.55C547.23,-615.52 717.47,-575.93 792.54,-558.48"/>
<polygon fill="black" stroke="black" points="793.32,-561.89 802.27,-556.22 791.74,-555.07 793.32,-561.89"/>
<text text-anchor="middle" x="682.75" y="-588.2" font-family="Times,serif" font-size="14.00">28</text>
</g>
<!-- 28&#45;&gt;4 -->
<g id="edge68" class="edge">
<title>28&#45;&gt;4</title>
<path fill="none" stroke="black" d="M462.56,-619.78C466.99,-608.67 474.18,-594.44 484.5,-585 497.53,-573.09 515.21,-564.86 530.87,-559.39"/>
<polygon fill="black" stroke="black" points="531.92,-562.73 540.37,-556.34 529.78,-556.06 531.92,-562.73"/>
<text text-anchor="middle" x="490.75" y="-588.2" font-family="Times,serif" font-size="14.00">32</text>
</g>
<!-- 12&#45;&gt;13 -->
<g id="edge6" class="edge">
<title>12&#45;&gt;13</title>
<path fill="none" stroke="black" d="M233.31,-1293.19C213.54,-1220.79 138,-928.11 138,-682.75 138,-682.75 138,-682.75 138,-194 138,-173.67 144.01,-151.53 149.88,-134.74"/>
<polygon fill="black" stroke="black" points="153.12,-136.07 153.32,-125.48 146.56,-133.63 153.12,-136.07"/>
<text text-anchor="middle" x="146.75" y="-720.95" font-family="Times,serif" font-size="14.00">25</text>
</g>
<!-- 12&#45;&gt;7 -->
<g id="edge9" class="edge">
<title>12&#45;&gt;7</title>
<path fill="none" stroke="black" d="M244.06,-1293.22C263.77,-1238.8 325.31,-1070.31 334.5,-1062 394.89,-1007.4 452.36,-1067 510,-1009.5 562.26,-957.37 506.48,-903.36 558,-850.5 575.85,-832.18 603.48,-823.45 626.05,-819.29"/>
<polygon fill="black" stroke="black" points="626.49,-822.76 635.82,-817.74 625.39,-815.85 626.49,-822.76"/>
<text text-anchor="middle" x="341.75" y="-1074.95" font-family="Times,serif" font-size="14.00">19</text>
</g>
<!-- 12&#45;&gt;22 -->
<g id="edge8" class="edge">
<title>12&#45;&gt;22</title>
<path fill="none" stroke="black" d="M238.42,-1292.54C239.94,-1234.49 245.97,-1042.67 262.5,-885 266.65,-845.43 267.86,-835.45 276,-796.5 283.06,-762.73 330.46,-519.69 356,-496.5 380.65,-474.12 474.32,-465.92 528.2,-463.01"/>
<polygon fill="black" stroke="black" points="528.05,-466.53 537.87,-462.53 527.7,-459.53 528.05,-466.53"/>
<text text-anchor="middle" x="269.75" y="-897.95" font-family="Times,serif" font-size="14.00">34</text>
</g>
<!-- 12&#45;&gt;29 -->
<g id="edge7" class="edge">
<title>12&#45;&gt;29</title>
<path fill="none" stroke="black" d="M235.9,-1329.22C230.84,-1379.55 223.91,-1527.15 306,-1594.5 407.81,-1678.03 829.37,-1708.45 960.14,-1715.98"/>
<polygon fill="black" stroke="black" points="959.82,-1719.47 970,-1716.53 960.22,-1712.48 959.82,-1719.47"/>
<text text-anchor="middle" x="281.75" y="-1536.95" font-family="Times,serif" font-size="14.00">41</text>
</g>
<!-- 9&#45;&gt;20 -->
<g id="edge49" class="edge">
<title>9&#45;&gt;20</title>
<path fill="none" stroke="black" d="M1220.96,-112.22C1259.66,-120.93 1328,-143.46 1328,-194 1328,-505.75 1328,-505.75 1328,-505.75 1328,-730.27 1329.32,-788.44 1290,-1009.5 1273.25,-1103.69 1283.08,-1131.23 1250,-1221 1248.87,-1224.08 1247.48,-1227.2 1245.96,-1230.25"/>
<polygon fill="black" stroke="black" points="1243,-1228.39 1241.26,-1238.84 1249.13,-1231.75 1243,-1228.39"/>
<text text-anchor="middle" x="1333.75" y="-676.7" font-family="Times,serif" font-size="14.00">29</text>
</g>
<!-- 9&#45;&gt;0 -->
<g id="edge48" class="edge">
<title>9&#45;&gt;0</title>
<path fill="none" stroke="black" d="M1185.54,-123.84C1153.78,-177.96 1046.39,-354.89 930,-478.5 913.91,-495.59 909.16,-499.43 890,-513 880.53,-519.7 869.69,-526.25 859.8,-531.84"/>
<polygon fill="black" stroke="black" points="858.33,-528.65 851.26,-536.54 861.71,-534.78 858.33,-528.65"/>
<text text-anchor="middle" x="1060.38" y="-322.7" font-family="Times,serif" font-size="14.00">9</text>
</g>
<!-- 14&#45;&gt;21 -->
<g id="edge10" class="edge">
<title>14&#45;&gt;21</title>
<path fill="none" stroke="black" d="M925.53,-977.36C906.71,-963.2 876.51,-940.49 854.7,-924.08"/>
<polygon fill="black" stroke="black" points="856.94,-921.38 846.84,-918.17 852.73,-926.98 856.94,-921.38"/>
<text text-anchor="middle" x="901.75" y="-942.2" font-family="Times,serif" font-size="14.00">35</text>
</g>
<!-- 14&#45;&gt;19 -->
<g id="edge11" class="edge">
<title>14&#45;&gt;19</title>
<path fill="none" stroke="black" d="M961.11,-977.55C981.19,-963.2 1013.78,-939.9 1036.89,-923.38"/>
<polygon fill="black" stroke="black" points="1038.83,-926.3 1044.92,-917.64 1034.75,-920.6 1038.83,-926.3"/>
<text text-anchor="middle" x="1020.75" y="-942.2" font-family="Times,serif" font-size="14.00">33</text>
</g>
<!-- 26&#45;&gt;17 -->
<g id="edge2" class="edge">
<title>26&#45;&gt;17</title>
<path fill="none" stroke="black" d="M912.38,-196.79C948.98,-198.84 1015.03,-206.01 1065,-231 1137.89,-267.45 1167.93,-279.51 1201,-354 1276.79,-524.74 1136,-582.45 1136,-769.25 1136,-904 1136,-904 1136,-904 1136,-969.09 1135.73,-994.9 1093,-1044 1082.88,-1055.63 1068.06,-1063.66 1054.27,-1069.07"/>
<polygon fill="black" stroke="black" points="1053.23,-1065.72 1044.96,-1072.35 1055.56,-1072.32 1053.23,-1065.72"/>
<text text-anchor="middle" x="1173.75" y="-632.45" font-family="Times,serif" font-size="14.00">43</text>
</g>
<!-- 26&#45;&gt;13 -->
<g id="edge5" class="edge">
<title>26&#45;&gt;13</title>
<path fill="none" stroke="black" d="M858.37,-190.82C748.28,-177.67 328.38,-127.5 199.11,-112.05"/>
<polygon fill="black" stroke="black" points="199.72,-108.6 189.37,-110.89 198.89,-115.55 199.72,-108.6"/>
<text text-anchor="middle" x="593.75" y="-145.7" font-family="Times,serif" font-size="14.00">39</text>
</g>
<!-- 26&#45;&gt;6 -->
<g id="edge1" class="edge">
<title>26&#45;&gt;6</title>
<path fill="none" stroke="black" d="M911.17,-200.99C944.5,-208.76 1001.43,-227.05 1032,-265.5 1053.53,-292.58 1049.76,-304.94 1065,-336 1119.83,-447.7 1163.73,-464.06 1193,-585 1244.33,-797.11 1137,-1057.9 1098.81,-1140.86"/>
<polygon fill="black" stroke="black" points="1095.7,-1139.23 1094.64,-1149.77 1102.05,-1142.19 1095.7,-1139.23"/>
<text text-anchor="middle" x="1212.75" y="-676.7" font-family="Times,serif" font-size="14.00">32</text>
</g>
<!-- 26&#45;&gt;28 -->
<g id="edge4" class="edge">
<title>26&#45;&gt;28</title>
<path fill="none" stroke="black" d="M857.46,-195.59C761.84,-194.9 450,-199.05 450,-282.5 450,-550 450,-550 450,-550 450,-569.4 451.77,-591.16 453.53,-608.01"/>
<polygon fill="black" stroke="black" points="450.04,-608.24 454.62,-617.8 456.99,-607.47 450.04,-608.24"/>
<text text-anchor="middle" x="456.75" y="-411.2" font-family="Times,serif" font-size="14.00">54</text>
</g>
<!-- 26&#45;&gt;9 -->
<g id="edge3" class="edge">
<title>26&#45;&gt;9</title>
<path fill="none" stroke="black" d="M909.84,-187.07C964.62,-171.78 1095.95,-135.14 1159.44,-117.42"/>
<polygon fill="black" stroke="black" points="1160.32,-120.81 1169.01,-114.75 1158.44,-114.07 1160.32,-120.81"/>
<text text-anchor="middle" x="1073.75" y="-145.7" font-family="Times,serif" font-size="14.00">35</text>
</g>
<!-- 4&#45;&gt;11 -->
<g id="edge65" class="edge">
<title>4&#45;&gt;11</title>
<path fill="none" stroke="black" d="M577.92,-565.69C586.65,-579.24 598.18,-599.7 603,-619.5 606.79,-635.05 605.49,-639.69 603,-655.5 586.35,-761.37 545.65,-779.13 529,-885 516.69,-963.31 539.48,-983.57 551,-1062 574.18,-1219.8 577.83,-1259.55 600,-1417.5 600.31,-1419.69 600.63,-1421.95 600.95,-1424.23"/>
<polygon fill="black" stroke="black" points="597.45,-1424.51 602.33,-1433.91 604.38,-1423.52 597.45,-1424.51"/>
<text text-anchor="middle" x="546.75" y="-986.45" font-family="Times,serif" font-size="14.00">15</text>
</g>
<!-- 4&#45;&gt;22 -->
<g id="edge66" class="edge">
<title>4&#45;&gt;22</title>
<path fill="none" stroke="black" d="M567,-530.91C567,-519.26 567,-503.55 567,-490.02"/>
<polygon fill="black" stroke="black" points="570.5,-490.36 567,-480.36 563.5,-490.36 570.5,-490.36"/>
<text text-anchor="middle" x="573.75" y="-499.7" font-family="Times,serif" font-size="14.00">26</text>
</g>
<!-- 4&#45;&gt;29 -->
<g id="edge64" class="edge">
<title>4&#45;&gt;29</title>
<path fill="none" stroke="black" d="M593.99,-551.78C641.48,-556.53 735,-573.84 735,-636.5 735,-859.75 735,-859.75 735,-859.75 735,-928.76 756.53,-943.3 776,-1009.5 781.12,-1026.9 949.47,-1560.9 990.19,-1690.07"/>
<polygon fill="black" stroke="black" points="986.83,-1691.03 993.17,-1699.52 993.5,-1688.93 986.83,-1691.03"/>
<text text-anchor="middle" x="820.75" y="-1119.2" font-family="Times,serif" font-size="14.00">33</text>
</g>
</g>
</svg>
