<?xml version="1.0" encoding="UTF-8" standalone="no"?>
<!DOCTYPE svg PUBLIC "-//W3C//DTD SVG 1.1//EN"
 "http://www.w3.org/Graphics/SVG/1.1/DTD/svg11.dtd">
<!-- Generated by graphviz version 10.0.1 (20240210.2158)
 -->
<!-- Title: di_graph Pages: 1 -->
<svg width="1450pt" height="1283pt"
 viewBox="0.00 0.00 1450.00 1283.00" xmlns="http://www.w3.org/2000/svg" xmlns:xlink="http://www.w3.org/1999/xlink">
<g id="graph0" class="graph" transform="scale(1 1) rotate(0) translate(4 1279)">
<title>di_graph</title>
<polygon fill="white" stroke="none" points="-4,4 -4,-1279 1446,-1279 1446,4 -4,4"/>
<!-- 18 -->
<g id="node1" class="node">
<title>18</title>
<ellipse fill="none" stroke="black" cx="457" cy="-1257" rx="27.3" ry="18"/>
<text text-anchor="middle" x="457" y="-1251.95" font-family="Times,serif" font-size="14.00">18 0</text>
</g>
<!-- 0 -->
<g id="node16" class="node">
<title>0</title>
<ellipse fill="none" stroke="black" cx="392" cy="-1168.5" rx="27" ry="18"/>
<text text-anchor="middle" x="392" y="-1163.45" font-family="Times,serif" font-size="14.00">0 0</text>
</g>
<!-- 18&#45;&gt;0 -->
<g id="edge30" class="edge">
<title>18&#45;&gt;0</title>
<path fill="none" stroke="black" d="M445.38,-1240.54C435.73,-1227.7 421.83,-1209.2 410.64,-1194.3"/>
<polygon fill="black" stroke="black" points="413.45,-1192.22 404.65,-1186.33 407.86,-1196.43 413.45,-1192.22"/>
<text text-anchor="middle" x="437.75" y="-1207.7" font-family="Times,serif" font-size="14.00">34</text>
</g>
<!-- 19 -->
<g id="node17" class="node">
<title>19</title>
<ellipse fill="none" stroke="black" cx="295" cy="-549" rx="27.3" ry="18"/>
<text text-anchor="middle" x="295" y="-543.95" font-family="Times,serif" font-size="14.00">19 0</text>
</g>
<!-- 18&#45;&gt;19 -->
<g id="edge29" class="edge">
<title>18&#45;&gt;19</title>
<path fill="none" stroke="black" d="M429.39,-1254.92C349.05,-1251.56 119.39,-1240.36 92,-1221 71.38,-1206.43 68,-1194.75 68,-1169.5 68,-1169.5 68,-1169.5 68,-946.25 68,-784.94 120.7,-741.7 226,-619.5 240.34,-602.86 257.78,-585.32 271.54,-572.02"/>
<polygon fill="black" stroke="black" points="273.67,-574.82 278.47,-565.38 268.83,-569.76 273.67,-574.82"/>
<text text-anchor="middle" x="77.75" y="-897.95" font-family="Times,serif" font-size="14.00">37</text>
</g>
<!-- 17 -->
<g id="node19" class="node">
<title>17</title>
<ellipse fill="none" stroke="black" cx="1279" cy="-460.5" rx="27.3" ry="18"/>
<text text-anchor="middle" x="1279" y="-455.45" font-family="Times,serif" font-size="14.00">17 0</text>
</g>
<!-- 18&#45;&gt;17 -->
<g id="edge28" class="edge">
<title>18&#45;&gt;17</title>
<path fill="none" stroke="black" d="M484.7,-1256.34C637.04,-1257.85 1366,-1260.35 1366,-1169.5 1366,-1169.5 1366,-1169.5 1366,-548 1366,-515.8 1335.66,-491.47 1310.82,-476.94"/>
<polygon fill="black" stroke="black" points="1312.73,-473.99 1302.28,-472.23 1309.34,-480.12 1312.73,-473.99"/>
<text text-anchor="middle" x="1372.75" y="-853.7" font-family="Times,serif" font-size="14.00">35</text>
</g>
<!-- 6 -->
<g id="node2" class="node">
<title>6</title>
<ellipse fill="none" stroke="black" cx="932" cy="-1080" rx="27" ry="18"/>
<text text-anchor="middle" x="932" y="-1074.95" font-family="Times,serif" font-size="14.00">6 0</text>
</g>
<!-- 5 -->
<g id="node9" class="node">
<title>5</title>
<ellipse fill="none" stroke="black" cx="677" cy="-991.5" rx="27" ry="18"/>
<text text-anchor="middle" x="677" y="-986.45" font-family="Times,serif" font-size="14.00">5 0</text>
</g>
<!-- 6&#45;&gt;5 -->
<g id="edge55" class="edge">
<title>6&#45;&gt;5</title>
<path fill="none" stroke="black" d="M906.29,-1073.78C878.39,-1067.8 832.7,-1057.14 794.5,-1044 764.68,-1033.75 731.91,-1019.08 708.57,-1008.02"/>
<polygon fill="black" stroke="black" points="710.13,-1004.89 699.6,-1003.73 707.1,-1011.2 710.13,-1004.89"/>
<text text-anchor="middle" x="800.75" y="-1030.7" font-family="Times,serif" font-size="14.00">11</text>
</g>
<!-- 10 -->
<g id="node15" class="node">
<title>10</title>
<ellipse fill="none" stroke="black" cx="611" cy="-195" rx="27.3" ry="18"/>
<text text-anchor="middle" x="611" y="-189.95" font-family="Times,serif" font-size="14.00">10 0</text>
</g>
<!-- 6&#45;&gt;10 -->
<g id="edge53" class="edge">
<title>6&#45;&gt;10</title>
<path fill="none" stroke="black" d="M918.28,-1064.42C898.7,-1042.64 863.29,-999.43 847,-955.5 753.02,-702.12 907.13,-579.37 758,-354 735.55,-320.07 711.6,-330.44 683,-301.5 659.32,-277.54 638.38,-244.85 625.28,-222.25"/>
<polygon fill="black" stroke="black" points="628.39,-220.63 620.41,-213.65 622.3,-224.08 628.39,-220.63"/>
<text text-anchor="middle" x="831.75" y="-632.45" font-family="Times,serif" font-size="14.00">14</text>
</g>
<!-- 6&#45;&gt;17 -->
<g id="edge56" class="edge">
<title>6&#45;&gt;17</title>
<path fill="none" stroke="black" d="M959.13,-1078.28C1042.44,-1074.48 1289,-1050.85 1289,-904 1289,-904 1289,-904 1289,-769.25 1289,-666.59 1283.37,-544.77 1280.56,-490.31"/>
<polygon fill="black" stroke="black" points="1284.06,-490.16 1280.04,-480.36 1277.07,-490.53 1284.06,-490.16"/>
<text text-anchor="middle" x="1295.75" y="-765.2" font-family="Times,serif" font-size="14.00">10</text>
</g>
<!-- 11 -->
<g id="node20" class="node">
<title>11</title>
<ellipse fill="none" stroke="black" cx="962" cy="-283.5" rx="27.3" ry="18"/>
<text text-anchor="middle" x="962" y="-278.45" font-family="Times,serif" font-size="14.00">11 0</text>
</g>
<!-- 6&#45;&gt;11 -->
<g id="edge54" class="edge">
<title>6&#45;&gt;11</title>
<path fill="none" stroke="black" d="M948.47,-1065.57C965.61,-1049.97 990,-1022.51 990,-992.5 990,-992.5 990,-992.5 990,-769.25 990,-647.39 1033.13,-617.42 1018,-496.5 1009.55,-428.94 985.57,-352.31 971.89,-312.25"/>
<polygon fill="black" stroke="black" points="975.24,-311.24 968.66,-302.93 968.63,-313.53 975.24,-311.24"/>
<text text-anchor="middle" x="1006.75" y="-676.7" font-family="Times,serif" font-size="14.00">13</text>
</g>
<!-- 1 -->
<g id="node3" class="node">
<title>1</title>
<ellipse fill="none" stroke="black" cx="383" cy="-372" rx="27" ry="18"/>
<text text-anchor="middle" x="383" y="-366.95" font-family="Times,serif" font-size="14.00">1 0</text>
</g>
<!-- 1&#45;&gt;18 -->
<g id="edge66" class="edge">
<title>1&#45;&gt;18</title>
<path fill="none" stroke="black" d="M356.07,-375.46C268.89,-385.04 0,-427.91 0,-592.25 0,-1169.5 0,-1169.5 0,-1169.5 0,-1208.84 35.12,-1207.3 72,-1221 134.73,-1244.31 333.33,-1252.54 418.07,-1255.04"/>
<polygon fill="black" stroke="black" points="417.87,-1258.54 427.97,-1255.32 418.07,-1251.54 417.87,-1258.54"/>
<text text-anchor="middle" x="6.75" y="-809.45" font-family="Times,serif" font-size="14.00">19</text>
</g>
<!-- 2 -->
<g id="node4" class="node">
<title>2</title>
<ellipse fill="none" stroke="black" cx="391" cy="-460.5" rx="27" ry="18"/>
<text text-anchor="middle" x="391" y="-455.45" font-family="Times,serif" font-size="14.00">2 0</text>
</g>
<!-- 1&#45;&gt;2 -->
<g id="edge68" class="edge">
<title>1&#45;&gt;2</title>
<path fill="none" stroke="black" d="M384.6,-390.35C385.69,-402.06 387.14,-417.79 388.39,-431.28"/>
<polygon fill="black" stroke="black" points="384.87,-431.27 389.28,-440.9 391.84,-430.62 384.87,-431.27"/>
<text text-anchor="middle" x="391.38" y="-411.2" font-family="Times,serif" font-size="14.00">3</text>
</g>
<!-- 3 -->
<g id="node12" class="node">
<title>3</title>
<ellipse fill="none" stroke="black" cx="570" cy="-726" rx="27" ry="18"/>
<text text-anchor="middle" x="570" y="-720.95" font-family="Times,serif" font-size="14.00">3 0</text>
</g>
<!-- 1&#45;&gt;3 -->
<g id="edge67" class="edge">
<title>1&#45;&gt;3</title>
<path fill="none" stroke="black" d="M393.29,-388.92C402.3,-402.94 415.69,-423.97 427,-442.5 474.52,-520.39 491.92,-537.05 531,-619.5 543.2,-645.23 554.15,-675.87 561.32,-697.48"/>
<polygon fill="black" stroke="black" points="557.91,-698.32 564.34,-706.74 564.57,-696.15 557.91,-698.32"/>
<text text-anchor="middle" x="507.38" y="-543.95" font-family="Times,serif" font-size="14.00">4</text>
</g>
<!-- 1&#45;&gt;0 -->
<g id="edge65" class="edge">
<title>1&#45;&gt;0</title>
<path fill="none" stroke="black" d="M361.01,-382.98C312.75,-405.39 200.21,-460.54 180,-496.5 176.41,-502.89 179.82,-505.67 180,-513 184.45,-694.5 159.94,-743.92 200,-921 264.34,-1205.41 268.23,-1113.38 289,-1132.5 306.9,-1148.98 332.87,-1157.74 354.26,-1162.37"/>
<polygon fill="black" stroke="black" points="353.3,-1165.75 363.78,-1164.21 354.63,-1158.88 353.3,-1165.75"/>
<text text-anchor="middle" x="182.38" y="-765.2" font-family="Times,serif" font-size="14.00">1</text>
</g>
<!-- 2&#45;&gt;1 -->
<g id="edge57" class="edge">
<title>2&#45;&gt;1</title>
<path fill="none" stroke="black" d="M376.6,-445.1C371.69,-439.22 366.8,-432.03 364.25,-424.5 361.41,-416.1 363.12,-407 366.44,-398.81"/>
<polygon fill="black" stroke="black" points="369.47,-400.57 370.82,-390.07 363.21,-397.44 369.47,-400.57"/>
<text text-anchor="middle" x="368.38" y="-411.2" font-family="Times,serif" font-size="14.00">3</text>
</g>
<!-- 2&#45;&gt;5 -->
<g id="edge60" class="edge">
<title>2&#45;&gt;5</title>
<path fill="none" stroke="black" d="M386.13,-478.6C372.83,-528.97 340.78,-679.47 401,-778.5 434.66,-833.85 537.19,-917.2 599,-955.5 612.87,-964.1 629.22,-971.77 643.36,-977.72"/>
<polygon fill="black" stroke="black" points="641.68,-980.81 652.26,-981.35 644.32,-974.33 641.68,-980.81"/>
<text text-anchor="middle" x="388.38" y="-720.95" font-family="Times,serif" font-size="14.00">5</text>
</g>
<!-- 4 -->
<g id="node14" class="node">
<title>4</title>
<ellipse fill="none" stroke="black" cx="603" cy="-814.5" rx="27" ry="18"/>
<text text-anchor="middle" x="603" y="-809.45" font-family="Times,serif" font-size="14.00">4 0</text>
</g>
<!-- 2&#45;&gt;4 -->
<g id="edge59" class="edge">
<title>2&#45;&gt;4</title>
<path fill="none" stroke="black" d="M397.42,-478.16C399.59,-483.94 401.97,-490.48 404,-496.5 441.74,-608.46 434.17,-646.57 501,-744 512.33,-760.52 514.17,-766.23 530,-778.5 541.72,-787.58 556.17,-795.12 569.11,-800.85"/>
<polygon fill="black" stroke="black" points="567.57,-804 578.15,-804.64 570.28,-797.54 567.57,-804"/>
<text text-anchor="middle" x="455.38" y="-632.45" font-family="Times,serif" font-size="14.00">6</text>
</g>
<!-- 2&#45;&gt;11 -->
<g id="edge58" class="edge">
<title>2&#45;&gt;11</title>
<path fill="none" stroke="black" d="M416.98,-454.48C447.94,-448.31 501.11,-437.09 546,-424.5 690.17,-384.08 858.1,-323.23 928.38,-297.13"/>
<polygon fill="black" stroke="black" points="929.24,-300.54 937.39,-293.77 926.79,-293.98 929.24,-300.54"/>
<text text-anchor="middle" x="770.38" y="-366.95" font-family="Times,serif" font-size="14.00">2</text>
</g>
<!-- 9 -->
<g id="node5" class="node">
<title>9</title>
<ellipse fill="none" stroke="black" cx="495" cy="-637.5" rx="27" ry="18"/>
<text text-anchor="middle" x="495" y="-632.45" font-family="Times,serif" font-size="14.00">9 0</text>
</g>
<!-- 9&#45;&gt;5 -->
<g id="edge61" class="edge">
<title>9&#45;&gt;5</title>
<path fill="none" stroke="black" d="M493.69,-655.7C492.58,-676.9 492.36,-713.84 501,-744 525.1,-828.07 534.4,-851.12 587,-921 603.18,-942.49 627.63,-960.79 646.96,-973.21"/>
<polygon fill="black" stroke="black" points="644.91,-976.06 655.25,-978.36 648.6,-970.11 644.91,-976.06"/>
<text text-anchor="middle" x="536.75" y="-809.45" font-family="Times,serif" font-size="14.00">17</text>
</g>
<!-- 7 -->
<g id="node11" class="node">
<title>7</title>
<ellipse fill="none" stroke="black" cx="306" cy="-18" rx="27" ry="18"/>
<text text-anchor="middle" x="306" y="-12.95" font-family="Times,serif" font-size="14.00">7 0</text>
</g>
<!-- 9&#45;&gt;7 -->
<g id="edge64" class="edge">
<title>9&#45;&gt;7</title>
<path fill="none" stroke="black" d="M478.06,-623.05C438.72,-591.79 344.36,-516.62 342,-513 329.03,-493.14 328,-485.22 328,-461.5 328,-461.5 328,-461.5 328,-326.75 328,-223.67 315.57,-101.65 309.39,-47.42"/>
<polygon fill="black" stroke="black" points="312.91,-47.36 308.28,-37.83 305.96,-48.16 312.91,-47.36"/>
<text text-anchor="middle" x="334.75" y="-322.7" font-family="Times,serif" font-size="14.00">16</text>
</g>
<!-- 9&#45;&gt;4 -->
<g id="edge63" class="edge">
<title>9&#45;&gt;4</title>
<path fill="none" stroke="black" d="M495.9,-655.84C497.73,-677.84 503.35,-716.28 520.5,-744 533.72,-765.37 555.74,-783.43 573.71,-795.78"/>
<polygon fill="black" stroke="black" points="571.65,-798.61 581.93,-801.2 575.51,-792.77 571.65,-798.61"/>
<text text-anchor="middle" x="526.75" y="-720.95" font-family="Times,serif" font-size="14.00">20</text>
</g>
<!-- 9&#45;&gt;19 -->
<g id="edge62" class="edge">
<title>9&#45;&gt;19</title>
<path fill="none" stroke="black" d="M472.83,-626.91C437.71,-611.72 369.06,-582.03 328.1,-564.31"/>
<polygon fill="black" stroke="black" points="329.53,-561.12 318.96,-560.36 326.75,-567.55 329.53,-561.12"/>
<text text-anchor="middle" x="419.75" y="-588.2" font-family="Times,serif" font-size="14.00">19</text>
</g>
<!-- 12 -->
<g id="node6" class="node">
<title>12</title>
<ellipse fill="none" stroke="black" cx="719" cy="-283.5" rx="27.3" ry="18"/>
<text text-anchor="middle" x="719" y="-278.45" font-family="Times,serif" font-size="14.00">12 0</text>
</g>
<!-- 14 -->
<g id="node10" class="node">
<title>14</title>
<ellipse fill="none" stroke="black" cx="1046" cy="-195" rx="27.3" ry="18"/>
<text text-anchor="middle" x="1046" y="-189.95" font-family="Times,serif" font-size="14.00">14 0</text>
</g>
<!-- 12&#45;&gt;14 -->
<g id="edge52" class="edge">
<title>12&#45;&gt;14</title>
<path fill="none" stroke="black" d="M739.47,-271.33C761.91,-259.56 799.28,-241.32 833.5,-231 892.72,-213.14 964.15,-203.74 1007.27,-199.33"/>
<polygon fill="black" stroke="black" points="1007.54,-202.83 1017.15,-198.37 1006.85,-195.86 1007.54,-202.83"/>
<text text-anchor="middle" x="839.75" y="-234.2" font-family="Times,serif" font-size="14.00">26</text>
</g>
<!-- 12&#45;&gt;7 -->
<g id="edge49" class="edge">
<title>12&#45;&gt;7</title>
<path fill="none" stroke="black" d="M721.68,-265.16C726.5,-226.97 731.91,-135.28 682,-88.5 633.43,-42.97 430.17,-26.12 344.42,-20.96"/>
<polygon fill="black" stroke="black" points="344.83,-17.48 334.64,-20.4 344.42,-24.47 344.83,-17.48"/>
<text text-anchor="middle" x="724.75" y="-145.7" font-family="Times,serif" font-size="14.00">23</text>
</g>
<!-- 12&#45;&gt;4 -->
<g id="edge50" class="edge">
<title>12&#45;&gt;4</title>
<path fill="none" stroke="black" d="M712.87,-301.29C698.65,-340.81 663.16,-442.98 643.5,-531 623,-622.77 610.64,-733.73 605.61,-785"/>
<polygon fill="black" stroke="black" points="602.16,-784.34 604.69,-794.63 609.13,-785.01 602.16,-784.34"/>
<text text-anchor="middle" x="649.75" y="-543.95" font-family="Times,serif" font-size="14.00">25</text>
</g>
<!-- 12&#45;&gt;10 -->
<g id="edge51" class="edge">
<title>12&#45;&gt;10</title>
<path fill="none" stroke="black" d="M701.17,-269.42C692.45,-262.93 681.84,-254.91 672.5,-247.5 660.32,-237.82 647.05,-226.79 635.98,-217.42"/>
<polygon fill="black" stroke="black" points="638.29,-214.79 628.41,-210.99 633.76,-220.13 638.29,-214.79"/>
<text text-anchor="middle" x="678.75" y="-234.2" font-family="Times,serif" font-size="14.00">22</text>
</g>
<!-- 16 -->
<g id="node7" class="node">
<title>16</title>
<ellipse fill="none" stroke="black" cx="1101" cy="-903" rx="27.3" ry="18"/>
<text text-anchor="middle" x="1101" y="-897.95" font-family="Times,serif" font-size="14.00">16 0</text>
</g>
<!-- 16&#45;&gt;18 -->
<g id="edge46" class="edge">
<title>16&#45;&gt;18</title>
<path fill="none" stroke="black" d="M1126.72,-909.48C1177.56,-921.97 1286,-957.66 1286,-1034.75 1286,-1169.5 1286,-1169.5 1286,-1169.5 1286,-1249.97 660.14,-1255.91 496.02,-1256.08"/>
<polygon fill="black" stroke="black" points="496.09,-1252.58 486.1,-1256.08 496.1,-1259.58 496.09,-1252.58"/>
<text text-anchor="middle" x="1292.75" y="-1074.95" font-family="Times,serif" font-size="14.00">34</text>
</g>
<!-- 15 -->
<g id="node8" class="node">
<title>15</title>
<ellipse fill="none" stroke="black" cx="1241" cy="-106.5" rx="27.3" ry="18"/>
<text text-anchor="middle" x="1241" y="-101.45" font-family="Times,serif" font-size="14.00">15 0</text>
</g>
<!-- 16&#45;&gt;15 -->
<g id="edge48" class="edge">
<title>16&#45;&gt;15</title>
<path fill="none" stroke="black" d="M1121.51,-890.83C1135.21,-883.06 1151.65,-873.06 1157,-867 1168.19,-854.33 1168.05,-848.66 1173,-832.5 1208.03,-718.21 1247.21,-420.45 1259,-301.5 1265.97,-231.16 1282.57,-210.42 1263,-142.5 1262.04,-139.16 1260.65,-135.83 1259.04,-132.63"/>
<polygon fill="black" stroke="black" points="1262.2,-131.11 1254.11,-124.27 1256.17,-134.66 1262.2,-131.11"/>
<text text-anchor="middle" x="1241.75" y="-499.7" font-family="Times,serif" font-size="14.00">31</text>
</g>
<!-- 16&#45;&gt;14 -->
<g id="edge45" class="edge">
<title>16&#45;&gt;14</title>
<path fill="none" stroke="black" d="M1108.46,-885.47C1115.51,-868.34 1125,-840.59 1125,-815.5 1125,-815.5 1125,-815.5 1125,-592.25 1125,-451.26 1076.3,-287.41 1055.38,-223.5"/>
<polygon fill="black" stroke="black" points="1058.76,-222.58 1052.29,-214.19 1052.12,-224.78 1058.76,-222.58"/>
<text text-anchor="middle" x="1130.75" y="-543.95" font-family="Times,serif" font-size="14.00">30</text>
</g>
<!-- 16&#45;&gt;4 -->
<g id="edge47" class="edge">
<title>16&#45;&gt;4</title>
<path fill="none" stroke="black" d="M1074.58,-897.41C991.67,-883.01 736.48,-838.69 640.25,-821.97"/>
<polygon fill="black" stroke="black" points="641,-818.55 630.55,-820.29 639.8,-825.45 641,-818.55"/>
<text text-anchor="middle" x="902.75" y="-853.7" font-family="Times,serif" font-size="14.00">33</text>
</g>
<!-- 15&#45;&gt;9 -->
<g id="edge24" class="edge">
<title>15&#45;&gt;9</title>
<path fill="none" stroke="black" d="M1213.43,-107.37C1136.75,-108.47 918.04,-121.56 788,-231 761.53,-253.28 779.44,-277.01 755,-301.5 716.31,-340.27 683.07,-316.13 643.5,-354 622.98,-373.64 540.03,-543.11 507.85,-609.75"/>
<polygon fill="black" stroke="black" points="504.81,-607.99 503.63,-618.52 511.12,-611.03 504.81,-607.99"/>
<text text-anchor="middle" x="649.75" y="-366.95" font-family="Times,serif" font-size="14.00">29</text>
</g>
<!-- 15&#45;&gt;7 -->
<g id="edge27" class="edge">
<title>15&#45;&gt;7</title>
<path fill="none" stroke="black" d="M1214.32,-101.49C1150.04,-91.95 981.47,-67.71 840,-54 654.78,-36.05 432.51,-24.76 344.54,-20.7"/>
<polygon fill="black" stroke="black" points="344.94,-17.22 334.79,-20.26 344.62,-24.21 344.94,-17.22"/>
<text text-anchor="middle" x="989.75" y="-57.2" font-family="Times,serif" font-size="14.00">31</text>
</g>
<!-- 13 -->
<g id="node18" class="node">
<title>13</title>
<ellipse fill="none" stroke="black" cx="1158" cy="-372" rx="27.3" ry="18"/>
<text text-anchor="middle" x="1158" y="-366.95" font-family="Times,serif" font-size="14.00">13 0</text>
</g>
<!-- 15&#45;&gt;13 -->
<g id="edge25" class="edge">
<title>15&#45;&gt;13</title>
<path fill="none" stroke="black" d="M1239.1,-124.52C1235.9,-151.09 1228.64,-203.9 1217,-247.5 1210.47,-271.94 1207.46,-277.66 1199,-301.5 1193.52,-316.94 1194.11,-321.76 1186,-336 1183.87,-339.74 1181.36,-343.49 1178.73,-347.08"/>
<polygon fill="black" stroke="black" points="1176.02,-344.86 1172.59,-354.88 1181.52,-349.18 1176.02,-344.86"/>
<text text-anchor="middle" x="1226.75" y="-234.2" font-family="Times,serif" font-size="14.00">28</text>
</g>
<!-- 15&#45;&gt;17 -->
<g id="edge26" class="edge">
<title>15&#45;&gt;17</title>
<path fill="none" stroke="black" d="M1266.58,-113.4C1302.35,-123.35 1363,-147.13 1363,-194 1363,-373 1363,-373 1363,-373 1363,-404.32 1334.3,-428.58 1310.46,-443.33"/>
<polygon fill="black" stroke="black" points="1308.81,-440.24 1301.94,-448.3 1312.34,-446.28 1308.81,-440.24"/>
<text text-anchor="middle" x="1369.75" y="-278.45" font-family="Times,serif" font-size="14.00">32</text>
</g>
<!-- 5&#45;&gt;16 -->
<g id="edge16" class="edge">
<title>5&#45;&gt;16</title>
<path fill="none" stroke="black" d="M702.57,-985.28C774.64,-970.58 979.69,-928.75 1064.05,-911.54"/>
<polygon fill="black" stroke="black" points="1064.55,-915.01 1073.65,-909.58 1063.15,-908.15 1064.55,-915.01"/>
<text text-anchor="middle" x="929.38" y="-942.2" font-family="Times,serif" font-size="14.00">9</text>
</g>
<!-- 5&#45;&gt;3 -->
<g id="edge19" class="edge">
<title>5&#45;&gt;3</title>
<path fill="none" stroke="black" d="M662.17,-976.1C636.72,-950.21 585.64,-892.86 567,-832.5 559.23,-807.36 561.13,-777.22 564.28,-755.61"/>
<polygon fill="black" stroke="black" points="567.73,-756.2 565.92,-745.76 560.83,-755.05 567.73,-756.2"/>
<text text-anchor="middle" x="583.38" y="-853.7" font-family="Times,serif" font-size="14.00">8</text>
</g>
<!-- 5&#45;&gt;10 -->
<g id="edge17" class="edge">
<title>5&#45;&gt;10</title>
<path fill="none" stroke="black" d="M696.83,-978.89C718.75,-964.4 751,-937.4 751,-904 751,-904 751,-904 751,-680.75 751,-639.78 758.39,-535.22 745,-496.5 715.97,-412.58 669.7,-413.31 626,-336 602.44,-294.33 595.99,-278.49 602,-231 602.3,-228.67 602.7,-226.26 603.17,-223.87"/>
<polygon fill="black" stroke="black" points="606.51,-224.93 605.39,-214.4 599.7,-223.33 606.51,-224.93"/>
<text text-anchor="middle" x="759.75" y="-588.2" font-family="Times,serif" font-size="14.00">11</text>
</g>
<!-- 5&#45;&gt;17 -->
<g id="edge18" class="edge">
<title>5&#45;&gt;17</title>
<path fill="none" stroke="black" d="M704.36,-990.79C777.5,-990.65 982.44,-984.21 1137,-921 1176.03,-905.04 1192.59,-902.72 1215,-867 1259.29,-796.4 1259.51,-578.74 1273,-496.5 1273.36,-494.31 1273.74,-492.04 1274.12,-489.77"/>
<polygon fill="black" stroke="black" points="1277.54,-490.52 1275.77,-480.07 1270.64,-489.35 1277.54,-490.52"/>
<text text-anchor="middle" x="1259.75" y="-720.95" font-family="Times,serif" font-size="14.00">12</text>
</g>
<!-- 14&#45;&gt;16 -->
<g id="edge1" class="edge">
<title>14&#45;&gt;16</title>
<path fill="none" stroke="black" d="M1046.63,-213.19C1047.43,-234.08 1048.97,-270.39 1051,-301.5 1065.39,-521.89 1090.05,-787.17 1098.26,-873.42"/>
<polygon fill="black" stroke="black" points="1094.77,-873.69 1099.2,-883.31 1101.73,-873.03 1094.77,-873.69"/>
<text text-anchor="middle" x="1076.75" y="-543.95" font-family="Times,serif" font-size="14.00">30</text>
</g>
<!-- 14&#45;&gt;15 -->
<g id="edge4" class="edge">
<title>14&#45;&gt;15</title>
<path fill="none" stroke="black" d="M1068.37,-184.08C1102.66,-168.87 1168.41,-139.7 1208.13,-122.08"/>
<polygon fill="black" stroke="black" points="1209.49,-125.31 1217.21,-118.05 1206.65,-118.91 1209.49,-125.31"/>
<text text-anchor="middle" x="1166.75" y="-145.7" font-family="Times,serif" font-size="14.00">29</text>
</g>
<!-- 14&#45;&gt;5 -->
<g id="edge2" class="edge">
<title>14&#45;&gt;5</title>
<path fill="none" stroke="black" d="M1023,-205.17C997.06,-216.38 954.75,-237.4 926,-265.5 787.02,-401.34 789,-486.41 789,-680.75 789,-904 789,-904 789,-904 789,-943.4 745.05,-967.38 712.21,-979.8"/>
<polygon fill="black" stroke="black" points="711.26,-976.42 703.01,-983.07 713.6,-983.02 711.26,-976.42"/>
<text text-anchor="middle" x="795.75" y="-588.2" font-family="Times,serif" font-size="14.00">26</text>
</g>
<!-- 14&#45;&gt;13 -->
<g id="edge3" class="edge">
<title>14&#45;&gt;13</title>
<path fill="none" stroke="black" d="M1060.97,-210.29C1066.94,-216.37 1073.65,-223.74 1079,-231 1106.15,-267.86 1130.94,-314.97 1145.25,-344.05"/>
<polygon fill="black" stroke="black" points="1142.03,-345.43 1149.55,-352.9 1148.33,-342.37 1142.03,-345.43"/>
<text text-anchor="middle" x="1128.75" y="-278.45" font-family="Times,serif" font-size="14.00">27</text>
</g>
<!-- 7&#45;&gt;5 -->
<g id="edge13" class="edge">
<title>7&#45;&gt;5</title>
<path fill="none" stroke="black" d="M282.14,-26.85C251.44,-38.64 202,-64.05 202,-105.5 202,-594.25 202,-594.25 202,-594.25 202,-638.52 334.09,-929.62 370,-955.5 412.05,-985.81 565.55,-990.3 638.28,-990.68"/>
<polygon fill="black" stroke="black" points="638.12,-994.18 648.13,-990.71 638.14,-987.18 638.12,-994.18"/>
<text text-anchor="middle" x="208.75" y="-499.7" font-family="Times,serif" font-size="14.00">12</text>
</g>
<!-- 7&#45;&gt;14 -->
<g id="edge15" class="edge">
<title>7&#45;&gt;14</title>
<path fill="none" stroke="black" d="M333.29,-19.85C417.35,-22.67 671.45,-32.77 751,-54 854.51,-81.62 965.96,-144.76 1017.21,-175.92"/>
<polygon fill="black" stroke="black" points="1015.29,-178.84 1025.64,-181.09 1018.95,-172.88 1015.29,-178.84"/>
<text text-anchor="middle" x="929.75" y="-101.45" font-family="Times,serif" font-size="14.00">16</text>
</g>
<!-- 7&#45;&gt;0 -->
<g id="edge12" class="edge">
<title>7&#45;&gt;0</title>
<path fill="none" stroke="black" d="M279.32,-21.85C211.54,-29.82 38,-55.14 38,-105.5 38,-594.25 38,-594.25 38,-594.25 38,-830.26 92.34,-891.16 206,-1098 215.51,-1115.31 217.2,-1122.12 234,-1132.5 270.56,-1155.09 319.84,-1163.18 353.59,-1166.03"/>
<polygon fill="black" stroke="black" points="353.09,-1169.51 363.32,-1166.73 353.59,-1162.53 353.09,-1169.51"/>
<text text-anchor="middle" x="45.75" y="-588.2" font-family="Times,serif" font-size="14.00">13</text>
</g>
<!-- 7&#45;&gt;19 -->
<g id="edge14" class="edge">
<title>7&#45;&gt;19</title>
<path fill="none" stroke="black" d="M299.67,-35.96C293.81,-53.21 286,-80.84 286,-105.5 286,-240.25 286,-240.25 286,-240.25 286,-342.9 291.06,-464.73 293.6,-519.19"/>
<polygon fill="black" stroke="black" points="290.1,-519.32 294.07,-529.14 297.09,-518.99 290.1,-519.32"/>
<text text-anchor="middle" x="293.75" y="-278.45" font-family="Times,serif" font-size="14.00">15</text>
</g>
<!-- 3&#45;&gt;9 -->
<g id="edge73" class="edge">
<title>3&#45;&gt;9</title>
<path fill="none" stroke="black" d="M556.94,-709.93C545.5,-696.74 528.69,-677.36 515.47,-662.11"/>
<polygon fill="black" stroke="black" points="518.35,-660.09 509.16,-654.83 513.06,-664.68 518.35,-660.09"/>
<text text-anchor="middle" x="542.38" y="-676.7" font-family="Times,serif" font-size="14.00">8</text>
</g>
<!-- 3&#45;&gt;15 -->
<g id="edge74" class="edge">
<title>3&#45;&gt;15</title>
<path fill="none" stroke="black" d="M595.46,-719.26C662.97,-703.96 842.16,-662.9 853,-655.5 877.23,-638.95 878.58,-628.09 891,-601.5 911.44,-557.74 886.76,-532.46 919,-496.5 1006.5,-398.92 1104.62,-485.87 1194,-390 1265.97,-312.81 1242.48,-264.33 1249,-159 1249.45,-151.68 1249.82,-149.79 1249,-142.5 1248.75,-140.27 1248.41,-137.98 1248.01,-135.68"/>
<polygon fill="black" stroke="black" points="1251.45,-135.02 1245.99,-125.94 1244.6,-136.44 1251.45,-135.02"/>
<text text-anchor="middle" x="1177.38" y="-411.2" font-family="Times,serif" font-size="14.00">5</text>
</g>
<!-- 3&#45;&gt;4 -->
<g id="edge75" class="edge">
<title>3&#45;&gt;4</title>
<path fill="none" stroke="black" d="M576.46,-743.92C581.06,-755.99 587.35,-772.47 592.65,-786.37"/>
<polygon fill="black" stroke="black" points="589.26,-787.31 596.1,-795.41 595.8,-784.82 589.26,-787.31"/>
<text text-anchor="middle" x="592.38" y="-765.2" font-family="Times,serif" font-size="14.00">7</text>
</g>
<!-- 3&#45;&gt;19 -->
<g id="edge76" class="edge">
<title>3&#45;&gt;19</title>
<path fill="none" stroke="black" d="M549.48,-713.76C545.69,-711.78 541.75,-709.79 538,-708 484.07,-682.29 464.78,-687.38 414.25,-655.5 376.73,-631.83 339.38,-596.37 316.74,-573.21"/>
<polygon fill="black" stroke="black" points="319.32,-570.85 309.86,-566.08 314.28,-575.7 319.32,-570.85"/>
<text text-anchor="middle" x="418.38" y="-632.45" font-family="Times,serif" font-size="14.00">4</text>
</g>
<!-- 8 -->
<g id="node13" class="node">
<title>8</title>
<ellipse fill="none" stroke="black" cx="646" cy="-106.5" rx="27" ry="18"/>
<text text-anchor="middle" x="646" y="-101.45" font-family="Times,serif" font-size="14.00">8 0</text>
</g>
<!-- 8&#45;&gt;16 -->
<g id="edge20" class="edge">
<title>8&#45;&gt;16</title>
<path fill="none" stroke="black" d="M671.05,-114.08C689.92,-119.76 715.88,-129.16 736,-142.5 781.72,-172.8 789.99,-186.47 822,-231 935.35,-388.69 951.04,-438.72 1022,-619.5 1031.46,-643.59 1075.71,-807.57 1093.54,-874.07"/>
<polygon fill="black" stroke="black" points="1090.09,-874.73 1096.06,-883.48 1096.85,-872.92 1090.09,-874.73"/>
<text text-anchor="middle" x="985.75" y="-499.7" font-family="Times,serif" font-size="14.00">17</text>
</g>
<!-- 8&#45;&gt;3 -->
<g id="edge22" class="edge">
<title>8&#45;&gt;3</title>
<path fill="none" stroke="black" d="M651.42,-124.53C659.09,-151.1 671.09,-203.92 661,-247.5 632.31,-371.45 548.07,-385.92 554,-513 557.34,-584.57 564.97,-601.97 569,-673.5 569.42,-680.91 569.67,-688.93 569.82,-696.38"/>
<polygon fill="black" stroke="black" points="566.32,-696.36 569.96,-706.31 573.32,-696.26 566.32,-696.36"/>
<text text-anchor="middle" x="582.75" y="-411.2" font-family="Times,serif" font-size="14.00">14</text>
</g>
<!-- 8&#45;&gt;10 -->
<g id="edge21" class="edge">
<title>8&#45;&gt;10</title>
<path fill="none" stroke="black" d="M639.27,-124.13C634.39,-136.2 627.67,-152.8 622.01,-166.8"/>
<polygon fill="black" stroke="black" points="618.82,-165.34 618.32,-175.92 625.31,-167.96 618.82,-165.34"/>
<text text-anchor="middle" x="637.75" y="-145.7" font-family="Times,serif" font-size="14.00">18</text>
</g>
<!-- 8&#45;&gt;0 -->
<g id="edge23" class="edge">
<title>8&#45;&gt;0</title>
<path fill="none" stroke="black" d="M618.56,-107.4C537.23,-108.75 296.35,-124.93 188,-265.5 87.07,-396.45 147.22,-849.8 190,-1009.5 202.03,-1054.43 235.04,-1120.23 251,-1132.5 280.61,-1155.26 323.14,-1163.4 353.74,-1166.22"/>
<polygon fill="black" stroke="black" points="353.09,-1169.68 363.32,-1166.94 353.62,-1162.7 353.09,-1169.68"/>
<text text-anchor="middle" x="143.75" y="-632.45" font-family="Times,serif" font-size="14.00">15</text>
</g>
<!-- 4&#45;&gt;5 -->
<g id="edge11" class="edge">
<title>4&#45;&gt;5</title>
<path fill="none" stroke="black" d="M610.07,-832.23C622.88,-862.5 650,-926.64 665.5,-963.29"/>
<polygon fill="black" stroke="black" points="662.2,-964.48 669.32,-972.33 668.64,-961.75 662.2,-964.48"/>
<text text-anchor="middle" x="650.38" y="-897.95" font-family="Times,serif" font-size="14.00">9</text>
</g>
<!-- 4&#45;&gt;7 -->
<g id="edge10" class="edge">
<title>4&#45;&gt;7</title>
<path fill="none" stroke="black" d="M578.49,-806.75C558.94,-800.81 531.25,-791.15 509,-778.5 399.9,-716.47 379.42,-688.53 289,-601.5 254.56,-568.35 240,-553.55 240,-505.75 240,-505.75 240,-505.75 240,-105.5 240,-78.39 260.74,-54.49 278.97,-38.72"/>
<polygon fill="black" stroke="black" points="280.92,-41.65 286.44,-32.61 276.49,-36.23 280.92,-41.65"/>
<text text-anchor="middle" x="246.75" y="-411.2" font-family="Times,serif" font-size="14.00">10</text>
</g>
<!-- 4&#45;&gt;3 -->
<g id="edge9" class="edge">
<title>4&#45;&gt;3</title>
<path fill="none" stroke="black" d="M589.08,-798.93C584.23,-793.02 579.25,-785.87 576.25,-778.5 573.35,-771.38 571.69,-763.29 570.77,-755.66"/>
<polygon fill="black" stroke="black" points="574.26,-755.46 569.97,-745.77 567.28,-756.02 574.26,-755.46"/>
<text text-anchor="middle" x="579.38" y="-765.2" font-family="Times,serif" font-size="14.00">7</text>
</g>
<!-- 10&#45;&gt;18 -->
<g id="edge71" class="edge">
<title>10&#45;&gt;18</title>
<path fill="none" stroke="black" d="M602.4,-212.29C599.81,-218.04 597.3,-224.65 596,-231 589.7,-261.69 591.41,-270.5 596,-301.5 609.25,-391.07 639.16,-407.35 655,-496.5 688.06,-682.55 684.06,-739.63 631,-921 594.7,-1045.09 511.01,-1176.88 474.53,-1230.8"/>
<polygon fill="black" stroke="black" points="471.69,-1228.75 468.95,-1238.98 477.47,-1232.7 471.69,-1228.75"/>
<text text-anchor="middle" x="681.75" y="-720.95" font-family="Times,serif" font-size="14.00">21</text>
</g>
<!-- 10&#45;&gt;9 -->
<g id="edge69" class="edge">
<title>10&#45;&gt;9</title>
<path fill="none" stroke="black" d="M585.2,-201.48C548.34,-210.99 485,-234.34 485,-282.5 485,-417.25 485,-417.25 485,-417.25 485,-467.85 481.11,-480.41 480,-531 479.65,-547 478.3,-551.09 480,-567 481.47,-580.77 484.53,-595.81 487.51,-608.37"/>
<polygon fill="black" stroke="black" points="484.1,-609.2 489.91,-618.06 490.9,-607.51 484.1,-609.2"/>
<text text-anchor="middle" x="491.75" y="-411.2" font-family="Times,serif" font-size="14.00">19</text>
</g>
<!-- 10&#45;&gt;12 -->
<g id="edge72" class="edge">
<title>10&#45;&gt;12</title>
<path fill="none" stroke="black" d="M635.64,-203.51C651.34,-209.19 671.4,-218.23 686,-231 693.93,-237.94 700.67,-247.23 705.95,-256.01"/>
<polygon fill="black" stroke="black" points="702.8,-257.55 710.72,-264.59 708.92,-254.15 702.8,-257.55"/>
<text text-anchor="middle" x="706.75" y="-234.2" font-family="Times,serif" font-size="14.00">22</text>
</g>
<!-- 10&#45;&gt;8 -->
<g id="edge70" class="edge">
<title>10&#45;&gt;8</title>
<path fill="none" stroke="black" d="M605.96,-177.07C603.79,-166.67 602.71,-153.32 607.5,-142.5 610.06,-136.72 614.1,-131.48 618.61,-126.92"/>
<polygon fill="black" stroke="black" points="620.73,-129.72 625.91,-120.48 616.1,-124.48 620.73,-129.72"/>
<text text-anchor="middle" x="613.75" y="-145.7" font-family="Times,serif" font-size="14.00">18</text>
</g>
<!-- 0&#45;&gt;6 -->
<g id="edge34" class="edge">
<title>0&#45;&gt;6</title>
<path fill="none" stroke="black" d="M418.05,-1163.33C505.9,-1149.26 791.56,-1103.5 894.55,-1087"/>
<polygon fill="black" stroke="black" points="895.09,-1090.46 904.41,-1085.42 893.98,-1083.55 895.09,-1090.46"/>
<text text-anchor="middle" x="716.75" y="-1119.2" font-family="Times,serif" font-size="14.00">18</text>
</g>
<!-- 0&#45;&gt;15 -->
<g id="edge36" class="edge">
<title>0&#45;&gt;15</title>
<path fill="none" stroke="black" d="M419.26,-1167.13C563.21,-1164.93 1231.14,-1151.87 1304,-1098 1327.51,-1080.62 1328,-1065.99 1328,-1036.75 1328,-1036.75 1328,-1036.75 1328,-769.25 1328,-641.65 1442,-633.35 1442,-505.75 1442,-505.75 1442,-505.75 1442,-194 1442,-124.16 1338.35,-110.02 1279.91,-107.6"/>
<polygon fill="black" stroke="black" points="1280.14,-104.1 1270.04,-107.29 1279.93,-111.1 1280.14,-104.1"/>
<text text-anchor="middle" x="1402.38" y="-632.45" font-family="Times,serif" font-size="14.00">1</text>
</g>
<!-- 0&#45;&gt;3 -->
<g id="edge35" class="edge">
<title>0&#45;&gt;3</title>
<path fill="none" stroke="black" d="M392,-1150.27C392,-1132.81 392,-1105.03 392,-1081 392,-1081 392,-1081 392,-813.5 392,-741.63 473.81,-776.31 538,-744 538.46,-743.77 538.93,-743.53 539.4,-743.29"/>
<polygon fill="black" stroke="black" points="540.8,-746.51 548.07,-738.8 537.58,-740.29 540.8,-746.51"/>
<text text-anchor="middle" x="395.38" y="-942.2" font-family="Times,serif" font-size="14.00">2</text>
</g>
<!-- 0&#45;&gt;19 -->
<g id="edge37" class="edge">
<title>0&#45;&gt;19</title>
<path fill="none" stroke="black" d="M367.26,-1160.8C333.74,-1150.04 278,-1125.47 278,-1081 278,-1081 278,-1081 278,-857.75 278,-843.94 289.06,-652.16 293.34,-578.52"/>
<polygon fill="black" stroke="black" points="296.81,-579.06 293.9,-568.88 289.83,-578.66 296.81,-579.06"/>
<text text-anchor="middle" x="284.75" y="-853.7" font-family="Times,serif" font-size="14.00">19</text>
</g>
<!-- 19&#45;&gt;18 -->
<g id="edge31" class="edge">
<title>19&#45;&gt;18</title>
<path fill="none" stroke="black" d="M289.63,-566.93C263.02,-652.14 149.02,-1033.83 210,-1132.5 256.1,-1207.09 362.41,-1238.14 419.36,-1249.79"/>
<polygon fill="black" stroke="black" points="418.42,-1253.17 428.91,-1251.64 419.75,-1246.3 418.42,-1253.17"/>
<text text-anchor="middle" x="215.75" y="-897.95" font-family="Times,serif" font-size="14.00">37</text>
</g>
<!-- 19&#45;&gt;2 -->
<g id="edge33" class="edge">
<title>19&#45;&gt;2</title>
<path fill="none" stroke="black" d="M310.42,-534.1C325.73,-520.31 349.4,-498.98 367.13,-483.01"/>
<polygon fill="black" stroke="black" points="369.08,-485.96 374.17,-476.66 364.4,-480.76 369.08,-485.96"/>
<text text-anchor="middle" x="358.75" y="-499.7" font-family="Times,serif" font-size="14.00">21</text>
</g>
<!-- 19&#45;&gt;17 -->
<g id="edge32" class="edge">
<title>19&#45;&gt;17</title>
<path fill="none" stroke="black" d="M322.17,-545.61C359.53,-542.31 428.86,-536.2 488,-531 777.14,-505.56 1125.73,-474.96 1240.39,-464.89"/>
<polygon fill="black" stroke="black" points="1240.51,-468.39 1250.17,-464.03 1239.9,-461.42 1240.51,-468.39"/>
<text text-anchor="middle" x="883.75" y="-499.7" font-family="Times,serif" font-size="14.00">36</text>
</g>
<!-- 13&#45;&gt;12 -->
<g id="edge7" class="edge">
<title>13&#45;&gt;12</title>
<path fill="none" stroke="black" d="M1131.85,-365.85C1057.2,-351.14 842.91,-308.91 756.14,-291.82"/>
<polygon fill="black" stroke="black" points="756.98,-288.42 746.49,-289.92 755.63,-295.28 756.98,-288.42"/>
<text text-anchor="middle" x="983.75" y="-322.7" font-family="Times,serif" font-size="14.00">25</text>
</g>
<!-- 13&#45;&gt;15 -->
<g id="edge8" class="edge">
<title>13&#45;&gt;15</title>
<path fill="none" stroke="black" d="M1164.01,-353.96C1165.97,-348.27 1168.13,-341.88 1170,-336 1197.21,-250.58 1197.65,-227.21 1227,-142.5 1227.89,-139.94 1228.85,-137.3 1229.85,-134.66"/>
<polygon fill="black" stroke="black" points="1233.04,-136.11 1233.43,-125.52 1226.52,-133.55 1233.04,-136.11"/>
<text text-anchor="middle" x="1205.75" y="-234.2" font-family="Times,serif" font-size="14.00">28</text>
</g>
<!-- 13&#45;&gt;14 -->
<g id="edge5" class="edge">
<title>13&#45;&gt;14</title>
<path fill="none" stroke="black" d="M1158.39,-353.71C1158.14,-331.75 1155.13,-293.36 1139,-265.5 1125.09,-241.47 1099.23,-223.18 1078.3,-211.41"/>
<polygon fill="black" stroke="black" points="1080,-208.35 1069.53,-206.72 1076.7,-214.52 1080,-208.35"/>
<text text-anchor="middle" x="1158.75" y="-278.45" font-family="Times,serif" font-size="14.00">27</text>
</g>
<!-- 13&#45;&gt;11 -->
<g id="edge6" class="edge">
<title>13&#45;&gt;11</title>
<path fill="none" stroke="black" d="M1135.9,-361.25C1101.42,-346.03 1034.63,-316.55 994.61,-298.89"/>
<polygon fill="black" stroke="black" points="996.27,-295.8 985.71,-294.96 993.44,-302.2 996.27,-295.8"/>
<text text-anchor="middle" x="1083.75" y="-322.7" font-family="Times,serif" font-size="14.00">24</text>
</g>
<!-- 17&#45;&gt;18 -->
<g id="edge39" class="edge">
<title>17&#45;&gt;18</title>
<path fill="none" stroke="black" d="M1304.9,-467.12C1341.51,-476.77 1404,-500.23 1404,-548 1404,-1169.5 1404,-1169.5 1404,-1169.5 1404,-1221.48 1349.62,-1209.2 1299,-1221 1143.26,-1257.3 639.53,-1257.13 495.68,-1256.3"/>
<polygon fill="black" stroke="black" points="495.95,-1252.8 485.93,-1256.24 495.91,-1259.8 495.95,-1252.8"/>
<text text-anchor="middle" x="1410.75" y="-853.7" font-family="Times,serif" font-size="14.00">35</text>
</g>
<!-- 17&#45;&gt;16 -->
<g id="edge38" class="edge">
<title>17&#45;&gt;16</title>
<path fill="none" stroke="black" d="M1264.42,-476.07C1258.86,-482.08 1252.74,-489.32 1248,-496.5 1214.74,-546.96 1211.3,-562.94 1190,-619.5 1181.2,-642.87 1180.2,-649.19 1174.5,-673.5 1154.53,-758.62 1181.22,-790.43 1139,-867 1136.1,-872.26 1132.11,-877.17 1127.8,-881.55"/>
<polygon fill="black" stroke="black" points="1125.49,-878.92 1120.45,-888.24 1130.2,-884.1 1125.49,-878.92"/>
<text text-anchor="middle" x="1180.75" y="-676.7" font-family="Times,serif" font-size="14.00">33</text>
</g>
<!-- 17&#45;&gt;13 -->
<g id="edge40" class="edge">
<title>17&#45;&gt;13</title>
<path fill="none" stroke="black" d="M1260.89,-446.55C1240.81,-432.2 1208.22,-408.9 1185.11,-392.38"/>
<polygon fill="black" stroke="black" points="1187.25,-389.6 1177.08,-386.64 1183.17,-395.3 1187.25,-389.6"/>
<text text-anchor="middle" x="1235.75" y="-411.2" font-family="Times,serif" font-size="14.00">36</text>
</g>
<!-- 11&#45;&gt;6 -->
<g id="edge42" class="edge">
<title>11&#45;&gt;6</title>
<path fill="none" stroke="black" d="M961.39,-301.67C959.22,-364.27 952,-586.17 952,-769.25 952,-992.5 952,-992.5 952,-992.5 952,-1012.54 946.84,-1034.53 941.77,-1051.33"/>
<polygon fill="black" stroke="black" points="938.51,-1050 938.79,-1060.59 945.18,-1052.14 938.51,-1050"/>
<text text-anchor="middle" x="958.75" y="-676.7" font-family="Times,serif" font-size="14.00">23</text>
</g>
<!-- 11&#45;&gt;4 -->
<g id="edge44" class="edge">
<title>11&#45;&gt;4</title>
<path fill="none" stroke="black" d="M946.14,-298.39C901.39,-337.81 775.45,-450.5 745,-496.5 682.74,-590.54 747.37,-647.5 689,-744 675.52,-766.28 652.19,-784.46 633.22,-796.63"/>
<polygon fill="black" stroke="black" points="631.48,-793.59 624.79,-801.8 635.15,-799.55 631.48,-793.59"/>
<text text-anchor="middle" x="732.75" y="-543.95" font-family="Times,serif" font-size="14.00">20</text>
</g>
<!-- 11&#45;&gt;0 -->
<g id="edge43" class="edge">
<title>11&#45;&gt;0</title>
<path fill="none" stroke="black" d="M951.92,-300.56C929.4,-337.03 877,-425.55 877,-459.5 877,-904 877,-904 877,-904 877,-972.6 865.9,-1001.56 812,-1044 781.01,-1068.4 524.17,-1134.42 428.09,-1158.53"/>
<polygon fill="black" stroke="black" points="427.51,-1155.07 418.66,-1160.89 429.21,-1161.86 427.51,-1155.07"/>
<text text-anchor="middle" x="883.75" y="-720.95" font-family="Times,serif" font-size="14.00">21</text>
</g>
<!-- 11&#45;&gt;13 -->
<g id="edge41" class="edge">
<title>11&#45;&gt;13</title>
<path fill="none" stroke="black" d="M976.09,-299.2C987.98,-310.79 1005.97,-326.52 1024.5,-336 1054.74,-351.47 1092.42,-360.54 1120.03,-365.55"/>
<polygon fill="black" stroke="black" points="1119.26,-368.97 1129.71,-367.2 1120.44,-362.07 1119.26,-368.97"/>
<text text-anchor="middle" x="1030.75" y="-322.7" font-family="Times,serif" font-size="14.00">24</text>
</g>
</g>
</svg>
