<?xml version="1.0" encoding="UTF-8" standalone="no"?>
<!DOCTYPE svg PUBLIC "-//W3C//DTD SVG 1.1//EN"
 "http://www.w3.org/Graphics/SVG/1.1/DTD/svg11.dtd">
<!-- Generated by graphviz version 5.0.0 (0)
 -->
<!-- Title: di_graph Pages: 1 -->
<svg width="775pt" height="566pt"
 viewBox="0.00 0.00 775.00 566.00" xmlns="http://www.w3.org/2000/svg" xmlns:xlink="http://www.w3.org/1999/xlink">
<g id="graph0" class="graph" transform="scale(1 1) rotate(0) translate(4 562)">
<title>di_graph</title>
<polygon fill="white" stroke="transparent" points="-4,4 -4,-562 771,-562 771,4 -4,4"/>
<!-- 17 -->
<g id="node1" class="node">
<title>17</title>
<ellipse fill="none" stroke="black" cx="111" cy="-366" rx="27" ry="18"/>
<text text-anchor="middle" x="111" y="-362.3" font-family="Times,serif" font-size="14.00">17 0</text>
</g>
<!-- 15 -->
<g id="node6" class="node">
<title>15</title>
<ellipse fill="none" stroke="black" cx="101" cy="-279" rx="27" ry="18"/>
<text text-anchor="middle" x="101" y="-275.3" font-family="Times,serif" font-size="14.00">15 0</text>
</g>
<!-- 17&#45;&gt;15 -->
<g id="edge12" class="edge">
<title>17&#45;&gt;15</title>
<path fill="none" stroke="black" d="M108.98,-347.8C107.61,-336.16 105.77,-320.55 104.2,-307.24"/>
<polygon fill="black" stroke="black" points="107.67,-306.7 103.02,-297.18 100.71,-307.52 107.67,-306.7"/>
<text text-anchor="middle" x="113" y="-318.8" font-family="Times,serif" font-size="14.00">32</text>
</g>
<!-- 1 -->
<g id="node11" class="node">
<title>1</title>
<ellipse fill="none" stroke="black" cx="523" cy="-279" rx="27" ry="18"/>
<text text-anchor="middle" x="523" y="-275.3" font-family="Times,serif" font-size="14.00">1 0</text>
</g>
<!-- 17&#45;&gt;1 -->
<g id="edge13" class="edge">
<title>17&#45;&gt;1</title>
<path fill="none" stroke="black" d="M135.18,-357.96C146.1,-354.83 159.18,-351.15 171,-348 229.43,-332.42 243.42,-325.32 303,-315 383.53,-301.05 407.11,-318.35 486,-297 488.3,-296.38 490.64,-295.62 492.97,-294.78"/>
<polygon fill="black" stroke="black" points="494.39,-297.98 502.32,-290.96 491.74,-291.5 494.39,-297.98"/>
<text text-anchor="middle" x="310" y="-318.8" font-family="Times,serif" font-size="14.00">18</text>
</g>
<!-- 18 -->
<g id="node2" class="node">
<title>18</title>
<ellipse fill="none" stroke="black" cx="261" cy="-366" rx="27" ry="18"/>
<text text-anchor="middle" x="261" y="-362.3" font-family="Times,serif" font-size="14.00">18 0</text>
</g>
<!-- 0 -->
<g id="node3" class="node">
<title>0</title>
<ellipse fill="none" stroke="black" cx="124" cy="-192" rx="27" ry="18"/>
<text text-anchor="middle" x="124" y="-188.3" font-family="Times,serif" font-size="14.00">0 0</text>
</g>
<!-- 18&#45;&gt;0 -->
<g id="edge33" class="edge">
<title>18&#45;&gt;0</title>
<path fill="none" stroke="black" d="M255.59,-348.22C244.34,-313.65 218.73,-236.99 210,-228 205.97,-223.84 179.35,-213.32 156.79,-204.89"/>
<polygon fill="black" stroke="black" points="157.71,-201.5 147.12,-201.31 155.28,-208.07 157.71,-201.5"/>
<text text-anchor="middle" x="245" y="-275.3" font-family="Times,serif" font-size="14.00">18</text>
</g>
<!-- 18&#45;&gt;1 -->
<g id="edge32" class="edge">
<title>18&#45;&gt;1</title>
<path fill="none" stroke="black" d="M279.65,-352.82C298.4,-341.18 328.54,-324.1 357,-315 412.14,-297.37 430.44,-313.26 486,-297 488.29,-296.33 490.62,-295.54 492.94,-294.68"/>
<polygon fill="black" stroke="black" points="494.38,-297.87 502.28,-290.81 491.7,-291.4 494.38,-297.87"/>
<text text-anchor="middle" x="364" y="-318.8" font-family="Times,serif" font-size="14.00">19</text>
</g>
<!-- 16 -->
<g id="node16" class="node">
<title>16</title>
<ellipse fill="none" stroke="black" cx="340" cy="-105" rx="27" ry="18"/>
<text text-anchor="middle" x="340" y="-101.3" font-family="Times,serif" font-size="14.00">16 0</text>
</g>
<!-- 18&#45;&gt;16 -->
<g id="edge34" class="edge">
<title>18&#45;&gt;16</title>
<path fill="none" stroke="black" d="M261.91,-347.76C264.57,-308.9 274.51,-212.27 310,-141 312.25,-136.49 315.2,-132.08 318.38,-128"/>
<polygon fill="black" stroke="black" points="321.25,-130.03 325.07,-120.15 315.92,-125.49 321.25,-130.03"/>
<text text-anchor="middle" x="286" y="-231.8" font-family="Times,serif" font-size="14.00">34</text>
</g>
<!-- 7 -->
<g id="node19" class="node">
<title>7</title>
<ellipse fill="none" stroke="black" cx="69" cy="-18" rx="27" ry="18"/>
<text text-anchor="middle" x="69" y="-14.3" font-family="Times,serif" font-size="14.00">7 0</text>
</g>
<!-- 0&#45;&gt;7 -->
<g id="edge11" class="edge">
<title>0&#45;&gt;7</title>
<path fill="none" stroke="black" d="M118.63,-174.19C109.06,-144.27 88.99,-81.52 77.52,-45.65"/>
<polygon fill="black" stroke="black" points="80.78,-44.33 74.4,-35.87 74.11,-46.46 80.78,-44.33"/>
<text text-anchor="middle" x="104.5" y="-101.3" font-family="Times,serif" font-size="14.00">7</text>
</g>
<!-- 9 -->
<g id="node4" class="node">
<title>9</title>
<ellipse fill="none" stroke="black" cx="710" cy="-366" rx="27" ry="18"/>
<text text-anchor="middle" x="710" y="-362.3" font-family="Times,serif" font-size="14.00">9 0</text>
</g>
<!-- 3 -->
<g id="node8" class="node">
<title>3</title>
<ellipse fill="none" stroke="black" cx="207" cy="-192" rx="27" ry="18"/>
<text text-anchor="middle" x="207" y="-188.3" font-family="Times,serif" font-size="14.00">3 0</text>
</g>
<!-- 9&#45;&gt;3 -->
<g id="edge4" class="edge">
<title>9&#45;&gt;3</title>
<path fill="none" stroke="black" d="M694.66,-350.8C668.83,-327.78 614.08,-282.73 559,-261 501.49,-238.31 321.27,-209.89 243.42,-198.29"/>
<polygon fill="black" stroke="black" points="243.54,-194.77 233.13,-196.77 242.51,-201.7 243.54,-194.77"/>
<text text-anchor="middle" x="632" y="-275.3" font-family="Times,serif" font-size="14.00">12</text>
</g>
<!-- 4 -->
<g id="node10" class="node">
<title>4</title>
<ellipse fill="none" stroke="black" cx="703" cy="-279" rx="27" ry="18"/>
<text text-anchor="middle" x="703" y="-275.3" font-family="Times,serif" font-size="14.00">4 0</text>
</g>
<!-- 9&#45;&gt;4 -->
<g id="edge5" class="edge">
<title>9&#45;&gt;4</title>
<path fill="none" stroke="black" d="M708.65,-347.87C707.89,-338.22 706.91,-325.93 706,-315 705.79,-312.45 705.57,-309.79 705.34,-307.13"/>
<polygon fill="black" stroke="black" points="708.82,-306.75 704.48,-297.09 701.85,-307.35 708.82,-306.75"/>
<text text-anchor="middle" x="714" y="-318.8" font-family="Times,serif" font-size="14.00">13</text>
</g>
<!-- 9&#45;&gt;1 -->
<g id="edge3" class="edge">
<title>9&#45;&gt;1</title>
<path fill="none" stroke="black" d="M688.18,-355.08C655.11,-340.05 592.12,-311.42 554.2,-294.18"/>
<polygon fill="black" stroke="black" points="555.23,-290.81 544.68,-289.85 552.33,-297.18 555.23,-290.81"/>
<text text-anchor="middle" x="634" y="-318.8" font-family="Times,serif" font-size="14.00">10</text>
</g>
<!-- 10 -->
<g id="node5" class="node">
<title>10</title>
<ellipse fill="none" stroke="black" cx="393" cy="-192" rx="27" ry="18"/>
<text text-anchor="middle" x="393" y="-188.3" font-family="Times,serif" font-size="14.00">10 0</text>
</g>
<!-- 10&#45;&gt;16 -->
<g id="edge38" class="edge">
<title>10&#45;&gt;16</title>
<path fill="none" stroke="black" d="M383.03,-175.01C375.26,-162.55 364.33,-145.01 355.43,-130.74"/>
<polygon fill="black" stroke="black" points="358.19,-128.55 349.92,-121.92 352.25,-132.25 358.19,-128.55"/>
<text text-anchor="middle" x="376" y="-144.8" font-family="Times,serif" font-size="14.00">26</text>
</g>
<!-- 15&#45;&gt;0 -->
<g id="edge15" class="edge">
<title>15&#45;&gt;0</title>
<path fill="none" stroke="black" d="M96.3,-260.91C94.4,-251.05 93.4,-238.55 97,-228 98.49,-223.63 100.77,-219.39 103.38,-215.44"/>
<polygon fill="black" stroke="black" points="106.24,-217.47 109.47,-207.37 100.65,-213.25 106.24,-217.47"/>
<text text-anchor="middle" x="104" y="-231.8" font-family="Times,serif" font-size="14.00">15</text>
</g>
<!-- 15&#45;&gt;3 -->
<g id="edge16" class="edge">
<title>15&#45;&gt;3</title>
<path fill="none" stroke="black" d="M107.47,-261.38C112.33,-250.7 119.88,-237.16 130,-228 137.07,-221.6 156.8,-212.68 174.52,-205.44"/>
<polygon fill="black" stroke="black" points="176.08,-208.59 184.06,-201.63 173.48,-202.09 176.08,-208.59"/>
<text text-anchor="middle" x="137" y="-231.8" font-family="Times,serif" font-size="14.00">18</text>
</g>
<!-- 14 -->
<g id="node7" class="node">
<title>14</title>
<ellipse fill="none" stroke="black" cx="450" cy="-279" rx="27" ry="18"/>
<text text-anchor="middle" x="450" y="-275.3" font-family="Times,serif" font-size="14.00">14 0</text>
</g>
<!-- 2 -->
<g id="node9" class="node">
<title>2</title>
<ellipse fill="none" stroke="black" cx="595" cy="-366" rx="27" ry="18"/>
<text text-anchor="middle" x="595" y="-362.3" font-family="Times,serif" font-size="14.00">2 0</text>
</g>
<!-- 2&#45;&gt;1 -->
<g id="edge37" class="edge">
<title>2&#45;&gt;1</title>
<path fill="none" stroke="black" d="M582.13,-349.8C571.07,-336.75 554.96,-317.74 542.35,-302.85"/>
<polygon fill="black" stroke="black" points="544.89,-300.43 535.76,-295.06 539.55,-304.96 544.89,-300.43"/>
<text text-anchor="middle" x="566.5" y="-318.8" font-family="Times,serif" font-size="14.00">3</text>
</g>
<!-- 4&#45;&gt;16 -->
<g id="edge2" class="edge">
<title>4&#45;&gt;16</title>
<path fill="none" stroke="black" d="M681.65,-267.88C620.25,-238.79 443.03,-154.82 371,-120.69"/>
<polygon fill="black" stroke="black" points="372.09,-117.33 361.55,-116.21 369.09,-123.66 372.09,-117.33"/>
<text text-anchor="middle" x="564" y="-188.3" font-family="Times,serif" font-size="14.00">20</text>
</g>
<!-- 1&#45;&gt;10 -->
<g id="edge35" class="edge">
<title>1&#45;&gt;10</title>
<path fill="none" stroke="black" d="M504.37,-265.82C482.27,-251.37 445.23,-227.15 419.98,-210.64"/>
<polygon fill="black" stroke="black" points="421.88,-207.7 411.59,-205.16 418.05,-213.56 421.88,-207.7"/>
<text text-anchor="middle" x="472" y="-231.8" font-family="Times,serif" font-size="14.00">11</text>
</g>
<!-- 1&#45;&gt;16 -->
<g id="edge36" class="edge">
<title>1&#45;&gt;16</title>
<path fill="none" stroke="black" d="M511.17,-262.32C503.43,-252.28 492.93,-239.1 483,-228 444.6,-185.09 432.73,-175.99 387,-141 380.18,-135.78 372.75,-130.2 365.86,-125.07"/>
<polygon fill="black" stroke="black" points="367.61,-122.01 357.49,-118.86 363.43,-127.63 367.61,-122.01"/>
<text text-anchor="middle" x="472" y="-188.3" font-family="Times,serif" font-size="14.00">17</text>
</g>
<!-- 12 -->
<g id="node12" class="node">
<title>12</title>
<ellipse fill="none" stroke="black" cx="464" cy="-540" rx="27" ry="18"/>
<text text-anchor="middle" x="464" y="-536.3" font-family="Times,serif" font-size="14.00">12 0</text>
</g>
<!-- 11 -->
<g id="node17" class="node">
<title>11</title>
<ellipse fill="none" stroke="black" cx="499" cy="-453" rx="27" ry="18"/>
<text text-anchor="middle" x="499" y="-449.3" font-family="Times,serif" font-size="14.00">11 0</text>
</g>
<!-- 12&#45;&gt;11 -->
<g id="edge20" class="edge">
<title>12&#45;&gt;11</title>
<path fill="none" stroke="black" d="M470.91,-522.21C475.88,-510.14 482.68,-493.64 488.34,-479.89"/>
<polygon fill="black" stroke="black" points="491.65,-481.05 492.22,-470.47 485.17,-478.38 491.65,-481.05"/>
<text text-anchor="middle" x="490" y="-492.8" font-family="Times,serif" font-size="14.00">23</text>
</g>
<!-- 5 -->
<g id="node18" class="node">
<title>5</title>
<ellipse fill="none" stroke="black" cx="389" cy="-453" rx="27" ry="18"/>
<text text-anchor="middle" x="389" y="-449.3" font-family="Times,serif" font-size="14.00">5 0</text>
</g>
<!-- 12&#45;&gt;5 -->
<g id="edge21" class="edge">
<title>12&#45;&gt;5</title>
<path fill="none" stroke="black" d="M450.94,-524.19C439.39,-511.11 422.38,-491.83 409.1,-476.78"/>
<polygon fill="black" stroke="black" points="411.41,-474.1 402.17,-468.92 406.16,-478.74 411.41,-474.1"/>
<text text-anchor="middle" x="437" y="-492.8" font-family="Times,serif" font-size="14.00">17</text>
</g>
<!-- 12&#45;&gt;7 -->
<g id="edge19" class="edge">
<title>12&#45;&gt;7</title>
<path fill="none" stroke="black" d="M437.05,-536.94C338.02,-529.03 0,-498.74 0,-454 0,-454 0,-454 0,-104 0,-76.06 22.75,-52.18 42.13,-36.91"/>
<polygon fill="black" stroke="black" points="44.24,-39.7 50.15,-30.91 40.04,-34.1 44.24,-39.7"/>
<text text-anchor="middle" x="7" y="-275.3" font-family="Times,serif" font-size="14.00">19</text>
</g>
<!-- 13 -->
<g id="node13" class="node">
<title>13</title>
<ellipse fill="none" stroke="black" cx="173" cy="-279" rx="27" ry="18"/>
<text text-anchor="middle" x="173" y="-275.3" font-family="Times,serif" font-size="14.00">13 0</text>
</g>
<!-- 13&#45;&gt;0 -->
<g id="edge9" class="edge">
<title>13&#45;&gt;0</title>
<path fill="none" stroke="black" d="M165.45,-261.49C160.75,-251.59 154.4,-238.87 148,-228 145.81,-224.29 143.37,-220.44 140.91,-216.72"/>
<polygon fill="black" stroke="black" points="143.75,-214.67 135.22,-208.38 137.96,-218.62 143.75,-214.67"/>
<text text-anchor="middle" x="163" y="-231.8" font-family="Times,serif" font-size="14.00">13</text>
</g>
<!-- 13&#45;&gt;3 -->
<g id="edge10" class="edge">
<title>13&#45;&gt;3</title>
<path fill="none" stroke="black" d="M179.72,-261.21C184.54,-249.14 191.14,-232.64 196.64,-218.89"/>
<polygon fill="black" stroke="black" points="199.95,-220.05 200.41,-209.47 193.45,-217.45 199.95,-220.05"/>
<text text-anchor="middle" x="199" y="-231.8" font-family="Times,serif" font-size="14.00">16</text>
</g>
<!-- 6 -->
<g id="node14" class="node">
<title>6</title>
<ellipse fill="none" stroke="black" cx="523" cy="-366" rx="27" ry="18"/>
<text text-anchor="middle" x="523" y="-362.3" font-family="Times,serif" font-size="14.00">6 0</text>
</g>
<!-- 6&#45;&gt;14 -->
<g id="edge7" class="edge">
<title>6&#45;&gt;14</title>
<path fill="none" stroke="black" d="M509.95,-349.8C498.74,-336.75 482.41,-317.74 469.62,-302.85"/>
<polygon fill="black" stroke="black" points="472.11,-300.37 462.94,-295.06 466.8,-304.93 472.11,-300.37"/>
<text text-anchor="middle" x="497" y="-318.8" font-family="Times,serif" font-size="14.00">20</text>
</g>
<!-- 6&#45;&gt;1 -->
<g id="edge8" class="edge">
<title>6&#45;&gt;1</title>
<path fill="none" stroke="black" d="M523,-347.8C523,-336.16 523,-320.55 523,-307.24"/>
<polygon fill="black" stroke="black" points="526.5,-307.18 523,-297.18 519.5,-307.18 526.5,-307.18"/>
<text text-anchor="middle" x="526.5" y="-318.8" font-family="Times,serif" font-size="14.00">7</text>
</g>
<!-- 6&#45;&gt;12 -->
<g id="edge6" class="edge">
<title>6&#45;&gt;12</title>
<path fill="none" stroke="black" d="M529.83,-383.58C537.46,-404.73 547.25,-442.04 535,-471 526.25,-491.69 507.73,-509.08 491.79,-521.1"/>
<polygon fill="black" stroke="black" points="489.37,-518.53 483.29,-527.2 493.45,-524.21 489.37,-518.53"/>
<text text-anchor="middle" x="547" y="-449.3" font-family="Times,serif" font-size="14.00">18</text>
</g>
<!-- 8 -->
<g id="node15" class="node">
<title>8</title>
<ellipse fill="none" stroke="black" cx="715" cy="-540" rx="27" ry="18"/>
<text text-anchor="middle" x="715" y="-536.3" font-family="Times,serif" font-size="14.00">8 0</text>
</g>
<!-- 8&#45;&gt;9 -->
<g id="edge24" class="edge">
<title>8&#45;&gt;9</title>
<path fill="none" stroke="black" d="M700.15,-524.68C688.05,-511.9 671.9,-492.02 665,-471 660.01,-455.8 660.39,-450.32 665,-435 669.97,-418.48 680.41,-402.28 689.98,-389.83"/>
<polygon fill="black" stroke="black" points="692.85,-391.85 696.39,-381.86 687.4,-387.46 692.85,-391.85"/>
<text text-anchor="middle" x="672" y="-449.3" font-family="Times,serif" font-size="14.00">17</text>
</g>
<!-- 8&#45;&gt;4 -->
<g id="edge22" class="edge">
<title>8&#45;&gt;4</title>
<path fill="none" stroke="black" d="M726.1,-523.42C734.79,-510.18 746.2,-490.32 751,-471 756.88,-447.34 752.64,-368.69 746,-348 740.8,-331.79 730.8,-315.6 721.76,-303.09"/>
<polygon fill="black" stroke="black" points="724.53,-300.95 715.72,-295.06 718.93,-305.16 724.53,-300.95"/>
<text text-anchor="middle" x="760" y="-405.8" font-family="Times,serif" font-size="14.00">12</text>
</g>
<!-- 19 -->
<g id="node20" class="node">
<title>19</title>
<ellipse fill="none" stroke="black" cx="715" cy="-453" rx="27" ry="18"/>
<text text-anchor="middle" x="715" y="-449.3" font-family="Times,serif" font-size="14.00">19 0</text>
</g>
<!-- 8&#45;&gt;19 -->
<g id="edge23" class="edge">
<title>8&#45;&gt;19</title>
<path fill="none" stroke="black" d="M715,-521.8C715,-510.16 715,-494.55 715,-481.24"/>
<polygon fill="black" stroke="black" points="718.5,-481.18 715,-471.18 711.5,-481.18 718.5,-481.18"/>
<text text-anchor="middle" x="722" y="-492.8" font-family="Times,serif" font-size="14.00">27</text>
</g>
<!-- 16&#45;&gt;7 -->
<g id="edge14" class="edge">
<title>16&#45;&gt;7</title>
<path fill="none" stroke="black" d="M315.95,-96.46C267.54,-81.27 158.22,-46.98 102.71,-29.57"/>
<polygon fill="black" stroke="black" points="103.58,-26.18 93,-26.53 101.49,-32.86 103.58,-26.18"/>
<text text-anchor="middle" x="227" y="-57.8" font-family="Times,serif" font-size="14.00">23</text>
</g>
<!-- 11&#45;&gt;6 -->
<g id="edge18" class="edge">
<title>11&#45;&gt;6</title>
<path fill="none" stroke="black" d="M503.74,-435.21C507.09,-423.33 511.66,-407.17 515.5,-393.56"/>
<polygon fill="black" stroke="black" points="518.92,-394.33 518.27,-383.76 512.18,-392.43 518.92,-394.33"/>
<text text-anchor="middle" x="519" y="-405.8" font-family="Times,serif" font-size="14.00">17</text>
</g>
<!-- 5&#45;&gt;17 -->
<g id="edge25" class="edge">
<title>5&#45;&gt;17</title>
<path fill="none" stroke="black" d="M361.99,-452.74C318.33,-452.88 230.54,-448.74 165,-417 151.75,-410.58 139.49,-399.82 130.01,-389.92"/>
<polygon fill="black" stroke="black" points="132.36,-387.3 123.04,-382.26 127.19,-392.01 132.36,-387.3"/>
<text text-anchor="middle" x="172" y="-405.8" font-family="Times,serif" font-size="14.00">22</text>
</g>
<!-- 5&#45;&gt;10 -->
<g id="edge29" class="edge">
<title>5&#45;&gt;10</title>
<path fill="none" stroke="black" d="M389.27,-434.6C389.95,-390.46 391.75,-273.83 392.58,-220.42"/>
<polygon fill="black" stroke="black" points="396.08,-220.37 392.73,-210.32 389.08,-220.26 396.08,-220.37"/>
<text text-anchor="middle" x="398" y="-318.8" font-family="Times,serif" font-size="14.00">15</text>
</g>
<!-- 5&#45;&gt;14 -->
<g id="edge28" class="edge">
<title>5&#45;&gt;14</title>
<path fill="none" stroke="black" d="M394.96,-435.19C405.6,-405.19 427.94,-342.2 440.65,-306.38"/>
<polygon fill="black" stroke="black" points="444.06,-307.21 444.11,-296.62 437.46,-304.88 444.06,-307.21"/>
<text text-anchor="middle" x="432" y="-362.3" font-family="Times,serif" font-size="14.00">19</text>
</g>
<!-- 5&#45;&gt;4 -->
<g id="edge26" class="edge">
<title>5&#45;&gt;4</title>
<path fill="none" stroke="black" d="M414.11,-446.35C442.42,-439.84 489.76,-428.55 530,-417 575.39,-403.97 599.11,-418.83 631,-384 652.26,-360.78 628.71,-340.62 647,-315 653.2,-306.32 662.28,-299.33 671.34,-293.94"/>
<polygon fill="black" stroke="black" points="673.16,-296.94 680.28,-289.09 669.82,-290.79 673.16,-296.94"/>
<text text-anchor="middle" x="643.5" y="-362.3" font-family="Times,serif" font-size="14.00">9</text>
</g>
<!-- 5&#45;&gt;1 -->
<g id="edge31" class="edge">
<title>5&#45;&gt;1</title>
<path fill="none" stroke="black" d="M401.83,-436.77C406.92,-430.67 412.79,-423.54 418,-417 449.35,-377.67 484.72,-331.02 505.37,-303.56"/>
<polygon fill="black" stroke="black" points="508.33,-305.45 511.53,-295.35 502.73,-301.25 508.33,-305.45"/>
<text text-anchor="middle" x="474.5" y="-362.3" font-family="Times,serif" font-size="14.00">6</text>
</g>
<!-- 5&#45;&gt;13 -->
<g id="edge27" class="edge">
<title>5&#45;&gt;13</title>
<path fill="none" stroke="black" d="M362.62,-448.84C324.21,-442.89 252.91,-426.53 211,-384 190.41,-363.1 180.86,-330.16 176.51,-306.96"/>
<polygon fill="black" stroke="black" points="179.96,-306.35 174.86,-297.06 173.05,-307.5 179.96,-306.35"/>
<text text-anchor="middle" x="218" y="-362.3" font-family="Times,serif" font-size="14.00">18</text>
</g>
<!-- 5&#45;&gt;16 -->
<g id="edge30" class="edge">
<title>5&#45;&gt;16</title>
<path fill="none" stroke="black" d="M379.53,-435.72C366.89,-412.96 345.15,-369.93 337,-330 322.75,-260.24 330.42,-175.71 335.94,-133.2"/>
<polygon fill="black" stroke="black" points="339.43,-133.47 337.32,-123.09 332.5,-132.53 339.43,-133.47"/>
<text text-anchor="middle" x="338" y="-275.3" font-family="Times,serif" font-size="14.00">21</text>
</g>
<!-- 7&#45;&gt;17 -->
<g id="edge17" class="edge">
<title>7&#45;&gt;17</title>
<path fill="none" stroke="black" d="M61.72,-35.58C54.98,-52.45 46,-79.54 46,-104 46,-280 46,-280 46,-280 46,-306.9 66.8,-330.57 84.87,-346.05"/>
<polygon fill="black" stroke="black" points="82.93,-348.98 92.89,-352.57 87.34,-343.55 82.93,-348.98"/>
<text text-anchor="middle" x="53" y="-188.3" font-family="Times,serif" font-size="14.00">24</text>
</g>
<!-- 19&#45;&gt;9 -->
<g id="edge1" class="edge">
<title>19&#45;&gt;9</title>
<path fill="none" stroke="black" d="M713.99,-434.8C713.3,-423.16 712.39,-407.55 711.6,-394.24"/>
<polygon fill="black" stroke="black" points="715.09,-393.95 711.01,-384.18 708.1,-394.36 715.09,-393.95"/>
<text text-anchor="middle" x="719" y="-405.8" font-family="Times,serif" font-size="14.00">28</text>
</g>
</g>
</svg>
