<?xml version="1.0" encoding="UTF-8" standalone="no"?>
<!DOCTYPE svg PUBLIC "-//W3C//DTD SVG 1.1//EN"
 "http://www.w3.org/Graphics/SVG/1.1/DTD/svg11.dtd">
<!-- Generated by graphviz version 5.0.0 (0)
 -->
<!-- Title: di_graph Pages: 1 -->
<svg width="1032pt" height="1523pt"
 viewBox="0.00 0.00 1032.15 1523.00" xmlns="http://www.w3.org/2000/svg" xmlns:xlink="http://www.w3.org/1999/xlink">
<g id="graph0" class="graph" transform="scale(1 1) rotate(0) translate(4 1519)">
<title>di_graph</title>
<polygon fill="white" stroke="transparent" points="-4,4 -4,-1519 1028.15,-1519 1028.15,4 -4,4"/>
<!-- 5 -->
<g id="node1" class="node">
<title>5</title>
<ellipse fill="none" stroke="black" cx="364.15" cy="-1497" rx="27" ry="18"/>
<text text-anchor="middle" x="364.15" y="-1493.3" font-family="Times,serif" font-size="14.00">5 0</text>
</g>
<!-- 11 -->
<g id="node22" class="node">
<title>11</title>
<ellipse fill="none" stroke="black" cx="687.15" cy="-1410" rx="27" ry="18"/>
<text text-anchor="middle" x="687.15" y="-1406.3" font-family="Times,serif" font-size="14.00">11 0</text>
</g>
<!-- 5&#45;&gt;11 -->
<g id="edge68" class="edge">
<title>5&#45;&gt;11</title>
<path fill="none" stroke="black" d="M388.96,-1489.47C446.03,-1474.45 586.75,-1437.42 652.39,-1420.15"/>
<polygon fill="black" stroke="black" points="653.48,-1423.48 662.26,-1417.55 651.7,-1416.71 653.48,-1423.48"/>
<text text-anchor="middle" x="552.15" y="-1449.8" font-family="Times,serif" font-size="14.00">16</text>
</g>
<!-- 1 -->
<g id="node2" class="node">
<title>1</title>
<ellipse fill="none" stroke="black" cx="328.15" cy="-714" rx="27" ry="18"/>
<text text-anchor="middle" x="328.15" y="-710.3" font-family="Times,serif" font-size="14.00">1 0</text>
</g>
<!-- 0 -->
<g id="node13" class="node">
<title>0</title>
<ellipse fill="none" stroke="black" cx="424.15" cy="-1062" rx="27" ry="18"/>
<text text-anchor="middle" x="424.15" y="-1058.3" font-family="Times,serif" font-size="14.00">0 0</text>
</g>
<!-- 1&#45;&gt;0 -->
<g id="edge28" class="edge">
<title>1&#45;&gt;0</title>
<path fill="none" stroke="black" d="M328.15,-732.26C328.15,-749.43 328.15,-776.54 328.15,-800 328.15,-976 328.15,-976 328.15,-976 328.15,-1010.65 363.64,-1034.59 391.46,-1048.03"/>
<polygon fill="black" stroke="black" points="390.37,-1051.37 400.92,-1052.35 393.27,-1045.01 390.37,-1051.37"/>
<text text-anchor="middle" x="331.65" y="-884.3" font-family="Times,serif" font-size="14.00">1</text>
</g>
<!-- 8 -->
<g id="node24" class="node">
<title>8</title>
<ellipse fill="none" stroke="black" cx="421.15" cy="-627" rx="27" ry="18"/>
<text text-anchor="middle" x="421.15" y="-623.3" font-family="Times,serif" font-size="14.00">8 0</text>
</g>
<!-- 1&#45;&gt;8 -->
<g id="edge29" class="edge">
<title>1&#45;&gt;8</title>
<path fill="none" stroke="black" d="M343.51,-698.96C358.32,-685.43 380.93,-664.77 397.93,-649.22"/>
<polygon fill="black" stroke="black" points="400.75,-651.39 405.77,-642.06 396.03,-646.22 400.75,-651.39"/>
<text text-anchor="middle" x="384.65" y="-666.8" font-family="Times,serif" font-size="14.00">9</text>
</g>
<!-- 16 -->
<g id="node3" class="node">
<title>16</title>
<ellipse fill="none" stroke="black" cx="958.15" cy="-18" rx="27" ry="18"/>
<text text-anchor="middle" x="958.15" y="-14.3" font-family="Times,serif" font-size="14.00">16 0</text>
</g>
<!-- 19 -->
<g id="node4" class="node">
<title>19</title>
<ellipse fill="none" stroke="black" cx="604.15" cy="-1149" rx="27" ry="18"/>
<text text-anchor="middle" x="604.15" y="-1145.3" font-family="Times,serif" font-size="14.00">19 0</text>
</g>
<!-- 19&#45;&gt;0 -->
<g id="edge1" class="edge">
<title>19&#45;&gt;0</title>
<path fill="none" stroke="black" d="M582.8,-1137.92C551,-1122.9 491.05,-1094.59 454.64,-1077.4"/>
<polygon fill="black" stroke="black" points="456.02,-1074.18 445.48,-1073.07 453.03,-1080.51 456.02,-1074.18"/>
<text text-anchor="middle" x="532.15" y="-1101.8" font-family="Times,serif" font-size="14.00">19</text>
</g>
<!-- 20 -->
<g id="node14" class="node">
<title>20</title>
<ellipse fill="none" stroke="black" cx="559.15" cy="-888" rx="27" ry="18"/>
<text text-anchor="middle" x="559.15" y="-884.3" font-family="Times,serif" font-size="14.00">20 0</text>
</g>
<!-- 19&#45;&gt;20 -->
<g id="edge2" class="edge">
<title>19&#45;&gt;20</title>
<path fill="none" stroke="black" d="M601.2,-1131.01C593.57,-1087.1 573.16,-969.6 563.87,-916.15"/>
<polygon fill="black" stroke="black" points="567.28,-915.31 562.12,-906.06 560.38,-916.51 567.28,-915.31"/>
<text text-anchor="middle" x="590.15" y="-1014.8" font-family="Times,serif" font-size="14.00">39</text>
</g>
<!-- 29 -->
<g id="node5" class="node">
<title>29</title>
<ellipse fill="none" stroke="black" cx="366.15" cy="-540" rx="27" ry="18"/>
<text text-anchor="middle" x="366.15" y="-536.3" font-family="Times,serif" font-size="14.00">29 0</text>
</g>
<!-- 25 -->
<g id="node21" class="node">
<title>25</title>
<ellipse fill="none" stroke="black" cx="366.15" cy="-453" rx="27" ry="18"/>
<text text-anchor="middle" x="366.15" y="-449.3" font-family="Times,serif" font-size="14.00">25 0</text>
</g>
<!-- 29&#45;&gt;25 -->
<g id="edge27" class="edge">
<title>29&#45;&gt;25</title>
<path fill="none" stroke="black" d="M366.15,-521.8C366.15,-510.16 366.15,-494.55 366.15,-481.24"/>
<polygon fill="black" stroke="black" points="369.65,-481.18 366.15,-471.18 362.65,-481.18 369.65,-481.18"/>
<text text-anchor="middle" x="373.15" y="-492.8" font-family="Times,serif" font-size="14.00">54</text>
</g>
<!-- 23 -->
<g id="node6" class="node">
<title>23</title>
<ellipse fill="none" stroke="black" cx="624.15" cy="-1323" rx="27" ry="18"/>
<text text-anchor="middle" x="624.15" y="-1319.3" font-family="Times,serif" font-size="14.00">23 0</text>
</g>
<!-- 13 -->
<g id="node15" class="node">
<title>13</title>
<ellipse fill="none" stroke="black" cx="673.15" cy="-1236" rx="27" ry="18"/>
<text text-anchor="middle" x="673.15" y="-1232.3" font-family="Times,serif" font-size="14.00">13 0</text>
</g>
<!-- 23&#45;&gt;13 -->
<g id="edge20" class="edge">
<title>23&#45;&gt;13</title>
<path fill="none" stroke="black" d="M633.37,-1306.01C640.51,-1293.63 650.54,-1276.23 658.74,-1262.01"/>
<polygon fill="black" stroke="black" points="661.85,-1263.62 663.81,-1253.21 655.79,-1260.12 661.85,-1263.62"/>
<text text-anchor="middle" x="658.15" y="-1275.8" font-family="Times,serif" font-size="14.00">36</text>
</g>
<!-- 2 -->
<g id="node30" class="node">
<title>2</title>
<ellipse fill="none" stroke="black" cx="570.15" cy="-1236" rx="27" ry="18"/>
<text text-anchor="middle" x="570.15" y="-1232.3" font-family="Times,serif" font-size="14.00">2 0</text>
</g>
<!-- 23&#45;&gt;2 -->
<g id="edge19" class="edge">
<title>23&#45;&gt;2</title>
<path fill="none" stroke="black" d="M614,-1306.01C606.08,-1293.55 594.94,-1276.01 585.87,-1261.74"/>
<polygon fill="black" stroke="black" points="588.58,-1259.48 580.27,-1252.92 582.67,-1263.23 588.58,-1259.48"/>
<text text-anchor="middle" x="608.15" y="-1275.8" font-family="Times,serif" font-size="14.00">25</text>
</g>
<!-- 9 -->
<g id="node7" class="node">
<title>9</title>
<ellipse fill="none" stroke="black" cx="142.15" cy="-714" rx="27" ry="18"/>
<text text-anchor="middle" x="142.15" y="-710.3" font-family="Times,serif" font-size="14.00">9 0</text>
</g>
<!-- 9&#45;&gt;2 -->
<g id="edge13" class="edge">
<title>9&#45;&gt;2</title>
<path fill="none" stroke="black" d="M137.74,-731.92C126.23,-777.62 96.15,-907.54 96.15,-1017.5 96.15,-1150 96.15,-1150 96.15,-1150 96.15,-1194.34 421.7,-1223.57 533.21,-1232.28"/>
<polygon fill="black" stroke="black" points="533.07,-1235.78 543.31,-1233.06 533.61,-1228.8 533.07,-1235.78"/>
<text text-anchor="middle" x="106.15" y="-971.3" font-family="Times,serif" font-size="14.00">11</text>
</g>
<!-- 17 -->
<g id="node8" class="node">
<title>17</title>
<ellipse fill="none" stroke="black" cx="514.15" cy="-714" rx="27" ry="18"/>
<text text-anchor="middle" x="514.15" y="-710.3" font-family="Times,serif" font-size="14.00">17 0</text>
</g>
<!-- 17&#45;&gt;8 -->
<g id="edge57" class="edge">
<title>17&#45;&gt;8</title>
<path fill="none" stroke="black" d="M498.8,-698.96C483.99,-685.43 461.38,-664.77 444.37,-649.22"/>
<polygon fill="black" stroke="black" points="446.28,-646.22 436.53,-642.06 441.55,-651.39 446.28,-646.22"/>
<text text-anchor="middle" x="481.15" y="-666.8" font-family="Times,serif" font-size="14.00">25</text>
</g>
<!-- 27 -->
<g id="node29" class="node">
<title>27</title>
<ellipse fill="none" stroke="black" cx="660.15" cy="-105" rx="27" ry="18"/>
<text text-anchor="middle" x="660.15" y="-101.3" font-family="Times,serif" font-size="14.00">27 0</text>
</g>
<!-- 17&#45;&gt;27 -->
<g id="edge56" class="edge">
<title>17&#45;&gt;27</title>
<path fill="none" stroke="black" d="M520.8,-696.37C526.95,-679.44 535.15,-652.32 535.15,-628 535.15,-628 535.15,-628 535.15,-365 535.15,-341.92 531.54,-335.61 521.15,-315 516.59,-305.95 510.44,-306.59 507.15,-297 501.96,-281.87 501.21,-275.85 507.15,-261 531.97,-199.03 595.32,-148.82 632.26,-123.62"/>
<polygon fill="black" stroke="black" points="634.66,-126.22 641.04,-117.76 630.78,-120.4 634.66,-126.22"/>
<text text-anchor="middle" x="542.15" y="-405.8" font-family="Times,serif" font-size="14.00">44</text>
</g>
<!-- 18 -->
<g id="node9" class="node">
<title>18</title>
<ellipse fill="none" stroke="black" cx="473.15" cy="-366" rx="27" ry="18"/>
<text text-anchor="middle" x="473.15" y="-362.3" font-family="Times,serif" font-size="14.00">18 0</text>
</g>
<!-- 18&#45;&gt;0 -->
<g id="edge60" class="edge">
<title>18&#45;&gt;0</title>
<path fill="none" stroke="black" d="M483.95,-382.82C501.69,-409.88 536.33,-467.44 549.15,-522 609.44,-778.54 562.92,-711.05 550.15,-732 533.5,-759.33 515.71,-752.73 486.15,-765 462.01,-775.02 445.78,-762.04 430.15,-783 426.44,-787.98 424.82,-964.92 424.33,-1033.88"/>
<polygon fill="black" stroke="black" points="420.83,-1033.95 424.26,-1043.98 427.83,-1034 420.83,-1033.95"/>
<text text-anchor="middle" x="587.15" y="-710.3" font-family="Times,serif" font-size="14.00">18</text>
</g>
<!-- 3 -->
<g id="node17" class="node">
<title>3</title>
<ellipse fill="none" stroke="black" cx="833.15" cy="-192" rx="27" ry="18"/>
<text text-anchor="middle" x="833.15" y="-188.3" font-family="Times,serif" font-size="14.00">3 0</text>
</g>
<!-- 18&#45;&gt;3 -->
<g id="edge62" class="edge">
<title>18&#45;&gt;3</title>
<path fill="none" stroke="black" d="M481.46,-348.5C495.02,-322.19 522.03,-272.5 538.15,-261 579.57,-231.47 727.01,-207.72 796.46,-197.89"/>
<polygon fill="black" stroke="black" points="797.1,-201.34 806.52,-196.49 796.13,-194.4 797.1,-201.34"/>
<text text-anchor="middle" x="545.15" y="-275.3" font-family="Times,serif" font-size="14.00">21</text>
</g>
<!-- 26 -->
<g id="node19" class="node">
<title>26</title>
<ellipse fill="none" stroke="black" cx="886.15" cy="-279" rx="27" ry="18"/>
<text text-anchor="middle" x="886.15" y="-275.3" font-family="Times,serif" font-size="14.00">26 0</text>
</g>
<!-- 18&#45;&gt;26 -->
<g id="edge59" class="edge">
<title>18&#45;&gt;26</title>
<path fill="none" stroke="black" d="M498.68,-359.75C569.54,-345.16 768.82,-304.15 850.53,-287.33"/>
<polygon fill="black" stroke="black" points="851.71,-290.66 860.8,-285.22 850.3,-283.81 851.71,-290.66"/>
<text text-anchor="middle" x="711.15" y="-318.8" font-family="Times,serif" font-size="14.00">44</text>
</g>
<!-- 28 -->
<g id="node20" class="node">
<title>28</title>
<ellipse fill="none" stroke="black" cx="588.15" cy="-279" rx="27" ry="18"/>
<text text-anchor="middle" x="588.15" y="-275.3" font-family="Times,serif" font-size="14.00">28 0</text>
</g>
<!-- 18&#45;&gt;28 -->
<g id="edge58" class="edge">
<title>18&#45;&gt;28</title>
<path fill="none" stroke="black" d="M489.07,-351.13C501.16,-340.8 518.34,-326.55 534.15,-315 542.46,-308.94 551.77,-302.71 560.29,-297.22"/>
<polygon fill="black" stroke="black" points="562.25,-300.12 568.81,-291.8 558.49,-294.21 562.25,-300.12"/>
<text text-anchor="middle" x="541.15" y="-318.8" font-family="Times,serif" font-size="14.00">46</text>
</g>
<!-- 6 -->
<g id="node28" class="node">
<title>6</title>
<ellipse fill="none" stroke="black" cx="196.15" cy="-279" rx="27" ry="18"/>
<text text-anchor="middle" x="196.15" y="-275.3" font-family="Times,serif" font-size="14.00">6 0</text>
</g>
<!-- 18&#45;&gt;6 -->
<g id="edge61" class="edge">
<title>18&#45;&gt;6</title>
<path fill="none" stroke="black" d="M449.06,-357.61C399.64,-342.44 286.7,-307.78 229.98,-290.38"/>
<polygon fill="black" stroke="black" points="230.98,-287.03 220.39,-287.44 228.93,-293.72 230.98,-287.03"/>
<text text-anchor="middle" x="359.15" y="-318.8" font-family="Times,serif" font-size="14.00">24</text>
</g>
<!-- 14 -->
<g id="node10" class="node">
<title>14</title>
<ellipse fill="none" stroke="black" cx="678.15" cy="-801" rx="27" ry="18"/>
<text text-anchor="middle" x="678.15" y="-797.3" font-family="Times,serif" font-size="14.00">14 0</text>
</g>
<!-- 14&#45;&gt;11 -->
<g id="edge67" class="edge">
<title>14&#45;&gt;11</title>
<path fill="none" stroke="black" d="M679.34,-819.38C681.25,-845.46 685.49,-896.24 692.15,-939 706.78,-1032.79 736.15,-1053.07 736.15,-1148 736.15,-1324 736.15,-1324 736.15,-1324 736.15,-1347.79 721.57,-1370.92 708.32,-1387.03"/>
<polygon fill="black" stroke="black" points="705.5,-1384.93 701.59,-1394.78 710.79,-1389.52 705.5,-1384.93"/>
<text text-anchor="middle" x="741.15" y="-1101.8" font-family="Times,serif" font-size="14.00">25</text>
</g>
<!-- 4 -->
<g id="node23" class="node">
<title>4</title>
<ellipse fill="none" stroke="black" cx="726.15" cy="-714" rx="27" ry="18"/>
<text text-anchor="middle" x="726.15" y="-710.3" font-family="Times,serif" font-size="14.00">4 0</text>
</g>
<!-- 14&#45;&gt;4 -->
<g id="edge65" class="edge">
<title>14&#45;&gt;4</title>
<path fill="none" stroke="black" d="M686.72,-783.68C691.94,-773.86 698.81,-761.14 705.15,-750 707.05,-746.66 709.09,-743.17 711.12,-739.74"/>
<polygon fill="black" stroke="black" points="714.25,-741.32 716.38,-730.94 708.25,-737.73 714.25,-741.32"/>
<text text-anchor="middle" x="712.15" y="-753.8" font-family="Times,serif" font-size="14.00">18</text>
</g>
<!-- 10 -->
<g id="node25" class="node">
<title>10</title>
<ellipse fill="none" stroke="black" cx="844.15" cy="-18" rx="27" ry="18"/>
<text text-anchor="middle" x="844.15" y="-14.3" font-family="Times,serif" font-size="14.00">10 0</text>
</g>
<!-- 14&#45;&gt;10 -->
<g id="edge66" class="edge">
<title>14&#45;&gt;10</title>
<path fill="none" stroke="black" d="M675.9,-782.78C673.85,-765.63 671.15,-738.54 671.15,-715 671.15,-715 671.15,-715 671.15,-495.5 671.15,-312.26 785.59,-111.89 828.32,-43.46"/>
<polygon fill="black" stroke="black" points="831.47,-45.02 833.85,-34.7 825.55,-41.29 831.47,-45.02"/>
<text text-anchor="middle" x="686.15" y="-405.8" font-family="Times,serif" font-size="14.00">24</text>
</g>
<!-- 22 -->
<g id="node11" class="node">
<title>22</title>
<ellipse fill="none" stroke="black" cx="383.15" cy="-975" rx="27" ry="18"/>
<text text-anchor="middle" x="383.15" y="-971.3" font-family="Times,serif" font-size="14.00">22 0</text>
</g>
<!-- 22&#45;&gt;29 -->
<g id="edge18" class="edge">
<title>22&#45;&gt;29</title>
<path fill="none" stroke="black" d="M382.48,-956.76C379.87,-890.22 370.43,-649.84 367.23,-568.28"/>
<polygon fill="black" stroke="black" points="370.72,-568.15 366.83,-558.29 363.73,-568.42 370.72,-568.15"/>
<text text-anchor="middle" x="382.15" y="-753.8" font-family="Times,serif" font-size="14.00">51</text>
</g>
<!-- 24 -->
<g id="node18" class="node">
<title>24</title>
<ellipse fill="none" stroke="black" cx="265.15" cy="-888" rx="27" ry="18"/>
<text text-anchor="middle" x="265.15" y="-884.3" font-family="Times,serif" font-size="14.00">24 0</text>
</g>
<!-- 22&#45;&gt;24 -->
<g id="edge16" class="edge">
<title>22&#45;&gt;24</title>
<path fill="none" stroke="black" d="M365.49,-961.27C345.76,-947.07 313.65,-923.93 291.08,-907.67"/>
<polygon fill="black" stroke="black" points="293.1,-904.82 282.94,-901.81 289.01,-910.5 293.1,-904.82"/>
<text text-anchor="middle" x="339.15" y="-927.8" font-family="Times,serif" font-size="14.00">46</text>
</g>
<!-- 22&#45;&gt;4 -->
<g id="edge17" class="edge">
<title>22&#45;&gt;4</title>
<path fill="none" stroke="black" d="M400.64,-960.8C456.95,-918.28 633.8,-784.74 700.42,-734.43"/>
<polygon fill="black" stroke="black" points="702.84,-736.99 708.71,-728.17 698.62,-731.41 702.84,-736.99"/>
<text text-anchor="middle" x="570.15" y="-840.8" font-family="Times,serif" font-size="14.00">26</text>
</g>
<!-- 7 -->
<g id="node12" class="node">
<title>7</title>
<ellipse fill="none" stroke="black" cx="265.15" cy="-801" rx="27" ry="18"/>
<text text-anchor="middle" x="265.15" y="-797.3" font-family="Times,serif" font-size="14.00">7 0</text>
</g>
<!-- 7&#45;&gt;1 -->
<g id="edge7" class="edge">
<title>7&#45;&gt;1</title>
<path fill="none" stroke="black" d="M276.71,-784.41C286.21,-771.59 299.83,-753.22 310.66,-738.6"/>
<polygon fill="black" stroke="black" points="313.53,-740.61 316.67,-730.49 307.91,-736.44 313.53,-740.61"/>
<text text-anchor="middle" x="304.65" y="-753.8" font-family="Times,serif" font-size="14.00">8</text>
</g>
<!-- 7&#45;&gt;29 -->
<g id="edge9" class="edge">
<title>7&#45;&gt;29</title>
<path fill="none" stroke="black" d="M268.49,-783.13C272.85,-762.3 281.22,-725.97 292.15,-696 309.39,-648.73 336.06,-596.43 352.23,-566.27"/>
<polygon fill="black" stroke="black" points="355.41,-567.75 357.09,-557.29 349.25,-564.42 355.41,-567.75"/>
<text text-anchor="middle" x="312.15" y="-666.8" font-family="Times,serif" font-size="14.00">36</text>
</g>
<!-- 7&#45;&gt;9 -->
<g id="edge10" class="edge">
<title>7&#45;&gt;9</title>
<path fill="none" stroke="black" d="M245.21,-788.71C233.86,-782.1 219.49,-773.43 207.15,-765 193.44,-755.63 178.72,-744.41 166.77,-734.98"/>
<polygon fill="black" stroke="black" points="168.61,-731.97 158.6,-728.48 164.25,-737.45 168.61,-731.97"/>
<text text-anchor="middle" x="214.15" y="-753.8" font-family="Times,serif" font-size="14.00">16</text>
</g>
<!-- 7&#45;&gt;11 -->
<g id="edge6" class="edge">
<title>7&#45;&gt;11</title>
<path fill="none" stroke="black" d="M248.4,-815.31C233.32,-828.02 211.4,-848.4 197.15,-870 158.29,-928.94 138.15,-946.89 138.15,-1017.5 138.15,-1324 138.15,-1324 138.15,-1324 138.15,-1375.95 527.08,-1400.67 650.23,-1407.19"/>
<polygon fill="black" stroke="black" points="650.13,-1410.69 660.3,-1407.71 650.5,-1403.7 650.13,-1410.69"/>
<text text-anchor="middle" x="145.15" y="-1101.8" font-family="Times,serif" font-size="14.00">18</text>
</g>
<!-- 7&#45;&gt;27 -->
<g id="edge8" class="edge">
<title>7&#45;&gt;27</title>
<path fill="none" stroke="black" d="M255.83,-783.98C247.02,-767.32 235.15,-740.2 235.15,-715 235.15,-715 235.15,-715 235.15,-582.5 235.15,-503.4 217.42,-289.51 267.15,-228 356.24,-117.81 543.2,-105.13 622.89,-105.01"/>
<polygon fill="black" stroke="black" points="622.94,-108.51 632.95,-105.06 622.97,-101.51 622.94,-108.51"/>
<text text-anchor="middle" x="240.15" y="-449.3" font-family="Times,serif" font-size="14.00">34</text>
</g>
<!-- 0&#45;&gt;9 -->
<g id="edge53" class="edge">
<title>0&#45;&gt;9</title>
<path fill="none" stroke="black" d="M399.84,-1054.11C381.85,-1048.32 357.25,-1038.91 338.15,-1026 276.7,-984.46 264.56,-966.86 222.15,-906 185.24,-853.02 160.74,-780.36 149.41,-741.72"/>
<polygon fill="black" stroke="black" points="152.68,-740.42 146.57,-731.76 145.95,-742.34 152.68,-740.42"/>
<text text-anchor="middle" x="225.65" y="-884.3" font-family="Times,serif" font-size="14.00">9</text>
</g>
<!-- 0&#45;&gt;22 -->
<g id="edge55" class="edge">
<title>0&#45;&gt;22</title>
<path fill="none" stroke="black" d="M416.25,-1044.61C410.35,-1032.38 402.18,-1015.44 395.43,-1001.46"/>
<polygon fill="black" stroke="black" points="398.53,-999.82 391.04,-992.34 392.23,-1002.87 398.53,-999.82"/>
<text text-anchor="middle" x="413.15" y="-1014.8" font-family="Times,serif" font-size="14.00">22</text>
</g>
<!-- 12 -->
<g id="node26" class="node">
<title>12</title>
<ellipse fill="none" stroke="black" cx="626.15" cy="-192" rx="27" ry="18"/>
<text text-anchor="middle" x="626.15" y="-188.3" font-family="Times,serif" font-size="14.00">12 0</text>
</g>
<!-- 0&#45;&gt;12 -->
<g id="edge54" class="edge">
<title>0&#45;&gt;12</title>
<path fill="none" stroke="black" d="M432.14,-1044.71C448.52,-1011.48 487.41,-933.67 523.15,-870 531.55,-855.05 531.19,-849.29 543.15,-837 553.48,-826.4 562.12,-830.71 571.15,-819 613.26,-764.41 619.15,-740.44 619.15,-671.5 619.15,-671.5 619.15,-671.5 619.15,-452 619.15,-397.6 626.93,-384.36 629.15,-330 629.43,-323.34 629.24,-321.67 629.15,-315 628.76,-282.52 627.76,-245.19 627.02,-220.46"/>
<polygon fill="black" stroke="black" points="630.52,-220.26 626.72,-210.37 623.52,-220.47 630.52,-220.26"/>
<text text-anchor="middle" x="626.15" y="-623.3" font-family="Times,serif" font-size="14.00">12</text>
</g>
<!-- 21 -->
<g id="node27" class="node">
<title>21</title>
<ellipse fill="none" stroke="black" cx="660.15" cy="-18" rx="27" ry="18"/>
<text text-anchor="middle" x="660.15" y="-14.3" font-family="Times,serif" font-size="14.00">21 0</text>
</g>
<!-- 0&#45;&gt;21 -->
<g id="edge51" class="edge">
<title>0&#45;&gt;21</title>
<path fill="none" stroke="black" d="M398.32,-1056.5C362.44,-1049.04 297.28,-1031.02 256.15,-993 124.32,-871.15 83.15,-807.52 83.15,-628 83.15,-628 83.15,-628 83.15,-104 83.15,-49.22 495.51,-26.31 623.03,-20.54"/>
<polygon fill="black" stroke="black" points="623.26,-24.03 633.1,-20.09 622.95,-17.04 623.26,-24.03"/>
<text text-anchor="middle" x="90.15" y="-536.3" font-family="Times,serif" font-size="14.00">21</text>
</g>
<!-- 0&#45;&gt;2 -->
<g id="edge52" class="edge">
<title>0&#45;&gt;2</title>
<path fill="none" stroke="black" d="M433.29,-1079.03C449.11,-1105.96 483.66,-1161.16 522.15,-1200 528.18,-1206.08 535.34,-1211.89 542.27,-1216.98"/>
<polygon fill="black" stroke="black" points="540.62,-1220.1 550.82,-1222.99 544.65,-1214.37 540.62,-1220.1"/>
<text text-anchor="middle" x="495.65" y="-1145.3" font-family="Times,serif" font-size="14.00">2</text>
</g>
<!-- 20&#45;&gt;1 -->
<g id="edge48" class="edge">
<title>20&#45;&gt;1</title>
<path fill="none" stroke="black" d="M541.09,-874.3C522.56,-861.07 493.16,-839.45 469.15,-819 435.41,-790.26 433.31,-775.64 397.15,-750 385.66,-741.85 371.99,-734.5 359.86,-728.66"/>
<polygon fill="black" stroke="black" points="361.08,-725.37 350.54,-724.32 358.13,-731.71 361.08,-725.37"/>
<text text-anchor="middle" x="476.15" y="-797.3" font-family="Times,serif" font-size="14.00">21</text>
</g>
<!-- 20&#45;&gt;14 -->
<g id="edge47" class="edge">
<title>20&#45;&gt;14</title>
<path fill="none" stroke="black" d="M576.97,-874.27C596.86,-860.07 629.25,-836.93 652.01,-820.67"/>
<polygon fill="black" stroke="black" points="654.11,-823.47 660.22,-814.81 650.05,-817.78 654.11,-823.47"/>
<text text-anchor="middle" x="633.15" y="-840.8" font-family="Times,serif" font-size="14.00">34</text>
</g>
<!-- 20&#45;&gt;7 -->
<g id="edge50" class="edge">
<title>20&#45;&gt;7</title>
<path fill="none" stroke="black" d="M534.26,-880.72C507.66,-873.93 464.3,-862.65 427.15,-852 382.6,-839.22 331.57,-823.25 298.88,-812.84"/>
<polygon fill="black" stroke="black" points="299.54,-809.38 288.95,-809.67 297.41,-816.05 299.54,-809.38"/>
<text text-anchor="middle" x="434.15" y="-840.8" font-family="Times,serif" font-size="14.00">27</text>
</g>
<!-- 20&#45;&gt;8 -->
<g id="edge49" class="edge">
<title>20&#45;&gt;8</title>
<path fill="none" stroke="black" d="M547.87,-871.46C533.07,-851.1 506.26,-814.31 483.15,-783 466.37,-760.26 457.03,-757.65 445.15,-732 433.77,-707.4 427.56,-676.96 424.33,-655.38"/>
<polygon fill="black" stroke="black" points="427.77,-654.7 422.93,-645.27 420.83,-655.66 427.77,-654.7"/>
<text text-anchor="middle" x="475.15" y="-753.8" font-family="Times,serif" font-size="14.00">28</text>
</g>
<!-- 13&#45;&gt;11 -->
<g id="edge14" class="edge">
<title>13&#45;&gt;11</title>
<path fill="none" stroke="black" d="M674.54,-1254.05C676.97,-1283.88 682.01,-1345.76 684.93,-1381.64"/>
<polygon fill="black" stroke="black" points="681.46,-1382.2 685.76,-1391.88 688.44,-1381.63 681.46,-1382.2"/>
<text text-anchor="middle" x="688.15" y="-1319.3" font-family="Times,serif" font-size="14.00">24</text>
</g>
<!-- 15 -->
<g id="node16" class="node">
<title>15</title>
<ellipse fill="none" stroke="black" cx="871.15" cy="-975" rx="27" ry="18"/>
<text text-anchor="middle" x="871.15" y="-971.3" font-family="Times,serif" font-size="14.00">15 0</text>
</g>
<!-- 15&#45;&gt;16 -->
<g id="edge30" class="edge">
<title>15&#45;&gt;16</title>
<path fill="none" stroke="black" d="M875.58,-957.2C879.69,-940.15 885.15,-912.93 885.15,-889 885.15,-889 885.15,-889 885.15,-756.5 885.15,-690.22 891.95,-673.51 907.15,-609 937.77,-479.11 1000.15,-456.95 1000.15,-323.5 1000.15,-323.5 1000.15,-323.5 1000.15,-104 1000.15,-81.5 988.18,-58.8 977.02,-42.52"/>
<polygon fill="black" stroke="black" points="979.68,-40.23 970.98,-34.18 974.01,-44.33 979.68,-40.23"/>
<text text-anchor="middle" x="960.15" y="-492.8" font-family="Times,serif" font-size="14.00">31</text>
</g>
<!-- 15&#45;&gt;20 -->
<g id="edge32" class="edge">
<title>15&#45;&gt;20</title>
<path fill="none" stroke="black" d="M849.06,-964.57C822.62,-953.59 776.81,-935.47 736.15,-924 688.14,-910.45 631.35,-900.22 595.3,-894.41"/>
<polygon fill="black" stroke="black" points="595.68,-890.93 585.26,-892.82 594.59,-897.84 595.68,-890.93"/>
<text text-anchor="middle" x="788.15" y="-927.8" font-family="Times,serif" font-size="14.00">35</text>
</g>
<!-- 15&#45;&gt;27 -->
<g id="edge31" class="edge">
<title>15&#45;&gt;27</title>
<path fill="none" stroke="black" d="M867.27,-956.87C855.41,-904.64 818.48,-742.76 786.15,-609 742.11,-426.76 686.34,-208.15 667.07,-132.94"/>
<polygon fill="black" stroke="black" points="670.37,-131.73 664.5,-122.91 663.59,-133.47 670.37,-131.73"/>
<text text-anchor="middle" x="780.15" y="-536.3" font-family="Times,serif" font-size="14.00">42</text>
</g>
<!-- 3&#45;&gt;16 -->
<g id="edge64" class="edge">
<title>3&#45;&gt;16</title>
<path fill="none" stroke="black" d="M856.76,-183.05C870.62,-177.36 887.64,-168.49 899.15,-156 928.36,-124.32 944.53,-75.95 952.26,-45.97"/>
<polygon fill="black" stroke="black" points="955.68,-46.73 954.66,-36.19 948.88,-45.07 955.68,-46.73"/>
<text text-anchor="middle" x="945.15" y="-101.3" font-family="Times,serif" font-size="14.00">19</text>
</g>
<!-- 24&#45;&gt;7 -->
<g id="edge22" class="edge">
<title>24&#45;&gt;7</title>
<path fill="none" stroke="black" d="M265.15,-869.8C265.15,-858.16 265.15,-842.55 265.15,-829.24"/>
<polygon fill="black" stroke="black" points="268.65,-829.18 265.15,-819.18 261.65,-829.18 268.65,-829.18"/>
<text text-anchor="middle" x="272.15" y="-840.8" font-family="Times,serif" font-size="14.00">31</text>
</g>
<!-- 24&#45;&gt;6 -->
<g id="edge21" class="edge">
<title>24&#45;&gt;6</title>
<path fill="none" stroke="black" d="M255.12,-871.09C247.06,-857.66 235.98,-837.69 229.15,-819 206.14,-755.99 197.15,-738.58 197.15,-671.5 197.15,-671.5 197.15,-671.5 197.15,-365 197.15,-345.75 196.89,-324.05 196.64,-307.4"/>
<polygon fill="black" stroke="black" points="200.14,-307.2 196.48,-297.26 193.14,-307.31 200.14,-307.2"/>
<text text-anchor="middle" x="204.15" y="-579.8" font-family="Times,serif" font-size="14.00">30</text>
</g>
<!-- 26&#45;&gt;5 -->
<g id="edge44" class="edge">
<title>26&#45;&gt;5</title>
<path fill="none" stroke="black" d="M894.57,-296.43C897.28,-302.19 900.11,-308.78 902.15,-315 902.81,-316.98 963.77,-606.95 964.15,-609 987.3,-732.08 1010.15,-761.76 1010.15,-887 1010.15,-1411 1010.15,-1411 1010.15,-1411 1010.15,-1472.88 538.26,-1491.07 401.11,-1495.06"/>
<polygon fill="black" stroke="black" points="400.99,-1491.56 391.09,-1495.34 401.18,-1498.56 400.99,-1491.56"/>
<text text-anchor="middle" x="1017.15" y="-884.3" font-family="Times,serif" font-size="14.00">31</text>
</g>
<!-- 26&#45;&gt;3 -->
<g id="edge46" class="edge">
<title>26&#45;&gt;3</title>
<path fill="none" stroke="black" d="M876.19,-262.01C868.41,-249.55 857.48,-232.01 848.58,-217.74"/>
<polygon fill="black" stroke="black" points="851.34,-215.55 843.08,-208.92 845.4,-219.25 851.34,-215.55"/>
<text text-anchor="middle" x="869.15" y="-231.8" font-family="Times,serif" font-size="14.00">29</text>
</g>
<!-- 26&#45;&gt;11 -->
<g id="edge45" class="edge">
<title>26&#45;&gt;11</title>
<path fill="none" stroke="black" d="M886.93,-297.06C888.92,-334.78 895.25,-427.95 912.15,-504 922.82,-552.02 938,-560.67 947.15,-609 973.8,-749.59 964.15,-787.41 964.15,-930.5 964.15,-1324 964.15,-1324 964.15,-1324 964.15,-1373.73 798.95,-1397.34 723.71,-1405.52"/>
<polygon fill="black" stroke="black" points="723.29,-1402.04 713.71,-1406.57 724.03,-1409.01 723.29,-1402.04"/>
<text text-anchor="middle" x="972.15" y="-840.8" font-family="Times,serif" font-size="14.00">37</text>
</g>
<!-- 26&#45;&gt;12 -->
<g id="edge42" class="edge">
<title>26&#45;&gt;12</title>
<path fill="none" stroke="black" d="M862.16,-270.16C815.63,-254.94 713.03,-221.4 659.75,-203.98"/>
<polygon fill="black" stroke="black" points="660.68,-200.61 650.09,-200.83 658.51,-207.26 660.68,-200.61"/>
<text text-anchor="middle" x="778.15" y="-231.8" font-family="Times,serif" font-size="14.00">38</text>
</g>
<!-- 26&#45;&gt;21 -->
<g id="edge43" class="edge">
<title>26&#45;&gt;21</title>
<path fill="none" stroke="black" d="M886.21,-260.95C885.65,-239.62 882.6,-202.45 869.15,-174 839.38,-110.97 825.99,-92.92 768.15,-54 746.56,-39.47 718.49,-30.61 696.39,-25.45"/>
<polygon fill="black" stroke="black" points="696.9,-21.98 686.38,-23.26 695.41,-28.82 696.9,-21.98"/>
<text text-anchor="middle" x="866.15" y="-144.8" font-family="Times,serif" font-size="14.00">47</text>
</g>
<!-- 28&#45;&gt;19 -->
<g id="edge26" class="edge">
<title>28&#45;&gt;19</title>
<path fill="none" stroke="black" d="M597.76,-296.13C629.02,-348.91 727.01,-516.53 746.15,-576 762.64,-627.22 758.59,-642.31 762.15,-696 773.78,-871.22 747.05,-922.62 669.15,-1080 661.44,-1095.58 659.78,-1100.08 648.15,-1113 642.95,-1118.79 636.71,-1124.36 630.6,-1129.3"/>
<polygon fill="black" stroke="black" points="628.22,-1126.72 622.44,-1135.6 632.5,-1132.26 628.22,-1126.72"/>
<text text-anchor="middle" x="770.15" y="-710.3" font-family="Times,serif" font-size="14.00">47</text>
</g>
<!-- 25&#45;&gt;5 -->
<g id="edge24" class="edge">
<title>25&#45;&gt;5</title>
<path fill="none" stroke="black" d="M343.65,-463.38C304.86,-480.56 224.87,-520.44 176.15,-576 143.12,-613.67 158.97,-638.5 128.15,-678 120.38,-687.96 115.5,-687.5 106.15,-696 78.13,-721.47 46.15,-718.63 46.15,-756.5 46.15,-1411 46.15,-1411 46.15,-1411 46.15,-1468.61 243.42,-1488.2 327.21,-1493.92"/>
<polygon fill="black" stroke="black" points="327.11,-1497.42 337.32,-1494.58 327.57,-1490.44 327.11,-1497.42"/>
<text text-anchor="middle" x="53.15" y="-971.3" font-family="Times,serif" font-size="14.00">30</text>
</g>
<!-- 25&#45;&gt;19 -->
<g id="edge23" class="edge">
<title>25&#45;&gt;19</title>
<path fill="none" stroke="black" d="M377.46,-469.44C396.67,-496.41 435.68,-554.41 457.15,-609 466.15,-631.88 464.89,-638.79 469.15,-663 474.51,-693.46 464.63,-704.19 478.15,-732 513.33,-804.31 577.46,-791.56 595.15,-870 615.45,-959.96 610.47,-1070.42 606.63,-1120.72"/>
<polygon fill="black" stroke="black" points="603.14,-1120.54 605.82,-1130.79 610.12,-1121.11 603.14,-1120.54"/>
<text text-anchor="middle" x="576.15" y="-797.3" font-family="Times,serif" font-size="14.00">44</text>
</g>
<!-- 25&#45;&gt;18 -->
<g id="edge25" class="edge">
<title>25&#45;&gt;18</title>
<path fill="none" stroke="black" d="M382.87,-438.72C400.36,-424.83 428.01,-402.87 448.1,-386.9"/>
<polygon fill="black" stroke="black" points="450.55,-389.43 456.2,-380.47 446.19,-383.95 450.55,-389.43"/>
<text text-anchor="middle" x="433.15" y="-405.8" font-family="Times,serif" font-size="14.00">43</text>
</g>
<!-- 11&#45;&gt;23 -->
<g id="edge11" class="edge">
<title>11&#45;&gt;23</title>
<path fill="none" stroke="black" d="M674.67,-1393.83C669.75,-1387.74 664.1,-1380.6 659.15,-1374 653,-1365.78 646.49,-1356.61 640.77,-1348.4"/>
<polygon fill="black" stroke="black" points="643.5,-1346.19 634.93,-1339.95 637.74,-1350.17 643.5,-1346.19"/>
<text text-anchor="middle" x="666.15" y="-1362.8" font-family="Times,serif" font-size="14.00">34</text>
</g>
<!-- 11&#45;&gt;4 -->
<g id="edge12" class="edge">
<title>11&#45;&gt;4</title>
<path fill="none" stroke="black" d="M712.95,-1404.11C750.59,-1395.3 816.15,-1372.95 816.15,-1324 816.15,-1324 816.15,-1324 816.15,-974 816.15,-883.56 766.59,-784.71 741.02,-739.74"/>
<polygon fill="black" stroke="black" points="743.99,-737.89 735.96,-730.99 737.93,-741.4 743.99,-737.89"/>
<text text-anchor="middle" x="823.15" y="-1058.3" font-family="Times,serif" font-size="14.00">15</text>
</g>
<!-- 4&#45;&gt;19 -->
<g id="edge3" class="edge">
<title>4&#45;&gt;19</title>
<path fill="none" stroke="black" d="M724.55,-731.98C722.51,-752.61 718.71,-788.44 714.15,-819 694.1,-953.41 694.18,-993.13 630.15,-1113 628.07,-1116.91 625.58,-1120.85 622.98,-1124.62"/>
<polygon fill="black" stroke="black" points="619.94,-1122.85 616.84,-1132.98 625.58,-1126.99 619.94,-1122.85"/>
<text text-anchor="middle" x="705.15" y="-927.8" font-family="Times,serif" font-size="14.00">23</text>
</g>
<!-- 4&#45;&gt;3 -->
<g id="edge4" class="edge">
<title>4&#45;&gt;3</title>
<path fill="none" stroke="black" d="M736.03,-696.96C762.17,-652.95 831.15,-525.85 831.15,-410.5 831.15,-410.5 831.15,-410.5 831.15,-278 831.15,-258.75 831.67,-237.05 832.18,-220.39"/>
<polygon fill="black" stroke="black" points="835.69,-220.36 832.51,-210.25 828.69,-220.14 835.69,-220.36"/>
<text text-anchor="middle" x="832.65" y="-449.3" font-family="Times,serif" font-size="14.00">7</text>
</g>
<!-- 4&#45;&gt;21 -->
<g id="edge5" class="edge">
<title>4&#45;&gt;21</title>
<path fill="none" stroke="black" d="M728.42,-695.65C736.24,-632.44 759.99,-408.7 730.15,-228 719.65,-164.4 718.97,-147.29 696.15,-87 690.54,-72.17 682.39,-56.46 675.26,-43.89"/>
<polygon fill="black" stroke="black" points="678.12,-41.84 670.07,-34.95 672.07,-45.36 678.12,-41.84"/>
<text text-anchor="middle" x="750.15" y="-362.3" font-family="Times,serif" font-size="14.00">25</text>
</g>
<!-- 8&#45;&gt;29 -->
<g id="edge63" class="edge">
<title>8&#45;&gt;29</title>
<path fill="none" stroke="black" d="M410.81,-610.01C402.67,-597.43 391.18,-579.68 381.9,-565.33"/>
<polygon fill="black" stroke="black" points="384.82,-563.41 376.45,-556.92 378.95,-567.21 384.82,-563.41"/>
<text text-anchor="middle" x="404.15" y="-579.8" font-family="Times,serif" font-size="14.00">37</text>
</g>
<!-- 12&#45;&gt;18 -->
<g id="edge40" class="edge">
<title>12&#45;&gt;18</title>
<path fill="none" stroke="black" d="M602.48,-200.7C573.95,-210.91 525.78,-231.16 493.15,-261 472.22,-280.14 467.02,-287.75 459.15,-315 456.87,-322.92 458,-331.55 460.4,-339.39"/>
<polygon fill="black" stroke="black" points="457.14,-340.66 463.96,-348.77 463.68,-338.18 457.14,-340.66"/>
<text text-anchor="middle" x="500.15" y="-275.3" font-family="Times,serif" font-size="14.00">30</text>
</g>
<!-- 12&#45;&gt;27 -->
<g id="edge41" class="edge">
<title>12&#45;&gt;27</title>
<path fill="none" stroke="black" d="M632.87,-174.21C637.7,-162.14 644.3,-145.64 649.8,-131.89"/>
<polygon fill="black" stroke="black" points="653.1,-133.05 653.57,-122.47 646.6,-130.45 653.1,-133.05"/>
<text text-anchor="middle" x="652.15" y="-144.8" font-family="Times,serif" font-size="14.00">39</text>
</g>
<!-- 21&#45;&gt;25 -->
<g id="edge15" class="edge">
<title>21&#45;&gt;25</title>
<path fill="none" stroke="black" d="M633.17,-19.41C547.8,-21.43 289.15,-33.38 289.15,-104 289.15,-367 289.15,-367 289.15,-367 289.15,-396.58 315.08,-420.45 336.84,-435.28"/>
<polygon fill="black" stroke="black" points="335.22,-438.4 345.52,-440.88 339.02,-432.52 335.22,-438.4"/>
<text text-anchor="middle" x="296.15" y="-231.8" font-family="Times,serif" font-size="14.00">46</text>
</g>
<!-- 6&#45;&gt;5 -->
<g id="edge39" class="edge">
<title>6&#45;&gt;5</title>
<path fill="none" stroke="black" d="M176.75,-291.78C155.73,-306.19 125.15,-332.7 125.15,-365 125.15,-497.5 125.15,-497.5 125.15,-497.5 125.15,-540.88 112.27,-550.34 97.15,-591 79.34,-638.92 68.71,-648.36 50.15,-696 -2.31,-830.75 0.15,-872.89 0.15,-1017.5 0.15,-1411 0.15,-1411 0.15,-1411 0.15,-1477.63 234.34,-1492.06 327.03,-1495.16"/>
<polygon fill="black" stroke="black" points="326.99,-1498.66 337.09,-1495.47 327.21,-1491.66 326.99,-1498.66"/>
<text text-anchor="middle" x="11.15" y="-884.3" font-family="Times,serif" font-size="14.00">11</text>
</g>
<!-- 27&#45;&gt;16 -->
<g id="edge34" class="edge">
<title>27&#45;&gt;16</title>
<path fill="none" stroke="black" d="M684.54,-97.04C737.5,-81.94 863.13,-46.1 923.97,-28.75"/>
<polygon fill="black" stroke="black" points="925.19,-32.04 933.85,-25.93 923.27,-25.31 925.19,-32.04"/>
<text text-anchor="middle" x="833.15" y="-57.8" font-family="Times,serif" font-size="14.00">43</text>
</g>
<!-- 27&#45;&gt;10 -->
<g id="edge33" class="edge">
<title>27&#45;&gt;10</title>
<path fill="none" stroke="black" d="M681.98,-93.92C714.58,-78.86 776.11,-50.44 813.29,-33.26"/>
<polygon fill="black" stroke="black" points="815.03,-36.31 822.64,-28.94 812.09,-29.96 815.03,-36.31"/>
<text text-anchor="middle" x="770.15" y="-57.8" font-family="Times,serif" font-size="14.00">37</text>
</g>
<!-- 27&#45;&gt;21 -->
<g id="edge35" class="edge">
<title>27&#45;&gt;21</title>
<path fill="none" stroke="black" d="M660.15,-86.8C660.15,-75.16 660.15,-59.55 660.15,-46.24"/>
<polygon fill="black" stroke="black" points="663.65,-46.18 660.15,-36.18 656.65,-46.18 663.65,-46.18"/>
<text text-anchor="middle" x="667.15" y="-57.8" font-family="Times,serif" font-size="14.00">48</text>
</g>
<!-- 2&#45;&gt;19 -->
<g id="edge36" class="edge">
<title>2&#45;&gt;19</title>
<path fill="none" stroke="black" d="M576.87,-1218.21C581.7,-1206.14 588.3,-1189.64 593.8,-1175.89"/>
<polygon fill="black" stroke="black" points="597.1,-1177.05 597.57,-1166.47 590.6,-1174.45 597.1,-1177.05"/>
<text text-anchor="middle" x="597.15" y="-1188.8" font-family="Times,serif" font-size="14.00">21</text>
</g>
<!-- 2&#45;&gt;20 -->
<g id="edge37" class="edge">
<title>2&#45;&gt;20</title>
<path fill="none" stroke="black" d="M569.61,-1217.84C567.83,-1161.93 562.19,-984.64 560.02,-916.27"/>
<polygon fill="black" stroke="black" points="563.52,-916.15 559.7,-906.26 556.52,-916.37 563.52,-916.15"/>
<text text-anchor="middle" x="572.15" y="-1058.3" font-family="Times,serif" font-size="14.00">22</text>
</g>
<!-- 2&#45;&gt;10 -->
<g id="edge38" class="edge">
<title>2&#45;&gt;10</title>
<path fill="none" stroke="black" d="M593.94,-1227.46C660.29,-1204.9 846.58,-1130.82 907.15,-993 912.67,-980.46 970.26,-517.67 971.15,-504 971.59,-497.35 971.78,-495.64 971.15,-489 961.46,-385.81 952.78,-360.02 922.15,-261 897.83,-182.33 867.54,-89.81 852.89,-45.4"/>
<polygon fill="black" stroke="black" points="856.14,-44.08 849.68,-35.68 849.49,-46.27 856.14,-44.08"/>
<text text-anchor="middle" x="965.15" y="-623.3" font-family="Times,serif" font-size="14.00">12</text>
</g>
</g>
</svg>
