<?xml version="1.0" encoding="UTF-8" standalone="no"?>
<!DOCTYPE svg PUBLIC "-//W3C//DTD SVG 1.1//EN"
 "http://www.w3.org/Graphics/SVG/1.1/DTD/svg11.dtd">
<!-- Generated by graphviz version 5.0.0 (0)
 -->
<!-- Title: di_graph Pages: 1 -->
<svg width="1210pt" height="1523pt"
 viewBox="0.00 0.00 1210.00 1523.00" xmlns="http://www.w3.org/2000/svg" xmlns:xlink="http://www.w3.org/1999/xlink">
<g id="graph0" class="graph" transform="scale(1 1) rotate(0) translate(4 1519)">
<title>di_graph</title>
<polygon fill="white" stroke="transparent" points="-4,4 -4,-1519 1206,-1519 1206,4 -4,4"/>
<!-- 11 -->
<g id="node1" class="node">
<title>11</title>
<ellipse fill="none" stroke="black" cx="588" cy="-1497" rx="27" ry="18"/>
<text text-anchor="middle" x="588" y="-1493.3" font-family="Times,serif" font-size="14.00">11 0</text>
</g>
<!-- 9 -->
<g id="node3" class="node">
<title>9</title>
<ellipse fill="none" stroke="black" cx="589" cy="-1410" rx="27" ry="18"/>
<text text-anchor="middle" x="589" y="-1406.3" font-family="Times,serif" font-size="14.00">9 0</text>
</g>
<!-- 11&#45;&gt;9 -->
<g id="edge57" class="edge">
<title>11&#45;&gt;9</title>
<path fill="none" stroke="black" d="M577.07,-1480.03C571.74,-1470.34 567.05,-1457.62 570,-1446 570.88,-1442.54 572.17,-1439.06 573.68,-1435.7"/>
<polygon fill="black" stroke="black" points="576.86,-1437.18 578.33,-1426.69 570.64,-1433.97 576.86,-1437.18"/>
<text text-anchor="middle" x="577" y="-1449.8" font-family="Times,serif" font-size="14.00">20</text>
</g>
<!-- 13 -->
<g id="node11" class="node">
<title>13</title>
<ellipse fill="none" stroke="black" cx="247" cy="-18" rx="27" ry="18"/>
<text text-anchor="middle" x="247" y="-14.3" font-family="Times,serif" font-size="14.00">13 0</text>
</g>
<!-- 11&#45;&gt;13 -->
<g id="edge60" class="edge">
<title>11&#45;&gt;13</title>
<path fill="none" stroke="black" d="M560.9,-1495.27C472.97,-1492.7 196.37,-1483.04 110,-1461 57.97,-1447.72 0,-1464.7 0,-1411 0,-1411 0,-1411 0,-104 0,-73.8 19.5,-68.47 46,-54 97.88,-25.68 167.52,-19.41 209.73,-18.47"/>
<polygon fill="black" stroke="black" points="209.89,-21.97 219.84,-18.34 209.8,-14.97 209.89,-21.97"/>
<text text-anchor="middle" x="7" y="-753.8" font-family="Times,serif" font-size="14.00">24</text>
</g>
<!-- 15 -->
<g id="node12" class="node">
<title>15</title>
<ellipse fill="none" stroke="black" cx="882" cy="-540" rx="27" ry="18"/>
<text text-anchor="middle" x="882" y="-536.3" font-family="Times,serif" font-size="14.00">15 0</text>
</g>
<!-- 11&#45;&gt;15 -->
<g id="edge58" class="edge">
<title>11&#45;&gt;15</title>
<path fill="none" stroke="black" d="M614.95,-1495.07C731.7,-1490.67 1188,-1469.72 1188,-1411 1188,-1411 1188,-1411 1188,-843.5 1188,-769.81 1051.84,-619.01 992,-576 970.27,-560.38 941.28,-551.53 918.51,-546.64"/>
<polygon fill="black" stroke="black" points="919.03,-543.18 908.54,-544.66 917.67,-550.04 919.03,-543.18"/>
<text text-anchor="middle" x="1195" y="-1014.8" font-family="Times,serif" font-size="14.00">23</text>
</g>
<!-- 10 -->
<g id="node19" class="node">
<title>10</title>
<ellipse fill="none" stroke="black" cx="749" cy="-1323" rx="27" ry="18"/>
<text text-anchor="middle" x="749" y="-1319.3" font-family="Times,serif" font-size="14.00">10 0</text>
</g>
<!-- 11&#45;&gt;10 -->
<g id="edge59" class="edge">
<title>11&#45;&gt;10</title>
<path fill="none" stroke="black" d="M601.73,-1481.34C630.01,-1451.12 694.9,-1381.8 728.3,-1346.12"/>
<polygon fill="black" stroke="black" points="731.03,-1348.32 735.31,-1338.63 725.92,-1343.54 731.03,-1348.32"/>
<text text-anchor="middle" x="691" y="-1406.3" font-family="Times,serif" font-size="14.00">21</text>
</g>
<!-- 4 -->
<g id="node2" class="node">
<title>4</title>
<ellipse fill="none" stroke="black" cx="527" cy="-1149" rx="27" ry="18"/>
<text text-anchor="middle" x="527" y="-1145.3" font-family="Times,serif" font-size="14.00">4 0</text>
</g>
<!-- 4&#45;&gt;9 -->
<g id="edge72" class="edge">
<title>4&#45;&gt;9</title>
<path fill="none" stroke="black" d="M531.08,-1167.06C541.63,-1211.12 569.86,-1329.03 582.6,-1382.26"/>
<polygon fill="black" stroke="black" points="579.2,-1383.1 584.93,-1392.01 586.01,-1381.47 579.2,-1383.1"/>
<text text-anchor="middle" x="562.5" y="-1275.8" font-family="Times,serif" font-size="14.00">9</text>
</g>
<!-- 14 -->
<g id="node10" class="node">
<title>14</title>
<ellipse fill="none" stroke="black" cx="297" cy="-888" rx="27" ry="18"/>
<text text-anchor="middle" x="297" y="-884.3" font-family="Times,serif" font-size="14.00">14 0</text>
</g>
<!-- 4&#45;&gt;14 -->
<g id="edge71" class="edge">
<title>4&#45;&gt;14</title>
<path fill="none" stroke="black" d="M510.29,-1134.8C467.08,-1100.55 354.08,-1010.31 341,-993 323.25,-969.51 311.18,-937.78 304.24,-915.56"/>
<polygon fill="black" stroke="black" points="307.53,-914.38 301.32,-905.8 300.83,-916.38 307.53,-914.38"/>
<text text-anchor="middle" x="380.5" y="-1014.8" font-family="Times,serif" font-size="14.00">7</text>
</g>
<!-- 0 -->
<g id="node13" class="node">
<title>0</title>
<ellipse fill="none" stroke="black" cx="768" cy="-453" rx="27" ry="18"/>
<text text-anchor="middle" x="768" y="-449.3" font-family="Times,serif" font-size="14.00">0 0</text>
</g>
<!-- 4&#45;&gt;0 -->
<g id="edge70" class="edge">
<title>4&#45;&gt;0</title>
<path fill="none" stroke="black" d="M540.1,-1132.98C544.88,-1127.03 550.07,-1119.95 554,-1113 643.37,-955.03 650.99,-906.48 701,-732 727.12,-640.85 751.56,-530.98 762.29,-481.05"/>
<polygon fill="black" stroke="black" points="765.75,-481.57 764.42,-471.06 758.91,-480.1 765.75,-481.57"/>
<text text-anchor="middle" x="689.5" y="-797.3" font-family="Times,serif" font-size="14.00">6</text>
</g>
<!-- 7 -->
<g id="node15" class="node">
<title>7</title>
<ellipse fill="none" stroke="black" cx="495" cy="-1062" rx="27" ry="18"/>
<text text-anchor="middle" x="495" y="-1058.3" font-family="Times,serif" font-size="14.00">7 0</text>
</g>
<!-- 4&#45;&gt;7 -->
<g id="edge69" class="edge">
<title>4&#45;&gt;7</title>
<path fill="none" stroke="black" d="M520.68,-1131.21C516.16,-1119.22 510,-1102.85 504.85,-1089.16"/>
<polygon fill="black" stroke="black" points="508.11,-1087.88 501.31,-1079.76 501.56,-1090.35 508.11,-1087.88"/>
<text text-anchor="middle" x="519" y="-1101.8" font-family="Times,serif" font-size="14.00">10</text>
</g>
<!-- 9&#45;&gt;11 -->
<g id="edge31" class="edge">
<title>9&#45;&gt;11</title>
<path fill="none" stroke="black" d="M588.8,-1428.18C588.66,-1439.81 588.48,-1455.42 588.32,-1468.73"/>
<polygon fill="black" stroke="black" points="584.82,-1468.76 588.2,-1478.8 591.82,-1468.84 584.82,-1468.76"/>
<text text-anchor="middle" x="595" y="-1449.8" font-family="Times,serif" font-size="14.00">20</text>
</g>
<!-- 8 -->
<g id="node9" class="node">
<title>8</title>
<ellipse fill="none" stroke="black" cx="918" cy="-975" rx="27" ry="18"/>
<text text-anchor="middle" x="918" y="-971.3" font-family="Times,serif" font-size="14.00">8 0</text>
</g>
<!-- 9&#45;&gt;8 -->
<g id="edge30" class="edge">
<title>9&#45;&gt;8</title>
<path fill="none" stroke="black" d="M612.56,-1400.97C623.25,-1397.65 636.14,-1394.09 648,-1392 726.03,-1378.24 998,-1403.23 998,-1324 998,-1324 998,-1324 998,-1061 998,-1030.59 970.51,-1006.62 947.75,-991.99"/>
<polygon fill="black" stroke="black" points="949.38,-988.89 939.02,-986.67 945.74,-994.86 949.38,-988.89"/>
<text text-anchor="middle" x="1005" y="-1188.8" font-family="Times,serif" font-size="14.00">17</text>
</g>
<!-- 9&#45;&gt;7 -->
<g id="edge33" class="edge">
<title>9&#45;&gt;7</title>
<path fill="none" stroke="black" d="M561.62,-1409.53C506.21,-1409.03 386,-1399.27 386,-1324 386,-1324 386,-1324 386,-1148 386,-1109.4 429.04,-1085.75 461.03,-1073.5"/>
<polygon fill="black" stroke="black" points="462.32,-1076.75 470.54,-1070.06 459.94,-1070.17 462.32,-1076.75"/>
<text text-anchor="middle" x="393" y="-1232.3" font-family="Times,serif" font-size="14.00">16</text>
</g>
<!-- 9&#45;&gt;10 -->
<g id="edge32" class="edge">
<title>9&#45;&gt;10</title>
<path fill="none" stroke="black" d="M609.59,-1398.06C637.55,-1383.21 687.7,-1356.57 719.61,-1339.61"/>
<polygon fill="black" stroke="black" points="721.3,-1342.68 728.49,-1334.9 718.02,-1336.5 721.3,-1342.68"/>
<text text-anchor="middle" x="685" y="-1362.8" font-family="Times,serif" font-size="14.00">19</text>
</g>
<!-- 2 -->
<g id="node4" class="node">
<title>2</title>
<ellipse fill="none" stroke="black" cx="670" cy="-1236" rx="27" ry="18"/>
<text text-anchor="middle" x="670" y="-1232.3" font-family="Times,serif" font-size="14.00">2 0</text>
</g>
<!-- 2&#45;&gt;4 -->
<g id="edge55" class="edge">
<title>2&#45;&gt;4</title>
<path fill="none" stroke="black" d="M644.18,-1230.09C622.66,-1225.09 591.93,-1215.78 569,-1200 558.99,-1193.11 550,-1183.22 542.93,-1174.06"/>
<polygon fill="black" stroke="black" points="545.73,-1171.96 537,-1165.95 540.08,-1176.09 545.73,-1171.96"/>
<text text-anchor="middle" x="572.5" y="-1188.8" font-family="Times,serif" font-size="14.00">6</text>
</g>
<!-- 2&#45;&gt;9 -->
<g id="edge54" class="edge">
<title>2&#45;&gt;9</title>
<path fill="none" stroke="black" d="M662.26,-1253.44C648.12,-1283.46 618.05,-1347.32 601.16,-1383.19"/>
<polygon fill="black" stroke="black" points="597.86,-1381.97 596.77,-1392.51 604.19,-1384.95 597.86,-1381.97"/>
<text text-anchor="middle" x="640.5" y="-1319.3" font-family="Times,serif" font-size="14.00">5</text>
</g>
<!-- 5 -->
<g id="node14" class="node">
<title>5</title>
<ellipse fill="none" stroke="black" cx="488" cy="-975" rx="27" ry="18"/>
<text text-anchor="middle" x="488" y="-971.3" font-family="Times,serif" font-size="14.00">5 0</text>
</g>
<!-- 2&#45;&gt;5 -->
<g id="edge56" class="edge">
<title>2&#45;&gt;5</title>
<path fill="none" stroke="black" d="M660.93,-1218.8C649.14,-1198.04 627.61,-1161.15 607,-1131 574.06,-1082.82 531.66,-1029.41 507.38,-999.54"/>
<polygon fill="black" stroke="black" points="509.78,-996.95 500.75,-991.42 504.36,-1001.38 509.78,-996.95"/>
<text text-anchor="middle" x="597.5" y="-1101.8" font-family="Times,serif" font-size="14.00">2</text>
</g>
<!-- 17 -->
<g id="node5" class="node">
<title>17</title>
<ellipse fill="none" stroke="black" cx="390" cy="-801" rx="27" ry="18"/>
<text text-anchor="middle" x="390" y="-797.3" font-family="Times,serif" font-size="14.00">17 0</text>
</g>
<!-- 17&#45;&gt;11 -->
<g id="edge74" class="edge">
<title>17&#45;&gt;11</title>
<path fill="none" stroke="black" d="M382.67,-818.51C380.31,-824.28 377.83,-830.85 376,-837 352.71,-915.42 340,-935.7 340,-1017.5 340,-1411 340,-1411 340,-1411 340,-1455.16 482.48,-1481.21 551.45,-1491.23"/>
<polygon fill="black" stroke="black" points="551.07,-1494.71 561.46,-1492.65 552.05,-1487.78 551.07,-1494.71"/>
<text text-anchor="middle" x="347" y="-1145.3" font-family="Times,serif" font-size="14.00">32</text>
</g>
<!-- 17&#45;&gt;7 -->
<g id="edge75" class="edge">
<title>17&#45;&gt;7</title>
<path fill="none" stroke="black" d="M384.66,-818.73C377.13,-845.27 366,-898.18 382,-939 386.78,-951.2 441.65,-1007.49 473.13,-1039.17"/>
<polygon fill="black" stroke="black" points="471.05,-1042.04 480.59,-1046.66 476.01,-1037.1 471.05,-1042.04"/>
<text text-anchor="middle" x="389" y="-927.8" font-family="Times,serif" font-size="14.00">33</text>
</g>
<!-- 18 -->
<g id="node16" class="node">
<title>18</title>
<ellipse fill="none" stroke="black" cx="324" cy="-192" rx="27" ry="18"/>
<text text-anchor="middle" x="324" y="-188.3" font-family="Times,serif" font-size="14.00">18 0</text>
</g>
<!-- 17&#45;&gt;18 -->
<g id="edge73" class="edge">
<title>17&#45;&gt;18</title>
<path fill="none" stroke="black" d="M366.14,-792.41C335.44,-780.97 286,-756.16 286,-715 286,-715 286,-715 286,-278 286,-255.91 296.83,-233.17 306.93,-216.78"/>
<polygon fill="black" stroke="black" points="309.88,-218.67 312.39,-208.37 304.01,-214.85 309.88,-218.67"/>
<text text-anchor="middle" x="293" y="-492.8" font-family="Times,serif" font-size="14.00">35</text>
</g>
<!-- 19 -->
<g id="node17" class="node">
<title>19</title>
<ellipse fill="none" stroke="black" cx="645" cy="-714" rx="27" ry="18"/>
<text text-anchor="middle" x="645" y="-710.3" font-family="Times,serif" font-size="14.00">19 0</text>
</g>
<!-- 17&#45;&gt;19 -->
<g id="edge76" class="edge">
<title>17&#45;&gt;19</title>
<path fill="none" stroke="black" d="M415.5,-794.61C459.04,-785.38 543.67,-767.31 550,-765 573.67,-756.36 598.82,-742.91 617.3,-732.13"/>
<polygon fill="black" stroke="black" points="619.24,-735.05 626.06,-726.93 615.67,-729.03 619.24,-735.05"/>
<text text-anchor="middle" x="589" y="-753.8" font-family="Times,serif" font-size="14.00">36</text>
</g>
<!-- 16 -->
<g id="node6" class="node">
<title>16</title>
<ellipse fill="none" stroke="black" cx="476" cy="-279" rx="27" ry="18"/>
<text text-anchor="middle" x="476" y="-275.3" font-family="Times,serif" font-size="14.00">16 0</text>
</g>
<!-- 16&#45;&gt;17 -->
<g id="edge48" class="edge">
<title>16&#45;&gt;17</title>
<path fill="none" stroke="black" d="M472.14,-297C461.39,-344.44 431.45,-477.72 424,-522 408.59,-613.58 397.25,-723.24 392.48,-773.04"/>
<polygon fill="black" stroke="black" points="389,-772.71 391.54,-783 395.97,-773.37 389,-772.71"/>
<text text-anchor="middle" x="431" y="-536.3" font-family="Times,serif" font-size="14.00">33</text>
</g>
<!-- 16&#45;&gt;14 -->
<g id="edge46" class="edge">
<title>16&#45;&gt;14</title>
<path fill="none" stroke="black" d="M463.49,-295.01C452.4,-308.55 436.01,-329.16 423,-348 402.6,-377.54 407.13,-392.39 381,-417 368.55,-428.72 361.86,-426.54 347,-435 302.19,-460.52 248,-443.93 248,-495.5 248,-802 248,-802 248,-802 248,-825.79 262.58,-848.92 275.84,-865.03"/>
<polygon fill="black" stroke="black" points="273.37,-867.52 282.56,-872.78 278.65,-862.93 273.37,-867.52"/>
<text text-anchor="middle" x="255" y="-579.8" font-family="Times,serif" font-size="14.00">30</text>
</g>
<!-- 16&#45;&gt;15 -->
<g id="edge49" class="edge">
<title>16&#45;&gt;15</title>
<path fill="none" stroke="black" d="M502.02,-284.03C545.88,-291.62 636.35,-310.72 704,-348 721.69,-357.75 848.19,-467.19 863,-489 867.77,-496.02 871.55,-504.41 874.45,-512.28"/>
<polygon fill="black" stroke="black" points="871.16,-513.47 877.65,-521.84 877.8,-511.25 871.16,-513.47"/>
<text text-anchor="middle" x="794" y="-405.8" font-family="Times,serif" font-size="14.00">31</text>
</g>
<!-- 16&#45;&gt;18 -->
<g id="edge47" class="edge">
<title>16&#45;&gt;18</title>
<path fill="none" stroke="black" d="M455.82,-266.71C429.47,-251.98 383.18,-226.09 353.06,-209.25"/>
<polygon fill="black" stroke="black" points="354.7,-206.16 344.27,-204.33 351.29,-212.27 354.7,-206.16"/>
<text text-anchor="middle" x="417" y="-231.8" font-family="Times,serif" font-size="14.00">34</text>
</g>
<!-- 12 -->
<g id="node7" class="node">
<title>12</title>
<ellipse fill="none" stroke="black" cx="210" cy="-105" rx="27" ry="18"/>
<text text-anchor="middle" x="210" y="-101.3" font-family="Times,serif" font-size="14.00">12 0</text>
</g>
<!-- 12&#45;&gt;11 -->
<g id="edge15" class="edge">
<title>12&#45;&gt;11</title>
<path fill="none" stroke="black" d="M190.96,-117.96C181.9,-124.18 171.26,-132.29 163,-141 150.86,-153.78 148.8,-158.19 141,-174 83.19,-291.08 46,-321.43 46,-452 46,-1411 46,-1411 46,-1411 46,-1462.25 429.1,-1487.41 551.13,-1494.12"/>
<polygon fill="black" stroke="black" points="550.95,-1497.61 561.12,-1494.66 551.33,-1490.62 550.95,-1497.61"/>
<text text-anchor="middle" x="53" y="-797.3" font-family="Times,serif" font-size="14.00">23</text>
</g>
<!-- 12&#45;&gt;14 -->
<g id="edge17" class="edge">
<title>12&#45;&gt;14</title>
<path fill="none" stroke="black" d="M198.39,-121.37C187.22,-137.73 172,-164.81 172,-191 172,-802 172,-802 172,-802 172,-845.54 224.5,-868.34 261.45,-879"/>
<polygon fill="black" stroke="black" points="260.84,-882.46 271.4,-881.7 262.66,-875.71 260.84,-882.46"/>
<text text-anchor="middle" x="179" y="-492.8" font-family="Times,serif" font-size="14.00">26</text>
</g>
<!-- 12&#45;&gt;13 -->
<g id="edge18" class="edge">
<title>12&#45;&gt;13</title>
<path fill="none" stroke="black" d="M207.18,-86.65C206.32,-76.69 206.57,-64.19 211,-54 213.45,-48.37 217.27,-43.18 221.54,-38.63"/>
<polygon fill="black" stroke="black" points="224.11,-41.01 228.96,-31.59 219.29,-35.93 224.11,-41.01"/>
<text text-anchor="middle" x="218" y="-57.8" font-family="Times,serif" font-size="14.00">25</text>
</g>
<!-- 12&#45;&gt;10 -->
<g id="edge16" class="edge">
<title>12&#45;&gt;10</title>
<path fill="none" stroke="black" d="M195.06,-120.31C189.09,-126.4 182.38,-133.76 177,-141 166.9,-154.58 164.19,-158.25 158,-174 114.49,-284.79 111.42,-316.73 98,-435 78.56,-606.37 84.15,-661.31 154,-819 272.07,-1085.55 613.05,-1259.8 717.93,-1308.24"/>
<polygon fill="black" stroke="black" points="716.5,-1311.44 727.05,-1312.41 719.41,-1305.07 716.5,-1311.44"/>
<text text-anchor="middle" x="126" y="-710.3" font-family="Times,serif" font-size="14.00">22</text>
</g>
<!-- 1 -->
<g id="node8" class="node">
<title>1</title>
<ellipse fill="none" stroke="black" cx="1102" cy="-1323" rx="27" ry="18"/>
<text text-anchor="middle" x="1102" y="-1319.3" font-family="Times,serif" font-size="14.00">1 0</text>
</g>
<!-- 1&#45;&gt;2 -->
<g id="edge4" class="edge">
<title>1&#45;&gt;2</title>
<path fill="none" stroke="black" d="M1076.27,-1316.94C1002.51,-1302.42 790.21,-1260.65 705.51,-1243.99"/>
<polygon fill="black" stroke="black" points="706.08,-1240.53 695.6,-1242.04 704.73,-1247.4 706.08,-1240.53"/>
<text text-anchor="middle" x="914.5" y="-1275.8" font-family="Times,serif" font-size="14.00">3</text>
</g>
<!-- 1&#45;&gt;13 -->
<g id="edge2" class="edge">
<title>1&#45;&gt;13</title>
<path fill="none" stroke="black" d="M1116.4,-1307.43C1130.54,-1291.53 1150,-1264.62 1150,-1237 1150,-1237 1150,-1237 1150,-104 1150,-15.55 454.43,-16.88 284.24,-18.53"/>
<polygon fill="black" stroke="black" points="283.99,-15.04 274.02,-18.64 284.06,-22.04 283.99,-15.04"/>
<text text-anchor="middle" x="1157" y="-666.8" font-family="Times,serif" font-size="14.00">19</text>
</g>
<!-- 6 -->
<g id="node18" class="node">
<title>6</title>
<ellipse fill="none" stroke="black" cx="606" cy="-627" rx="27" ry="18"/>
<text text-anchor="middle" x="606" y="-623.3" font-family="Times,serif" font-size="14.00">6 0</text>
</g>
<!-- 1&#45;&gt;6 -->
<g id="edge3" class="edge">
<title>1&#45;&gt;6</title>
<path fill="none" stroke="black" d="M1093.29,-1305.91C1085.07,-1289.18 1074,-1262.01 1074,-1237 1074,-1237 1074,-1237 1074,-1017.5 1074,-920.82 1090.89,-865.37 843,-696 780.93,-653.59 692.49,-637.37 643.07,-631.36"/>
<polygon fill="black" stroke="black" points="643.18,-627.85 632.85,-630.2 642.39,-634.8 643.18,-627.85"/>
<text text-anchor="middle" x="1077.5" y="-971.3" font-family="Times,serif" font-size="14.00">1</text>
</g>
<!-- 3 -->
<g id="node20" class="node">
<title>3</title>
<ellipse fill="none" stroke="black" cx="668" cy="-366" rx="27" ry="18"/>
<text text-anchor="middle" x="668" y="-362.3" font-family="Times,serif" font-size="14.00">3 0</text>
</g>
<!-- 1&#45;&gt;3 -->
<g id="edge1" class="edge">
<title>1&#45;&gt;3</title>
<path fill="none" stroke="black" d="M1105.22,-1304.81C1108.14,-1287.69 1112,-1260.63 1112,-1237 1112,-1237 1112,-1237 1112,-1104.5 1112,-883.2 1168.44,-803.57 1063,-609 992.96,-479.75 936.52,-467.68 805,-402 772.92,-385.98 732.85,-376.85 704.35,-371.96"/>
<polygon fill="black" stroke="black" points="704.84,-368.49 694.41,-370.34 703.72,-375.4 704.84,-368.49"/>
<text text-anchor="middle" x="1130.5" y="-840.8" font-family="Times,serif" font-size="14.00">4</text>
</g>
<!-- 8&#45;&gt;9 -->
<g id="edge28" class="edge">
<title>8&#45;&gt;9</title>
<path fill="none" stroke="black" d="M930.83,-991.18C943.18,-1007.38 960,-1034.33 960,-1061 960,-1324 960,-1324 960,-1324 960,-1394.96 716.8,-1374.61 648,-1392 639.77,-1394.08 630.95,-1396.51 622.71,-1398.87"/>
<polygon fill="black" stroke="black" points="621.64,-1395.54 613.02,-1401.69 623.59,-1402.26 621.64,-1395.54"/>
<text text-anchor="middle" x="967" y="-1188.8" font-family="Times,serif" font-size="14.00">17</text>
</g>
<!-- 8&#45;&gt;15 -->
<g id="edge29" class="edge">
<title>8&#45;&gt;15</title>
<path fill="none" stroke="black" d="M935.03,-960.99C952.77,-945.82 978,-918.98 978,-889 978,-889 978,-889 978,-626 978,-591.35 942.51,-567.41 914.69,-553.97"/>
<polygon fill="black" stroke="black" points="915.79,-550.63 905.24,-549.65 912.88,-556.99 915.79,-550.63"/>
<text text-anchor="middle" x="985" y="-753.8" font-family="Times,serif" font-size="14.00">14</text>
</g>
<!-- 8&#45;&gt;7 -->
<g id="edge26" class="edge">
<title>8&#45;&gt;7</title>
<path fill="none" stroke="black" d="M892.46,-981.13C820.13,-995.67 613.78,-1037.13 530.5,-1053.87"/>
<polygon fill="black" stroke="black" points="529.62,-1050.47 520.51,-1055.87 531,-1057.34 529.62,-1050.47"/>
<text text-anchor="middle" x="738" y="-1014.8" font-family="Times,serif" font-size="14.00">15</text>
</g>
<!-- 8&#45;&gt;10 -->
<g id="edge27" class="edge">
<title>8&#45;&gt;10</title>
<path fill="none" stroke="black" d="M918.05,-993.17C917.67,-1037.63 913.42,-1159.64 880,-1254 874.27,-1270.17 873.49,-1276.41 860,-1287 838.54,-1303.85 808.84,-1312.66 785.56,-1317.23"/>
<polygon fill="black" stroke="black" points="784.93,-1313.79 775.7,-1318.99 786.16,-1320.68 784.93,-1313.79"/>
<text text-anchor="middle" x="915" y="-1145.3" font-family="Times,serif" font-size="14.00">18</text>
</g>
<!-- 14&#45;&gt;17 -->
<g id="edge10" class="edge">
<title>14&#45;&gt;17</title>
<path fill="none" stroke="black" d="M306.66,-870.91C313.45,-860.46 323.22,-846.97 334,-837 341.83,-829.76 351.36,-823.16 360.32,-817.7"/>
<polygon fill="black" stroke="black" points="362.14,-820.69 369.01,-812.62 358.61,-814.64 362.14,-820.69"/>
<text text-anchor="middle" x="341" y="-840.8" font-family="Times,serif" font-size="14.00">27</text>
</g>
<!-- 14&#45;&gt;16 -->
<g id="edge8" class="edge">
<title>14&#45;&gt;16</title>
<path fill="none" stroke="black" d="M297.41,-869.72C299.24,-802.46 307.98,-558.42 340,-489 358.44,-449.03 382.83,-453.11 408,-417 421.41,-397.77 448.67,-339.89 464.3,-305.83"/>
<polygon fill="black" stroke="black" points="467.59,-307.05 468.56,-296.5 461.22,-304.14 467.59,-307.05"/>
<text text-anchor="middle" x="326" y="-579.8" font-family="Times,serif" font-size="14.00">30</text>
</g>
<!-- 14&#45;&gt;12 -->
<g id="edge9" class="edge">
<title>14&#45;&gt;12</title>
<path fill="none" stroke="black" d="M275.05,-877.28C249.27,-864.21 210,-838.32 210,-802 210,-802 210,-802 210,-191 210,-171.75 210,-150.05 210,-133.4"/>
<polygon fill="black" stroke="black" points="213.5,-133.26 210,-123.26 206.5,-133.26 213.5,-133.26"/>
<text text-anchor="middle" x="217" y="-492.8" font-family="Times,serif" font-size="14.00">26</text>
</g>
<!-- 14&#45;&gt;5 -->
<g id="edge11" class="edge">
<title>14&#45;&gt;5</title>
<path fill="none" stroke="black" d="M323.27,-892.33C351.06,-896.64 395.56,-905.88 430,-924 443.69,-931.2 456.91,-942.19 467.27,-952.03"/>
<polygon fill="black" stroke="black" points="465.01,-954.72 474.59,-959.25 469.93,-949.73 465.01,-954.72"/>
<text text-anchor="middle" x="458" y="-927.8" font-family="Times,serif" font-size="14.00">29</text>
</g>
<!-- 13&#45;&gt;16 -->
<g id="edge52" class="edge">
<title>13&#45;&gt;16</title>
<path fill="none" stroke="black" d="M260.05,-33.76C298.25,-76.96 409.96,-203.31 455.91,-255.28"/>
<polygon fill="black" stroke="black" points="453.45,-257.78 462.7,-262.96 458.7,-253.15 453.45,-257.78"/>
<text text-anchor="middle" x="374" y="-144.8" font-family="Times,serif" font-size="14.00">28</text>
</g>
<!-- 13&#45;&gt;12 -->
<g id="edge53" class="edge">
<title>13&#45;&gt;12</title>
<path fill="none" stroke="black" d="M239.76,-35.63C234.5,-47.72 227.27,-64.33 221.25,-78.15"/>
<polygon fill="black" stroke="black" points="217.92,-77.05 217.13,-87.61 224.33,-79.84 217.92,-77.05"/>
<text text-anchor="middle" x="238" y="-57.8" font-family="Times,serif" font-size="14.00">25</text>
</g>
<!-- 13&#45;&gt;14 -->
<g id="edge51" class="edge">
<title>13&#45;&gt;14</title>
<path fill="none" stroke="black" d="M219.68,-18.17C163.02,-18.01 38,-26.44 38,-104 38,-236.5 38,-236.5 38,-236.5 38,-328.66 76.39,-345.41 98,-435 138.68,-603.64 113.88,-654.18 168,-819 173.09,-834.49 171.64,-841.38 184,-852 205.3,-870.31 236.09,-879.04 260.16,-883.21"/>
<polygon fill="black" stroke="black" points="259.93,-886.71 270.34,-884.77 260.99,-879.8 259.93,-886.71"/>
<text text-anchor="middle" x="114" y="-449.3" font-family="Times,serif" font-size="14.00">27</text>
</g>
<!-- 13&#45;&gt;19 -->
<g id="edge50" class="edge">
<title>13&#45;&gt;19</title>
<path fill="none" stroke="black" d="M274.19,-18.76C420.54,-17.85 1108,-18.1 1108,-104 1108,-541 1108,-541 1108,-541 1108,-631.87 790.65,-690.17 681.42,-707.54"/>
<polygon fill="black" stroke="black" points="680.56,-704.14 671.22,-709.14 681.64,-711.05 680.56,-704.14"/>
<text text-anchor="middle" x="1115" y="-362.3" font-family="Times,serif" font-size="14.00">24</text>
</g>
<!-- 15&#45;&gt;11 -->
<g id="edge24" class="edge">
<title>15&#45;&gt;11</title>
<path fill="none" stroke="black" d="M907.59,-546.22C926.98,-551.22 953.38,-560.37 972,-576 985.13,-587.03 986.66,-592.7 992,-609 1060.86,-819.09 1036,-883.41 1036,-1104.5 1036,-1411 1036,-1411 1036,-1411 1036,-1494.41 732.43,-1498.1 625.07,-1496.79"/>
<polygon fill="black" stroke="black" points="625.06,-1493.29 615.02,-1496.65 624.96,-1500.29 625.06,-1493.29"/>
<text text-anchor="middle" x="1044" y="-1014.8" font-family="Times,serif" font-size="14.00">28</text>
</g>
<!-- 15&#45;&gt;14 -->
<g id="edge23" class="edge">
<title>15&#45;&gt;14</title>
<path fill="none" stroke="black" d="M878.16,-557.91C865.62,-608.65 820.64,-759.74 718,-819 652.55,-856.79 423.72,-877.55 333.74,-884.41"/>
<polygon fill="black" stroke="black" points="333.43,-880.93 323.72,-885.16 333.96,-887.91 333.43,-880.93"/>
<text text-anchor="middle" x="832" y="-710.3" font-family="Times,serif" font-size="14.00">29</text>
</g>
<!-- 15&#45;&gt;0 -->
<g id="edge25" class="edge">
<title>15&#45;&gt;0</title>
<path fill="none" stroke="black" d="M868.09,-524.51C857.6,-514 842.58,-499.8 828,-489 818.5,-481.97 807.48,-475.19 797.5,-469.5"/>
<polygon fill="black" stroke="black" points="799.14,-466.41 788.7,-464.61 795.74,-472.53 799.14,-466.41"/>
<text text-anchor="middle" x="852" y="-492.8" font-family="Times,serif" font-size="14.00">32</text>
</g>
<!-- 0&#45;&gt;2 -->
<g id="edge63" class="edge">
<title>0&#45;&gt;2</title>
<path fill="none" stroke="black" d="M775.72,-470.3C791.61,-504.86 827.52,-588.43 840,-663 847.49,-707.71 841.26,-719.68 840,-765 839.33,-789.03 840.51,-795.22 837,-819 834.79,-833.93 833,-837.45 829,-852 827.66,-856.88 725.01,-1195.94 722,-1200 716.24,-1207.77 708.21,-1214.36 700.19,-1219.65"/>
<polygon fill="black" stroke="black" points="698.31,-1216.7 691.59,-1224.89 701.95,-1222.68 698.31,-1216.7"/>
<text text-anchor="middle" x="836.5" y="-840.8" font-family="Times,serif" font-size="14.00">2</text>
</g>
<!-- 0&#45;&gt;12 -->
<g id="edge64" class="edge">
<title>0&#45;&gt;12</title>
<path fill="none" stroke="black" d="M774.96,-435.39C781.41,-418.49 790,-391.39 790,-367 790,-367 790,-367 790,-234.5 790,-122.9 375.5,-108.15 247.31,-106.26"/>
<polygon fill="black" stroke="black" points="247.24,-102.76 237.2,-106.13 247.15,-109.76 247.24,-102.76"/>
<text text-anchor="middle" x="797" y="-275.3" font-family="Times,serif" font-size="14.00">19</text>
</g>
<!-- 0&#45;&gt;7 -->
<g id="edge62" class="edge">
<title>0&#45;&gt;7</title>
<path fill="none" stroke="black" d="M752.08,-468C746.22,-473.94 740.04,-481.27 736,-489 684.71,-587.14 726.16,-630.89 681,-732 650.32,-800.69 620.68,-804.89 583,-870 565.66,-899.97 525.71,-990.36 506.17,-1035.2"/>
<polygon fill="black" stroke="black" points="502.89,-1033.98 502.11,-1044.55 509.31,-1036.77 502.89,-1033.98"/>
<text text-anchor="middle" x="679" y="-753.8" font-family="Times,serif" font-size="14.00">18</text>
</g>
<!-- 0&#45;&gt;3 -->
<g id="edge61" class="edge">
<title>0&#45;&gt;3</title>
<path fill="none" stroke="black" d="M751.93,-438.34C735.68,-424.53 710.36,-403.01 691.78,-387.21"/>
<polygon fill="black" stroke="black" points="693.91,-384.43 684.03,-380.62 689.38,-389.77 693.91,-384.43"/>
<text text-anchor="middle" x="726.5" y="-405.8" font-family="Times,serif" font-size="14.00">1</text>
</g>
<!-- 5&#45;&gt;14 -->
<g id="edge40" class="edge">
<title>5&#45;&gt;14</title>
<path fill="none" stroke="black" d="M467.76,-962.98C455.36,-956.17 439.19,-947.2 425,-939 413.78,-932.52 411.76,-929.45 400,-924 377.87,-913.74 351.84,-904.92 331.49,-898.71"/>
<polygon fill="black" stroke="black" points="332.29,-895.29 321.71,-895.78 330.29,-902 332.29,-895.29"/>
<text text-anchor="middle" x="428.5" y="-927.8" font-family="Times,serif" font-size="14.00">9</text>
</g>
<!-- 5&#45;&gt;7 -->
<g id="edge38" class="edge">
<title>5&#45;&gt;7</title>
<path fill="none" stroke="black" d="M489.41,-993.18C490.37,-1004.81 491.66,-1020.42 492.75,-1033.73"/>
<polygon fill="black" stroke="black" points="489.27,-1034.12 493.58,-1043.8 496.25,-1033.55 489.27,-1034.12"/>
<text text-anchor="middle" x="498" y="-1014.8" font-family="Times,serif" font-size="14.00">12</text>
</g>
<!-- 5&#45;&gt;6 -->
<g id="edge39" class="edge">
<title>5&#45;&gt;6</title>
<path fill="none" stroke="black" d="M490.01,-956.92C490.67,-951.22 491.39,-944.84 492,-939 505.01,-815.32 460.37,-760.16 538,-663 546.7,-652.11 559.69,-644.27 572,-638.81"/>
<polygon fill="black" stroke="black" points="573.66,-641.91 581.63,-634.92 571.04,-635.42 573.66,-641.91"/>
<text text-anchor="middle" x="498" y="-797.3" font-family="Times,serif" font-size="14.00">11</text>
</g>
<!-- 5&#45;&gt;3 -->
<g id="edge41" class="edge">
<title>5&#45;&gt;3</title>
<path fill="none" stroke="black" d="M486.9,-956.81C484.72,-919.2 480.7,-826.85 488,-750 490.29,-725.91 487.7,-719.07 495,-696 533.65,-573.86 616.39,-443.31 651.6,-390.84"/>
<polygon fill="black" stroke="black" points="654.51,-392.78 657.21,-382.54 648.71,-388.86 654.51,-392.78"/>
<text text-anchor="middle" x="509.5" y="-666.8" font-family="Times,serif" font-size="14.00">8</text>
</g>
<!-- 7&#45;&gt;2 -->
<g id="edge67" class="edge">
<title>7&#45;&gt;2</title>
<path fill="none" stroke="black" d="M510.08,-1077.13C524.19,-1090.58 545.65,-1111.58 563,-1131 589.13,-1160.24 589.18,-1173.41 618,-1200 625.17,-1206.61 633.69,-1212.88 641.73,-1218.24"/>
<polygon fill="black" stroke="black" points="639.89,-1221.21 650.19,-1223.67 643.67,-1215.32 639.89,-1221.21"/>
<text text-anchor="middle" x="596" y="-1145.3" font-family="Times,serif" font-size="14.00">13</text>
</g>
<!-- 7&#45;&gt;8 -->
<g id="edge66" class="edge">
<title>7&#45;&gt;8</title>
<path fill="none" stroke="black" d="M518.35,-1052.81C550.54,-1041.81 610.5,-1022.35 663,-1011 739.86,-994.39 831.55,-984.08 881.36,-979.25"/>
<polygon fill="black" stroke="black" points="881.71,-982.73 891.34,-978.31 881.05,-975.77 881.71,-982.73"/>
<text text-anchor="middle" x="670" y="-1014.8" font-family="Times,serif" font-size="14.00">15</text>
</g>
<!-- 7&#45;&gt;14 -->
<g id="edge68" class="edge">
<title>7&#45;&gt;14</title>
<path fill="none" stroke="black" d="M470.81,-1053.8C453.86,-1048.01 431.25,-1038.74 414,-1026 370.9,-994.18 333.1,-943.61 312.8,-913.63"/>
<polygon fill="black" stroke="black" points="315.53,-911.41 307.07,-905.03 309.7,-915.29 315.53,-911.41"/>
<text text-anchor="middle" x="383" y="-971.3" font-family="Times,serif" font-size="14.00">16</text>
</g>
<!-- 7&#45;&gt;5 -->
<g id="edge65" class="edge">
<title>7&#45;&gt;5</title>
<path fill="none" stroke="black" d="M482.9,-1045.88C478.93,-1040.02 475.03,-1033.03 473,-1026 470.71,-1018.04 471.96,-1009.39 474.53,-1001.56"/>
<polygon fill="black" stroke="black" points="477.81,-1002.77 478.3,-992.19 471.32,-1000.15 477.81,-1002.77"/>
<text text-anchor="middle" x="480" y="-1014.8" font-family="Times,serif" font-size="14.00">12</text>
</g>
<!-- 18&#45;&gt;17 -->
<g id="edge7" class="edge">
<title>18&#45;&gt;17</title>
<path fill="none" stroke="black" d="M324,-210.26C324,-227.43 324,-254.54 324,-278 324,-410.5 324,-410.5 324,-410.5 324,-488.79 362,-504.21 362,-582.5 362,-715 362,-715 362,-715 362,-735.72 369.59,-757.91 376.87,-774.42"/>
<polygon fill="black" stroke="black" points="373.9,-776.32 381.29,-783.91 380.24,-773.36 373.9,-776.32"/>
<text text-anchor="middle" x="353" y="-492.8" font-family="Times,serif" font-size="14.00">35</text>
</g>
<!-- 18&#45;&gt;12 -->
<g id="edge6" class="edge">
<title>18&#45;&gt;12</title>
<path fill="none" stroke="black" d="M306.69,-178.09C287.77,-163.99 257.28,-141.25 235.6,-125.09"/>
<polygon fill="black" stroke="black" points="237.59,-122.2 227.48,-119.03 233.4,-127.81 237.59,-122.2"/>
<text text-anchor="middle" x="281" y="-144.8" font-family="Times,serif" font-size="14.00">37</text>
</g>
<!-- 18&#45;&gt;6 -->
<g id="edge5" class="edge">
<title>18&#45;&gt;6</title>
<path fill="none" stroke="black" d="M335.61,-208.37C346.78,-224.73 362,-251.81 362,-278 362,-410.5 362,-410.5 362,-410.5 362,-467.47 513.3,-568.34 577.61,-608.65"/>
<polygon fill="black" stroke="black" points="576.11,-611.83 586.44,-614.15 579.8,-605.89 576.11,-611.83"/>
<text text-anchor="middle" x="370" y="-405.8" font-family="Times,serif" font-size="14.00">34</text>
</g>
<!-- 19&#45;&gt;2 -->
<g id="edge14" class="edge">
<title>19&#45;&gt;2</title>
<path fill="none" stroke="black" d="M650.81,-731.71C666.3,-778.05 706.85,-912.28 699,-1026 694.46,-1091.78 681.97,-1168.38 674.95,-1208.07"/>
<polygon fill="black" stroke="black" points="671.49,-1207.56 673.17,-1218.02 678.38,-1208.79 671.49,-1207.56"/>
<text text-anchor="middle" x="706" y="-971.3" font-family="Times,serif" font-size="14.00">21</text>
</g>
<!-- 19&#45;&gt;17 -->
<g id="edge13" class="edge">
<title>19&#45;&gt;17</title>
<path fill="none" stroke="black" d="M621.15,-722.95C575.48,-738.17 475.55,-771.48 423.31,-788.9"/>
<polygon fill="black" stroke="black" points="421.91,-785.67 413.53,-792.16 424.13,-792.31 421.91,-785.67"/>
<text text-anchor="middle" x="539" y="-753.8" font-family="Times,serif" font-size="14.00">36</text>
</g>
<!-- 19&#45;&gt;6 -->
<g id="edge12" class="edge">
<title>19&#45;&gt;6</title>
<path fill="none" stroke="black" d="M634.71,-697.33C631.06,-691.41 627.1,-684.53 624,-678 620.48,-670.58 617.23,-662.28 614.49,-654.6"/>
<polygon fill="black" stroke="black" points="617.76,-653.32 611.2,-645 611.13,-655.59 617.76,-653.32"/>
<text text-anchor="middle" x="631" y="-666.8" font-family="Times,serif" font-size="14.00">37</text>
</g>
<!-- 6&#45;&gt;4 -->
<g id="edge44" class="edge">
<title>6&#45;&gt;4</title>
<path fill="none" stroke="black" d="M600.52,-644.73C593.21,-668.02 580.64,-711.67 576,-750 565.9,-833.39 586.84,-855.58 577,-939 569.12,-1005.83 547.52,-1082.25 535.45,-1121.56"/>
<polygon fill="black" stroke="black" points="532.08,-1120.59 532.46,-1131.18 538.77,-1122.67 532.08,-1120.59"/>
<text text-anchor="middle" x="586" y="-884.3" font-family="Times,serif" font-size="14.00">10</text>
</g>
<!-- 6&#45;&gt;15 -->
<g id="edge43" class="edge">
<title>6&#45;&gt;15</title>
<path fill="none" stroke="black" d="M630.01,-618.61C679.15,-603.47 791.32,-568.93 847.95,-551.49"/>
<polygon fill="black" stroke="black" points="849.32,-554.73 857.85,-548.44 847.26,-548.04 849.32,-554.73"/>
<text text-anchor="middle" x="767" y="-579.8" font-family="Times,serif" font-size="14.00">14</text>
</g>
<!-- 6&#45;&gt;5 -->
<g id="edge42" class="edge">
<title>6&#45;&gt;5</title>
<path fill="none" stroke="black" d="M591.32,-642.28C585.86,-648.25 580.02,-655.53 576,-663 515.97,-774.41 549.91,-820.31 506,-939 504.78,-942.3 503.32,-945.7 501.76,-949.01"/>
<polygon fill="black" stroke="black" points="498.62,-947.48 497.26,-957.99 504.87,-950.62 498.62,-947.48"/>
<text text-anchor="middle" x="543" y="-797.3" font-family="Times,serif" font-size="14.00">11</text>
</g>
<!-- 6&#45;&gt;19 -->
<g id="edge45" class="edge">
<title>6&#45;&gt;19</title>
<path fill="none" stroke="black" d="M622.26,-641.83C628.16,-647.75 634.28,-655.1 638,-663 641.25,-669.9 643.1,-677.88 644.12,-685.42"/>
<polygon fill="black" stroke="black" points="640.66,-685.99 645.08,-695.61 647.63,-685.33 640.66,-685.99"/>
<text text-anchor="middle" x="649" y="-666.8" font-family="Times,serif" font-size="14.00">13</text>
</g>
<!-- 10&#45;&gt;2 -->
<g id="edge19" class="edge">
<title>10&#45;&gt;2</title>
<path fill="none" stroke="black" d="M735.24,-1307.19C722.89,-1293.91 704.6,-1274.23 690.53,-1259.08"/>
<polygon fill="black" stroke="black" points="692.97,-1256.58 683.6,-1251.64 687.85,-1261.34 692.97,-1256.58"/>
<text text-anchor="middle" x="721" y="-1275.8" font-family="Times,serif" font-size="14.00">22</text>
</g>
<!-- 10&#45;&gt;8 -->
<g id="edge22" class="edge">
<title>10&#45;&gt;8</title>
<path fill="none" stroke="black" d="M774.24,-1316.06C809.17,-1306.16 868,-1282.7 868,-1237 868,-1237 868,-1237 868,-1061 868,-1037.09 882.88,-1013.97 896.41,-997.9"/>
<polygon fill="black" stroke="black" points="899.25,-999.97 903.27,-990.16 894.01,-995.32 899.25,-999.97"/>
<text text-anchor="middle" x="875" y="-1145.3" font-family="Times,serif" font-size="14.00">18</text>
</g>
<!-- 10&#45;&gt;0 -->
<g id="edge20" class="edge">
<title>10&#45;&gt;0</title>
<path fill="none" stroke="black" d="M761.18,-1306.64C765.39,-1300.76 769.84,-1293.82 773,-1287 779.39,-1273.2 778.79,-1268.86 782,-1254 837.92,-995.31 880.82,-926.4 855,-663 847.1,-582.41 843.96,-557.64 801,-489 798.01,-484.22 794.3,-479.53 790.46,-475.21"/>
<polygon fill="black" stroke="black" points="792.96,-472.75 783.54,-467.9 787.87,-477.57 792.96,-472.75"/>
<text text-anchor="middle" x="867" y="-884.3" font-family="Times,serif" font-size="14.00">19</text>
</g>
<!-- 10&#45;&gt;19 -->
<g id="edge21" class="edge">
<title>10&#45;&gt;19</title>
<path fill="none" stroke="black" d="M753.44,-1305.1C765.14,-1258.26 794.94,-1122.87 780,-1011 766.1,-906.91 772.28,-872.9 718,-783 716.22,-780.06 688.59,-754.62 667.84,-735.72"/>
<polygon fill="black" stroke="black" points="670.05,-733 660.3,-728.85 665.34,-738.17 670.05,-733"/>
<text text-anchor="middle" x="788" y="-1014.8" font-family="Times,serif" font-size="14.00">21</text>
</g>
<!-- 3&#45;&gt;2 -->
<g id="edge36" class="edge">
<title>3&#45;&gt;2</title>
<path fill="none" stroke="black" d="M673.67,-383.79C677.07,-393.55 681.57,-406.05 686,-417 737.08,-543.11 783.36,-562.99 812,-696 836.25,-808.6 735.51,-1093.76 691,-1200 689.55,-1203.47 687.79,-1207.01 685.92,-1210.44"/>
<polygon fill="black" stroke="black" points="682.87,-1208.73 680.84,-1219.13 688.91,-1212.26 682.87,-1208.73"/>
<text text-anchor="middle" x="815.5" y="-797.3" font-family="Times,serif" font-size="14.00">5</text>
</g>
<!-- 3&#45;&gt;17 -->
<g id="edge34" class="edge">
<title>3&#45;&gt;17</title>
<path fill="none" stroke="black" d="M641.44,-369.79C602.05,-374.43 530.75,-384.97 512,-402 388.31,-514.37 480.2,-611.56 414,-765 412.37,-768.77 410.31,-772.56 408.09,-776.19"/>
<polygon fill="black" stroke="black" points="405.02,-774.47 402.37,-784.73 410.84,-778.37 405.02,-774.47"/>
<text text-anchor="middle" x="445.5" y="-579.8" font-family="Times,serif" font-size="14.00">4</text>
</g>
<!-- 3&#45;&gt;16 -->
<g id="edge35" class="edge">
<title>3&#45;&gt;16</title>
<path fill="none" stroke="black" d="M645.98,-355.25C611.92,-340.17 546.36,-311.15 507.37,-293.89"/>
<polygon fill="black" stroke="black" points="508.62,-290.62 498.06,-289.77 505.79,-297.02 508.62,-290.62"/>
<text text-anchor="middle" x="586.5" y="-318.8" font-family="Times,serif" font-size="14.00">7</text>
</g>
<!-- 3&#45;&gt;0 -->
<g id="edge37" class="edge">
<title>3&#45;&gt;0</title>
<path fill="none" stroke="black" d="M677.13,-383.31C683.62,-393.86 693.1,-407.37 704,-417 713.54,-425.43 725.46,-432.64 736.42,-438.28"/>
<polygon fill="black" stroke="black" points="735.2,-441.58 745.72,-442.83 738.27,-435.29 735.2,-441.58"/>
<text text-anchor="middle" x="707.5" y="-405.8" font-family="Times,serif" font-size="14.00">8</text>
</g>
</g>
</svg>
