<?xml version="1.0" encoding="UTF-8" standalone="no"?>
<!DOCTYPE svg PUBLIC "-//W3C//DTD SVG 1.1//EN"
 "http://www.w3.org/Graphics/SVG/1.1/DTD/svg11.dtd">
<!-- Generated by graphviz version 10.0.1 (20240210.2158)
 -->
<!-- Title: di_graph Pages: 1 -->
<svg width="430pt" height="487pt"
 viewBox="0.00 0.00 429.50 486.50" xmlns="http://www.w3.org/2000/svg" xmlns:xlink="http://www.w3.org/1999/xlink">
<g id="graph0" class="graph" transform="scale(1 1) rotate(0) translate(4 482.5)">
<title>di_graph</title>
<polygon fill="white" stroke="none" points="-4,4 -4,-482.5 425.5,-482.5 425.5,4 -4,4"/>
<!-- 5 -->
<g id="node1" class="node">
<title>5</title>
<ellipse fill="none" stroke="black" cx="102" cy="-460.5" rx="27" ry="18"/>
<text text-anchor="middle" x="102" y="-455.45" font-family="Times,serif" font-size="14.00">5 0</text>
</g>
<!-- 6 -->
<g id="node2" class="node">
<title>6</title>
<ellipse fill="none" stroke="black" cx="52" cy="-283.5" rx="27" ry="18"/>
<text text-anchor="middle" x="52" y="-278.45" font-family="Times,serif" font-size="14.00">6 0</text>
</g>
<!-- 5&#45;&gt;6 -->
<g id="edge4" class="edge">
<title>5&#45;&gt;6</title>
<path fill="none" stroke="black" d="M97.11,-442.4C88.49,-412.21 70.49,-349.2 60.02,-312.56"/>
<polygon fill="black" stroke="black" points="63.43,-311.78 57.32,-303.12 56.7,-313.7 63.43,-311.78"/>
<text text-anchor="middle" x="88.75" y="-366.95" font-family="Times,serif" font-size="14.00">11</text>
</g>
<!-- 7 -->
<g id="node3" class="node">
<title>7</title>
<ellipse fill="none" stroke="black" cx="315" cy="-106.5" rx="27" ry="18"/>
<text text-anchor="middle" x="315" y="-101.45" font-family="Times,serif" font-size="14.00">7 0</text>
</g>
<!-- 5&#45;&gt;7 -->
<g id="edge6" class="edge">
<title>5&#45;&gt;7</title>
<path fill="none" stroke="black" d="M129.16,-457.66C204.05,-451.84 408,-430.69 408,-373 408,-373 408,-373 408,-194 408,-160.13 374.52,-135.76 347.73,-121.69"/>
<polygon fill="black" stroke="black" points="349.38,-118.6 338.87,-117.3 346.28,-124.87 349.38,-118.6"/>
<text text-anchor="middle" x="414.75" y="-278.45" font-family="Times,serif" font-size="14.00">12</text>
</g>
<!-- 0 -->
<g id="node7" class="node">
<title>0</title>
<ellipse fill="none" stroke="black" cx="153" cy="-372" rx="27" ry="18"/>
<text text-anchor="middle" x="153" y="-366.95" font-family="Times,serif" font-size="14.00">0 0</text>
</g>
<!-- 5&#45;&gt;0 -->
<g id="edge5" class="edge">
<title>5&#45;&gt;0</title>
<path fill="none" stroke="black" d="M111.59,-443.23C118.93,-430.79 129.19,-413.38 137.66,-399.01"/>
<polygon fill="black" stroke="black" points="140.62,-400.89 142.68,-390.5 134.59,-397.34 140.62,-400.89"/>
<text text-anchor="middle" x="136.38" y="-411.2" font-family="Times,serif" font-size="14.00">5</text>
</g>
<!-- 8 -->
<g id="node9" class="node">
<title>8</title>
<ellipse fill="none" stroke="black" cx="315" cy="-18" rx="27" ry="18"/>
<text text-anchor="middle" x="315" y="-12.95" font-family="Times,serif" font-size="14.00">8 0</text>
</g>
<!-- 7&#45;&gt;8 -->
<g id="edge12" class="edge">
<title>7&#45;&gt;8</title>
<path fill="none" stroke="black" d="M315,-88.41C315,-76.76 315,-61.05 315,-47.52"/>
<polygon fill="black" stroke="black" points="318.5,-47.86 315,-37.86 311.5,-47.86 318.5,-47.86"/>
<text text-anchor="middle" x="321.75" y="-57.2" font-family="Times,serif" font-size="14.00">15</text>
</g>
<!-- 1 -->
<g id="node4" class="node">
<title>1</title>
<ellipse fill="none" stroke="black" cx="155" cy="-195" rx="27" ry="18"/>
<text text-anchor="middle" x="155" y="-189.95" font-family="Times,serif" font-size="14.00">1 0</text>
</g>
<!-- 2 -->
<g id="node8" class="node">
<title>2</title>
<ellipse fill="none" stroke="black" cx="100" cy="-106.5" rx="27" ry="18"/>
<text text-anchor="middle" x="100" y="-101.45" font-family="Times,serif" font-size="14.00">2 0</text>
</g>
<!-- 1&#45;&gt;2 -->
<g id="edge19" class="edge">
<title>1&#45;&gt;2</title>
<path fill="none" stroke="black" d="M144.91,-178.13C136.9,-165.53 125.54,-147.66 116.25,-133.05"/>
<polygon fill="black" stroke="black" points="119.34,-131.4 111.02,-124.84 113.43,-135.15 119.34,-131.4"/>
<text text-anchor="middle" x="136.38" y="-145.7" font-family="Times,serif" font-size="14.00">3</text>
</g>
<!-- 1&#45;&gt;8 -->
<g id="edge18" class="edge">
<title>1&#45;&gt;8</title>
<path fill="none" stroke="black" d="M158.85,-176.9C164.62,-154.46 177.37,-114.82 200.25,-88.5 222.45,-62.97 256.4,-44.04 281.62,-32.43"/>
<polygon fill="black" stroke="black" points="282.72,-35.77 290.45,-28.52 279.89,-29.37 282.72,-35.77"/>
<text text-anchor="middle" x="204.38" y="-101.45" font-family="Times,serif" font-size="14.00">9</text>
</g>
<!-- 9 -->
<g id="node5" class="node">
<title>9</title>
<ellipse fill="none" stroke="black" cx="299" cy="-283.5" rx="27" ry="18"/>
<text text-anchor="middle" x="299" y="-278.45" font-family="Times,serif" font-size="14.00">9 0</text>
</g>
<!-- 9&#45;&gt;1 -->
<g id="edge1" class="edge">
<title>9&#45;&gt;1</title>
<path fill="none" stroke="black" d="M279.28,-270.65C254.72,-255.9 212.55,-230.57 184.23,-213.56"/>
<polygon fill="black" stroke="black" points="186.15,-210.63 175.78,-208.48 182.55,-216.63 186.15,-210.63"/>
<text text-anchor="middle" x="246.75" y="-234.2" font-family="Times,serif" font-size="14.00">10</text>
</g>
<!-- 9&#45;&gt;8 -->
<g id="edge3" class="edge">
<title>9&#45;&gt;8</title>
<path fill="none" stroke="black" d="M313.47,-268.11C318.9,-262.12 324.77,-254.85 329,-247.5 364.55,-185.65 367.89,-157.81 351,-88.5 347.23,-73.03 339.37,-57.16 331.95,-44.5"/>
<polygon fill="black" stroke="black" points="334.94,-42.67 326.72,-35.98 328.97,-46.33 334.94,-42.67"/>
<text text-anchor="middle" x="366.75" y="-145.7" font-family="Times,serif" font-size="14.00">17</text>
</g>
<!-- 4 -->
<g id="node10" class="node">
<title>4</title>
<ellipse fill="none" stroke="black" cx="265" cy="-195" rx="27" ry="18"/>
<text text-anchor="middle" x="265" y="-189.95" font-family="Times,serif" font-size="14.00">4 0</text>
</g>
<!-- 9&#45;&gt;4 -->
<g id="edge2" class="edge">
<title>9&#45;&gt;4</title>
<path fill="none" stroke="black" d="M292.44,-265.82C287.72,-253.81 281.25,-237.34 275.78,-223.41"/>
<polygon fill="black" stroke="black" points="279.12,-222.36 272.21,-214.33 272.61,-224.92 279.12,-222.36"/>
<text text-anchor="middle" x="291.75" y="-234.2" font-family="Times,serif" font-size="14.00">13</text>
</g>
<!-- 3 -->
<g id="node6" class="node">
<title>3</title>
<ellipse fill="none" stroke="black" cx="243" cy="-106.5" rx="27" ry="18"/>
<text text-anchor="middle" x="243" y="-101.45" font-family="Times,serif" font-size="14.00">3 0</text>
</g>
<!-- 3&#45;&gt;9 -->
<g id="edge8" class="edge">
<title>3&#45;&gt;9</title>
<path fill="none" stroke="black" d="M264.61,-117.79C284.32,-127.27 310.6,-140.23 312,-142.5 333.18,-176.99 321.47,-225.54 310.59,-255.46"/>
<polygon fill="black" stroke="black" points="307.42,-253.95 307.08,-264.54 313.95,-256.47 307.42,-253.95"/>
<text text-anchor="middle" x="329.75" y="-189.95" font-family="Times,serif" font-size="14.00">12</text>
</g>
<!-- 3&#45;&gt;0 -->
<g id="edge7" class="edge">
<title>3&#45;&gt;0</title>
<path fill="none" stroke="black" d="M237.95,-124.59C226.54,-162.83 197.42,-258.07 168,-336 167.03,-338.56 165.99,-341.2 164.92,-343.84"/>
<polygon fill="black" stroke="black" points="161.72,-342.42 161.06,-352.99 168.17,-345.13 161.72,-342.42"/>
<text text-anchor="middle" x="207.38" y="-234.2" font-family="Times,serif" font-size="14.00">3</text>
</g>
<!-- 0&#45;&gt;6 -->
<g id="edge13" class="edge">
<title>0&#45;&gt;6</title>
<path fill="none" stroke="black" d="M130.1,-361.79C116.92,-355.75 100.57,-346.95 88.25,-336 80.06,-328.72 72.72,-319.24 66.83,-310.4"/>
<polygon fill="black" stroke="black" points="69.91,-308.73 61.62,-302.13 63.98,-312.46 69.91,-308.73"/>
<text text-anchor="middle" x="92.38" y="-322.7" font-family="Times,serif" font-size="14.00">6</text>
</g>
<!-- 0&#45;&gt;1 -->
<g id="edge14" class="edge">
<title>0&#45;&gt;1</title>
<path fill="none" stroke="black" d="M153.2,-353.58C153.54,-323.44 154.25,-261.3 154.67,-224.7"/>
<polygon fill="black" stroke="black" points="158.17,-224.9 154.78,-214.86 151.17,-224.82 158.17,-224.9"/>
<text text-anchor="middle" x="158.38" y="-278.45" font-family="Times,serif" font-size="14.00">1</text>
</g>
<!-- 0&#45;&gt;9 -->
<g id="edge15" class="edge">
<title>0&#45;&gt;9</title>
<path fill="none" stroke="black" d="M178.18,-364.97C198.17,-359.44 226.27,-349.98 248,-336 259.67,-328.49 270.74,-317.9 279.58,-308.27"/>
<polygon fill="black" stroke="black" points="282.04,-310.78 286.01,-300.95 276.78,-306.16 282.04,-310.78"/>
<text text-anchor="middle" x="271.38" y="-322.7" font-family="Times,serif" font-size="14.00">9</text>
</g>
<!-- 2&#45;&gt;5 -->
<g id="edge16" class="edge">
<title>2&#45;&gt;5</title>
<path fill="none" stroke="black" d="M76.55,-115.83C47,-128.01 0,-153.71 0,-194 0,-373 0,-373 0,-373 0,-409.4 38.24,-433.65 67.89,-446.99"/>
<polygon fill="black" stroke="black" points="66.38,-450.15 76.95,-450.82 69.1,-443.7 66.38,-450.15"/>
<text text-anchor="middle" x="3.38" y="-278.45" font-family="Times,serif" font-size="14.00">7</text>
</g>
<!-- 2&#45;&gt;0 -->
<g id="edge17" class="edge">
<title>2&#45;&gt;0</title>
<path fill="none" stroke="black" d="M102.92,-124.71C106.5,-145.62 112.87,-181.96 119,-213 128.02,-258.64 139.62,-311.45 146.67,-342.98"/>
<polygon fill="black" stroke="black" points="143.2,-343.5 148.81,-352.49 150.03,-341.97 143.2,-343.5"/>
<text text-anchor="middle" x="129.38" y="-234.2" font-family="Times,serif" font-size="14.00">2</text>
</g>
<!-- 4&#45;&gt;7 -->
<g id="edge9" class="edge">
<title>4&#45;&gt;7</title>
<path fill="none" stroke="black" d="M274.4,-177.73C281.6,-165.29 291.66,-147.88 299.97,-133.51"/>
<polygon fill="black" stroke="black" points="302.91,-135.42 304.88,-125.01 296.85,-131.91 302.91,-135.42"/>
<text text-anchor="middle" x="300.75" y="-145.7" font-family="Times,serif" font-size="14.00">11</text>
</g>
<!-- 4&#45;&gt;3 -->
<g id="edge11" class="edge">
<title>4&#45;&gt;3</title>
<path fill="none" stroke="black" d="M260.65,-176.91C257.64,-165.06 253.56,-149.02 250.08,-135.34"/>
<polygon fill="black" stroke="black" points="253.57,-134.85 247.71,-126.02 246.78,-136.58 253.57,-134.85"/>
<text text-anchor="middle" x="259.38" y="-145.7" font-family="Times,serif" font-size="14.00">7</text>
</g>
<!-- 4&#45;&gt;0 -->
<g id="edge10" class="edge">
<title>4&#45;&gt;0</title>
<path fill="none" stroke="black" d="M254.27,-211.66C250.46,-217.58 246.29,-224.46 243,-231 220.46,-275.74 232.77,-296.47 202,-336 196.79,-342.69 189.96,-348.66 183.06,-353.69"/>
<polygon fill="black" stroke="black" points="181.36,-350.61 175.02,-359.1 185.27,-356.42 181.36,-350.61"/>
<text text-anchor="middle" x="234.38" y="-278.45" font-family="Times,serif" font-size="14.00">4</text>
</g>
</g>
</svg>
