<?xml version="1.0" encoding="UTF-8" standalone="no"?>
<!DOCTYPE svg PUBLIC "-//W3C//DTD SVG 1.1//EN"
 "http://www.w3.org/Graphics/SVG/1.1/DTD/svg11.dtd">
<!-- Generated by graphviz version 5.0.0 (0)
 -->
<!-- Title: di_graph Pages: 1 -->
<svg width="662pt" height="674pt"
 viewBox="0.00 0.00 662.00 674.00" xmlns="http://www.w3.org/2000/svg" xmlns:xlink="http://www.w3.org/1999/xlink">
<g id="graph0" class="graph" transform="scale(1 1) rotate(0) translate(4 670)">
<title>di_graph</title>
<polygon fill="white" stroke="transparent" points="-4,4 -4,-670 658,-670 658,4 -4,4"/>
<!-- 12 -->
<g id="node1" class="node">
<title>12</title>
<ellipse fill="none" stroke="black" cx="375" cy="-648" rx="27" ry="18"/>
<text text-anchor="middle" x="375" y="-644.3" font-family="Times,serif" font-size="14.00">12 0</text>
</g>
<!-- 2 -->
<g id="node5" class="node">
<title>2</title>
<ellipse fill="none" stroke="black" cx="315" cy="-561" rx="27" ry="18"/>
<text text-anchor="middle" x="315" y="-557.3" font-family="Times,serif" font-size="14.00">2 0</text>
</g>
<!-- 12&#45;&gt;2 -->
<g id="edge22" class="edge">
<title>12&#45;&gt;2</title>
<path fill="none" stroke="black" d="M364,-631.41C355.03,-618.71 342.22,-600.56 331.95,-586.01"/>
<polygon fill="black" stroke="black" points="334.56,-583.64 325.94,-577.49 328.84,-587.68 334.56,-583.64"/>
<text text-anchor="middle" x="355" y="-600.8" font-family="Times,serif" font-size="14.00">14</text>
</g>
<!-- 0 -->
<g id="node20" class="node">
<title>0</title>
<ellipse fill="none" stroke="black" cx="197" cy="-366" rx="27" ry="18"/>
<text text-anchor="middle" x="197" y="-362.3" font-family="Times,serif" font-size="14.00">0 0</text>
</g>
<!-- 12&#45;&gt;0 -->
<g id="edge21" class="edge">
<title>12&#45;&gt;0</title>
<path fill="none" stroke="black" d="M348.43,-643.77C306.58,-637.55 224.4,-620.63 169,-579 145.74,-561.52 141.76,-552.41 132,-525 113.62,-473.36 93.68,-448.31 123,-402 131.59,-388.44 147,-380.03 161.54,-374.87"/>
<polygon fill="black" stroke="black" points="162.88,-378.12 171.38,-371.79 160.79,-371.44 162.88,-378.12"/>
<text text-anchor="middle" x="139" y="-503.3" font-family="Times,serif" font-size="14.00">12</text>
</g>
<!-- 9 -->
<g id="node2" class="node">
<title>9</title>
<ellipse fill="none" stroke="black" cx="552" cy="-561" rx="27" ry="18"/>
<text text-anchor="middle" x="552" y="-557.3" font-family="Times,serif" font-size="14.00">9 0</text>
</g>
<!-- 4 -->
<g id="node6" class="node">
<title>4</title>
<ellipse fill="none" stroke="black" cx="451" cy="-453" rx="27" ry="18"/>
<text text-anchor="middle" x="451" y="-449.3" font-family="Times,serif" font-size="14.00">4 0</text>
</g>
<!-- 9&#45;&gt;4 -->
<g id="edge30" class="edge">
<title>9&#45;&gt;4</title>
<path fill="none" stroke="black" d="M537.96,-545.26C520.85,-527.3 491.78,-496.8 472,-476.04"/>
<polygon fill="black" stroke="black" points="474.36,-473.44 464.92,-468.61 469.29,-478.27 474.36,-473.44"/>
<text text-anchor="middle" x="523" y="-503.3" font-family="Times,serif" font-size="14.00">13</text>
</g>
<!-- 3 -->
<g id="node11" class="node">
<title>3</title>
<ellipse fill="none" stroke="black" cx="501" cy="-366" rx="27" ry="18"/>
<text text-anchor="middle" x="501" y="-362.3" font-family="Times,serif" font-size="14.00">3 0</text>
</g>
<!-- 9&#45;&gt;3 -->
<g id="edge29" class="edge">
<title>9&#45;&gt;3</title>
<path fill="none" stroke="black" d="M547.56,-543.21C538.69,-509.63 518.7,-433.97 508.02,-393.58"/>
<polygon fill="black" stroke="black" points="511.4,-392.66 505.46,-383.89 504.63,-394.45 511.4,-392.66"/>
<text text-anchor="middle" x="535" y="-449.3" font-family="Times,serif" font-size="14.00">12</text>
</g>
<!-- 7 -->
<g id="node12" class="node">
<title>7</title>
<ellipse fill="none" stroke="black" cx="575" cy="-105" rx="27" ry="18"/>
<text text-anchor="middle" x="575" y="-101.3" font-family="Times,serif" font-size="14.00">7 0</text>
</g>
<!-- 9&#45;&gt;7 -->
<g id="edge31" class="edge">
<title>9&#45;&gt;7</title>
<path fill="none" stroke="black" d="M562.6,-544.25C575.04,-524.19 594,-488.05 594,-454 594,-454 594,-454 594,-191 594,-170.96 588.91,-148.9 584,-132.27"/>
<polygon fill="black" stroke="black" points="587.33,-131.19 581.01,-122.69 580.65,-133.28 587.33,-131.19"/>
<text text-anchor="middle" x="601" y="-318.8" font-family="Times,serif" font-size="14.00">16</text>
</g>
<!-- 15 -->
<g id="node3" class="node">
<title>15</title>
<ellipse fill="none" stroke="black" cx="27" cy="-507" rx="27" ry="18"/>
<text text-anchor="middle" x="27" y="-503.3" font-family="Times,serif" font-size="14.00">15 0</text>
</g>
<!-- 18 -->
<g id="node9" class="node">
<title>18</title>
<ellipse fill="none" stroke="black" cx="213" cy="-18" rx="27" ry="18"/>
<text text-anchor="middle" x="213" y="-14.3" font-family="Times,serif" font-size="14.00">18 0</text>
</g>
<!-- 15&#45;&gt;18 -->
<g id="edge16" class="edge">
<title>15&#45;&gt;18</title>
<path fill="none" stroke="black" d="M29.89,-488.8C32.85,-469.73 37,-438.01 37,-410.5 37,-410.5 37,-410.5 37,-104 37,-42.89 124.1,-25.69 175.75,-20.87"/>
<polygon fill="black" stroke="black" points="176.21,-24.34 185.89,-20.04 175.63,-17.37 176.21,-24.34"/>
<text text-anchor="middle" x="44" y="-275.3" font-family="Times,serif" font-size="14.00">33</text>
</g>
<!-- 10 -->
<g id="node4" class="node">
<title>10</title>
<ellipse fill="none" stroke="black" cx="178" cy="-453" rx="27" ry="18"/>
<text text-anchor="middle" x="178" y="-449.3" font-family="Times,serif" font-size="14.00">10 0</text>
</g>
<!-- 10&#45;&gt;0 -->
<g id="edge1" class="edge">
<title>10&#45;&gt;0</title>
<path fill="none" stroke="black" d="M181.73,-434.87C183.85,-425.21 186.55,-412.93 189,-402 189.59,-399.35 190.22,-396.6 190.84,-393.84"/>
<polygon fill="black" stroke="black" points="194.26,-394.61 193.07,-384.08 187.43,-393.06 194.26,-394.61"/>
<text text-anchor="middle" x="196" y="-405.8" font-family="Times,serif" font-size="14.00">10</text>
</g>
<!-- 14 -->
<g id="node8" class="node">
<title>14</title>
<ellipse fill="none" stroke="black" cx="250" cy="-453" rx="27" ry="18"/>
<text text-anchor="middle" x="250" y="-449.3" font-family="Times,serif" font-size="14.00">14 0</text>
</g>
<!-- 2&#45;&gt;14 -->
<g id="edge25" class="edge">
<title>2&#45;&gt;14</title>
<path fill="none" stroke="black" d="M297.41,-546.81C290.32,-540.78 282.53,-533.17 277,-525 267.93,-511.6 261.35,-494.73 256.96,-480.8"/>
<polygon fill="black" stroke="black" points="260.2,-479.43 254.02,-470.82 253.49,-481.4 260.2,-479.43"/>
<text text-anchor="middle" x="284" y="-503.3" font-family="Times,serif" font-size="14.00">16</text>
</g>
<!-- 2&#45;&gt;7 -->
<g id="edge24" class="edge">
<title>2&#45;&gt;7</title>
<path fill="none" stroke="black" d="M341.9,-558.01C385.81,-554.23 470.22,-544.58 492,-525 523.15,-497 507.15,-474.87 520,-435 527.33,-412.26 529.64,-406.73 537,-384 545.68,-357.19 556,-351.68 556,-323.5 556,-323.5 556,-323.5 556,-191 556,-170.96 561.09,-148.9 566,-132.27"/>
<polygon fill="black" stroke="black" points="569.35,-133.28 568.99,-122.69 562.67,-131.19 569.35,-133.28"/>
<text text-anchor="middle" x="559.5" y="-318.8" font-family="Times,serif" font-size="14.00">9</text>
</g>
<!-- 8 -->
<g id="node17" class="node">
<title>8</title>
<ellipse fill="none" stroke="black" cx="328" cy="-279" rx="27" ry="18"/>
<text text-anchor="middle" x="328" y="-275.3" font-family="Times,serif" font-size="14.00">8 0</text>
</g>
<!-- 2&#45;&gt;8 -->
<g id="edge23" class="edge">
<title>2&#45;&gt;8</title>
<path fill="none" stroke="black" d="M315.05,-542.94C315.26,-506.9 316.26,-420.38 321,-348 321.88,-334.54 323.36,-319.62 324.73,-307.19"/>
<polygon fill="black" stroke="black" points="328.24,-307.35 325.89,-297.02 321.28,-306.56 328.24,-307.35"/>
<text text-anchor="middle" x="325" y="-405.8" font-family="Times,serif" font-size="14.00">10</text>
</g>
<!-- 6 -->
<g id="node18" class="node">
<title>6</title>
<ellipse fill="none" stroke="black" cx="429" cy="-366" rx="27" ry="18"/>
<text text-anchor="middle" x="429" y="-362.3" font-family="Times,serif" font-size="14.00">6 0</text>
</g>
<!-- 2&#45;&gt;6 -->
<g id="edge26" class="edge">
<title>2&#45;&gt;6</title>
<path fill="none" stroke="black" d="M317.51,-542.99C322.85,-511.95 337.82,-445.33 373,-402 379.72,-393.72 388.95,-386.84 397.98,-381.43"/>
<polygon fill="black" stroke="black" points="399.79,-384.43 406.84,-376.52 396.39,-378.31 399.79,-384.43"/>
<text text-anchor="middle" x="354.5" y="-449.3" font-family="Times,serif" font-size="14.00">8</text>
</g>
<!-- 4&#45;&gt;3 -->
<g id="edge4" class="edge">
<title>4&#45;&gt;3</title>
<path fill="none" stroke="black" d="M460.4,-436.01C467.74,-423.55 478.05,-406.01 486.45,-391.74"/>
<polygon fill="black" stroke="black" points="489.58,-393.31 491.64,-382.92 483.55,-389.76 489.58,-393.31"/>
<text text-anchor="middle" x="481.5" y="-405.8" font-family="Times,serif" font-size="14.00">7</text>
</g>
<!-- 4&#45;&gt;6 -->
<g id="edge3" class="edge">
<title>4&#45;&gt;6</title>
<path fill="none" stroke="black" d="M446.65,-435.21C443.6,-423.41 439.45,-407.38 435.94,-393.82"/>
<polygon fill="black" stroke="black" points="439.31,-392.85 433.41,-384.05 432.53,-394.61 439.31,-392.85"/>
<text text-anchor="middle" x="448" y="-405.8" font-family="Times,serif" font-size="14.00">10</text>
</g>
<!-- 4&#45;&gt;0 -->
<g id="edge2" class="edge">
<title>4&#45;&gt;0</title>
<path fill="none" stroke="black" d="M428.87,-442.67C403.36,-432.09 360.06,-414.67 322,-402 291.93,-391.99 257.18,-382.42 231.96,-375.82"/>
<polygon fill="black" stroke="black" points="232.68,-372.39 222.12,-373.27 230.92,-379.17 232.68,-372.39"/>
<text text-anchor="middle" x="364.5" y="-405.8" font-family="Times,serif" font-size="14.00">4</text>
</g>
<!-- 11 -->
<g id="node7" class="node">
<title>11</title>
<ellipse fill="none" stroke="black" cx="38" cy="-648" rx="27" ry="18"/>
<text text-anchor="middle" x="38" y="-644.3" font-family="Times,serif" font-size="14.00">11 0</text>
</g>
<!-- 11&#45;&gt;15 -->
<g id="edge13" class="edge">
<title>11&#45;&gt;15</title>
<path fill="none" stroke="black" d="M36.65,-629.96C34.78,-606.3 31.37,-563.26 29.15,-535.15"/>
<polygon fill="black" stroke="black" points="32.64,-534.88 28.36,-525.18 25.66,-535.43 32.64,-534.88"/>
<text text-anchor="middle" x="43" y="-600.8" font-family="Times,serif" font-size="14.00">26</text>
</g>
<!-- 11&#45;&gt;2 -->
<g id="edge14" class="edge">
<title>11&#45;&gt;2</title>
<path fill="none" stroke="black" d="M62.1,-639.61C111.52,-624.44 224.45,-589.78 281.18,-572.38"/>
<polygon fill="black" stroke="black" points="282.23,-575.72 290.76,-569.44 280.17,-569.03 282.23,-575.72"/>
<text text-anchor="middle" x="200" y="-600.8" font-family="Times,serif" font-size="14.00">13</text>
</g>
<!-- 14&#45;&gt;0 -->
<g id="edge18" class="edge">
<title>14&#45;&gt;0</title>
<path fill="none" stroke="black" d="M240.03,-436.01C232.26,-423.55 221.33,-406.01 212.43,-391.74"/>
<polygon fill="black" stroke="black" points="215.19,-389.55 206.92,-382.92 209.25,-393.25 215.19,-389.55"/>
<text text-anchor="middle" x="233" y="-405.8" font-family="Times,serif" font-size="14.00">14</text>
</g>
<!-- 1 -->
<g id="node10" class="node">
<title>1</title>
<ellipse fill="none" stroke="black" cx="357" cy="-366" rx="27" ry="18"/>
<text text-anchor="middle" x="357" y="-362.3" font-family="Times,serif" font-size="14.00">1 0</text>
</g>
<!-- 1&#45;&gt;8 -->
<g id="edge15" class="edge">
<title>1&#45;&gt;8</title>
<path fill="none" stroke="black" d="M351.27,-348.21C347.22,-336.33 341.7,-320.17 337.06,-306.56"/>
<polygon fill="black" stroke="black" points="340.26,-305.09 333.72,-296.76 333.63,-307.35 340.26,-305.09"/>
<text text-anchor="middle" x="347.5" y="-318.8" font-family="Times,serif" font-size="14.00">9</text>
</g>
<!-- 5 -->
<g id="node15" class="node">
<title>5</title>
<ellipse fill="none" stroke="black" cx="418" cy="-192" rx="27" ry="18"/>
<text text-anchor="middle" x="418" y="-188.3" font-family="Times,serif" font-size="14.00">5 0</text>
</g>
<!-- 3&#45;&gt;5 -->
<g id="edge11" class="edge">
<title>3&#45;&gt;5</title>
<path fill="none" stroke="black" d="M493.04,-348.51C478.54,-318.46 447.72,-254.59 430.43,-218.75"/>
<polygon fill="black" stroke="black" points="433.43,-216.93 425.93,-209.44 427.13,-219.97 433.43,-216.93"/>
<text text-anchor="middle" x="470.5" y="-275.3" font-family="Times,serif" font-size="14.00">8</text>
</g>
<!-- 7&#45;&gt;12 -->
<g id="edge32" class="edge">
<title>7&#45;&gt;12</title>
<path fill="none" stroke="black" d="M593.11,-118.43C612.34,-133.26 640,-159.98 640,-191 640,-562 640,-562 640,-562 640,-609.32 484.87,-633.99 412,-642.97"/>
<polygon fill="black" stroke="black" points="411.38,-639.51 401.87,-644.18 412.21,-646.46 411.38,-639.51"/>
<text text-anchor="middle" x="647" y="-362.3" font-family="Times,serif" font-size="14.00">19</text>
</g>
<!-- 13 -->
<g id="node13" class="node">
<title>13</title>
<ellipse fill="none" stroke="black" cx="130" cy="-279" rx="27" ry="18"/>
<text text-anchor="middle" x="130" y="-275.3" font-family="Times,serif" font-size="14.00">13 0</text>
</g>
<!-- 17 -->
<g id="node14" class="node">
<title>17</title>
<ellipse fill="none" stroke="black" cx="173" cy="-105" rx="27" ry="18"/>
<text text-anchor="middle" x="173" y="-101.3" font-family="Times,serif" font-size="14.00">17 0</text>
</g>
<!-- 13&#45;&gt;17 -->
<g id="edge12" class="edge">
<title>13&#45;&gt;17</title>
<path fill="none" stroke="black" d="M133.67,-261.01C138.19,-240.37 146.22,-204.52 154,-174 157.5,-160.27 161.72,-145.07 165.28,-132.53"/>
<polygon fill="black" stroke="black" points="168.71,-133.29 168.1,-122.71 161.98,-131.36 168.71,-133.29"/>
<text text-anchor="middle" x="161" y="-188.3" font-family="Times,serif" font-size="14.00">30</text>
</g>
<!-- 17&#45;&gt;18 -->
<g id="edge17" class="edge">
<title>17&#45;&gt;18</title>
<path fill="none" stroke="black" d="M180.71,-87.61C186.47,-75.38 194.44,-58.44 201.02,-44.46"/>
<polygon fill="black" stroke="black" points="204.22,-45.88 205.31,-35.34 197.89,-42.9 204.22,-45.88"/>
<text text-anchor="middle" x="202" y="-57.8" font-family="Times,serif" font-size="14.00">35</text>
</g>
<!-- 5&#45;&gt;14 -->
<g id="edge36" class="edge">
<title>5&#45;&gt;14</title>
<path fill="none" stroke="black" d="M393.25,-199.52C364.38,-208.46 317.37,-227.36 292,-261 255.11,-309.92 249.36,-384.78 249.18,-424.7"/>
<polygon fill="black" stroke="black" points="245.68,-424.78 249.25,-434.75 252.68,-424.73 245.68,-424.78"/>
<text text-anchor="middle" x="271" y="-318.8" font-family="Times,serif" font-size="14.00">19</text>
</g>
<!-- 5&#45;&gt;7 -->
<g id="edge35" class="edge">
<title>5&#45;&gt;7</title>
<path fill="none" stroke="black" d="M438.53,-179.89C465.79,-165.12 514.15,-138.95 545.37,-122.04"/>
<polygon fill="black" stroke="black" points="547.34,-124.95 554.47,-117.11 544.01,-118.8 547.34,-124.95"/>
<text text-anchor="middle" x="512" y="-144.8" font-family="Times,serif" font-size="14.00">12</text>
</g>
<!-- 5&#45;&gt;17 -->
<g id="edge33" class="edge">
<title>5&#45;&gt;17</title>
<path fill="none" stroke="black" d="M399.92,-178.59C382.66,-167.27 355.58,-150.86 330,-141 290.03,-125.59 241.59,-116.08 209.18,-110.93"/>
<polygon fill="black" stroke="black" points="209.67,-107.47 199.25,-109.41 208.61,-114.39 209.67,-107.47"/>
<text text-anchor="middle" x="367" y="-144.8" font-family="Times,serif" font-size="14.00">22</text>
</g>
<!-- 16 -->
<g id="node19" class="node">
<title>16</title>
<ellipse fill="none" stroke="black" cx="418" cy="-105" rx="27" ry="18"/>
<text text-anchor="middle" x="418" y="-101.3" font-family="Times,serif" font-size="14.00">16 0</text>
</g>
<!-- 5&#45;&gt;16 -->
<g id="edge34" class="edge">
<title>5&#45;&gt;16</title>
<path fill="none" stroke="black" d="M418,-173.8C418,-162.16 418,-146.55 418,-133.24"/>
<polygon fill="black" stroke="black" points="421.5,-133.18 418,-123.18 414.5,-133.18 421.5,-133.18"/>
<text text-anchor="middle" x="425" y="-144.8" font-family="Times,serif" font-size="14.00">21</text>
</g>
<!-- 19 -->
<g id="node16" class="node">
<title>19</title>
<ellipse fill="none" stroke="black" cx="205" cy="-561" rx="27" ry="18"/>
<text text-anchor="middle" x="205" y="-557.3" font-family="Times,serif" font-size="14.00">19 0</text>
</g>
<!-- 19&#45;&gt;14 -->
<g id="edge19" class="edge">
<title>19&#45;&gt;14</title>
<path fill="none" stroke="black" d="M208.8,-543.15C212.44,-528.44 218.63,-506.74 227,-489 228.73,-485.33 230.8,-481.6 232.98,-478.01"/>
<polygon fill="black" stroke="black" points="236,-479.78 238.48,-469.48 230.12,-475.98 236,-479.78"/>
<text text-anchor="middle" x="234" y="-503.3" font-family="Times,serif" font-size="14.00">33</text>
</g>
<!-- 19&#45;&gt;13 -->
<g id="edge20" class="edge">
<title>19&#45;&gt;13</title>
<path fill="none" stroke="black" d="M190.72,-545.42C175.56,-528.91 152.4,-500.45 142,-471 122.37,-415.4 124.19,-345.09 127.15,-307.19"/>
<polygon fill="black" stroke="black" points="130.66,-307.23 128.05,-296.96 123.69,-306.62 130.66,-307.23"/>
<text text-anchor="middle" x="136" y="-405.8" font-family="Times,serif" font-size="14.00">32</text>
</g>
<!-- 8&#45;&gt;18 -->
<g id="edge27" class="edge">
<title>8&#45;&gt;18</title>
<path fill="none" stroke="black" d="M323.57,-261.15C313.04,-222.66 284.17,-126.09 242,-54 239.49,-49.71 236.47,-45.42 233.33,-41.38"/>
<polygon fill="black" stroke="black" points="235.91,-39.02 226.85,-33.53 230.51,-43.47 235.91,-39.02"/>
<text text-anchor="middle" x="295" y="-144.8" font-family="Times,serif" font-size="14.00">26</text>
</g>
<!-- 8&#45;&gt;5 -->
<g id="edge28" class="edge">
<title>8&#45;&gt;5</title>
<path fill="none" stroke="black" d="M342.86,-263.96C357.19,-250.43 379.07,-229.77 395.53,-214.22"/>
<polygon fill="black" stroke="black" points="398.25,-216.47 403.12,-207.06 393.44,-211.38 398.25,-216.47"/>
<text text-anchor="middle" x="385" y="-231.8" font-family="Times,serif" font-size="14.00">13</text>
</g>
<!-- 6&#45;&gt;12 -->
<g id="edge9" class="edge">
<title>6&#45;&gt;12</title>
<path fill="none" stroke="black" d="M414.36,-381.45C409.28,-387.34 404.08,-394.52 401,-402 370.5,-476.16 370.73,-573.09 373.03,-619.67"/>
<polygon fill="black" stroke="black" points="369.55,-620.08 373.61,-629.87 376.54,-619.68 369.55,-620.08"/>
<text text-anchor="middle" x="385" y="-503.3" font-family="Times,serif" font-size="14.00">18</text>
</g>
<!-- 6&#45;&gt;5 -->
<g id="edge10" class="edge">
<title>6&#45;&gt;5</title>
<path fill="none" stroke="black" d="M427.91,-347.88C425.99,-318 422.04,-256.11 419.74,-220.27"/>
<polygon fill="black" stroke="black" points="423.22,-219.81 419.09,-210.05 416.24,-220.25 423.22,-219.81"/>
<text text-anchor="middle" x="431" y="-275.3" font-family="Times,serif" font-size="14.00">11</text>
</g>
<!-- 0&#45;&gt;18 -->
<g id="edge8" class="edge">
<title>0&#45;&gt;18</title>
<path fill="none" stroke="black" d="M198.71,-347.97C200.04,-334.22 201.85,-314.38 203,-297 209.68,-195.79 210.78,-170.41 213,-69 213.16,-61.65 213.22,-53.7 213.22,-46.34"/>
<polygon fill="black" stroke="black" points="216.72,-46.12 213.19,-36.13 209.72,-46.14 216.72,-46.12"/>
<text text-anchor="middle" x="217" y="-188.3" font-family="Times,serif" font-size="14.00">18</text>
</g>
<!-- 0&#45;&gt;13 -->
<g id="edge6" class="edge">
<title>0&#45;&gt;13</title>
<path fill="none" stroke="black" d="M179.39,-351.9C171.91,-345.79 163.45,-338.08 157,-330 151.16,-322.68 145.94,-313.92 141.69,-305.79"/>
<polygon fill="black" stroke="black" points="144.73,-304.06 137.15,-296.66 138.46,-307.18 144.73,-304.06"/>
<text text-anchor="middle" x="164" y="-318.8" font-family="Times,serif" font-size="14.00">13</text>
</g>
<!-- 0&#45;&gt;17 -->
<g id="edge5" class="edge">
<title>0&#45;&gt;17</title>
<path fill="none" stroke="black" d="M195.43,-348.01C191.36,-304.1 180.47,-186.6 175.52,-133.15"/>
<polygon fill="black" stroke="black" points="178.99,-132.69 174.58,-123.06 172.02,-133.34 178.99,-132.69"/>
<text text-anchor="middle" x="192" y="-231.8" font-family="Times,serif" font-size="14.00">17</text>
</g>
<!-- 0&#45;&gt;8 -->
<g id="edge7" class="edge">
<title>0&#45;&gt;8</title>
<path fill="none" stroke="black" d="M209.02,-349.88C218.23,-339.06 231.75,-324.74 246,-315 260.68,-304.97 278.69,-296.9 294.09,-291.04"/>
<polygon fill="black" stroke="black" points="295.57,-294.23 303.77,-287.52 293.18,-287.65 295.57,-294.23"/>
<text text-anchor="middle" x="249.5" y="-318.8" font-family="Times,serif" font-size="14.00">8</text>
</g>
</g>
</svg>
