<?xml version="1.0" encoding="UTF-8" standalone="no"?>
<!DOCTYPE svg PUBLIC "-//W3C//DTD SVG 1.1//EN"
 "http://www.w3.org/Graphics/SVG/1.1/DTD/svg11.dtd">
<!-- Generated by graphviz version 10.0.1 (20240210.2158)
 -->
<!-- Title: di_graph Pages: 1 -->
<svg width="188pt" height="506pt"
 viewBox="0.00 0.00 188.00 506.00" xmlns="http://www.w3.org/2000/svg" xmlns:xlink="http://www.w3.org/1999/xlink">
<g id="graph0" class="graph" transform="scale(1 1) rotate(0) translate(4 502)">
<title>di_graph</title>
<polygon fill="white" stroke="none" points="-4,4 -4,-502 184,-502 184,4 -4,4"/>
<!-- 7 -->
<g id="node1" class="node">
<title>7</title>
<ellipse fill="none" stroke="green" cx="44" cy="-106.5" rx="27" ry="18"/>
<text text-anchor="middle" x="44" y="-101.45" font-family="Times,serif" font-size="14.00">7</text>
</g>
<!-- 8 -->
<g id="node5" class="node">
<title>8</title>
<ellipse fill="none" stroke="green" stroke-width="2" cx="44" cy="-18" rx="27" ry="18"/>
<text text-anchor="middle" x="44" y="-12.95" font-family="Times,serif" font-size="14.00">8</text>
</g>
<!-- 7&#45;&gt;8 -->
<g id="edge8" class="edge">
<title>7&#45;&gt;8</title>
<path fill="none" stroke="black" d="M44,-88.41C44,-76.76 44,-61.05 44,-47.52"/>
<polygon fill="black" stroke="black" points="47.5,-47.86 44,-37.86 40.5,-47.86 47.5,-47.86"/>
<text text-anchor="middle" x="47.38" y="-57.2" font-family="Times,serif" font-size="14.00">1</text>
</g>
<!-- 1 -->
<g id="node2" class="node">
<title>1</title>
<ellipse fill="none" stroke="green" stroke-width="2" cx="81" cy="-480" rx="27" ry="18"/>
<text text-anchor="middle" x="81" y="-474.95" font-family="Times,serif" font-size="14.00">1</text>
</g>
<!-- 4 -->
<g id="node3" class="node">
<title>4</title>
<ellipse fill="none" stroke="green" cx="27" cy="-337.5" rx="27" ry="18"/>
<text text-anchor="middle" x="27" y="-332.45" font-family="Times,serif" font-size="14.00">4</text>
</g>
<!-- 1&#45;&gt;4 -->
<g id="edge7" class="edge">
<title>1&#45;&gt;4</title>
<path fill="none" stroke="black" d="M71.32,-462.92C63.35,-449.14 52.24,-428.55 45,-409.5 39.81,-395.85 35.66,-380.16 32.65,-367"/>
<polygon fill="black" stroke="black" points="36.08,-366.28 30.54,-357.25 29.23,-367.76 36.08,-366.28"/>
<text text-anchor="middle" x="64.38" y="-430.7" font-family="Times,serif" font-size="14.00">1</text>
</g>
<!-- 2 -->
<g id="node6" class="node">
<title>2</title>
<ellipse fill="none" stroke="black" cx="81" cy="-391.5" rx="27" ry="18"/>
<text text-anchor="middle" x="81" y="-386.45" font-family="Times,serif" font-size="14.00">2</text>
</g>
<!-- 1&#45;&gt;2 -->
<g id="edge6" class="edge">
<title>1&#45;&gt;2</title>
<path fill="none" stroke="black" stroke-dasharray="1,5" d="M81,-461.91C81,-450.26 81,-434.55 81,-421.02"/>
<polygon fill="black" stroke="black" points="84.5,-421.36 81,-411.36 77.5,-421.36 84.5,-421.36"/>
<text text-anchor="middle" x="84.38" y="-430.7" font-family="Times,serif" font-size="14.00">1</text>
</g>
<!-- 3 -->
<g id="node7" class="node">
<title>3</title>
<ellipse fill="none" stroke="black" cx="153" cy="-391.5" rx="27" ry="18"/>
<text text-anchor="middle" x="153" y="-386.45" font-family="Times,serif" font-size="14.00">3</text>
</g>
<!-- 1&#45;&gt;3 -->
<g id="edge5" class="edge">
<title>1&#45;&gt;3</title>
<path fill="none" stroke="black" stroke-dasharray="1,5" d="M93.54,-463.93C104.52,-450.74 120.66,-431.36 133.35,-416.11"/>
<polygon fill="black" stroke="black" points="135.68,-418.77 139.39,-408.85 130.3,-414.29 135.68,-418.77"/>
<text text-anchor="middle" x="127.38" y="-430.7" font-family="Times,serif" font-size="14.00">1</text>
</g>
<!-- 6 -->
<g id="node4" class="node">
<title>6</title>
<ellipse fill="none" stroke="green" cx="44" cy="-195" rx="27" ry="18"/>
<text text-anchor="middle" x="44" y="-189.95" font-family="Times,serif" font-size="14.00">6</text>
</g>
<!-- 4&#45;&gt;6 -->
<g id="edge4" class="edge">
<title>4&#45;&gt;6</title>
<path fill="none" stroke="black" d="M29.08,-319.27C31.94,-295.68 37.1,-253 40.54,-224.58"/>
<polygon fill="black" stroke="black" points="43.99,-225.22 41.72,-214.87 37.04,-224.38 43.99,-225.22"/>
<text text-anchor="middle" x="39.38" y="-278.45" font-family="Times,serif" font-size="14.00">1</text>
</g>
<!-- 6&#45;&gt;7 -->
<g id="edge3" class="edge">
<title>6&#45;&gt;7</title>
<path fill="none" stroke="black" d="M44,-176.91C44,-165.26 44,-149.55 44,-136.02"/>
<polygon fill="black" stroke="black" points="47.5,-136.36 44,-126.36 40.5,-136.36 47.5,-136.36"/>
<text text-anchor="middle" x="47.38" y="-145.7" font-family="Times,serif" font-size="14.00">1</text>
</g>
<!-- 5 -->
<g id="node8" class="node">
<title>5</title>
<ellipse fill="none" stroke="black" cx="81" cy="-283.5" rx="27" ry="18"/>
<text text-anchor="middle" x="81" y="-278.45" font-family="Times,serif" font-size="14.00">5</text>
</g>
<!-- 2&#45;&gt;5 -->
<g id="edge1" class="edge">
<title>2&#45;&gt;5</title>
<path fill="none" stroke="black" stroke-dasharray="1,5" d="M81,-373.47C81,-357.26 81,-332.56 81,-313.29"/>
<polygon fill="black" stroke="black" points="84.5,-313.35 81,-303.35 77.5,-313.35 84.5,-313.35"/>
<text text-anchor="middle" x="84.38" y="-332.45" font-family="Times,serif" font-size="14.00">1</text>
</g>
<!-- 3&#45;&gt;5 -->
<g id="edge9" class="edge">
<title>3&#45;&gt;5</title>
<path fill="none" stroke="black" stroke-dasharray="1,5" d="M142.38,-374.86C130.73,-357.71 111.88,-329.96 98.14,-309.73"/>
<polygon fill="black" stroke="black" points="101.03,-307.76 92.52,-301.46 95.24,-311.7 101.03,-307.76"/>
<text text-anchor="middle" x="131.38" y="-332.45" font-family="Times,serif" font-size="14.00">1</text>
</g>
<!-- 5&#45;&gt;6 -->
<g id="edge2" class="edge">
<title>5&#45;&gt;6</title>
<path fill="none" stroke="black" stroke-dasharray="1,5" d="M73.87,-265.82C68.7,-253.74 61.59,-237.13 55.61,-223.14"/>
<polygon fill="black" stroke="black" points="58.86,-221.84 51.71,-214.02 52.42,-224.59 58.86,-221.84"/>
<text text-anchor="middle" x="69.38" y="-234.2" font-family="Times,serif" font-size="14.00">1</text>
</g>
</g>
</svg>
