<?xml version="1.0" encoding="UTF-8" standalone="no"?>
<!DOCTYPE svg PUBLIC "-//W3C//DTD SVG 1.1//EN"
 "http://www.w3.org/Graphics/SVG/1.1/DTD/svg11.dtd">
<!-- Generated by graphviz version 5.0.0 (0)
 -->
<!-- Title: di_graph Pages: 1 -->
<svg width="669pt" height="689pt"
 viewBox="0.00 0.00 669.00 689.00" xmlns="http://www.w3.org/2000/svg" xmlns:xlink="http://www.w3.org/1999/xlink">
<g id="graph0" class="graph" transform="scale(1 1) rotate(0) translate(4 685)">
<title>di_graph</title>
<polygon fill="white" stroke="transparent" points="-4,4 -4,-685 665,-685 665,4 -4,4"/>
<!-- 12 -->
<g id="node1" class="node">
<title>12</title>
<ellipse fill="none" stroke="chocolate" cx="382" cy="-648" rx="27" ry="18"/>
<text text-anchor="middle" x="382" y="-644.3" font-family="Times,serif" font-size="14.00">12 0</text>
<text text-anchor="middle" x="351.5" y="-669.8" font-family="Times,serif" font-size="14.00">4</text>
</g>
<!-- 2 -->
<g id="node5" class="node">
<title>2</title>
<ellipse fill="none" stroke="chocolate" cx="322" cy="-561" rx="27" ry="18"/>
<text text-anchor="middle" x="322" y="-557.3" font-family="Times,serif" font-size="14.00">2 0</text>
<text text-anchor="middle" x="291.5" y="-582.8" font-family="Times,serif" font-size="14.00">4</text>
</g>
<!-- 12&#45;&gt;2 -->
<g id="edge22" class="edge">
<title>12&#45;&gt;2</title>
<path fill="none" stroke="black" d="M371,-631.41C362.03,-618.71 349.22,-600.56 338.95,-586.01"/>
<polygon fill="black" stroke="black" points="341.56,-583.64 332.94,-577.49 335.84,-587.68 341.56,-583.64"/>
<text text-anchor="middle" x="362" y="-600.8" font-family="Times,serif" font-size="14.00">14</text>
</g>
<!-- 0 -->
<g id="node20" class="node">
<title>0</title>
<ellipse fill="none" stroke="chocolate" cx="204" cy="-366" rx="27" ry="18"/>
<text text-anchor="middle" x="204" y="-362.3" font-family="Times,serif" font-size="14.00">0 0</text>
<text text-anchor="middle" x="173.5" y="-387.8" font-family="Times,serif" font-size="14.00">4</text>
</g>
<!-- 12&#45;&gt;0 -->
<g id="edge21" class="edge">
<title>12&#45;&gt;0</title>
<path fill="none" stroke="black" d="M355.43,-643.77C313.58,-637.55 231.4,-620.63 176,-579 152.74,-561.52 148.76,-552.41 139,-525 120.62,-473.36 100.68,-448.31 130,-402 138.59,-388.44 154,-380.03 168.54,-374.87"/>
<polygon fill="black" stroke="black" points="169.88,-378.12 178.38,-371.79 167.79,-371.44 169.88,-378.12"/>
<text text-anchor="middle" x="146" y="-503.3" font-family="Times,serif" font-size="14.00">12</text>
</g>
<!-- 9 -->
<g id="node2" class="node">
<title>9</title>
<ellipse fill="none" stroke="purple" cx="559" cy="-561" rx="27" ry="18"/>
<text text-anchor="middle" x="559" y="-557.3" font-family="Times,serif" font-size="14.00">9 0</text>
<text text-anchor="middle" x="528.5" y="-582.8" font-family="Times,serif" font-size="14.00">7</text>
</g>
<!-- 4 -->
<g id="node6" class="node">
<title>4</title>
<ellipse fill="none" stroke="palegreen" cx="458" cy="-453" rx="27" ry="18"/>
<text text-anchor="middle" x="458" y="-449.3" font-family="Times,serif" font-size="14.00">4 0</text>
<text text-anchor="middle" x="427.5" y="-474.8" font-family="Times,serif" font-size="14.00">6</text>
</g>
<!-- 9&#45;&gt;4 -->
<g id="edge30" class="edge">
<title>9&#45;&gt;4</title>
<path fill="none" stroke="black" d="M544.96,-545.26C527.85,-527.3 498.78,-496.8 479,-476.04"/>
<polygon fill="black" stroke="black" points="481.36,-473.44 471.92,-468.61 476.29,-478.27 481.36,-473.44"/>
<text text-anchor="middle" x="530" y="-503.3" font-family="Times,serif" font-size="14.00">13</text>
</g>
<!-- 3 -->
<g id="node11" class="node">
<title>3</title>
<ellipse fill="none" stroke="yellow" cx="508" cy="-366" rx="27" ry="18"/>
<text text-anchor="middle" x="508" y="-362.3" font-family="Times,serif" font-size="14.00">3 0</text>
<text text-anchor="middle" x="477.5" y="-387.8" font-family="Times,serif" font-size="14.00">5</text>
</g>
<!-- 9&#45;&gt;3 -->
<g id="edge29" class="edge">
<title>9&#45;&gt;3</title>
<path fill="none" stroke="black" d="M554.56,-543.21C545.69,-509.63 525.7,-433.97 515.02,-393.58"/>
<polygon fill="black" stroke="black" points="518.4,-392.66 512.46,-383.89 511.63,-394.45 518.4,-392.66"/>
<text text-anchor="middle" x="542" y="-449.3" font-family="Times,serif" font-size="14.00">12</text>
</g>
<!-- 7 -->
<g id="node12" class="node">
<title>7</title>
<ellipse fill="none" stroke="chocolate" cx="582" cy="-105" rx="27" ry="18"/>
<text text-anchor="middle" x="582" y="-101.3" font-family="Times,serif" font-size="14.00">7 0</text>
<text text-anchor="middle" x="551.5" y="-126.8" font-family="Times,serif" font-size="14.00">4</text>
</g>
<!-- 9&#45;&gt;7 -->
<g id="edge31" class="edge">
<title>9&#45;&gt;7</title>
<path fill="none" stroke="black" d="M569.6,-544.25C582.04,-524.19 601,-488.05 601,-454 601,-454 601,-454 601,-191 601,-170.96 595.91,-148.9 591,-132.27"/>
<polygon fill="black" stroke="black" points="594.33,-131.19 588.01,-122.69 587.65,-133.28 594.33,-131.19"/>
<text text-anchor="middle" x="608" y="-318.8" font-family="Times,serif" font-size="14.00">16</text>
</g>
<!-- 15 -->
<g id="node3" class="node">
<title>15</title>
<ellipse fill="none" stroke="#7fffd4" cx="34" cy="-507" rx="27" ry="18"/>
<text text-anchor="middle" x="34" y="-503.3" font-family="Times,serif" font-size="14.00">15 0</text>
<text text-anchor="middle" x="3.5" y="-528.8" font-family="Times,serif" font-size="14.00">8</text>
</g>
<!-- 18 -->
<g id="node9" class="node">
<title>18</title>
<ellipse fill="none" stroke="aqua" cx="220" cy="-18" rx="27" ry="18"/>
<text text-anchor="middle" x="220" y="-14.3" font-family="Times,serif" font-size="14.00">18 0</text>
<text text-anchor="middle" x="189.5" y="-39.8" font-family="Times,serif" font-size="14.00">0</text>
</g>
<!-- 15&#45;&gt;18 -->
<g id="edge16" class="edge">
<title>15&#45;&gt;18</title>
<path fill="none" stroke="black" d="M36.89,-488.8C39.85,-469.73 44,-438.01 44,-410.5 44,-410.5 44,-410.5 44,-104 44,-42.89 131.1,-25.69 182.75,-20.87"/>
<polygon fill="black" stroke="black" points="183.21,-24.34 192.89,-20.04 182.63,-17.37 183.21,-24.34"/>
<text text-anchor="middle" x="51" y="-275.3" font-family="Times,serif" font-size="14.00">33</text>
</g>
<!-- 10 -->
<g id="node4" class="node">
<title>10</title>
<ellipse fill="none" stroke="bisque" cx="185" cy="-453" rx="27" ry="18"/>
<text text-anchor="middle" x="185" y="-449.3" font-family="Times,serif" font-size="14.00">10 0</text>
<text text-anchor="middle" x="154.5" y="-474.8" font-family="Times,serif" font-size="14.00">9</text>
</g>
<!-- 10&#45;&gt;0 -->
<g id="edge1" class="edge">
<title>10&#45;&gt;0</title>
<path fill="none" stroke="black" d="M188.73,-434.87C190.85,-425.21 193.55,-412.93 196,-402 196.59,-399.35 197.22,-396.6 197.84,-393.84"/>
<polygon fill="black" stroke="black" points="201.26,-394.61 200.07,-384.08 194.43,-393.06 201.26,-394.61"/>
<text text-anchor="middle" x="203" y="-405.8" font-family="Times,serif" font-size="14.00">10</text>
</g>
<!-- 14 -->
<g id="node8" class="node">
<title>14</title>
<ellipse fill="none" stroke="chocolate" cx="257" cy="-453" rx="27" ry="18"/>
<text text-anchor="middle" x="257" y="-449.3" font-family="Times,serif" font-size="14.00">14 0</text>
<text text-anchor="middle" x="226.5" y="-474.8" font-family="Times,serif" font-size="14.00">4</text>
</g>
<!-- 2&#45;&gt;14 -->
<g id="edge25" class="edge">
<title>2&#45;&gt;14</title>
<path fill="none" stroke="black" d="M304.41,-546.81C297.32,-540.78 289.53,-533.17 284,-525 274.93,-511.6 268.35,-494.73 263.96,-480.8"/>
<polygon fill="black" stroke="black" points="267.2,-479.43 261.02,-470.82 260.49,-481.4 267.2,-479.43"/>
<text text-anchor="middle" x="291" y="-503.3" font-family="Times,serif" font-size="14.00">16</text>
</g>
<!-- 2&#45;&gt;7 -->
<g id="edge24" class="edge">
<title>2&#45;&gt;7</title>
<path fill="none" stroke="black" d="M348.9,-558.01C392.81,-554.23 477.22,-544.58 499,-525 530.15,-497 514.15,-474.87 527,-435 534.33,-412.26 536.64,-406.73 544,-384 552.68,-357.19 563,-351.68 563,-323.5 563,-323.5 563,-323.5 563,-191 563,-170.96 568.09,-148.9 573,-132.27"/>
<polygon fill="black" stroke="black" points="576.35,-133.28 575.99,-122.69 569.67,-131.19 576.35,-133.28"/>
<text text-anchor="middle" x="566.5" y="-318.8" font-family="Times,serif" font-size="14.00">9</text>
</g>
<!-- 8 -->
<g id="node17" class="node">
<title>8</title>
<ellipse fill="none" stroke="chocolate" cx="335" cy="-279" rx="27" ry="18"/>
<text text-anchor="middle" x="335" y="-275.3" font-family="Times,serif" font-size="14.00">8 0</text>
<text text-anchor="middle" x="304.5" y="-300.8" font-family="Times,serif" font-size="14.00">4</text>
</g>
<!-- 2&#45;&gt;8 -->
<g id="edge23" class="edge">
<title>2&#45;&gt;8</title>
<path fill="none" stroke="black" d="M322.05,-542.94C322.26,-506.9 323.26,-420.38 328,-348 328.88,-334.54 330.36,-319.62 331.73,-307.19"/>
<polygon fill="black" stroke="black" points="335.24,-307.35 332.89,-297.02 328.28,-306.56 335.24,-307.35"/>
<text text-anchor="middle" x="332" y="-405.8" font-family="Times,serif" font-size="14.00">10</text>
</g>
<!-- 6 -->
<g id="node18" class="node">
<title>6</title>
<ellipse fill="none" stroke="chocolate" cx="436" cy="-366" rx="27" ry="18"/>
<text text-anchor="middle" x="436" y="-362.3" font-family="Times,serif" font-size="14.00">6 0</text>
<text text-anchor="middle" x="405.5" y="-387.8" font-family="Times,serif" font-size="14.00">4</text>
</g>
<!-- 2&#45;&gt;6 -->
<g id="edge26" class="edge">
<title>2&#45;&gt;6</title>
<path fill="none" stroke="black" d="M324.51,-542.99C329.85,-511.95 344.82,-445.33 380,-402 386.72,-393.72 395.95,-386.84 404.98,-381.43"/>
<polygon fill="black" stroke="black" points="406.79,-384.43 413.84,-376.52 403.39,-378.31 406.79,-384.43"/>
<text text-anchor="middle" x="361.5" y="-449.3" font-family="Times,serif" font-size="14.00">8</text>
</g>
<!-- 4&#45;&gt;3 -->
<g id="edge4" class="edge">
<title>4&#45;&gt;3</title>
<path fill="none" stroke="black" d="M467.4,-436.01C474.74,-423.55 485.05,-406.01 493.45,-391.74"/>
<polygon fill="black" stroke="black" points="496.58,-393.31 498.64,-382.92 490.55,-389.76 496.58,-393.31"/>
<text text-anchor="middle" x="488.5" y="-405.8" font-family="Times,serif" font-size="14.00">7</text>
</g>
<!-- 4&#45;&gt;6 -->
<g id="edge3" class="edge">
<title>4&#45;&gt;6</title>
<path fill="none" stroke="black" d="M453.65,-435.21C450.6,-423.41 446.45,-407.38 442.94,-393.82"/>
<polygon fill="black" stroke="black" points="446.31,-392.85 440.41,-384.05 439.53,-394.61 446.31,-392.85"/>
<text text-anchor="middle" x="455" y="-405.8" font-family="Times,serif" font-size="14.00">10</text>
</g>
<!-- 4&#45;&gt;0 -->
<g id="edge2" class="edge">
<title>4&#45;&gt;0</title>
<path fill="none" stroke="black" d="M435.87,-442.67C410.36,-432.09 367.06,-414.67 329,-402 298.93,-391.99 264.18,-382.42 238.96,-375.82"/>
<polygon fill="black" stroke="black" points="239.68,-372.39 229.12,-373.27 237.92,-379.17 239.68,-372.39"/>
<text text-anchor="middle" x="371.5" y="-405.8" font-family="Times,serif" font-size="14.00">4</text>
</g>
<!-- 11 -->
<g id="node7" class="node">
<title>11</title>
<ellipse fill="none" stroke="yellowgreen" cx="45" cy="-648" rx="27" ry="18"/>
<text text-anchor="middle" x="45" y="-644.3" font-family="Times,serif" font-size="14.00">11 0</text>
<text text-anchor="middle" x="11" y="-669.8" font-family="Times,serif" font-size="14.00">10</text>
</g>
<!-- 11&#45;&gt;15 -->
<g id="edge13" class="edge">
<title>11&#45;&gt;15</title>
<path fill="none" stroke="black" d="M43.65,-629.96C41.78,-606.3 38.37,-563.26 36.15,-535.15"/>
<polygon fill="black" stroke="black" points="39.64,-534.88 35.36,-525.18 32.66,-535.43 39.64,-534.88"/>
<text text-anchor="middle" x="50" y="-600.8" font-family="Times,serif" font-size="14.00">26</text>
</g>
<!-- 11&#45;&gt;2 -->
<g id="edge14" class="edge">
<title>11&#45;&gt;2</title>
<path fill="none" stroke="black" d="M69.1,-639.61C118.52,-624.44 231.45,-589.78 288.18,-572.38"/>
<polygon fill="black" stroke="black" points="289.23,-575.72 297.76,-569.44 287.17,-569.03 289.23,-575.72"/>
<text text-anchor="middle" x="207" y="-600.8" font-family="Times,serif" font-size="14.00">13</text>
</g>
<!-- 14&#45;&gt;0 -->
<g id="edge18" class="edge">
<title>14&#45;&gt;0</title>
<path fill="none" stroke="black" d="M247.03,-436.01C239.26,-423.55 228.33,-406.01 219.43,-391.74"/>
<polygon fill="black" stroke="black" points="222.19,-389.55 213.92,-382.92 216.25,-393.25 222.19,-389.55"/>
<text text-anchor="middle" x="240" y="-405.8" font-family="Times,serif" font-size="14.00">14</text>
</g>
<!-- 1 -->
<g id="node10" class="node">
<title>1</title>
<ellipse fill="none" stroke="red" cx="364" cy="-366" rx="27" ry="18"/>
<text text-anchor="middle" x="364" y="-362.3" font-family="Times,serif" font-size="14.00">1 0</text>
<text text-anchor="middle" x="330" y="-387.8" font-family="Times,serif" font-size="14.00">11</text>
</g>
<!-- 1&#45;&gt;8 -->
<g id="edge15" class="edge">
<title>1&#45;&gt;8</title>
<path fill="none" stroke="black" d="M358.27,-348.21C354.22,-336.33 348.7,-320.17 344.06,-306.56"/>
<polygon fill="black" stroke="black" points="347.26,-305.09 340.72,-296.76 340.63,-307.35 347.26,-305.09"/>
<text text-anchor="middle" x="354.5" y="-318.8" font-family="Times,serif" font-size="14.00">9</text>
</g>
<!-- 5 -->
<g id="node15" class="node">
<title>5</title>
<ellipse fill="none" stroke="chocolate" cx="425" cy="-192" rx="27" ry="18"/>
<text text-anchor="middle" x="425" y="-188.3" font-family="Times,serif" font-size="14.00">5 0</text>
<text text-anchor="middle" x="394.5" y="-213.8" font-family="Times,serif" font-size="14.00">4</text>
</g>
<!-- 3&#45;&gt;5 -->
<g id="edge11" class="edge">
<title>3&#45;&gt;5</title>
<path fill="none" stroke="black" d="M500.04,-348.51C485.54,-318.46 454.72,-254.59 437.43,-218.75"/>
<polygon fill="black" stroke="black" points="440.43,-216.93 432.93,-209.44 434.13,-219.97 440.43,-216.93"/>
<text text-anchor="middle" x="477.5" y="-275.3" font-family="Times,serif" font-size="14.00">8</text>
</g>
<!-- 7&#45;&gt;12 -->
<g id="edge32" class="edge">
<title>7&#45;&gt;12</title>
<path fill="none" stroke="black" d="M600.11,-118.43C619.34,-133.26 647,-159.98 647,-191 647,-562 647,-562 647,-562 647,-609.32 491.87,-633.99 419,-642.97"/>
<polygon fill="black" stroke="black" points="418.38,-639.51 408.87,-644.18 419.21,-646.46 418.38,-639.51"/>
<text text-anchor="middle" x="654" y="-362.3" font-family="Times,serif" font-size="14.00">19</text>
</g>
<!-- 13 -->
<g id="node13" class="node">
<title>13</title>
<ellipse fill="none" stroke="blue" cx="137" cy="-279" rx="27" ry="18"/>
<text text-anchor="middle" x="137" y="-275.3" font-family="Times,serif" font-size="14.00">13 0</text>
<text text-anchor="middle" x="106.5" y="-300.8" font-family="Times,serif" font-size="14.00">2</text>
</g>
<!-- 17 -->
<g id="node14" class="node">
<title>17</title>
<ellipse fill="none" stroke="red" cx="180" cy="-105" rx="27" ry="18"/>
<text text-anchor="middle" x="180" y="-101.3" font-family="Times,serif" font-size="14.00">17 0</text>
<text text-anchor="middle" x="149.5" y="-126.8" font-family="Times,serif" font-size="14.00">1</text>
</g>
<!-- 13&#45;&gt;17 -->
<g id="edge12" class="edge">
<title>13&#45;&gt;17</title>
<path fill="none" stroke="black" d="M140.67,-261.01C145.19,-240.37 153.22,-204.52 161,-174 164.5,-160.27 168.72,-145.07 172.28,-132.53"/>
<polygon fill="black" stroke="black" points="175.71,-133.29 175.1,-122.71 168.98,-131.36 175.71,-133.29"/>
<text text-anchor="middle" x="168" y="-188.3" font-family="Times,serif" font-size="14.00">30</text>
</g>
<!-- 17&#45;&gt;18 -->
<g id="edge17" class="edge">
<title>17&#45;&gt;18</title>
<path fill="none" stroke="black" d="M187.71,-87.61C193.47,-75.38 201.44,-58.44 208.02,-44.46"/>
<polygon fill="black" stroke="black" points="211.22,-45.88 212.31,-35.34 204.89,-42.9 211.22,-45.88"/>
<text text-anchor="middle" x="209" y="-57.8" font-family="Times,serif" font-size="14.00">35</text>
</g>
<!-- 5&#45;&gt;14 -->
<g id="edge36" class="edge">
<title>5&#45;&gt;14</title>
<path fill="none" stroke="black" d="M400.25,-199.52C371.38,-208.46 324.37,-227.36 299,-261 262.11,-309.92 256.36,-384.78 256.18,-424.7"/>
<polygon fill="black" stroke="black" points="252.68,-424.78 256.25,-434.75 259.68,-424.73 252.68,-424.78"/>
<text text-anchor="middle" x="278" y="-318.8" font-family="Times,serif" font-size="14.00">19</text>
</g>
<!-- 5&#45;&gt;7 -->
<g id="edge35" class="edge">
<title>5&#45;&gt;7</title>
<path fill="none" stroke="black" d="M445.53,-179.89C472.79,-165.12 521.15,-138.95 552.37,-122.04"/>
<polygon fill="black" stroke="black" points="554.34,-124.95 561.47,-117.11 551.01,-118.8 554.34,-124.95"/>
<text text-anchor="middle" x="519" y="-144.8" font-family="Times,serif" font-size="14.00">12</text>
</g>
<!-- 5&#45;&gt;17 -->
<g id="edge33" class="edge">
<title>5&#45;&gt;17</title>
<path fill="none" stroke="black" d="M406.92,-178.59C389.66,-167.27 362.58,-150.86 337,-141 297.03,-125.59 248.59,-116.08 216.18,-110.93"/>
<polygon fill="black" stroke="black" points="216.67,-107.47 206.25,-109.41 215.61,-114.39 216.67,-107.47"/>
<text text-anchor="middle" x="374" y="-144.8" font-family="Times,serif" font-size="14.00">22</text>
</g>
<!-- 16 -->
<g id="node19" class="node">
<title>16</title>
<ellipse fill="none" stroke="green" cx="425" cy="-105" rx="27" ry="18"/>
<text text-anchor="middle" x="425" y="-101.3" font-family="Times,serif" font-size="14.00">16 0</text>
<text text-anchor="middle" x="394.5" y="-126.8" font-family="Times,serif" font-size="14.00">3</text>
</g>
<!-- 5&#45;&gt;16 -->
<g id="edge34" class="edge">
<title>5&#45;&gt;16</title>
<path fill="none" stroke="black" d="M425,-173.8C425,-162.16 425,-146.55 425,-133.24"/>
<polygon fill="black" stroke="black" points="428.5,-133.18 425,-123.18 421.5,-133.18 428.5,-133.18"/>
<text text-anchor="middle" x="432" y="-144.8" font-family="Times,serif" font-size="14.00">21</text>
</g>
<!-- 19 -->
<g id="node16" class="node">
<title>19</title>
<ellipse fill="none" stroke="blue" cx="212" cy="-561" rx="27" ry="18"/>
<text text-anchor="middle" x="212" y="-557.3" font-family="Times,serif" font-size="14.00">19 0</text>
<text text-anchor="middle" x="178" y="-582.8" font-family="Times,serif" font-size="14.00">12</text>
</g>
<!-- 19&#45;&gt;14 -->
<g id="edge19" class="edge">
<title>19&#45;&gt;14</title>
<path fill="none" stroke="black" d="M215.8,-543.15C219.44,-528.44 225.63,-506.74 234,-489 235.73,-485.33 237.8,-481.6 239.98,-478.01"/>
<polygon fill="black" stroke="black" points="243,-479.78 245.48,-469.48 237.12,-475.98 243,-479.78"/>
<text text-anchor="middle" x="241" y="-503.3" font-family="Times,serif" font-size="14.00">33</text>
</g>
<!-- 19&#45;&gt;13 -->
<g id="edge20" class="edge">
<title>19&#45;&gt;13</title>
<path fill="none" stroke="black" d="M197.72,-545.42C182.56,-528.91 159.4,-500.45 149,-471 129.37,-415.4 131.19,-345.09 134.15,-307.19"/>
<polygon fill="black" stroke="black" points="137.66,-307.23 135.05,-296.96 130.69,-306.62 137.66,-307.23"/>
<text text-anchor="middle" x="143" y="-405.8" font-family="Times,serif" font-size="14.00">32</text>
</g>
<!-- 8&#45;&gt;18 -->
<g id="edge27" class="edge">
<title>8&#45;&gt;18</title>
<path fill="none" stroke="black" d="M330.57,-261.15C320.04,-222.66 291.17,-126.09 249,-54 246.49,-49.71 243.47,-45.42 240.33,-41.38"/>
<polygon fill="black" stroke="black" points="242.91,-39.02 233.85,-33.53 237.51,-43.47 242.91,-39.02"/>
<text text-anchor="middle" x="302" y="-144.8" font-family="Times,serif" font-size="14.00">26</text>
</g>
<!-- 8&#45;&gt;5 -->
<g id="edge28" class="edge">
<title>8&#45;&gt;5</title>
<path fill="none" stroke="black" d="M349.86,-263.96C364.19,-250.43 386.07,-229.77 402.53,-214.22"/>
<polygon fill="black" stroke="black" points="405.25,-216.47 410.12,-207.06 400.44,-211.38 405.25,-216.47"/>
<text text-anchor="middle" x="392" y="-231.8" font-family="Times,serif" font-size="14.00">13</text>
</g>
<!-- 6&#45;&gt;12 -->
<g id="edge9" class="edge">
<title>6&#45;&gt;12</title>
<path fill="none" stroke="black" d="M421.36,-381.45C416.28,-387.34 411.08,-394.52 408,-402 377.5,-476.16 377.73,-573.09 380.03,-619.67"/>
<polygon fill="black" stroke="black" points="376.55,-620.08 380.61,-629.87 383.54,-619.68 376.55,-620.08"/>
<text text-anchor="middle" x="392" y="-503.3" font-family="Times,serif" font-size="14.00">18</text>
</g>
<!-- 6&#45;&gt;5 -->
<g id="edge10" class="edge">
<title>6&#45;&gt;5</title>
<path fill="none" stroke="black" d="M434.91,-347.88C432.99,-318 429.04,-256.11 426.74,-220.27"/>
<polygon fill="black" stroke="black" points="430.22,-219.81 426.09,-210.05 423.24,-220.25 430.22,-219.81"/>
<text text-anchor="middle" x="438" y="-275.3" font-family="Times,serif" font-size="14.00">11</text>
</g>
<!-- 0&#45;&gt;18 -->
<g id="edge8" class="edge">
<title>0&#45;&gt;18</title>
<path fill="none" stroke="black" d="M205.71,-347.97C207.04,-334.22 208.85,-314.38 210,-297 216.68,-195.79 217.78,-170.41 220,-69 220.16,-61.65 220.22,-53.7 220.22,-46.34"/>
<polygon fill="black" stroke="black" points="223.72,-46.12 220.19,-36.13 216.72,-46.14 223.72,-46.12"/>
<text text-anchor="middle" x="224" y="-188.3" font-family="Times,serif" font-size="14.00">18</text>
</g>
<!-- 0&#45;&gt;13 -->
<g id="edge6" class="edge">
<title>0&#45;&gt;13</title>
<path fill="none" stroke="black" d="M186.39,-351.9C178.91,-345.79 170.45,-338.08 164,-330 158.16,-322.68 152.94,-313.92 148.69,-305.79"/>
<polygon fill="black" stroke="black" points="151.73,-304.06 144.15,-296.66 145.46,-307.18 151.73,-304.06"/>
<text text-anchor="middle" x="171" y="-318.8" font-family="Times,serif" font-size="14.00">13</text>
</g>
<!-- 0&#45;&gt;17 -->
<g id="edge5" class="edge">
<title>0&#45;&gt;17</title>
<path fill="none" stroke="black" d="M202.43,-348.01C198.36,-304.1 187.47,-186.6 182.52,-133.15"/>
<polygon fill="black" stroke="black" points="185.99,-132.69 181.58,-123.06 179.02,-133.34 185.99,-132.69"/>
<text text-anchor="middle" x="199" y="-231.8" font-family="Times,serif" font-size="14.00">17</text>
</g>
<!-- 0&#45;&gt;8 -->
<g id="edge7" class="edge">
<title>0&#45;&gt;8</title>
<path fill="none" stroke="black" d="M216.02,-349.88C225.23,-339.06 238.75,-324.74 253,-315 267.68,-304.97 285.69,-296.9 301.09,-291.04"/>
<polygon fill="black" stroke="black" points="302.57,-294.23 310.77,-287.52 300.18,-287.65 302.57,-294.23"/>
<text text-anchor="middle" x="256.5" y="-318.8" font-family="Times,serif" font-size="14.00">8</text>
</g>
</g>
</svg>
