<?xml version="1.0" encoding="UTF-8" standalone="no"?>
<!DOCTYPE svg PUBLIC "-//W3C//DTD SVG 1.1//EN"
 "http://www.w3.org/Graphics/SVG/1.1/DTD/svg11.dtd">
<!-- Generated by graphviz version 10.0.1 (20240210.2158)
 -->
<!-- Title: di_graph Pages: 1 -->
<svg width="161pt" height="404pt"
 viewBox="0.00 0.00 161.00 404.00" xmlns="http://www.w3.org/2000/svg" xmlns:xlink="http://www.w3.org/1999/xlink">
<g id="graph0" class="graph" transform="scale(1 1) rotate(0) translate(4 400)">
<title>di_graph</title>
<polygon fill="white" stroke="none" points="-4,4 -4,-400 157,-400 157,4 -4,4"/>
<!-- 1 -->
<g id="node1" class="node">
<title>1</title>
<ellipse fill="none" stroke="black" cx="54" cy="-378" rx="27" ry="18"/>
<text text-anchor="middle" x="54" y="-372.95" font-family="Times,serif" font-size="14.00">1</text>
</g>
<!-- 2 -->
<g id="node7" class="node">
<title>2</title>
<ellipse fill="none" stroke="black" cx="27" cy="-306" rx="27" ry="18"/>
<text text-anchor="middle" x="27" y="-300.95" font-family="Times,serif" font-size="14.00">2</text>
</g>
<!-- 1&#45;&gt;2 -->
<g id="edge5" class="edge">
<title>1&#45;&gt;2</title>
<path fill="none" stroke="black" d="M47.46,-360.05C44.48,-352.32 40.87,-342.96 37.52,-334.27"/>
<polygon fill="black" stroke="black" points="40.88,-333.27 34.02,-325.2 34.35,-335.79 40.88,-333.27"/>
</g>
<!-- 3 -->
<g id="node2" class="node">
<title>3</title>
<ellipse fill="none" stroke="black" cx="54" cy="-234" rx="27" ry="18"/>
<text text-anchor="middle" x="54" y="-228.95" font-family="Times,serif" font-size="14.00">3</text>
</g>
<!-- 3&#45;&gt;1 -->
<g id="edge3" class="edge">
<title>3&#45;&gt;1</title>
<path fill="none" stroke="black" d="M57.65,-252.09C59.68,-262.43 61.98,-275.91 63,-288 64.34,-303.94 64.34,-308.06 63,-324 62.32,-332.03 61.08,-340.67 59.73,-348.6"/>
<polygon fill="black" stroke="black" points="56.29,-347.95 57.93,-358.42 63.17,-349.21 56.29,-347.95"/>
</g>
<!-- 4 -->
<g id="node8" class="node">
<title>4</title>
<ellipse fill="none" stroke="black" cx="54" cy="-162" rx="27" ry="18"/>
<text text-anchor="middle" x="54" y="-156.95" font-family="Times,serif" font-size="14.00">4</text>
</g>
<!-- 3&#45;&gt;4 -->
<g id="edge4" class="edge">
<title>3&#45;&gt;4</title>
<path fill="none" stroke="black" d="M54,-215.7C54,-208.41 54,-199.73 54,-191.54"/>
<polygon fill="black" stroke="black" points="57.5,-191.62 54,-181.62 50.5,-191.62 57.5,-191.62"/>
</g>
<!-- 5 -->
<g id="node3" class="node">
<title>5</title>
<ellipse fill="none" stroke="black" cx="126" cy="-90" rx="27" ry="18"/>
<text text-anchor="middle" x="126" y="-84.95" font-family="Times,serif" font-size="14.00">5</text>
</g>
<!-- 7 -->
<g id="node4" class="node">
<title>7</title>
<ellipse fill="none" stroke="black" cx="54" cy="-18" rx="27" ry="18"/>
<text text-anchor="middle" x="54" y="-12.95" font-family="Times,serif" font-size="14.00">7</text>
</g>
<!-- 5&#45;&gt;7 -->
<g id="edge1" class="edge">
<title>5&#45;&gt;7</title>
<path fill="none" stroke="black" d="M111.08,-74.5C101.23,-64.92 88.14,-52.19 76.97,-41.34"/>
<polygon fill="black" stroke="black" points="79.59,-39 69.98,-34.54 74.71,-44.02 79.59,-39"/>
</g>
<!-- 8 -->
<g id="node6" class="node">
<title>8</title>
<ellipse fill="none" stroke="black" cx="126" cy="-18" rx="27" ry="18"/>
<text text-anchor="middle" x="126" y="-12.95" font-family="Times,serif" font-size="14.00">8</text>
</g>
<!-- 5&#45;&gt;8 -->
<g id="edge2" class="edge">
<title>5&#45;&gt;8</title>
<path fill="none" stroke="black" d="M126,-71.7C126,-64.41 126,-55.73 126,-47.54"/>
<polygon fill="black" stroke="black" points="129.5,-47.62 126,-37.62 122.5,-47.62 129.5,-47.62"/>
</g>
<!-- 6 -->
<g id="node5" class="node">
<title>6</title>
<ellipse fill="none" stroke="black" cx="54" cy="-90" rx="27" ry="18"/>
<text text-anchor="middle" x="54" y="-84.95" font-family="Times,serif" font-size="14.00">6</text>
</g>
<!-- 6&#45;&gt;7 -->
<g id="edge9" class="edge">
<title>6&#45;&gt;7</title>
<path fill="none" stroke="black" d="M54,-71.7C54,-64.41 54,-55.73 54,-47.54"/>
<polygon fill="black" stroke="black" points="57.5,-47.62 54,-37.62 50.5,-47.62 57.5,-47.62"/>
</g>
<!-- 6&#45;&gt;4 -->
<g id="edge10" class="edge">
<title>6&#45;&gt;4</title>
<path fill="none" stroke="black" d="M59.86,-107.79C60.66,-115.25 60.92,-124.24 60.64,-132.69"/>
<polygon fill="black" stroke="black" points="57.16,-132.33 59.98,-142.54 64.14,-132.8 57.16,-132.33"/>
</g>
<!-- 2&#45;&gt;3 -->
<g id="edge8" class="edge">
<title>2&#45;&gt;3</title>
<path fill="none" stroke="black" d="M33.54,-288.05C36.52,-280.32 40.13,-270.96 43.48,-262.27"/>
<polygon fill="black" stroke="black" points="46.65,-263.79 46.98,-253.2 40.12,-261.27 46.65,-263.79"/>
</g>
<!-- 4&#45;&gt;5 -->
<g id="edge7" class="edge">
<title>4&#45;&gt;5</title>
<path fill="none" stroke="black" d="M68.92,-146.5C78.77,-136.92 91.86,-124.19 103.03,-113.34"/>
<polygon fill="black" stroke="black" points="105.29,-116.02 110.02,-106.54 100.41,-111 105.29,-116.02"/>
</g>
<!-- 4&#45;&gt;6 -->
<g id="edge6" class="edge">
<title>4&#45;&gt;6</title>
<path fill="none" stroke="black" d="M48.12,-144.05C47.33,-136.57 47.08,-127.58 47.37,-119.14"/>
<polygon fill="black" stroke="black" points="50.85,-119.51 48.04,-109.3 43.87,-119.04 50.85,-119.51"/>
</g>
</g>
</svg>
