<?xml version="1.0" encoding="UTF-8" standalone="no"?>
<!DOCTYPE svg PUBLIC "-//W3C//DTD SVG 1.1//EN"
 "http://www.w3.org/Graphics/SVG/1.1/DTD/svg11.dtd">
<!-- Generated by graphviz version 10.0.1 (20240210.2158)
 -->
<!-- Title: di_graph Pages: 1 -->
<svg width="114pt" height="398pt"
 viewBox="0.00 0.00 114.00 398.00" xmlns="http://www.w3.org/2000/svg" xmlns:xlink="http://www.w3.org/1999/xlink">
<g id="graph0" class="graph" transform="scale(1 1) rotate(0) translate(4 394)">
<title>di_graph</title>
<polygon fill="white" stroke="none" points="-4,4 -4,-394 110,-394 110,4 -4,4"/>
<!-- E -->
<g id="node1" class="node">
<title>E</title>
<ellipse fill="none" stroke="black" cx="43" cy="-18" rx="27" ry="18"/>
<text text-anchor="middle" x="43" y="-12.95" font-family="Times,serif" font-size="14.00">E</text>
</g>
<!-- C -->
<g id="node2" class="node">
<title>C</title>
<ellipse fill="none" stroke="black" cx="27" cy="-195" rx="27" ry="18"/>
<text text-anchor="middle" x="27" y="-189.95" font-family="Times,serif" font-size="14.00">C</text>
</g>
<!-- C&#45;&gt;E -->
<g id="edge3" class="edge">
<title>C&#45;&gt;E</title>
<path fill="none" stroke="green" stroke-width="2" d="M28.46,-176.82C30.24,-155.93 33.37,-119.62 36.25,-88.5 37.44,-75.61 38.81,-61.38 40.01,-49.17"/>
<polygon fill="green" stroke="green" stroke-width="2" points="43.47,-49.73 40.97,-39.43 36.5,-49.04 43.47,-49.73"/>
<text text-anchor="middle" x="40.38" y="-101.45" font-family="Times,serif" font-size="14.00">5</text>
</g>
<!-- D -->
<g id="node3" class="node">
<title>D</title>
<ellipse fill="none" stroke="black" cx="79" cy="-106.5" rx="27" ry="18"/>
<text text-anchor="middle" x="79" y="-101.45" font-family="Times,serif" font-size="14.00">D</text>
</g>
<!-- C&#45;&gt;D -->
<g id="edge4" class="edge">
<title>C&#45;&gt;D</title>
<path fill="none" stroke="green" stroke-width="2" d="M36.78,-177.73C44.04,-165.65 54.12,-148.89 62.6,-134.77"/>
<polygon fill="green" stroke="green" stroke-width="2" points="65.55,-136.67 67.7,-126.29 59.55,-133.06 65.55,-136.67"/>
<text text-anchor="middle" x="61.38" y="-145.7" font-family="Times,serif" font-size="14.00">3</text>
</g>
<!-- D&#45;&gt;E -->
<g id="edge5" class="edge">
<title>D&#45;&gt;E</title>
<path fill="none" stroke="black" d="M72.06,-88.82C67.03,-76.74 60.12,-60.13 54.3,-46.14"/>
<polygon fill="black" stroke="black" points="57.58,-44.91 50.5,-37.02 51.11,-47.6 57.58,-44.91"/>
<text text-anchor="middle" x="67.38" y="-57.2" font-family="Times,serif" font-size="14.00">6</text>
</g>
<!-- B -->
<g id="node4" class="node">
<title>B</title>
<ellipse fill="none" stroke="black" cx="79" cy="-283.5" rx="27" ry="18"/>
<text text-anchor="middle" x="79" y="-278.45" font-family="Times,serif" font-size="14.00">B</text>
</g>
<!-- B&#45;&gt;C -->
<g id="edge1" class="edge">
<title>B&#45;&gt;C</title>
<path fill="none" stroke="green" stroke-width="2" d="M69.22,-266.23C61.96,-254.15 51.88,-237.39 43.4,-223.27"/>
<polygon fill="green" stroke="green" stroke-width="2" points="46.45,-221.56 38.3,-214.79 40.45,-225.17 46.45,-221.56"/>
<text text-anchor="middle" x="61.38" y="-234.2" font-family="Times,serif" font-size="14.00">1</text>
</g>
<!-- B&#45;&gt;D -->
<g id="edge2" class="edge">
<title>B&#45;&gt;D</title>
<path fill="none" stroke="black" d="M79,-265.08C79,-234.94 79,-172.8 79,-136.2"/>
<polygon fill="black" stroke="black" points="82.5,-136.36 79,-126.36 75.5,-136.36 82.5,-136.36"/>
<text text-anchor="middle" x="82.38" y="-189.95" font-family="Times,serif" font-size="14.00">7</text>
</g>
<!-- A -->
<g id="node5" class="node">
<title>A</title>
<ellipse fill="none" stroke="black" cx="43" cy="-372" rx="27" ry="18"/>
<text text-anchor="middle" x="43" y="-366.95" font-family="Times,serif" font-size="14.00">A</text>
</g>
<!-- A&#45;&gt;C -->
<g id="edge7" class="edge">
<title>A&#45;&gt;C</title>
<path fill="none" stroke="black" d="M41.26,-353.58C39.87,-339.53 37.89,-319.24 36.25,-301.5 33.85,-275.48 31.26,-245.84 29.44,-224.61"/>
<polygon fill="black" stroke="black" points="32.93,-224.35 28.59,-214.69 25.95,-224.95 32.93,-224.35"/>
<text text-anchor="middle" x="40.38" y="-278.45" font-family="Times,serif" font-size="14.00">4</text>
</g>
<!-- A&#45;&gt;B -->
<g id="edge6" class="edge">
<title>A&#45;&gt;B</title>
<path fill="none" stroke="green" stroke-width="2" d="M49.94,-354.32C54.82,-342.59 61.47,-326.61 67.18,-312.9"/>
<polygon fill="green" stroke="green" stroke-width="2" points="70.31,-314.5 70.92,-303.92 63.84,-311.81 70.31,-314.5"/>
<text text-anchor="middle" x="67.38" y="-322.7" font-family="Times,serif" font-size="14.00">2</text>
</g>
</g>
</svg>
