<?xml version="1.0" encoding="UTF-8" standalone="no"?>
<!DOCTYPE svg PUBLIC "-//W3C//DTD SVG 1.1//EN"
 "http://www.w3.org/Graphics/SVG/1.1/DTD/svg11.dtd">
<!-- Generated by graphviz version 10.0.1 (20240210.2158)
 -->
<!-- Title: di_graph Pages: 1 -->
<svg width="119pt" height="398pt"
 viewBox="0.00 0.00 119.00 398.00" xmlns="http://www.w3.org/2000/svg" xmlns:xlink="http://www.w3.org/1999/xlink">
<g id="graph0" class="graph" transform="scale(1 1) rotate(0) translate(4 394)">
<title>di_graph</title>
<polygon fill="white" stroke="none" points="-4,4 -4,-394 115,-394 115,4 -4,4"/>
<!-- E -->
<g id="node1" class="node">
<title>E</title>
<ellipse fill="none" stroke="black" cx="59" cy="-18" rx="27" ry="18"/>
<text text-anchor="middle" x="59" y="-12.95" font-family="Times,serif" font-size="14.00">E</text>
</g>
<!-- B -->
<g id="node2" class="node">
<title>B</title>
<ellipse fill="none" stroke="black" cx="27" cy="-283.5" rx="27" ry="18"/>
<text text-anchor="middle" x="27" y="-278.45" font-family="Times,serif" font-size="14.00">B</text>
</g>
<!-- C -->
<g id="node4" class="node">
<title>C</title>
<ellipse fill="none" stroke="black" cx="84" cy="-195" rx="27" ry="18"/>
<text text-anchor="middle" x="84" y="-189.95" font-family="Times,serif" font-size="14.00">C</text>
</g>
<!-- B&#45;&gt;C -->
<g id="edge4" class="edge">
<title>B&#45;&gt;C</title>
<path fill="none" stroke="green" stroke-width="2" d="M37.45,-266.63C45.52,-254.4 56.86,-237.19 66.33,-222.82"/>
<polygon fill="green" stroke="green" stroke-width="2" points="69.17,-224.86 71.75,-214.59 63.33,-221.01 69.17,-224.86"/>
<text text-anchor="middle" x="64.38" y="-234.2" font-family="Times,serif" font-size="14.00">1</text>
</g>
<!-- D -->
<g id="node5" class="node">
<title>D</title>
<ellipse fill="none" stroke="black" cx="27" cy="-106.5" rx="27" ry="18"/>
<text text-anchor="middle" x="27" y="-101.45" font-family="Times,serif" font-size="14.00">D</text>
</g>
<!-- B&#45;&gt;D -->
<g id="edge5" class="edge">
<title>B&#45;&gt;D</title>
<path fill="none" stroke="black" d="M27,-265.08C27,-234.94 27,-172.8 27,-136.2"/>
<polygon fill="black" stroke="black" points="30.5,-136.36 27,-126.36 23.5,-136.36 30.5,-136.36"/>
<text text-anchor="middle" x="30.38" y="-189.95" font-family="Times,serif" font-size="14.00">7</text>
</g>
<!-- A -->
<g id="node3" class="node">
<title>A</title>
<ellipse fill="none" stroke="black" cx="59" cy="-372" rx="27" ry="18"/>
<text text-anchor="middle" x="59" y="-366.95" font-family="Times,serif" font-size="14.00">A</text>
</g>
<!-- A&#45;&gt;B -->
<g id="edge7" class="edge">
<title>A&#45;&gt;B</title>
<path fill="none" stroke="green" stroke-width="2" d="M52.83,-354.32C48.56,-342.79 42.77,-327.14 37.76,-313.58"/>
<polygon fill="green" stroke="green" stroke-width="2" points="41.06,-312.43 34.31,-304.26 34.5,-314.85 41.06,-312.43"/>
<text text-anchor="middle" x="49.38" y="-322.7" font-family="Times,serif" font-size="14.00">2</text>
</g>
<!-- A&#45;&gt;C -->
<g id="edge6" class="edge">
<title>A&#45;&gt;C</title>
<path fill="none" stroke="black" d="M61.49,-353.58C65.79,-323.44 74.67,-261.3 79.9,-224.7"/>
<polygon fill="black" stroke="black" points="83.36,-225.24 81.31,-214.85 76.43,-224.25 83.36,-225.24"/>
<text text-anchor="middle" x="77.38" y="-278.45" font-family="Times,serif" font-size="14.00">4</text>
</g>
<!-- C&#45;&gt;E -->
<g id="edge1" class="edge">
<title>C&#45;&gt;E</title>
<path fill="none" stroke="green" stroke-width="2" d="M81.51,-176.58C77.26,-146.84 68.56,-85.91 63.31,-49.14"/>
<polygon fill="green" stroke="green" stroke-width="2" points="66.79,-48.75 61.91,-39.35 59.86,-49.74 66.79,-48.75"/>
<text text-anchor="middle" x="77.38" y="-101.45" font-family="Times,serif" font-size="14.00">5</text>
</g>
<!-- C&#45;&gt;D -->
<g id="edge2" class="edge">
<title>C&#45;&gt;D</title>
<path fill="none" stroke="green" stroke-width="2" d="M73.55,-178.13C65.48,-165.9 54.14,-148.69 44.67,-134.32"/>
<polygon fill="green" stroke="green" stroke-width="2" points="47.67,-132.51 39.25,-126.09 41.83,-136.36 47.67,-132.51"/>
<text text-anchor="middle" x="64.38" y="-145.7" font-family="Times,serif" font-size="14.00">3</text>
</g>
<!-- D&#45;&gt;E -->
<g id="edge3" class="edge">
<title>D&#45;&gt;E</title>
<path fill="none" stroke="black" d="M33.17,-88.82C37.61,-76.81 43.71,-60.34 48.86,-46.41"/>
<polygon fill="black" stroke="black" points="52.03,-47.93 52.21,-37.34 45.46,-45.51 52.03,-47.93"/>
<text text-anchor="middle" x="49.38" y="-57.2" font-family="Times,serif" font-size="14.00">6</text>
</g>
</g>
</svg>
