<?xml version="1.0" encoding="UTF-8" standalone="no"?>
<!DOCTYPE svg PUBLIC "-//W3C//DTD SVG 1.1//EN"
 "http://www.w3.org/Graphics/SVG/1.1/DTD/svg11.dtd">
<!-- Generated by graphviz version 10.0.1 (20240210.2158)
 -->
<!-- Title: di_graph Pages: 1 -->
<svg width="416pt" height="398pt"
 viewBox="0.00 0.00 416.00 398.00" xmlns="http://www.w3.org/2000/svg" xmlns:xlink="http://www.w3.org/1999/xlink">
<g id="graph0" class="graph" transform="scale(1 1) rotate(0) translate(4 394)">
<title>di_graph</title>
<polygon fill="white" stroke="none" points="-4,4 -4,-394 412,-394 412,4 -4,4"/>
<!-- 7 -->
<g id="node1" class="node">
<title>7</title>
<ellipse fill="none" stroke="black" cx="157" cy="-195" rx="27" ry="18"/>
<text text-anchor="middle" x="157" y="-189.95" font-family="Times,serif" font-size="14.00">7 g</text>
</g>
<!-- 9 -->
<g id="node2" class="node">
<title>9</title>
<ellipse fill="none" stroke="black" cx="55" cy="-106.5" rx="27" ry="18"/>
<text text-anchor="middle" x="55" y="-101.45" font-family="Times,serif" font-size="14.00">9 y</text>
</g>
<!-- 7&#45;&gt;9 -->
<g id="edge8" class="edge">
<title>7&#45;&gt;9</title>
<path fill="none" stroke="black" d="M141.06,-180.48C124.69,-166.6 98.98,-144.79 79.92,-128.63"/>
<polygon fill="black" stroke="black" points="82.21,-125.98 72.32,-122.19 77.68,-131.32 82.21,-125.98"/>
<text text-anchor="middle" x="119.38" y="-145.7" font-family="Times,serif" font-size="14.00">2</text>
</g>
<!-- 10 -->
<g id="node5" class="node">
<title>10</title>
<ellipse fill="none" stroke="black" cx="199" cy="-106.5" rx="27.3" ry="18"/>
<text text-anchor="middle" x="199" y="-101.45" font-family="Times,serif" font-size="14.00">10 u</text>
</g>
<!-- 7&#45;&gt;10 -->
<g id="edge9" class="edge">
<title>7&#45;&gt;10</title>
<path fill="none" stroke="black" d="M165.1,-177.32C171.02,-165.12 179.19,-148.3 186.02,-134.23"/>
<polygon fill="black" stroke="black" points="189.05,-136.01 190.27,-125.49 182.75,-132.96 189.05,-136.01"/>
<text text-anchor="middle" x="184.38" y="-145.7" font-family="Times,serif" font-size="14.00">3</text>
</g>
<!-- 8 -->
<g id="node11" class="node">
<title>8</title>
<ellipse fill="none" stroke="black" cx="127" cy="-106.5" rx="27" ry="18"/>
<text text-anchor="middle" x="127" y="-101.45" font-family="Times,serif" font-size="14.00">8 h</text>
</g>
<!-- 7&#45;&gt;8 -->
<g id="edge7" class="edge">
<title>7&#45;&gt;8</title>
<path fill="none" stroke="black" d="M151.22,-177.32C147.05,-165.31 141.34,-148.84 136.51,-134.91"/>
<polygon fill="black" stroke="black" points="139.95,-134.15 133.36,-125.85 133.33,-136.45 139.95,-134.15"/>
<text text-anchor="middle" x="147.38" y="-145.7" font-family="Times,serif" font-size="14.00">1</text>
</g>
<!-- 11 -->
<g id="node7" class="node">
<title>11</title>
<ellipse fill="none" stroke="black" cx="102" cy="-18" rx="27" ry="18"/>
<text text-anchor="middle" x="102" y="-12.95" font-family="Times,serif" font-size="14.00">11 i</text>
</g>
<!-- 9&#45;&gt;11 -->
<g id="edge4" class="edge">
<title>9&#45;&gt;11</title>
<path fill="none" stroke="black" d="M63.84,-89.23C70.6,-76.79 80.06,-59.38 87.87,-45.01"/>
<polygon fill="black" stroke="black" points="90.78,-46.98 92.48,-36.53 84.63,-43.64 90.78,-46.98"/>
<text text-anchor="middle" x="86.38" y="-57.2" font-family="Times,serif" font-size="14.00">1</text>
</g>
<!-- 4 -->
<g id="node3" class="node">
<title>4</title>
<ellipse fill="none" stroke="black" cx="276" cy="-18" rx="27" ry="18"/>
<text text-anchor="middle" x="276" y="-12.95" font-family="Times,serif" font-size="14.00">4 d</text>
</g>
<!-- 6 -->
<g id="node10" class="node">
<title>6</title>
<ellipse fill="none" stroke="black" cx="254" cy="-283.5" rx="27" ry="18"/>
<text text-anchor="middle" x="254" y="-278.45" font-family="Times,serif" font-size="14.00">6 f</text>
</g>
<!-- 4&#45;&gt;6 -->
<g id="edge14" class="edge">
<title>4&#45;&gt;6</title>
<path fill="none" stroke="black" d="M274.55,-36.35C270.84,-80.81 260.96,-199.14 256.39,-253.93"/>
<polygon fill="black" stroke="black" points="252.91,-253.45 255.57,-263.7 259.89,-254.03 252.91,-253.45"/>
<text text-anchor="middle" x="268.38" y="-145.7" font-family="Times,serif" font-size="14.00">1</text>
</g>
<!-- 5 -->
<g id="node4" class="node">
<title>5</title>
<ellipse fill="none" stroke="black" cx="254" cy="-372" rx="27" ry="18"/>
<text text-anchor="middle" x="254" y="-366.95" font-family="Times,serif" font-size="14.00">5 e</text>
</g>
<!-- 5&#45;&gt;11 -->
<g id="edge2" class="edge">
<title>5&#45;&gt;11</title>
<path fill="none" stroke="black" d="M227.3,-367.69C162.08,-358.86 0,-332.13 0,-284.5 0,-284.5 0,-284.5 0,-105.5 0,-69.1 38.24,-44.85 67.89,-31.51"/>
<polygon fill="black" stroke="black" points="69.1,-34.8 76.95,-27.68 66.38,-28.35 69.1,-34.8"/>
<text text-anchor="middle" x="3.38" y="-189.95" font-family="Times,serif" font-size="14.00">4</text>
</g>
<!-- 5&#45;&gt;6 -->
<g id="edge1" class="edge">
<title>5&#45;&gt;6</title>
<path fill="none" stroke="black" d="M254,-353.91C254,-342.26 254,-326.55 254,-313.02"/>
<polygon fill="black" stroke="black" points="257.5,-313.36 254,-303.36 250.5,-313.36 257.5,-313.36"/>
<text text-anchor="middle" x="257.38" y="-322.7" font-family="Times,serif" font-size="14.00">1</text>
</g>
<!-- 10&#45;&gt;11 -->
<g id="edge13" class="edge">
<title>10&#45;&gt;11</title>
<path fill="none" stroke="black" d="M183.42,-91.6C167.86,-77.73 143.75,-56.23 125.8,-40.22"/>
<polygon fill="black" stroke="black" points="128.47,-37.91 118.68,-33.87 123.81,-43.14 128.47,-37.91"/>
<text text-anchor="middle" x="162.38" y="-57.2" font-family="Times,serif" font-size="14.00">1</text>
</g>
<!-- 1 -->
<g id="node6" class="node">
<title>1</title>
<ellipse fill="none" stroke="black" cx="309" cy="-195" rx="27" ry="18"/>
<text text-anchor="middle" x="309" y="-189.95" font-family="Times,serif" font-size="14.00">1 a</text>
</g>
<!-- 2 -->
<g id="node8" class="node">
<title>2</title>
<ellipse fill="none" stroke="black" cx="309" cy="-106.5" rx="27" ry="18"/>
<text text-anchor="middle" x="309" y="-101.45" font-family="Times,serif" font-size="14.00">2 b</text>
</g>
<!-- 1&#45;&gt;2 -->
<g id="edge5" class="edge">
<title>1&#45;&gt;2</title>
<path fill="none" stroke="black" d="M309,-176.91C309,-165.26 309,-149.55 309,-136.02"/>
<polygon fill="black" stroke="black" points="312.5,-136.36 309,-126.36 305.5,-136.36 312.5,-136.36"/>
<text text-anchor="middle" x="312.38" y="-145.7" font-family="Times,serif" font-size="14.00">1</text>
</g>
<!-- 3 -->
<g id="node9" class="node">
<title>3</title>
<ellipse fill="none" stroke="black" cx="381" cy="-106.5" rx="27" ry="18"/>
<text text-anchor="middle" x="381" y="-101.45" font-family="Times,serif" font-size="14.00">3 c</text>
</g>
<!-- 1&#45;&gt;3 -->
<g id="edge6" class="edge">
<title>1&#45;&gt;3</title>
<path fill="none" stroke="black" d="M321.5,-178.62C329.87,-168.35 341.17,-154.57 351.25,-142.5 354.36,-138.78 357.66,-134.86 360.9,-131.03"/>
<polygon fill="black" stroke="black" points="363.41,-133.48 367.22,-123.59 358.08,-128.95 363.41,-133.48"/>
<text text-anchor="middle" x="354.38" y="-145.7" font-family="Times,serif" font-size="14.00">1</text>
</g>
<!-- 2&#45;&gt;4 -->
<g id="edge10" class="edge">
<title>2&#45;&gt;4</title>
<path fill="none" stroke="black" d="M302.64,-88.82C298.06,-76.81 291.77,-60.34 286.46,-46.41"/>
<polygon fill="black" stroke="black" points="289.83,-45.43 283,-37.34 283.29,-47.93 289.83,-45.43"/>
<text text-anchor="middle" x="298.38" y="-57.2" font-family="Times,serif" font-size="14.00">2</text>
</g>
<!-- 3&#45;&gt;5 -->
<g id="edge3" class="edge">
<title>3&#45;&gt;5</title>
<path fill="none" stroke="black" d="M376.25,-124.7C370.14,-145.91 358.67,-182.86 345,-213 322.92,-261.7 290.36,-314.91 270.76,-345.49"/>
<polygon fill="black" stroke="black" points="267.96,-343.38 265.47,-353.68 273.84,-347.18 267.96,-343.38"/>
<text text-anchor="middle" x="339.38" y="-234.2" font-family="Times,serif" font-size="14.00">3</text>
</g>
<!-- 6&#45;&gt;7 -->
<g id="edge11" class="edge">
<title>6&#45;&gt;7</title>
<path fill="none" stroke="black" d="M238.42,-268.6C222.86,-254.73 198.75,-233.23 180.8,-217.22"/>
<polygon fill="black" stroke="black" points="183.47,-214.91 173.68,-210.87 178.81,-220.14 183.47,-214.91"/>
<text text-anchor="middle" x="217.38" y="-234.2" font-family="Times,serif" font-size="14.00">1</text>
</g>
<!-- 6&#45;&gt;1 -->
<g id="edge12" class="edge">
<title>6&#45;&gt;1</title>
<path fill="none" stroke="black" d="M264.09,-266.63C272.1,-254.03 283.46,-236.16 292.75,-221.55"/>
<polygon fill="black" stroke="black" points="295.57,-223.65 297.98,-213.34 289.66,-219.9 295.57,-223.65"/>
<text text-anchor="middle" x="289.38" y="-234.2" font-family="Times,serif" font-size="14.00">1</text>
</g>
<!-- 8&#45;&gt;11 -->
<g id="edge15" class="edge">
<title>8&#45;&gt;11</title>
<path fill="none" stroke="black" d="M122.06,-88.41C118.64,-76.56 114,-60.52 110.05,-46.84"/>
<polygon fill="black" stroke="black" points="113.49,-46.14 107.35,-37.51 106.76,-48.09 113.49,-46.14"/>
<text text-anchor="middle" x="120.38" y="-57.2" font-family="Times,serif" font-size="14.00">1</text>
</g>
</g>
</svg>
