<?xml version="1.0" encoding="UTF-8" standalone="no"?>
<!DOCTYPE svg PUBLIC "-//W3C//DTD SVG 1.1//EN"
 "http://www.w3.org/Graphics/SVG/1.1/DTD/svg11.dtd">
<!-- Generated by graphviz version 5.0.0 (0)
 -->
<!-- Title: di_graph Pages: 1 -->
<svg width="344pt" height="479pt"
 viewBox="0.00 0.00 344.00 479.00" xmlns="http://www.w3.org/2000/svg" xmlns:xlink="http://www.w3.org/1999/xlink">
<g id="graph0" class="graph" transform="scale(1 1) rotate(0) translate(4 475)">
<title>di_graph</title>
<polygon fill="white" stroke="transparent" points="-4,4 -4,-475 340,-475 340,4 -4,4"/>
<!-- 3 -->
<g id="node1" class="node">
<title>3</title>
<ellipse fill="none" stroke="black" cx="282" cy="-453" rx="27" ry="18"/>
<text text-anchor="middle" x="282" y="-449.3" font-family="Times,serif" font-size="14.00">3 e</text>
</g>
<!-- 5 -->
<g id="node11" class="node">
<title>5</title>
<ellipse fill="none" stroke="black" cx="254" cy="-366" rx="27" ry="18"/>
<text text-anchor="middle" x="254" y="-362.3" font-family="Times,serif" font-size="14.00">5 e</text>
</g>
<!-- 3&#45;&gt;5 -->
<g id="edge9" class="edge">
<title>3&#45;&gt;5</title>
<path fill="none" stroke="black" stroke-dasharray="1,5" d="M276.47,-435.21C272.56,-423.33 267.23,-407.17 262.75,-393.56"/>
<polygon fill="black" stroke="black" points="265.97,-392.16 259.52,-383.76 259.32,-394.35 265.97,-392.16"/>
<text text-anchor="middle" x="272.5" y="-405.8" font-family="Times,serif" font-size="14.00">3</text>
</g>
<!-- 4 -->
<g id="node2" class="node">
<title>4</title>
<ellipse fill="none" stroke="green" cx="270" cy="-18" rx="27" ry="18"/>
<text text-anchor="middle" x="270" y="-14.3" font-family="Times,serif" font-size="14.00">4 e</text>
</g>
<!-- 6 -->
<g id="node8" class="node">
<title>6</title>
<ellipse fill="none" stroke="green" cx="254" cy="-279" rx="27" ry="18"/>
<text text-anchor="middle" x="254" y="-275.3" font-family="Times,serif" font-size="14.00">6 e</text>
</g>
<!-- 4&#45;&gt;6 -->
<g id="edge15" class="edge">
<title>4&#45;&gt;6</title>
<path fill="none" stroke="black" d="M268.95,-36.06C266.23,-80.03 258.97,-197.54 255.67,-250.93"/>
<polygon fill="black" stroke="black" points="252.17,-250.81 255.05,-261.01 259.16,-251.24 252.17,-250.81"/>
<text text-anchor="middle" x="265.5" y="-144.8" font-family="Times,serif" font-size="14.00">1</text>
</g>
<!-- 7 -->
<g id="node3" class="node">
<title>7</title>
<ellipse fill="none" stroke="green" cx="174" cy="-192" rx="27" ry="18"/>
<text text-anchor="middle" x="174" y="-188.3" font-family="Times,serif" font-size="14.00">7 e</text>
</g>
<!-- 8 -->
<g id="node4" class="node">
<title>8</title>
<ellipse fill="none" stroke="green" cx="55" cy="-105" rx="27" ry="18"/>
<text text-anchor="middle" x="55" y="-101.3" font-family="Times,serif" font-size="14.00">8 e</text>
</g>
<!-- 7&#45;&gt;8 -->
<g id="edge8" class="edge">
<title>7&#45;&gt;8</title>
<path fill="none" stroke="black" d="M156.18,-178.27C136.29,-164.07 103.91,-140.93 81.14,-124.67"/>
<polygon fill="black" stroke="black" points="83.11,-121.78 72.94,-118.81 79.04,-127.47 83.11,-121.78"/>
<text text-anchor="middle" x="125.5" y="-144.8" font-family="Times,serif" font-size="14.00">1</text>
</g>
<!-- 9 -->
<g id="node9" class="node">
<title>9</title>
<ellipse fill="none" stroke="black" cx="127" cy="-105" rx="27" ry="18"/>
<text text-anchor="middle" x="127" y="-101.3" font-family="Times,serif" font-size="14.00">9 e</text>
</g>
<!-- 7&#45;&gt;9 -->
<g id="edge6" class="edge">
<title>7&#45;&gt;9</title>
<path fill="none" stroke="black" stroke-dasharray="1,5" d="M164.94,-174.61C158.13,-162.3 148.69,-145.23 140.93,-131.19"/>
<polygon fill="black" stroke="black" points="143.78,-129.11 135.87,-122.05 137.65,-132.5 143.78,-129.11"/>
<text text-anchor="middle" x="157.5" y="-144.8" font-family="Times,serif" font-size="14.00">2</text>
</g>
<!-- 10 -->
<g id="node10" class="node">
<title>10</title>
<ellipse fill="none" stroke="black" cx="199" cy="-105" rx="27" ry="18"/>
<text text-anchor="middle" x="199" y="-101.3" font-family="Times,serif" font-size="14.00">10 e</text>
</g>
<!-- 7&#45;&gt;10 -->
<g id="edge7" class="edge">
<title>7&#45;&gt;10</title>
<path fill="none" stroke="black" stroke-dasharray="1,5" d="M178.94,-174.21C182.43,-162.33 187.19,-146.17 191.19,-132.56"/>
<polygon fill="black" stroke="black" points="194.61,-133.34 194.07,-122.76 187.89,-131.36 194.61,-133.34"/>
<text text-anchor="middle" x="191.5" y="-144.8" font-family="Times,serif" font-size="14.00">3</text>
</g>
<!-- 11 -->
<g id="node5" class="node">
<title>11</title>
<ellipse fill="none" stroke="green" stroke-width="2" cx="91" cy="-18" rx="27" ry="18"/>
<text text-anchor="middle" x="91" y="-14.3" font-family="Times,serif" font-size="14.00">11 e</text>
</g>
<!-- 8&#45;&gt;11 -->
<g id="edge5" class="edge">
<title>8&#45;&gt;11</title>
<path fill="none" stroke="black" d="M62.11,-87.21C67.22,-75.14 74.21,-58.64 80.03,-44.89"/>
<polygon fill="black" stroke="black" points="83.35,-46.04 84.02,-35.47 76.9,-43.31 83.35,-46.04"/>
<text text-anchor="middle" x="79.5" y="-57.8" font-family="Times,serif" font-size="14.00">1</text>
</g>
<!-- 1 -->
<g id="node6" class="node">
<title>1</title>
<ellipse fill="none" stroke="green" stroke-width="2" cx="309" cy="-192" rx="27" ry="18"/>
<text text-anchor="middle" x="309" y="-188.3" font-family="Times,serif" font-size="14.00">1 e</text>
</g>
<!-- 1&#45;&gt;3 -->
<g id="edge1" class="edge">
<title>1&#45;&gt;3</title>
<path fill="none" stroke="black" stroke-dasharray="1,5" d="M307.4,-210.13C304.25,-243.58 296.96,-319.9 290,-384 288.54,-397.44 286.8,-412.35 285.32,-424.78"/>
<polygon fill="black" stroke="black" points="281.81,-424.62 284.09,-434.96 288.76,-425.45 281.81,-424.62"/>
<text text-anchor="middle" x="300.5" y="-318.8" font-family="Times,serif" font-size="14.00">1</text>
</g>
<!-- 2 -->
<g id="node7" class="node">
<title>2</title>
<ellipse fill="none" stroke="green" cx="309" cy="-105" rx="27" ry="18"/>
<text text-anchor="middle" x="309" y="-101.3" font-family="Times,serif" font-size="14.00">2 e</text>
</g>
<!-- 1&#45;&gt;2 -->
<g id="edge2" class="edge">
<title>1&#45;&gt;2</title>
<path fill="none" stroke="black" d="M309,-173.8C309,-162.16 309,-146.55 309,-133.24"/>
<polygon fill="black" stroke="black" points="312.5,-133.18 309,-123.18 305.5,-133.18 312.5,-133.18"/>
<text text-anchor="middle" x="312.5" y="-144.8" font-family="Times,serif" font-size="14.00">1</text>
</g>
<!-- 2&#45;&gt;4 -->
<g id="edge14" class="edge">
<title>2&#45;&gt;4</title>
<path fill="none" stroke="black" d="M301.48,-87.61C295.87,-75.38 288.1,-58.44 281.68,-44.46"/>
<polygon fill="black" stroke="black" points="284.85,-42.97 277.5,-35.34 278.49,-45.89 284.85,-42.97"/>
<text text-anchor="middle" x="294.5" y="-57.8" font-family="Times,serif" font-size="14.00">2</text>
</g>
<!-- 6&#45;&gt;7 -->
<g id="edge12" class="edge">
<title>6&#45;&gt;7</title>
<path fill="none" stroke="black" d="M240.07,-263.19C227.56,-249.91 209.04,-230.23 194.79,-215.08"/>
<polygon fill="black" stroke="black" points="197.18,-212.52 187.78,-207.64 192.08,-217.32 197.18,-212.52"/>
<text text-anchor="middle" x="222.5" y="-231.8" font-family="Times,serif" font-size="14.00">1</text>
</g>
<!-- 6&#45;&gt;1 -->
<g id="edge13" class="edge">
<title>6&#45;&gt;1</title>
<path fill="none" stroke="black" stroke-dasharray="1,5" d="M264.35,-262.01C272.49,-249.43 283.97,-231.68 293.26,-217.33"/>
<polygon fill="black" stroke="black" points="296.21,-219.21 298.7,-208.92 290.33,-215.41 296.21,-219.21"/>
<text text-anchor="middle" x="287.5" y="-231.8" font-family="Times,serif" font-size="14.00">1</text>
</g>
<!-- 9&#45;&gt;11 -->
<g id="edge11" class="edge">
<title>9&#45;&gt;11</title>
<path fill="none" stroke="black" stroke-dasharray="1,5" d="M119.89,-87.21C114.78,-75.14 107.79,-58.64 101.97,-44.89"/>
<polygon fill="black" stroke="black" points="105.1,-43.31 97.98,-35.47 98.65,-46.04 105.1,-43.31"/>
<text text-anchor="middle" x="115.5" y="-57.8" font-family="Times,serif" font-size="14.00">1</text>
</g>
<!-- 10&#45;&gt;11 -->
<g id="edge10" class="edge">
<title>10&#45;&gt;11</title>
<path fill="none" stroke="black" stroke-dasharray="1,5" d="M182.12,-90.72C164.29,-76.68 135.99,-54.41 115.66,-38.41"/>
<polygon fill="black" stroke="black" points="117.78,-35.62 107.76,-32.19 113.45,-41.12 117.78,-35.62"/>
<text text-anchor="middle" x="155.5" y="-57.8" font-family="Times,serif" font-size="14.00">1</text>
</g>
<!-- 5&#45;&gt;11 -->
<g id="edge3" class="edge">
<title>5&#45;&gt;11</title>
<path fill="none" stroke="black" stroke-dasharray="1,5" d="M227.3,-361.84C162.08,-353.37 0,-327.55 0,-280 0,-280 0,-280 0,-104 0,-70.69 32.96,-46.69 59.21,-32.85"/>
<polygon fill="black" stroke="black" points="61.12,-35.81 68.51,-28.22 57.99,-29.55 61.12,-35.81"/>
<text text-anchor="middle" x="3.5" y="-188.3" font-family="Times,serif" font-size="14.00">4</text>
</g>
<!-- 5&#45;&gt;6 -->
<g id="edge4" class="edge">
<title>5&#45;&gt;6</title>
<path fill="none" stroke="black" stroke-dasharray="1,5" d="M254,-347.8C254,-336.16 254,-320.55 254,-307.24"/>
<polygon fill="black" stroke="black" points="257.5,-307.18 254,-297.18 250.5,-307.18 257.5,-307.18"/>
<text text-anchor="middle" x="257.5" y="-318.8" font-family="Times,serif" font-size="14.00">1</text>
</g>
</g>
</svg>
