<?xml version="1.0" encoding="UTF-8" standalone="no"?>
<!DOCTYPE svg PUBLIC "-//W3C//DTD SVG 1.1//EN"
 "http://www.w3.org/Graphics/SVG/1.1/DTD/svg11.dtd">
<!-- Generated by graphviz version 5.0.0 (0)
 -->
<!-- Title: di_graph Pages: 1 -->
<svg width="206pt" height="566pt"
 viewBox="0.00 0.00 206.00 566.00" xmlns="http://www.w3.org/2000/svg" xmlns:xlink="http://www.w3.org/1999/xlink">
<g id="graph0" class="graph" transform="scale(1 1) rotate(0) translate(4 562)">
<title>di_graph</title>
<polygon fill="white" stroke="transparent" points="-4,4 -4,-562 202,-562 202,4 -4,4"/>
<!-- 2 -->
<g id="node1" class="node">
<title>2</title>
<ellipse fill="none" stroke="black" cx="27" cy="-453" rx="27" ry="18"/>
<text text-anchor="middle" x="27" y="-449.3" font-family="Times,serif" font-size="14.00">2 e</text>
</g>
<!-- 6 -->
<g id="node2" class="node">
<title>6</title>
<ellipse fill="none" stroke="black" cx="120" cy="-279" rx="27" ry="18"/>
<text text-anchor="middle" x="120" y="-275.3" font-family="Times,serif" font-size="14.00">6 e</text>
</g>
<!-- 2&#45;&gt;6 -->
<g id="edge6" class="edge">
<title>2&#45;&gt;6</title>
<path fill="none" stroke="black" d="M21.46,-435.04C15.47,-413.48 8.57,-375.73 23,-348 36.54,-321.98 65.1,-303.84 87.74,-292.89"/>
<polygon fill="black" stroke="black" points="89.39,-295.98 97.02,-288.63 86.47,-289.62 89.39,-295.98"/>
<text text-anchor="middle" x="30" y="-362.3" font-family="Times,serif" font-size="14.00">10</text>
</g>
<!-- 5 -->
<g id="node8" class="node">
<title>5</title>
<ellipse fill="none" stroke="black" cx="73" cy="-366" rx="27" ry="18"/>
<text text-anchor="middle" x="73" y="-362.3" font-family="Times,serif" font-size="14.00">5 e</text>
</g>
<!-- 2&#45;&gt;5 -->
<g id="edge7" class="edge">
<title>2&#45;&gt;5</title>
<path fill="none" stroke="black" d="M35.87,-435.61C42.53,-423.3 51.77,-406.23 59.37,-392.19"/>
<polygon fill="black" stroke="black" points="62.63,-393.51 64.31,-383.05 56.48,-390.18 62.63,-393.51"/>
<text text-anchor="middle" x="63.5" y="-405.8" font-family="Times,serif" font-size="14.00">100</text>
</g>
<!-- 8 -->
<g id="node5" class="node">
<title>8</title>
<ellipse fill="none" stroke="black" cx="85" cy="-192" rx="27" ry="18"/>
<text text-anchor="middle" x="85" y="-188.3" font-family="Times,serif" font-size="14.00">8 e</text>
</g>
<!-- 6&#45;&gt;8 -->
<g id="edge11" class="edge">
<title>6&#45;&gt;8</title>
<path fill="none" stroke="black" d="M113.09,-261.21C108.12,-249.14 101.32,-232.64 95.66,-218.89"/>
<polygon fill="black" stroke="black" points="98.83,-217.38 91.78,-209.47 92.35,-220.05 98.83,-217.38"/>
<text text-anchor="middle" x="111" y="-231.8" font-family="Times,serif" font-size="14.00">14</text>
</g>
<!-- 7 -->
<g id="node9" class="node">
<title>7</title>
<ellipse fill="none" stroke="black" cx="157" cy="-192" rx="27" ry="18"/>
<text text-anchor="middle" x="157" y="-188.3" font-family="Times,serif" font-size="14.00">7 e</text>
</g>
<!-- 6&#45;&gt;7 -->
<g id="edge10" class="edge">
<title>6&#45;&gt;7</title>
<path fill="none" stroke="black" d="M127.13,-261.61C132.37,-249.58 139.6,-232.98 145.63,-219.13"/>
<polygon fill="black" stroke="black" points="148.98,-220.19 149.76,-209.63 142.56,-217.4 148.98,-220.19"/>
<text text-anchor="middle" x="147" y="-231.8" font-family="Times,serif" font-size="14.00">14</text>
</g>
<!-- 3 -->
<g id="node3" class="node">
<title>3</title>
<ellipse fill="none" stroke="black" cx="171" cy="-453" rx="27" ry="18"/>
<text text-anchor="middle" x="171" y="-449.3" font-family="Times,serif" font-size="14.00">3 e</text>
</g>
<!-- 3&#45;&gt;6 -->
<g id="edge14" class="edge">
<title>3&#45;&gt;6</title>
<path fill="none" stroke="black" d="M167.36,-434.89C161.6,-408.72 149.54,-357.33 135,-315 133.98,-312.03 132.82,-308.96 131.61,-305.93"/>
<polygon fill="black" stroke="black" points="134.77,-304.41 127.68,-296.54 128.32,-307.11 134.77,-304.41"/>
<text text-anchor="middle" x="161" y="-362.3" font-family="Times,serif" font-size="14.00">10</text>
</g>
<!-- 3&#45;&gt;5 -->
<g id="edge13" class="edge">
<title>3&#45;&gt;5</title>
<path fill="none" stroke="black" d="M155.25,-438.34C139.49,-424.67 115.03,-403.45 96.87,-387.71"/>
<polygon fill="black" stroke="black" points="98.88,-384.81 89.03,-380.91 94.29,-390.1 98.88,-384.81"/>
<text text-anchor="middle" x="137.5" y="-405.8" font-family="Times,serif" font-size="14.00">100</text>
</g>
<!-- 9 -->
<g id="node4" class="node">
<title>9</title>
<ellipse fill="none" stroke="black" cx="121" cy="-105" rx="27" ry="18"/>
<text text-anchor="middle" x="121" y="-101.3" font-family="Times,serif" font-size="14.00">9 e</text>
</g>
<!-- 10 -->
<g id="node10" class="node">
<title>10</title>
<ellipse fill="none" stroke="black" cx="121" cy="-18" rx="27" ry="18"/>
<text text-anchor="middle" x="121" y="-14.3" font-family="Times,serif" font-size="14.00">10 e</text>
</g>
<!-- 9&#45;&gt;10 -->
<g id="edge12" class="edge">
<title>9&#45;&gt;10</title>
<path fill="none" stroke="black" d="M121,-86.8C121,-75.16 121,-59.55 121,-46.24"/>
<polygon fill="black" stroke="black" points="124.5,-46.18 121,-36.18 117.5,-46.18 124.5,-46.18"/>
<text text-anchor="middle" x="124.5" y="-57.8" font-family="Times,serif" font-size="14.00">0</text>
</g>
<!-- 8&#45;&gt;9 -->
<g id="edge8" class="edge">
<title>8&#45;&gt;9</title>
<path fill="none" stroke="black" d="M92.11,-174.21C97.22,-162.14 104.21,-145.64 110.03,-131.89"/>
<polygon fill="black" stroke="black" points="113.35,-133.04 114.02,-122.47 106.9,-130.31 113.35,-133.04"/>
<text text-anchor="middle" x="108.5" y="-144.8" font-family="Times,serif" font-size="14.00">0</text>
</g>
<!-- 1 -->
<g id="node6" class="node">
<title>1</title>
<ellipse fill="none" stroke="black" cx="99" cy="-540" rx="27" ry="18"/>
<text text-anchor="middle" x="99" y="-536.3" font-family="Times,serif" font-size="14.00">1 e</text>
</g>
<!-- 1&#45;&gt;2 -->
<g id="edge4" class="edge">
<title>1&#45;&gt;2</title>
<path fill="none" stroke="black" d="M86.13,-523.8C75.07,-510.75 58.96,-491.74 46.35,-476.85"/>
<polygon fill="black" stroke="black" points="48.89,-474.43 39.76,-469.06 43.55,-478.96 48.89,-474.43"/>
<text text-anchor="middle" x="71.5" y="-492.8" font-family="Times,serif" font-size="14.00">0</text>
</g>
<!-- 1&#45;&gt;3 -->
<g id="edge3" class="edge">
<title>1&#45;&gt;3</title>
<path fill="none" stroke="black" d="M111.87,-523.8C122.93,-510.75 139.04,-491.74 151.65,-476.85"/>
<polygon fill="black" stroke="black" points="154.45,-478.96 158.24,-469.06 149.11,-474.43 154.45,-478.96"/>
<text text-anchor="middle" x="142.5" y="-492.8" font-family="Times,serif" font-size="14.00">0</text>
</g>
<!-- 4 -->
<g id="node7" class="node">
<title>4</title>
<ellipse fill="none" stroke="black" cx="99" cy="-453" rx="27" ry="18"/>
<text text-anchor="middle" x="99" y="-449.3" font-family="Times,serif" font-size="14.00">4 e</text>
</g>
<!-- 1&#45;&gt;4 -->
<g id="edge5" class="edge">
<title>1&#45;&gt;4</title>
<path fill="none" stroke="black" d="M99,-521.8C99,-510.16 99,-494.55 99,-481.24"/>
<polygon fill="black" stroke="black" points="102.5,-481.18 99,-471.18 95.5,-481.18 102.5,-481.18"/>
<text text-anchor="middle" x="102.5" y="-492.8" font-family="Times,serif" font-size="14.00">0</text>
</g>
<!-- 4&#45;&gt;6 -->
<g id="edge2" class="edge">
<title>4&#45;&gt;6</title>
<path fill="none" stroke="black" d="M106.85,-435.62C109.25,-429.86 111.63,-423.26 113,-417 121.19,-379.62 121.86,-335.2 121.22,-307.29"/>
<polygon fill="black" stroke="black" points="124.71,-307 120.91,-297.11 117.72,-307.21 124.71,-307"/>
<text text-anchor="middle" x="127" y="-362.3" font-family="Times,serif" font-size="14.00">10</text>
</g>
<!-- 4&#45;&gt;5 -->
<g id="edge1" class="edge">
<title>4&#45;&gt;5</title>
<path fill="none" stroke="black" d="M93.86,-435.21C90.23,-423.33 85.29,-407.17 81.12,-393.56"/>
<polygon fill="black" stroke="black" points="84.4,-392.3 78.13,-383.76 77.7,-394.34 84.4,-392.3"/>
<text text-anchor="middle" x="98.5" y="-405.8" font-family="Times,serif" font-size="14.00">100</text>
</g>
<!-- 5&#45;&gt;6 -->
<g id="edge9" class="edge">
<title>5&#45;&gt;6</title>
<path fill="none" stroke="black" d="M82.06,-348.61C88.87,-336.3 98.31,-319.23 106.07,-305.19"/>
<polygon fill="black" stroke="black" points="109.35,-306.5 111.13,-296.05 103.22,-303.11 109.35,-306.5"/>
<text text-anchor="middle" x="102.5" y="-318.8" font-family="Times,serif" font-size="14.00">1</text>
</g>
<!-- 7&#45;&gt;9 -->
<g id="edge15" class="edge">
<title>7&#45;&gt;9</title>
<path fill="none" stroke="black" d="M149.89,-174.21C144.78,-162.14 137.79,-145.64 131.97,-131.89"/>
<polygon fill="black" stroke="black" points="135.1,-130.31 127.98,-122.47 128.65,-133.04 135.1,-130.31"/>
<text text-anchor="middle" x="144.5" y="-144.8" font-family="Times,serif" font-size="14.00">0</text>
</g>
</g>
</svg>
