<?xml version="1.0" encoding="UTF-8" standalone="no"?>
<!DOCTYPE svg PUBLIC "-//W3C//DTD SVG 1.1//EN"
 "http://www.w3.org/Graphics/SVG/1.1/DTD/svg11.dtd">
<!-- Generated by graphviz version 10.0.1 (20240210.2158)
 -->
<!-- Title: di_graph Pages: 1 -->
<svg width="386pt" height="398pt"
 viewBox="0.00 0.00 386.00 398.00" xmlns="http://www.w3.org/2000/svg" xmlns:xlink="http://www.w3.org/1999/xlink">
<g id="graph0" class="graph" transform="scale(1 1) rotate(0) translate(4 394)">
<title>di_graph</title>
<polygon fill="white" stroke="none" points="-4,4 -4,-394 382,-394 382,4 -4,4"/>
<!-- 10 -->
<g id="node1" class="node">
<title>10</title>
<ellipse fill="none" stroke="black" cx="99" cy="-106.5" rx="27" ry="18"/>
<text text-anchor="middle" x="99" y="-101.45" font-family="Times,serif" font-size="14.00">10</text>
</g>
<!-- 11 -->
<g id="node8" class="node">
<title>11</title>
<ellipse fill="none" stroke="green" stroke-width="2" cx="124" cy="-18" rx="27" ry="18"/>
<text text-anchor="middle" x="124" y="-12.95" font-family="Times,serif" font-size="14.00">11</text>
</g>
<!-- 10&#45;&gt;11 -->
<g id="edge4" class="edge">
<title>10&#45;&gt;11</title>
<path fill="none" stroke="black" stroke-dasharray="1,5" d="M103.94,-88.41C107.36,-76.56 112,-60.52 115.95,-46.84"/>
<polygon fill="black" stroke="black" points="119.24,-48.09 118.65,-37.51 112.51,-46.14 119.24,-48.09"/>
<text text-anchor="middle" x="117.38" y="-57.2" font-family="Times,serif" font-size="14.00">1</text>
</g>
<!-- 3 -->
<g id="node2" class="node">
<title>3</title>
<ellipse fill="none" stroke="black" cx="243" cy="-195" rx="27" ry="18"/>
<text text-anchor="middle" x="243" y="-189.95" font-family="Times,serif" font-size="14.00">3</text>
</g>
<!-- 5 -->
<g id="node10" class="node">
<title>5</title>
<ellipse fill="none" stroke="black" cx="243" cy="-106.5" rx="27" ry="18"/>
<text text-anchor="middle" x="243" y="-101.45" font-family="Times,serif" font-size="14.00">5</text>
</g>
<!-- 3&#45;&gt;5 -->
<g id="edge6" class="edge">
<title>3&#45;&gt;5</title>
<path fill="none" stroke="black" stroke-dasharray="1,5" d="M243,-176.91C243,-165.26 243,-149.55 243,-136.02"/>
<polygon fill="black" stroke="black" points="246.5,-136.36 243,-126.36 239.5,-136.36 246.5,-136.36"/>
<text text-anchor="middle" x="246.38" y="-145.7" font-family="Times,serif" font-size="14.00">3</text>
</g>
<!-- 1 -->
<g id="node3" class="node">
<title>1</title>
<ellipse fill="none" stroke="green" stroke-width="2" cx="243" cy="-283.5" rx="27" ry="18"/>
<text text-anchor="middle" x="243" y="-278.45" font-family="Times,serif" font-size="14.00">1</text>
</g>
<!-- 1&#45;&gt;3 -->
<g id="edge2" class="edge">
<title>1&#45;&gt;3</title>
<path fill="none" stroke="black" stroke-dasharray="1,5" d="M243,-265.41C243,-253.76 243,-238.05 243,-224.52"/>
<polygon fill="black" stroke="black" points="246.5,-224.86 243,-214.86 239.5,-224.86 246.5,-224.86"/>
<text text-anchor="middle" x="246.38" y="-234.2" font-family="Times,serif" font-size="14.00">1</text>
</g>
<!-- 2 -->
<g id="node4" class="node">
<title>2</title>
<ellipse fill="none" stroke="green" cx="315" cy="-195" rx="27" ry="18"/>
<text text-anchor="middle" x="315" y="-189.95" font-family="Times,serif" font-size="14.00">2</text>
</g>
<!-- 1&#45;&gt;2 -->
<g id="edge1" class="edge">
<title>1&#45;&gt;2</title>
<path fill="none" stroke="black" d="M255.54,-267.43C266.52,-254.24 282.66,-234.86 295.35,-219.61"/>
<polygon fill="black" stroke="black" points="297.68,-222.27 301.39,-212.35 292.3,-217.79 297.68,-222.27"/>
<text text-anchor="middle" x="289.38" y="-234.2" font-family="Times,serif" font-size="14.00">1</text>
</g>
<!-- 4 -->
<g id="node9" class="node">
<title>4</title>
<ellipse fill="none" stroke="green" cx="351" cy="-106.5" rx="27" ry="18"/>
<text text-anchor="middle" x="351" y="-101.45" font-family="Times,serif" font-size="14.00">4</text>
</g>
<!-- 2&#45;&gt;4 -->
<g id="edge5" class="edge">
<title>2&#45;&gt;4</title>
<path fill="none" stroke="black" d="M321.94,-177.32C326.97,-165.24 333.88,-148.63 339.7,-134.64"/>
<polygon fill="black" stroke="black" points="342.89,-136.1 343.5,-125.52 336.42,-133.41 342.89,-136.1"/>
<text text-anchor="middle" x="340.38" y="-145.7" font-family="Times,serif" font-size="14.00">2</text>
</g>
<!-- 6 -->
<g id="node5" class="node">
<title>6</title>
<ellipse fill="none" stroke="green" cx="215" cy="-372" rx="27" ry="18"/>
<text text-anchor="middle" x="215" y="-366.95" font-family="Times,serif" font-size="14.00">6</text>
</g>
<!-- 6&#45;&gt;1 -->
<g id="edge11" class="edge">
<title>6&#45;&gt;1</title>
<path fill="none" stroke="black" stroke-dasharray="1,5" d="M220.53,-353.91C224.37,-342.06 229.56,-326.02 233.99,-312.34"/>
<polygon fill="black" stroke="black" points="237.26,-313.59 237.01,-302.99 230.6,-311.43 237.26,-313.59"/>
<text text-anchor="middle" x="235.38" y="-322.7" font-family="Times,serif" font-size="14.00">1</text>
</g>
<!-- 7 -->
<g id="node7" class="node">
<title>7</title>
<ellipse fill="none" stroke="green" cx="116" cy="-195" rx="27" ry="18"/>
<text text-anchor="middle" x="116" y="-189.95" font-family="Times,serif" font-size="14.00">7</text>
</g>
<!-- 6&#45;&gt;7 -->
<g id="edge10" class="edge">
<title>6&#45;&gt;7</title>
<path fill="none" stroke="black" d="M196.94,-358.61C189.09,-352.52 180.27,-344.63 174,-336 148.74,-301.24 132.1,-253.85 123.37,-224.1"/>
<polygon fill="black" stroke="black" points="126.8,-223.38 120.72,-214.7 120.07,-225.28 126.8,-223.38"/>
<text text-anchor="middle" x="156.38" y="-278.45" font-family="Times,serif" font-size="14.00">1</text>
</g>
<!-- 9 -->
<g id="node6" class="node">
<title>9</title>
<ellipse fill="none" stroke="black" cx="171" cy="-106.5" rx="27" ry="18"/>
<text text-anchor="middle" x="171" y="-101.45" font-family="Times,serif" font-size="14.00">9</text>
</g>
<!-- 9&#45;&gt;11 -->
<g id="edge15" class="edge">
<title>9&#45;&gt;11</title>
<path fill="none" stroke="black" stroke-dasharray="1,5" d="M162.16,-89.23C155.4,-76.79 145.94,-59.38 138.13,-45.01"/>
<polygon fill="black" stroke="black" points="141.37,-43.64 133.52,-36.53 135.22,-46.98 141.37,-43.64"/>
<text text-anchor="middle" x="155.38" y="-57.2" font-family="Times,serif" font-size="14.00">1</text>
</g>
<!-- 7&#45;&gt;10 -->
<g id="edge12" class="edge">
<title>7&#45;&gt;10</title>
<path fill="none" stroke="black" stroke-dasharray="1,5" d="M112.64,-176.91C110.35,-165.26 107.26,-149.55 104.6,-136.02"/>
<polygon fill="black" stroke="black" points="108.06,-135.47 102.7,-126.34 101.2,-136.82 108.06,-135.47"/>
<text text-anchor="middle" x="113.38" y="-145.7" font-family="Times,serif" font-size="14.00">3</text>
</g>
<!-- 7&#45;&gt;9 -->
<g id="edge14" class="edge">
<title>7&#45;&gt;9</title>
<path fill="none" stroke="black" stroke-dasharray="1,5" d="M126.09,-178.13C134.1,-165.53 145.46,-147.66 154.75,-133.05"/>
<polygon fill="black" stroke="black" points="157.57,-135.15 159.98,-124.84 151.66,-131.4 157.57,-135.15"/>
<text text-anchor="middle" x="152.38" y="-145.7" font-family="Times,serif" font-size="14.00">2</text>
</g>
<!-- 8 -->
<g id="node11" class="node">
<title>8</title>
<ellipse fill="none" stroke="green" cx="27" cy="-106.5" rx="27" ry="18"/>
<text text-anchor="middle" x="27" y="-101.45" font-family="Times,serif" font-size="14.00">8</text>
</g>
<!-- 7&#45;&gt;8 -->
<g id="edge13" class="edge">
<title>7&#45;&gt;8</title>
<path fill="none" stroke="black" d="M101.3,-179.72C87.26,-166.07 65.89,-145.3 49.67,-129.53"/>
<polygon fill="black" stroke="black" points="52.41,-127.32 42.8,-122.86 47.54,-132.34 52.41,-127.32"/>
<text text-anchor="middle" x="83.38" y="-145.7" font-family="Times,serif" font-size="14.00">1</text>
</g>
<!-- 4&#45;&gt;6 -->
<g id="edge9" class="edge">
<title>4&#45;&gt;6</title>
<path fill="none" stroke="black" d="M354.41,-124.53C357.92,-145.9 361.55,-183.32 351,-213 329.84,-272.54 274.29,-324.35 241.1,-351.29"/>
<polygon fill="black" stroke="black" points="239.22,-348.31 233.56,-357.27 243.57,-353.8 239.22,-348.31"/>
<text text-anchor="middle" x="346.38" y="-234.2" font-family="Times,serif" font-size="14.00">1</text>
</g>
<!-- 5&#45;&gt;6 -->
<g id="edge8" class="edge">
<title>5&#45;&gt;6</title>
<path fill="none" stroke="black" stroke-dasharray="1,5" d="M232.08,-123.19C223.35,-136.74 211.82,-157.2 207,-177 193,-234.48 201.95,-304.33 208.97,-342.57"/>
<polygon fill="black" stroke="black" points="205.52,-343.18 210.86,-352.33 212.4,-341.85 205.52,-343.18"/>
<text text-anchor="middle" x="203.38" y="-234.2" font-family="Times,serif" font-size="14.00">1</text>
</g>
<!-- 5&#45;&gt;11 -->
<g id="edge7" class="edge">
<title>5&#45;&gt;11</title>
<path fill="none" stroke="black" stroke-dasharray="1,5" d="M225.18,-92.55C205.44,-78.2 173.39,-54.9 150.66,-38.38"/>
<polygon fill="black" stroke="black" points="152.92,-35.69 142.77,-32.65 148.8,-41.36 152.92,-35.69"/>
<text text-anchor="middle" x="198.38" y="-57.2" font-family="Times,serif" font-size="14.00">4</text>
</g>
<!-- 8&#45;&gt;11 -->
<g id="edge3" class="edge">
<title>8&#45;&gt;11</title>
<path fill="none" stroke="black" d="M42.58,-91.6C58.14,-77.73 82.25,-56.23 100.2,-40.22"/>
<polygon fill="black" stroke="black" points="102.19,-43.14 107.32,-33.87 97.53,-37.91 102.19,-43.14"/>
<text text-anchor="middle" x="88.38" y="-57.2" font-family="Times,serif" font-size="14.00">1</text>
</g>
</g>
</svg>
