<?xml version="1.0" encoding="UTF-8" standalone="no"?>
<!DOCTYPE svg PUBLIC "-//W3C//DTD SVG 1.1//EN"
 "http://www.w3.org/Graphics/SVG/1.1/DTD/svg11.dtd">
<!-- Generated by graphviz version 5.0.0 (0)
 -->
<!-- Title: di_graph Pages: 1 -->
<svg width="386pt" height="392pt"
 viewBox="0.00 0.00 386.00 392.00" xmlns="http://www.w3.org/2000/svg" xmlns:xlink="http://www.w3.org/1999/xlink">
<g id="graph0" class="graph" transform="scale(1 1) rotate(0) translate(4 388)">
<title>di_graph</title>
<polygon fill="white" stroke="transparent" points="-4,4 -4,-388 382,-388 382,4 -4,4"/>
<!-- 8 -->
<g id="node1" class="node">
<title>8</title>
<ellipse fill="none" stroke="green" cx="99" cy="-105" rx="27" ry="18"/>
<text text-anchor="middle" x="99" y="-101.3" font-family="Times,serif" font-size="14.00">8 h</text>
</g>
<!-- 11 -->
<g id="node10" class="node">
<title>11</title>
<ellipse fill="none" stroke="green" stroke-width="2" cx="135" cy="-18" rx="27" ry="18"/>
<text text-anchor="middle" x="135" y="-14.3" font-family="Times,serif" font-size="14.00">11 i</text>
</g>
<!-- 8&#45;&gt;11 -->
<g id="edge3" class="edge">
<title>8&#45;&gt;11</title>
<path fill="none" stroke="black" d="M106.11,-87.21C111.22,-75.14 118.21,-58.64 124.03,-44.89"/>
<polygon fill="black" stroke="black" points="127.35,-46.04 128.02,-35.47 120.9,-43.31 127.35,-46.04"/>
<text text-anchor="middle" x="123.5" y="-57.8" font-family="Times,serif" font-size="14.00">1</text>
</g>
<!-- 9 -->
<g id="node2" class="node">
<title>9</title>
<ellipse fill="none" stroke="black" cx="171" cy="-105" rx="27" ry="18"/>
<text text-anchor="middle" x="171" y="-101.3" font-family="Times,serif" font-size="14.00">9 y</text>
</g>
<!-- 9&#45;&gt;11 -->
<g id="edge4" class="edge">
<title>9&#45;&gt;11</title>
<path fill="none" stroke="black" stroke-dasharray="1,5" d="M163.89,-87.21C158.78,-75.14 151.79,-58.64 145.97,-44.89"/>
<polygon fill="black" stroke="black" points="149.1,-43.31 141.98,-35.47 142.65,-46.04 149.1,-43.31"/>
<text text-anchor="middle" x="159.5" y="-57.8" font-family="Times,serif" font-size="14.00">1</text>
</g>
<!-- 7 -->
<g id="node3" class="node">
<title>7</title>
<ellipse fill="none" stroke="green" cx="125" cy="-192" rx="27" ry="18"/>
<text text-anchor="middle" x="125" y="-188.3" font-family="Times,serif" font-size="14.00">7 g</text>
</g>
<!-- 7&#45;&gt;8 -->
<g id="edge8" class="edge">
<title>7&#45;&gt;8</title>
<path fill="none" stroke="black" d="M119.86,-174.21C116.23,-162.33 111.29,-146.17 107.12,-132.56"/>
<polygon fill="black" stroke="black" points="110.4,-131.3 104.13,-122.76 103.7,-133.34 110.4,-131.3"/>
<text text-anchor="middle" x="117.5" y="-144.8" font-family="Times,serif" font-size="14.00">1</text>
</g>
<!-- 7&#45;&gt;9 -->
<g id="edge7" class="edge">
<title>7&#45;&gt;9</title>
<path fill="none" stroke="black" stroke-dasharray="1,5" d="M133.87,-174.61C140.53,-162.3 149.77,-145.23 157.37,-131.19"/>
<polygon fill="black" stroke="black" points="160.63,-132.51 162.31,-122.05 154.48,-129.18 160.63,-132.51"/>
<text text-anchor="middle" x="154.5" y="-144.8" font-family="Times,serif" font-size="14.00">2</text>
</g>
<!-- 10 -->
<g id="node11" class="node">
<title>10</title>
<ellipse fill="none" stroke="black" cx="27" cy="-105" rx="27" ry="18"/>
<text text-anchor="middle" x="27" y="-101.3" font-family="Times,serif" font-size="14.00">10 u</text>
</g>
<!-- 7&#45;&gt;10 -->
<g id="edge6" class="edge">
<title>7&#45;&gt;10</title>
<path fill="none" stroke="black" stroke-dasharray="1,5" d="M109.25,-177.34C93.49,-163.67 69.03,-142.45 50.87,-126.71"/>
<polygon fill="black" stroke="black" points="52.88,-123.81 43.03,-119.91 48.29,-129.1 52.88,-123.81"/>
<text text-anchor="middle" x="85.5" y="-144.8" font-family="Times,serif" font-size="14.00">3</text>
</g>
<!-- 1 -->
<g id="node4" class="node">
<title>1</title>
<ellipse fill="none" stroke="green" stroke-width="2" cx="243" cy="-279" rx="27" ry="18"/>
<text text-anchor="middle" x="243" y="-275.3" font-family="Times,serif" font-size="14.00">1 a</text>
</g>
<!-- 2 -->
<g id="node8" class="node">
<title>2</title>
<ellipse fill="none" stroke="green" cx="315" cy="-192" rx="27" ry="18"/>
<text text-anchor="middle" x="315" y="-188.3" font-family="Times,serif" font-size="14.00">2 b</text>
</g>
<!-- 1&#45;&gt;2 -->
<g id="edge11" class="edge">
<title>1&#45;&gt;2</title>
<path fill="none" stroke="black" d="M255.87,-262.8C266.93,-249.75 283.04,-230.74 295.65,-215.85"/>
<polygon fill="black" stroke="black" points="298.45,-217.96 302.24,-208.06 293.11,-213.43 298.45,-217.96"/>
<text text-anchor="middle" x="286.5" y="-231.8" font-family="Times,serif" font-size="14.00">1</text>
</g>
<!-- 3 -->
<g id="node9" class="node">
<title>3</title>
<ellipse fill="none" stroke="black" cx="243" cy="-192" rx="27" ry="18"/>
<text text-anchor="middle" x="243" y="-188.3" font-family="Times,serif" font-size="14.00">3 c</text>
</g>
<!-- 1&#45;&gt;3 -->
<g id="edge12" class="edge">
<title>1&#45;&gt;3</title>
<path fill="none" stroke="black" stroke-dasharray="1,5" d="M243,-260.8C243,-249.16 243,-233.55 243,-220.24"/>
<polygon fill="black" stroke="black" points="246.5,-220.18 243,-210.18 239.5,-220.18 246.5,-220.18"/>
<text text-anchor="middle" x="246.5" y="-231.8" font-family="Times,serif" font-size="14.00">1</text>
</g>
<!-- 5 -->
<g id="node5" class="node">
<title>5</title>
<ellipse fill="none" stroke="black" cx="243" cy="-105" rx="27" ry="18"/>
<text text-anchor="middle" x="243" y="-101.3" font-family="Times,serif" font-size="14.00">5 e</text>
</g>
<!-- 6 -->
<g id="node6" class="node">
<title>6</title>
<ellipse fill="none" stroke="green" cx="210" cy="-366" rx="27" ry="18"/>
<text text-anchor="middle" x="210" y="-362.3" font-family="Times,serif" font-size="14.00">6 f</text>
</g>
<!-- 5&#45;&gt;6 -->
<g id="edge1" class="edge">
<title>5&#45;&gt;6</title>
<path fill="none" stroke="black" stroke-dasharray="1,5" d="M231.9,-121.58C223.21,-134.82 211.8,-154.68 207,-174 192.85,-230.98 199.7,-300.49 205.28,-337.95"/>
<polygon fill="black" stroke="black" points="201.86,-338.73 206.87,-348.07 208.77,-337.64 201.86,-338.73"/>
<text text-anchor="middle" x="202.5" y="-231.8" font-family="Times,serif" font-size="14.00">1</text>
</g>
<!-- 5&#45;&gt;11 -->
<g id="edge2" class="edge">
<title>5&#45;&gt;11</title>
<path fill="none" stroke="black" stroke-dasharray="1,5" d="M226.12,-90.72C208.29,-76.68 179.99,-54.41 159.66,-38.41"/>
<polygon fill="black" stroke="black" points="161.78,-35.62 151.76,-32.19 157.45,-41.12 161.78,-35.62"/>
<text text-anchor="middle" x="198.5" y="-57.8" font-family="Times,serif" font-size="14.00">4</text>
</g>
<!-- 6&#45;&gt;7 -->
<g id="edge14" class="edge">
<title>6&#45;&gt;7</title>
<path fill="none" stroke="black" d="M193.29,-351.7C186.56,-345.66 179.19,-338.06 174,-330 151.61,-295.18 137.81,-248.8 130.77,-219.93"/>
<polygon fill="black" stroke="black" points="134.17,-219.08 128.48,-210.14 127.35,-220.67 134.17,-219.08"/>
<text text-anchor="middle" x="160.5" y="-275.3" font-family="Times,serif" font-size="14.00">1</text>
</g>
<!-- 6&#45;&gt;1 -->
<g id="edge15" class="edge">
<title>6&#45;&gt;1</title>
<path fill="none" stroke="black" stroke-dasharray="1,5" d="M216.52,-348.21C221.18,-336.22 227.53,-319.85 232.84,-306.16"/>
<polygon fill="black" stroke="black" points="236.14,-307.35 236.49,-296.76 229.61,-304.81 236.14,-307.35"/>
<text text-anchor="middle" x="231.5" y="-318.8" font-family="Times,serif" font-size="14.00">1</text>
</g>
<!-- 4 -->
<g id="node7" class="node">
<title>4</title>
<ellipse fill="none" stroke="green" cx="351" cy="-105" rx="27" ry="18"/>
<text text-anchor="middle" x="351" y="-101.3" font-family="Times,serif" font-size="14.00">4 d</text>
</g>
<!-- 4&#45;&gt;6 -->
<g id="edge5" class="edge">
<title>4&#45;&gt;6</title>
<path fill="none" stroke="black" d="M354.46,-123.18C357.95,-144.31 361.46,-180.95 351,-210 329.35,-270.11 271.05,-320.69 236.57,-346.53"/>
<polygon fill="black" stroke="black" points="234.35,-343.82 228.36,-352.56 238.49,-349.46 234.35,-343.82"/>
<text text-anchor="middle" x="345.5" y="-231.8" font-family="Times,serif" font-size="14.00">1</text>
</g>
<!-- 2&#45;&gt;4 -->
<g id="edge9" class="edge">
<title>2&#45;&gt;4</title>
<path fill="none" stroke="black" d="M322.11,-174.21C327.22,-162.14 334.21,-145.64 340.03,-131.89"/>
<polygon fill="black" stroke="black" points="343.35,-133.04 344.02,-122.47 336.9,-130.31 343.35,-133.04"/>
<text text-anchor="middle" x="338.5" y="-144.8" font-family="Times,serif" font-size="14.00">2</text>
</g>
<!-- 3&#45;&gt;5 -->
<g id="edge10" class="edge">
<title>3&#45;&gt;5</title>
<path fill="none" stroke="black" stroke-dasharray="1,5" d="M243,-173.8C243,-162.16 243,-146.55 243,-133.24"/>
<polygon fill="black" stroke="black" points="246.5,-133.18 243,-123.18 239.5,-133.18 246.5,-133.18"/>
<text text-anchor="middle" x="246.5" y="-144.8" font-family="Times,serif" font-size="14.00">3</text>
</g>
<!-- 10&#45;&gt;11 -->
<g id="edge13" class="edge">
<title>10&#45;&gt;11</title>
<path fill="none" stroke="black" stroke-dasharray="1,5" d="M43.88,-90.72C61.71,-76.68 90.01,-54.41 110.34,-38.41"/>
<polygon fill="black" stroke="black" points="112.55,-41.12 118.24,-32.19 108.22,-35.62 112.55,-41.12"/>
<text text-anchor="middle" x="91.5" y="-57.8" font-family="Times,serif" font-size="14.00">1</text>
</g>
</g>
</svg>
